<?xml version="1.0" encoding="UTF-8" standalone="no"?>
<!-- Created with Inkscape (http://www.inkscape.org/) -->

<svg
   xmlns:dc="http://purl.org/dc/elements/1.1/"
   xmlns:cc="http://creativecommons.org/ns#"
   xmlns:rdf="http://www.w3.org/1999/02/22-rdf-syntax-ns#"
   xmlns:svg="http://www.w3.org/2000/svg"
   xmlns="http://www.w3.org/2000/svg"
   xmlns:inkscape="http://www.inkscape.org/namespaces/inkscape"
   version="1.1"
   width="196.25"
   height="192.5"
   id="svg2"
   xml:space="preserve"><metadata
     id="metadata8"><rdf:RDF><cc:Work
         rdf:about=""><dc:format>image/svg+xml</dc:format><dc:type
           rdf:resource="http://purl.org/dc/dcmitype/StillImage" /></cc:Work></rdf:RDF></metadata><defs
     id="defs6"><clipPath
       id="clipPath16"><path
         d="m 0,0 595.276,0 0,841.89 L 0,841.89 0,0 z"
         inkscape:connector-curvature="0"
         id="path18" /></clipPath><clipPath
       id="clipPath20"><path
         d="m 0,0 1023.0887,0 0,1521.8199 L 0,1521.8199 0,0 z"
         inkscape:connector-curvature="0"
         id="path22" /></clipPath><clipPath
       id="clipPath24"><path
         d="m 0,0 1023.0887,0 0,1521.8199 L 0,1521.8199 0,0 z"
         inkscape:connector-curvature="0"
         id="path26" /></clipPath></defs><g
     transform="matrix(1.25,0,0,-1.25,0,192.5)"
     id="g10"><g
       transform="translate(-71,-618)"
       id="g12"><g
         id="g14" /><g
         id="g28"><g
           clip-path="url(#clipPath16)"
           id="g30"><g
             transform="translate(70.866,618.842)"
             id="g32"><g
               transform="scale(0.09999,0.09999)"
               id="g34"><g
                 id="g36"><g
                   id="g38" /><g
                   id="g40"><g
                     clip-path="url(#clipPath20)"
                     id="g42"><g
                       transform="matrix(1,0,0,-1,0,1521.8199)"
                       id="g44"><g
                         id="g46"><g
                           id="g48"><path
                             d="m 117.387,1516.805 0,-1508.364"
                             inkscape:connector-curvature="0"
                             id="path50"
                             style="fill:none;stroke:#000000;stroke-width:2.83464599;stroke-linecap:butt;stroke-linejoin:miter;stroke-miterlimit:4;stroke-opacity:1;stroke-dasharray:none" /></g><g
                           transform="matrix(0,1,-1,0,0,0)"
                           id="g52"><path
                             d="m 36.789,-117.387 11.34,-11.34 -39.688,11.34 39.688,11.34 -11.34,-11.34 z"
                             inkscape:connector-curvature="0"
                             id="path54"
                             style="fill:#000000;fill-opacity:1;fill-rule:evenodd;stroke:#000000;stroke-width:3.02362204;stroke-linecap:butt;stroke-linejoin:miter;stroke-miterlimit:4;stroke-opacity:1;stroke-dasharray:none" /></g><g
                           id="g56"><path
                             d="m 2.512,816.77 1013.265,0"
                             inkscape:connector-curvature="0"
                             id="path58"
                             style="fill:none;stroke:#000000;stroke-width:2.83464599;stroke-linecap:butt;stroke-linejoin:miter;stroke-miterlimit:4;stroke-opacity:1;stroke-dasharray:none" /></g><g
                           transform="scale(-1,-1)"
                           id="g60"><path
                             d="m -987.43,-816.77 11.34,-11.339 -39.687,11.339 39.687,11.34 -11.34,-11.34 z"
                             inkscape:connector-curvature="0"
                             id="path62"
                             style="fill:#000000;fill-opacity:1;fill-rule:evenodd;stroke:#000000;stroke-width:3.02362204;stroke-linecap:butt;stroke-linejoin:miter;stroke-miterlimit:4;stroke-opacity:1;stroke-dasharray:none" /></g></g></g></g></g></g></g><g
               transform="translate(-70.866,-618.842)"
               id="g64"><text
                 transform="matrix(1,0,0,-1,117.192,673.796)"
                 id="text66"><tspan
                   x="0"
                   y="0"
                   id="tspan68"
                   style="font-size:11.9552002px;font-variant:normal;font-weight:normal;writing-mode:lr-tb;fill:#000000;fill-opacity:1;fill-rule:nonzero;stroke:none;font-family:LMMathItalic12;-inkscape-font-specification:LMMathItalic12-Regular">x</tspan></text>
<text
                 transform="matrix(1,0,0,-1,123.844,678.135)"
                 id="text70"><tspan
                   x="0"
                   y="0"
                   id="tspan72"
                   style="font-size:7.97009993px;font-variant:normal;font-weight:normal;writing-mode:lr-tb;fill:#000000;fill-opacity:1;fill-rule:nonzero;stroke:none;font-family:LMRoman8;-inkscape-font-specification:LMRoman8-Regular">2</tspan></text>
<text
                 transform="matrix(1,0,0,-1,131.233,673.796)"
                 id="text74"><tspan
                   x="0"
                   y="0"
                   id="tspan76"
                   style="font-size:11.9552002px;font-variant:normal;font-weight:normal;writing-mode:lr-tb;fill:#000000;fill-opacity:1;fill-rule:nonzero;stroke:none;font-family:LMMathSymbols10;-inkscape-font-specification:LMMathSymbols10-Regular">−</tspan></text>
<text
                 transform="matrix(1,0,0,-1,143.188,673.796)"
                 id="text78"><tspan
                   x="0"
                   y="0"
                   id="tspan80"
                   style="font-size:11.9552002px;font-variant:normal;font-weight:normal;writing-mode:lr-tb;fill:#000000;fill-opacity:1;fill-rule:nonzero;stroke:none;font-family:LMMathItalic12;-inkscape-font-specification:LMMathItalic12-Regular">y</tspan></text>
<text
                 transform="matrix(1,0,0,-1,149.325,678.135)"
                 id="text82"><tspan
                   x="0"
                   y="0"
                   id="tspan84"
                   style="font-size:7.97009993px;font-variant:normal;font-weight:normal;writing-mode:lr-tb;fill:#000000;fill-opacity:1;fill-rule:nonzero;stroke:none;font-family:LMRoman8;-inkscape-font-specification:LMRoman8-Regular">2</tspan></text>
<text
                 transform="matrix(1,0,0,-1,157.378,673.796)"
                 id="text86"><tspan
                   x="0 12.428626"
                   y="0"
                   id="tspan88"
                   style="font-size:11.9552002px;font-variant:normal;font-weight:normal;writing-mode:lr-tb;fill:#000000;fill-opacity:1;fill-rule:nonzero;stroke:none;font-family:LMRoman12;-inkscape-font-specification:LMRoman12-Regular">=1</tspan></text>
<g
                 transform="translate(70.866,618.842)"
                 id="g90"><g
                   transform="scale(0.09999,0.09999)"
                   id="g92"><g
                     id="g94"><g
                       id="g96" /><g
                       id="g98"><g
                         clip-path="url(#clipPath24)"
                         id="g100"><g
                           transform="matrix(1,0,0,-1,0,1521.8199)"
                           id="g102"><g
                             id="g104"><g
                               id="g106"><path
                                 d="m 402.727,819.039 0,-4.758 0.078,-4.777 0.179,-4.754 0.239,-4.758 0.312,-4.758 0.16,-1.796 0.235,-2.961 0.496,-4.774 0.551,-4.758 0.632,-4.757 0.711,-4.758 0.571,-3.434 0.218,-1.344 0.868,-4.754 0.949,-4.757 1.008,-4.778 1.082,-4.758 1.168,-4.757 1.105,-4.243 1.438,-5.289 1.382,-4.757 0.375,-1.243 1.067,-3.515 1.519,-4.754 0.633,-1.856 0.965,-2.902 1.641,-4.777 0.589,-1.617 1.125,-3.141 1.778,-4.758 1.855,-4.754 1.641,-4.125 2.23,-5.41 0.965,-2.289 1.047,-2.469 2.094,-4.758 2.148,-4.773 1.125,-2.43 1.067,-2.328 2.132,-4.5 2.426,-5.035 0.774,-1.539 1.597,-3.215 1.598,-3.18 0.809,-1.578 2.39,-4.64 2.586,-4.895 0.629,-1.144 1.938,-3.614 1.261,-2.308 1.344,-2.446 1.852,-3.336 0.793,-1.421 2.406,-4.246 3.039,-5.29 2.785,-4.757 2.84,-4.754 0.949,-1.582 1.914,-3.176 1.281,-2.113 1.641,-2.664 1.559,-2.528 1.382,-2.23 1.817,-2.899 1.164,-1.855 2.031,-3.219 1.008,-1.539 2.211,-3.453 0.848,-1.324 2.347,-3.614 0.75,-1.144 2.449,-3.731 0.672,-1.027 2.528,-3.809 3.195,-4.777 3.219,-4.734 3.195,-4.68 0.711,-1.047 2.488,-3.59 0.809,-1.187 2.39,-3.414 0.926,-1.34 2.27,-3.219 1.086,-1.539 2.133,-2.98 1.242,-1.778 1.953,-2.722 1.461,-2.035 1.738,-2.407 1.699,-2.367 1.5,-2.074 1.953,-2.684 1.243,-1.699 2.25,-3.059 0.968,-1.3 2.547,-3.457 3.531,-4.778 3.516,-4.695 3.195,-4.266 3.2,-4.242 0.828,-1.086 2.386,-3.117 1.247,-1.641 1.953,-2.546 1.695,-2.211 1.504,-1.954 2.148,-2.8 1.047,-1.344 2.645,-3.414 3.711,-4.777 3.258,-4.145 3.199,-4.066 1.023,-1.301 2.172,-2.766 1.598,-2.012 1.601,-2.015 2.172,-2.742 1.024,-1.282 2.785,-3.476 3.629,-4.52 3.199,-3.988 0.828,-1.023 2.371,-2.922 1.481,-1.836 1.714,-2.113 2.153,-2.645 1.066,-1.301 2.82,-3.457 3.575,-4.379 3.199,-3.89 1.043,-1.262 2.152,-2.625 1.778,-2.133 1.441,-1.738 2.488,-3.02 3.906,-4.695 3.2,-3.852 0.828,-0.984 2.367,-2.844 1.621,-1.914 1.598,-1.894 2.386,-2.864 4.008,-4.757 3.2,-3.789 3.195,-3.77 1.68,-1.973 1.519,-1.816 2.527,-2.941 3.887,-4.579 3.199,-3.75 1.024,-1.207 2.172,-2.523 1.914,-2.231 1.285,-1.503 2.801,-3.254 3.613,-4.184 3.199,-3.711 1.399,-1.64 1.796,-2.071 2.329,-2.687 0.871,-1.004 3.215,-3.692 3.199,-3.671 0.988,-1.145 2.211,-2.547 1.953,-2.23 1.242,-1.422 2.903,-3.336 3.492,-3.985 3.219,-3.652 1.636,-1.894 1.563,-1.758 2.625,-3 3.769,-4.266 3.196,-3.629 1.441,-1.621 1.777,-2.012 2.426,-2.742 3.969,-4.48 3.199,-3.614 1.281,-1.441 1.914,-2.152 2.329,-2.606 0.871,-0.984 3.214,-3.594 3.2,-3.594 1.203,-1.359 1.996,-2.23 2.269,-2.528 0.926,-1.047 3.199,-3.574 3.215,-3.57 1.188,-1.344 2.012,-2.211 2.269,-2.547 0.93,-1.023 3.195,-3.555 3.199,-3.551 1.262,-1.382 1.953,-2.172 2.332,-2.606 4.067,-4.48 3.195,-3.532 1.363,-1.5 1.836,-2.035 2.484,-2.722 3.93,-4.344 3.199,-3.512 1.52,-1.676 1.676,-1.843 2.664,-2.918 3.73,-4.11 3.219,-3.511 1.738,-1.903 1.461,-1.601 2.879,-3.16 3.516,-3.844 3.195,-3.496 2.016,-2.184 1.203,-1.309 3.156,-3.453 3.238,-3.527 1.125,-1.234 2.075,-2.25 2.308,-2.512 4.086,-4.449 3.219,-3.477 1.457,-1.598 1.738,-1.875 2.664,-2.886 3.731,-4.051 3.199,-3.465 1.855,-2.008 1.36,-1.457 3.062,-3.304 3.336,-3.614 1.067,-1.148 2.128,-2.309 2.27,-2.453 0.93,-1 3.215,-3.449 3.199,-3.449 1.5,-1.625 1.699,-1.821 2.723,-2.945 3.671,-3.941 3.196,-3.438 1.996,-2.14 1.223,-1.301 3.199,-3.434 3.195,-3.433 1.266,-1.356 1.933,-2.074 2.508,-2.688 3.906,-4.168 3.2,-3.425 1.793,-1.934 1.402,-1.488 3.058,-3.274 3.336,-3.566 1.125,-1.195 2.094,-2.223 2.367,-2.535 4.028,-4.293 3.199,-3.414 1.715,-1.821 1.48,-1.589 2.981,-3.172 3.437,-3.641 1.043,-1.121 2.153,-2.285 2.328,-2.477 4.066,-4.324 3.199,-3.402 1.696,-1.797 1.523,-1.602 2.98,-3.16 3.415,-3.629 1.066,-1.133 2.129,-2.261 2.371,-2.5 4.047,-4.282 m -580.406,818.559 0.078,4.758 0.16,4.758 0.234,4.773 0.317,4.758 0.179,2.035 0.215,2.723 0.477,4.758 0.551,4.777 0.632,4.754 0.711,4.758 0.61,3.672 1.047,5.863 0.929,4.754 1.024,4.758 2.23,9.535 1.168,4.48 1.379,5.031 1.383,4.778 0.433,1.48 2.508,8.035 0.711,2.09 0.867,2.664 1.66,4.758 0.668,1.875 1.047,2.902 1.778,4.758 1.836,4.758 1.738,4.359 2.129,5.172 1.066,2.528 3.039,6.988 3.375,7.441 0.949,2.09 2.25,4.738 2.309,4.778 0.891,1.797 1.476,2.98 1.719,3.414 3.141,6.098 2.523,4.758 0.75,1.402 1.797,3.355 1.402,2.567 1.203,2.211 1.993,3.57 3.199,5.664 2.902,5.055 3.512,5.961 3.199,5.367 1.777,2.941 1.418,2.332 3.2,5.211 1.222,1.993 1.977,3.136 1.023,1.621 2.172,3.454 3.219,4.992 3.195,4.937 3.199,4.875 3.2,4.836 3.195,4.777 3.219,4.715 3.195,4.7 3.199,4.636 3.199,4.602 3.196,4.558 3.219,4.52 3.195,4.5 1.285,1.797 1.914,2.644 3.199,4.422 1.774,2.465 1.422,1.938 2.074,2.82 1.144,1.539 2.368,3.219 0.828,1.125 3.199,4.304 3.058,4.106 3.336,4.441 3.2,4.223 3.214,4.223 1.067,1.402 2.133,2.781 1.5,1.977 1.699,2.191 3.195,4.145 2.469,3.175 3.711,4.758 3.434,4.403 3.199,4.066 3.195,4.047 1.402,1.773 1.797,2.274 1.992,2.484 1.204,1.539 3.218,4.008 3.196,3.988 3.199,3.965 3.199,3.969 3.195,3.949 1.954,2.406 1.265,1.539 3.195,3.911 3.2,3.906 3.199,3.91 3.195,3.887 3.219,3.871 3.195,3.867 3.199,3.848 3.829,4.601 2.566,3.059 1.422,1.695 1.797,2.133 3.195,3.809 3,3.574 3.399,4.027 3.195,3.77 1.461,1.738 1.738,2.031 3.215,3.77 3.16,3.711 3.238,3.789 3.196,3.75 1.718,1.996 1.481,1.734 3.215,3.731 6.398,7.421 3.195,3.711 2.133,2.45 1.067,1.242 3.058,3.515 3.356,3.848 3.199,3.672 1.734,1.992 1.461,1.68 2.703,3.098 3.692,4.222 3.219,3.653 1.441,1.64 1.758,2.012 2.426,2.762 3.968,4.5 3.196,3.632 3.218,3.614 2.231,2.527 0.965,1.105 3.199,3.61 3.199,3.594 3.195,3.613 3.2,3.59 3.214,3.593 4.188,4.7 2.211,2.465 2.051,2.308 1.144,1.285 3.121,3.473 3.293,3.672 0.989,1.086 2.211,2.469 2.054,2.308 1.145,1.262 3.136,3.496 3.258,3.609 3.215,3.555 2.133,2.348 1.066,1.183 3.2,3.555 3.195,3.531 1.144,1.266 2.055,2.269 2.27,2.485 0.945,1.047 3.199,3.515 3.199,3.531 1.301,1.442 1.895,2.074 2.449,2.684 3.945,4.343 3.219,3.512 1.519,1.656 1.68,1.856 2.664,2.902 3.731,4.086 3.195,3.496 1.797,1.953 1.422,1.539 2.941,3.219 3.453,3.77 0.91,1.004 2.29,2.488 2.089,2.269 1.106,1.204 3.199,3.476 3.219,3.473 1.242,1.363 1.953,2.109 2.449,2.664 3.946,4.286 3.199,3.453 3.215,3.476 2.824,3.059 3.574,3.848 3.195,3.453 2.055,2.23 1.145,1.227 3.215,3.453"
                                 inkscape:connector-curvature="0"
                                 id="path108"
                                 style="fill:none;stroke:#000000;stroke-width:3.9476521;stroke-linecap:round;stroke-linejoin:round;stroke-miterlimit:10;stroke-opacity:1;stroke-dasharray:none" /></g><path
                               d="m 735.574,269.289 -616.687,547.481 283.898,0 0,-6.02 0.516,-12.219 1.047,-12.199 1.558,-12.219 2.071,-12.215 2.566,-12.218 3.039,-12.219 3.535,-12.199 3.965,-12.219 4.402,-12.215 4.836,-12.199 5.211,-12.219 5.606,-12.219 5.961,-12.218 6.297,-12.215 6.613,-12.199 6.93,-12.219 7.203,-12.219 7.48,-12.195 7.719,-12.219 7.973,-12.219 8.191,-12.218 8.391,-12.219 8.585,-12.196 8.782,-12.218 8.941,-12.219 9.102,-12.199 9.258,-12.219 9.394,-12.215 9.531,-12.219 9.653,-12.218 9.773,-12.2 9.867,-12.218 9.989,-12.215 10.085,-12.199 10.165,-12.219 10.265,-12.219 10.344,-12.219 10.422,-12.214 10.48,-12.2 10.559,-12.218 10.64,-12.219 10.676,-12.195 10.739,-12.219 10.796,-12.219 3.633,-4.086 z"
                               inkscape:connector-curvature="0"
                               id="path110"
                               style="fill:#000000;fill-opacity:0.24706002;fill-rule:nonzero;stroke:none" /><g
                               id="g112"><path
                                 d="M 118.887,816.77 735.555,269.309"
                                 inkscape:connector-curvature="0"
                                 id="path114"
                                 style="fill:none;stroke:#000000;stroke-width:3.9476521;stroke-linecap:round;stroke-linejoin:round;stroke-miterlimit:10;stroke-opacity:1;stroke-dasharray:none" /></g><g
                               id="g116"><path
                                 d="m 745.422,269.309 c 0,5.468 -4.422,9.871 -9.867,9.871 -5.45,0 -9.871,-4.403 -9.871,-9.871 0,-5.45 4.421,-9.868 9.871,-9.868 5.445,0 9.867,4.418 9.867,9.868 z"
                                 inkscape:connector-curvature="0"
                                 id="path118"
                                 style="fill:#000000;fill-opacity:1;fill-rule:nonzero;stroke:#000000;stroke-width:1.97382605;stroke-linecap:round;stroke-linejoin:round;stroke-miterlimit:10;stroke-opacity:1;stroke-dasharray:none" /></g></g></g></g></g></g></g><g
                   transform="translate(-70.866,-618.842)"
                   id="g120"><text
                     transform="matrix(1,0,0,-1,144.7,738.676)"
                     id="text122"><tspan
                       x="0 4.5525403 9.7554436 15.608709 20.225807 26.789211"
                       y="0"
                       id="tspan124"
                       style="font-size:11.9552002px;font-variant:normal;font-weight:normal;writing-mode:lr-tb;fill:#000000;fill-opacity:1;fill-rule:nonzero;stroke:none;font-family:LMRoman12;-inkscape-font-specification:LMRoman12-Regular">(cosh(</tspan></text>
<text
                     transform="matrix(1,0,0,-1,176.038,738.676)"
                     id="text126"><tspan
                       x="0"
                       y="0"
                       id="tspan128"
                       style="font-size:11.9552002px;font-variant:normal;font-weight:normal;writing-mode:lr-tb;fill:#000000;fill-opacity:1;fill-rule:nonzero;stroke:none;font-family:LMMathItalic12;-inkscape-font-specification:LMMathItalic12-Regular">t</tspan></text>
<text
                     transform="matrix(1,0,0,-1,180.266,738.676)"
                     id="text130"><tspan
                       x="0"
                       y="0"
                       id="tspan132"
                       style="font-size:11.9552002px;font-variant:normal;font-weight:normal;writing-mode:lr-tb;fill:#000000;fill-opacity:1;fill-rule:nonzero;stroke:none;font-family:LMRoman12;-inkscape-font-specification:LMRoman12-Regular">)</tspan></text>
<text
                     transform="matrix(1,0,0,-1,184.818,738.676)"
                     id="text134"><tspan
                       x="0"
                       y="0"
                       id="tspan136"
                       style="font-size:11.9552002px;font-variant:normal;font-weight:normal;writing-mode:lr-tb;fill:#000000;fill-opacity:1;fill-rule:nonzero;stroke:none;font-family:LMMathItalic12;-inkscape-font-specification:LMMathItalic12-Regular">,</tspan></text>
<text
                     transform="matrix(1,0,0,-1,190.062,738.676)"
                     id="text138"><tspan
                       x="0 4.6170983 7.8689127 14.372541 20.935946"
                       y="0"
                       id="tspan140"
                       style="font-size:11.9552002px;font-variant:normal;font-weight:normal;writing-mode:lr-tb;fill:#000000;fill-opacity:1;fill-rule:nonzero;stroke:none;font-family:LMRoman12;-inkscape-font-specification:LMRoman12-Regular">sinh(</tspan></text>
<text
                     transform="matrix(1,0,0,-1,215.548,738.676)"
                     id="text142"><tspan
                       x="0"
                       y="0"
                       id="tspan144"
                       style="font-size:11.9552002px;font-variant:normal;font-weight:normal;writing-mode:lr-tb;fill:#000000;fill-opacity:1;fill-rule:nonzero;stroke:none;font-family:LMMathItalic12;-inkscape-font-specification:LMMathItalic12-Regular">t</tspan></text>
<text
                     transform="matrix(1,0,0,-1,219.775,738.676)"
                     id="text146"><tspan
                       x="0 4.5525403"
                       y="0"
                       id="tspan148"
                       style="font-size:11.9552002px;font-variant:normal;font-weight:normal;writing-mode:lr-tb;fill:#000000;fill-opacity:1;fill-rule:nonzero;stroke:none;font-family:LMRoman12;-inkscape-font-specification:LMRoman12-Regular">))</tspan></text>
</g></g></g></g></g></g></g></g></svg>