<?xml version="1.0" encoding="UTF-8" standalone="no"?>
<!-- Created with Inkscape (http://www.inkscape.org/) -->

<svg
   xmlns:dc="http://purl.org/dc/elements/1.1/"
   xmlns:cc="http://creativecommons.org/ns#"
   xmlns:rdf="http://www.w3.org/1999/02/22-rdf-syntax-ns#"
   xmlns:svg="http://www.w3.org/2000/svg"
   xmlns="http://www.w3.org/2000/svg"
   xmlns:inkscape="http://www.inkscape.org/namespaces/inkscape"
   version="1.1"
   width="423.75"
   height="375"
   id="svg2"
   xml:space="preserve"><metadata
     id="metadata8"><rdf:RDF><cc:Work
         rdf:about=""><dc:format>image/svg+xml</dc:format><dc:type
           rdf:resource="http://purl.org/dc/dcmitype/StillImage" /></cc:Work></rdf:RDF></metadata><defs
     id="defs6"><clipPath
       id="clipPath16"><path
         d="m 0,0 595.276,0 0,841.89 L 0,841.89 0,0 z"
         inkscape:connector-curvature="0"
         id="path18" /></clipPath><clipPath
       id="clipPath20"><path
         d="m 0,0 426.08752,0 0,299.71545 L 0,299.71545 0,0 z"
         inkscape:connector-curvature="0"
         id="path22" /></clipPath><clipPath
       id="clipPath24"><path
         d="m 0,0 426.08752,0 0,299.71545 L 0,299.71545 0,0 z"
         inkscape:connector-curvature="0"
         id="path26" /></clipPath><clipPath
       id="clipPath28"><path
         d="m 0,0 426.08752,0 0,299.71545 L 0,299.71545 0,0 z"
         inkscape:connector-curvature="0"
         id="path30" /></clipPath></defs><g
     transform="matrix(1.25,0,0,-1.25,0,375)"
     id="g10"><g
       transform="translate(-155,-472)"
       id="g12"><g
         id="g14" /><g
         id="g32"><g
           clip-path="url(#clipPath16)"
           id="g34"><g
             transform="translate(70.866,471.307)"
             id="g36"><g
               transform="scale(1.00006,1.00006)"
               id="g38"><g
                 id="g40"><g
                   id="g42" /><g
                   id="g44"><g
                     clip-path="url(#clipPath20)"
                     id="g46"><g
                       id="g48"><g
                         transform="matrix(1,0,0,-1,0,299.71545)"
                         id="g50"><path
                           d="m 89.836,279.113 213.465,0"
                           inkscape:connector-curvature="0"
                           id="path52"
                           style="fill:none;stroke:#000000;stroke-width:0.80000001;stroke-linecap:butt;stroke-linejoin:miter;stroke-miterlimit:4;stroke-opacity:1;stroke-dasharray:none" /></g><g
                         transform="matrix(-1,0,0,1,0,299.71545)"
                         id="g54"><path
                           d="m -295.301,-279.113 3.199,-3.203 -11.199,3.203 11.199,3.199 -3.199,-3.199 z"
                           inkscape:connector-curvature="0"
                           id="path56"
                           style="fill:#000000;fill-opacity:1;fill-rule:evenodd;stroke:#000000;stroke-width:0.80000001;stroke-linecap:butt;stroke-linejoin:miter;stroke-miterlimit:4;stroke-opacity:1;stroke-dasharray:none" /></g><g
                         transform="matrix(1,0,0,-1,0,299.71545)"
                         id="g58"><path
                           d="M 315.227,0.684 89.07,279.207 422.031,145.727"
                           inkscape:connector-curvature="0"
                           id="path60"
                           style="fill:none;stroke:#000000;stroke-width:0.80000001;stroke-linecap:butt;stroke-linejoin:miter;stroke-miterlimit:4;stroke-opacity:1;stroke-dasharray:none" /></g></g></g></g></g></g><g
               transform="translate(-70.866,-471.307)"
               id="g62"><text
                 transform="matrix(1,0,0,-1,155.086,473.069)"
                 id="text64"><tspan
                   x="0"
                   y="0"
                   id="tspan66"
                   style="font-size:11.9552002px;font-variant:normal;font-weight:normal;writing-mode:lr-tb;fill:#000000;fill-opacity:1;fill-rule:nonzero;stroke:none;font-family:LMMathItalic12;-inkscape-font-specification:LMMathItalic12-Regular">O</tspan></text>
<g
                 transform="translate(70.866,471.307)"
                 id="g68"><g
                   transform="scale(1.00006,1.00006)"
                   id="g70"><g
                     id="g72"><g
                       id="g74" /><g
                       id="g76"><g
                         clip-path="url(#clipPath24)"
                         id="g78"><g
                           id="g80"><g
                             transform="matrix(1,0,0,-1,0,299.71545)"
                             id="g82"><path
                               d="m 152.93,200.484 c 13.328,10.985 23.613,25.207 29.859,41.313"
                               inkscape:connector-curvature="0"
                               id="path84"
                               style="fill:none;stroke:#000000;stroke-width:0.80000001;stroke-linecap:butt;stroke-linejoin:miter;stroke-miterlimit:4;stroke-opacity:1;stroke-dasharray:none" /></g><g
                             transform="matrix(1,0,0,-1,0,299.71545)"
                             id="g86"><path
                               d="m 204.152,137.613 c 23.946,19.633 42.485,45.059 53.856,73.864"
                               inkscape:connector-curvature="0"
                               id="path88"
                               style="fill:none;stroke:#000000;stroke-width:0.80000001;stroke-linecap:butt;stroke-linejoin:miter;stroke-miterlimit:4;stroke-opacity:1;stroke-dasharray:none" /></g><g
                             transform="matrix(1,0,0,-1,0,299.71545)"
                             id="g90"><path
                               d="m 260.699,67.547 c 35.957,29.328 63.809,67.367 80.91,110.5"
                               inkscape:connector-curvature="0"
                               id="path92"
                               style="fill:none;stroke:#000000;stroke-width:0.80000001;stroke-linecap:butt;stroke-linejoin:miter;stroke-miterlimit:4;stroke-opacity:1;stroke-dasharray:none" /></g><g
                             transform="matrix(1,0,0,-1,0,299.71545)"
                             id="g94"><path
                               d="m 315.031,0.289 c 47.434,38.602 84.203,88.699 106.805,145.527"
                               inkscape:connector-curvature="0"
                               id="path96"
                               style="fill:none;stroke:#000000;stroke-width:0.80000001;stroke-linecap:butt;stroke-linejoin:miter;stroke-miterlimit:4;stroke-opacity:1;stroke-dasharray:none" /></g><g
                             transform="matrix(1,0,0,-1,0,299.71545)"
                             id="g98"><path
                               d="m 341.441,176.078 c -3.015,-7.992 -11.625,-25.594 -17.07,-34.898 -15.75,-26.91 -36.984,-52.219 -59.613,-71.047 -1.465,-1.223 -2.668,-2.406 -2.668,-2.629 0,-0.328 39.738,-49.551 50.691,-62.793 l 2.739,-3.313 4.121,3.5 c 16.566,14.067 34.273,32.184 47.691,48.79 17.059,21.113 33.746,47.742 44.93,71.707 3.566,7.644 8.593,19.242 8.593,19.828 0,0.191 -17.042,7.172 -37.878,15.511 -20.832,8.34 -38.598,15.473 -39.485,15.844 l -1.605,0.68 -0.446,-1.18 z"
                               inkscape:connector-curvature="0"
                               id="path100"
                               style="fill:#c8c8c8;fill-opacity:1;fill-rule:nonzero;stroke:#000000;stroke-width:0.42678401;stroke-linecap:butt;stroke-linejoin:miter;stroke-miterlimit:4;stroke-opacity:1;stroke-dasharray:none" /></g></g></g></g></g></g><g
                   transform="translate(-70.866,-471.307)"
                   id="g102"><text
                     transform="matrix(1,0,0,-1,404.162,677.713)"
                     id="text104"><tspan
                       x="0"
                       y="0"
                       id="tspan106"
                       style="font-size:11.9552002px;font-variant:normal;font-weight:normal;writing-mode:lr-tb;fill:#000000;fill-opacity:1;fill-rule:nonzero;stroke:none;font-family:LMMathItalic12;-inkscape-font-specification:LMMathItalic12-Regular">R</tspan></text>
<text
                     transform="matrix(1,0,0,-1,413.072,675.92)"
                     id="text108"><tspan
                       x="0"
                       y="0"
                       id="tspan110"
                       style="font-size:7.97009993px;font-variant:normal;font-weight:normal;writing-mode:lr-tb;fill:#000000;fill-opacity:1;fill-rule:nonzero;stroke:none;font-family:LMRoman8;-inkscape-font-specification:LMRoman8-Regular">2</tspan></text>
<g
                     transform="translate(70.866,471.307)"
                     id="g112"><g
                       transform="scale(1.00006,1.00006)"
                       id="g114"><g
                         id="g116"><g
                           id="g118" /><g
                           id="g120"><g
                             clip-path="url(#clipPath28)"
                             id="g122"><g
                               id="g124"><g
                                 transform="matrix(1,0,0,-1,0,299.71545)"
                                 id="g126"><path
                                   d="m 181.762,237.734 c -5.559,-12.55 -14.473,-25.113 -24.059,-33.898 -3.457,-3.172 -3.683,-3.481 -3.125,-4.254 0.332,-0.461 11.629,-14.406 25.102,-30.992 l 24.496,-30.16 2.176,1.8 c 3.863,3.192 15.191,14.469 19.386,19.301 9.578,11.028 18.696,24.641 25.153,37.555 2.406,4.82 6.078,13.137 6.078,13.773 0,0.313 -44.871,18.539 -71.809,29.164 l -2.031,0.801 -1.367,-3.09 z"
                                   inkscape:connector-curvature="0"
                                   id="path128"
                                   style="fill:#c8c8c8;fill-opacity:1;fill-rule:nonzero;stroke:#000000;stroke-width:0.42678401;stroke-linecap:butt;stroke-linejoin:miter;stroke-miterlimit:4;stroke-opacity:1;stroke-dasharray:none" /></g></g></g></g></g></g><g
                       transform="translate(-70.866,-471.307)"
                       id="g130"><text
                         transform="matrix(1,0,0,-1,264.579,575.716)"
                         id="text132"><tspan
                           x="0"
                           y="0"
                           id="tspan134"
                           style="font-size:11.9552002px;font-variant:normal;font-weight:normal;writing-mode:lr-tb;fill:#000000;fill-opacity:1;fill-rule:nonzero;stroke:none;font-family:LMMathItalic12;-inkscape-font-specification:LMMathItalic12-Regular">R</tspan></text>
<text
                         transform="matrix(1,0,0,-1,273.489,573.923)"
                         id="text136"><tspan
                           x="0"
                           y="0"
                           id="tspan138"
                           style="font-size:7.97009993px;font-variant:normal;font-weight:normal;writing-mode:lr-tb;fill:#000000;fill-opacity:1;fill-rule:nonzero;stroke:none;font-family:LMRoman8;-inkscape-font-specification:LMRoman8-Regular">1</tspan></text>
<text
                         transform="matrix(1,0,0,-1,205.941,533.905)"
                         id="text140"><tspan
                           x="0"
                           y="0"
                           id="tspan142"
                           style="font-size:11.9552002px;font-variant:normal;font-weight:normal;writing-mode:lr-tb;fill:#000000;fill-opacity:1;fill-rule:nonzero;stroke:none;font-family:LMMathItalic12;-inkscape-font-specification:LMMathItalic12-Regular">r</tspan></text>
<text
                         transform="matrix(1,0,0,-1,214.863,533.905)"
                         id="text144"><tspan
                           x="0 12.428626"
                           y="0"
                           id="tspan146"
                           style="font-size:11.9552002px;font-variant:normal;font-weight:normal;writing-mode:lr-tb;fill:#000000;fill-opacity:1;fill-rule:nonzero;stroke:none;font-family:LMRoman12;-inkscape-font-specification:LMRoman12-Regular">=1</tspan></text>
<text
                         transform="matrix(1,0,0,-1,307.405,605.058)"
                         id="text148"><tspan
                           x="0"
                           y="0"
                           id="tspan150"
                           style="font-size:11.9552002px;font-variant:normal;font-weight:normal;writing-mode:lr-tb;fill:#000000;fill-opacity:1;fill-rule:nonzero;stroke:none;font-family:LMMathItalic12;-inkscape-font-specification:LMMathItalic12-Regular">r</tspan></text>
<text
                         transform="matrix(1,0,0,-1,316.326,605.058)"
                         id="text152"><tspan
                           x="0 12.428626"
                           y="0"
                           id="tspan154"
                           style="font-size:11.9552002px;font-variant:normal;font-weight:normal;writing-mode:lr-tb;fill:#000000;fill-opacity:1;fill-rule:nonzero;stroke:none;font-family:LMRoman12;-inkscape-font-specification:LMRoman12-Regular">=2</tspan></text>
<text
                         transform="matrix(1,0,0,-1,333.008,643.04)"
                         id="text156"><tspan
                           x="0"
                           y="0"
                           id="tspan158"
                           style="font-size:11.9552002px;font-variant:normal;font-weight:normal;writing-mode:lr-tb;fill:#000000;fill-opacity:1;fill-rule:nonzero;stroke:none;font-family:LMMathItalic12;-inkscape-font-specification:LMMathItalic12-Regular">r</tspan></text>
<text
                         transform="matrix(1,0,0,-1,341.93,643.04)"
                         id="text160"><tspan
                           x="0 12.428626"
                           y="0"
                           id="tspan162"
                           style="font-size:11.9552002px;font-variant:normal;font-weight:normal;writing-mode:lr-tb;fill:#000000;fill-opacity:1;fill-rule:nonzero;stroke:none;font-family:LMRoman12;-inkscape-font-specification:LMRoman12-Regular">=3</tspan></text>
<text
                         transform="matrix(1,0,0,-1,446.11,718.153)"
                         id="text164"><tspan
                           x="0"
                           y="0"
                           id="tspan166"
                           style="font-size:11.9552002px;font-variant:normal;font-weight:normal;writing-mode:lr-tb;fill:#000000;fill-opacity:1;fill-rule:nonzero;stroke:none;font-family:LMMathItalic12;-inkscape-font-specification:LMMathItalic12-Regular">r</tspan></text>
<text
                         transform="matrix(1,0,0,-1,455.031,718.153)"
                         id="text168"><tspan
                           x="0 12.428626"
                           y="0"
                           id="tspan170"
                           style="font-size:11.9552002px;font-variant:normal;font-weight:normal;writing-mode:lr-tb;fill:#000000;fill-opacity:1;fill-rule:nonzero;stroke:none;font-family:LMRoman12;-inkscape-font-specification:LMRoman12-Regular">=4</tspan></text>
</g></g></g></g></g></g></g></g></g></g></svg>