<?xml version="1.0" encoding="UTF-8" standalone="no"?>
<!-- Created with Inkscape (http://www.inkscape.org/) -->

<svg
   xmlns:dc="http://purl.org/dc/elements/1.1/"
   xmlns:cc="http://creativecommons.org/ns#"
   xmlns:rdf="http://www.w3.org/1999/02/22-rdf-syntax-ns#"
   xmlns:svg="http://www.w3.org/2000/svg"
   xmlns="http://www.w3.org/2000/svg"
   xmlns:inkscape="http://www.inkscape.org/namespaces/inkscape"
   version="1.1"
   width="283.75"
   height="297.5"
   id="svg2"
   xml:space="preserve"><metadata
     id="metadata8"><rdf:RDF><cc:Work
         rdf:about=""><dc:format>image/svg+xml</dc:format><dc:type
           rdf:resource="http://purl.org/dc/dcmitype/StillImage" /></cc:Work></rdf:RDF></metadata><defs
     id="defs6"><clipPath
       id="clipPath16"><path
         d="m 0,0 595.276,0 0,841.89 L 0,841.89 0,0 z"
         inkscape:connector-curvature="0"
         id="path18" /></clipPath><clipPath
       id="clipPath20"><path
         d="m 0,0 244.6776,0 0,249.33264 L 0,249.33264 0,0 z"
         inkscape:connector-curvature="0"
         id="path22" /></clipPath><clipPath
       id="clipPath24"><path
         d="m 0,0 244.6776,0 0,249.33264 L 0,249.33264 0,0 z"
         inkscape:connector-curvature="0"
         id="path26" /></clipPath></defs><g
     transform="matrix(1.25,0,0,-1.25,0,297.5)"
     id="g10"><g
       transform="translate(-70,-529)"
       id="g12"><g
         id="g14" /><g
         id="g28"><g
           clip-path="url(#clipPath16)"
           id="g30"><g
             transform="translate(70.866,521.69)"
             id="g32"><g
               id="g34" /><g
               id="g36"><g
                 clip-path="url(#clipPath20)"
                 id="g38"><g
                   id="g40"><g
                     transform="matrix(1,0,0,-1,0,249.33264)"
                     id="g42"><path
                       d="m 0,229.754 224.656,0"
                       inkscape:connector-curvature="0"
                       id="path44"
                       style="fill:none;stroke:#000000;stroke-width:0.80000001;stroke-linecap:butt;stroke-linejoin:miter;stroke-miterlimit:4;stroke-opacity:1;stroke-dasharray:none" /></g><g
                     transform="matrix(-1,0,0,1,0,249.33264)"
                     id="g46"><path
                       d="m -216.656,-229.754 3.199,-3.199 -11.199,3.199 11.199,3.199 -3.199,-3.199 z"
                       inkscape:connector-curvature="0"
                       id="path48"
                       style="fill:#000000;fill-opacity:1;fill-rule:evenodd;stroke:#000000;stroke-width:0.80000001;stroke-linecap:butt;stroke-linejoin:miter;stroke-miterlimit:4;stroke-opacity:1;stroke-dasharray:none" /></g><g
                     transform="matrix(1,0,0,-1,0,249.33264)"
                     id="g50"><path
                       d="m 12.121,241.066 0,-235.164"
                       inkscape:connector-curvature="0"
                       id="path52"
                       style="fill:none;stroke:#000000;stroke-width:0.80000001;stroke-linecap:butt;stroke-linejoin:miter;stroke-miterlimit:4;stroke-opacity:1;stroke-dasharray:none" /></g><g
                     transform="matrix(0,-1,-1,0,0,249.33264)"
                     id="g54"><path
                       d="m 13.902,-12.121 3.203,-3.199 -11.203,3.199 11.203,3.199 -3.203,-3.199 z"
                       inkscape:connector-curvature="0"
                       id="path56"
                       style="fill:#000000;fill-opacity:1;fill-rule:evenodd;stroke:#000000;stroke-width:0.80000001;stroke-linecap:butt;stroke-linejoin:miter;stroke-miterlimit:4;stroke-opacity:1;stroke-dasharray:none" /></g></g></g></g></g><text
             transform="matrix(1,0,0,-1,137.13,603.159)"
             id="text58"><tspan
               x="0"
               y="0"
               id="tspan60"
               style="font-size:11.9552002px;font-variant:normal;font-weight:normal;writing-mode:lr-tb;fill:#000000;fill-opacity:1;fill-rule:nonzero;stroke:none;font-family:LMMathItalic12;-inkscape-font-specification:LMMathItalic12-Regular">R</tspan></text>
<text
             transform="matrix(1,0,0,-1,146.04,601.365)"
             id="text62"><tspan
               x="0"
               y="0"
               id="tspan64"
               style="font-size:7.97009993px;font-variant:normal;font-weight:normal;writing-mode:lr-tb;fill:#000000;fill-opacity:1;fill-rule:nonzero;stroke:none;font-family:LMRoman8;-inkscape-font-specification:LMRoman8-Regular">1</tspan></text>
<g
             transform="translate(70.866,521.69)"
             id="g66"><g
               id="g68" /><g
               id="g70"><g
                 clip-path="url(#clipPath24)"
                 id="g72"><g
                   id="g74"><path
                     d="m 112.961,212.829 0,-167.809 c -8.719,-8.34 -23.508,-7.574 -40.926,-2.863 -15.297,4.523 -29.039,10.39 -41.34,27.012 -8.652,13.918 -14.929,39.699 6.551,44.203 24.945,4.66 29.285,16.347 28.238,30.285 -1.601,23.258 5.368,37.144 11.461,53.617 5.129,12.391 14.743,17.492 36.016,15.555 z"
                     inkscape:connector-curvature="0"
                     id="path76"
                     style="fill:#000000;fill-opacity:0.21568598;fill-rule:evenodd;stroke:none" /><g
                     transform="matrix(1,0,0,-1,0,249.33264)"
                     id="g78"><path
                       d="m 112.961,36.504 0,167.809 c -8.719,8.339 -23.508,7.574 -40.926,2.863 -15.297,-4.524 -29.039,-10.391 -41.34,-27.012 -8.652,-13.918 -14.929,-39.699 6.551,-44.203 24.945,-4.66 29.285,-16.348 28.238,-30.285 C 63.883,82.418 70.852,68.531 76.945,52.059 82.074,39.668 91.688,34.566 112.961,36.504 z"
                       inkscape:connector-curvature="0"
                       id="path80"
                       style="fill:none;stroke:#000000;stroke-width:0.80000001;stroke-linecap:butt;stroke-linejoin:miter;stroke-miterlimit:4;stroke-opacity:1;stroke-dasharray:none" /></g><path
                     d="m 112.555,212.829 0,-168.215 c 17.476,13.344 35.675,7.617 51.16,20.871 12.656,12.945 25.066,27.383 24.144,45.023 -0.211,21.391 -9.023,40.387 -18.007,60.164 -4.309,12.688 11.07,23.739 4.503,35.606 -15.175,20.141 -24.363,28.219 -39.292,20.055 -9.317,-5.082 -10.418,-14.153 -22.508,-13.504 z"
                     inkscape:connector-curvature="0"
                     id="path82"
                     style="fill:#000000;fill-opacity:0.09803898;fill-rule:evenodd;stroke:none" /><g
                     transform="matrix(1,0,0,-1,0,249.33264)"
                     id="g84"><path
                       d="m 112.555,36.504 0,168.215 c 17.476,-13.344 35.675,-7.617 51.16,-20.871 12.656,-12.946 25.066,-27.383 24.144,-45.024 -0.211,-21.39 -9.023,-40.386 -18.007,-60.164 -4.309,-12.687 11.07,-23.738 4.503,-35.605 C 159.18,22.914 149.992,14.836 135.063,23 c -9.317,5.082 -10.418,14.152 -22.508,13.504 z"
                       inkscape:connector-curvature="0"
                       id="path86"
                       style="fill:none;stroke:#000000;stroke-width:0.80000001;stroke-linecap:butt;stroke-linejoin:miter;stroke-miterlimit:4;stroke-opacity:1;stroke-dasharray:none" /></g></g></g></g></g><text
             transform="matrix(1,0,0,-1,213.629,644.011)"
             id="text88"><tspan
               x="0"
               y="0"
               id="tspan90"
               style="font-size:11.9552002px;font-variant:normal;font-weight:normal;writing-mode:lr-tb;fill:#000000;fill-opacity:1;fill-rule:nonzero;stroke:none;font-family:LMMathItalic12;-inkscape-font-specification:LMMathItalic12-Regular">R</tspan></text>
<text
             transform="matrix(1,0,0,-1,222.539,642.217)"
             id="text92"><tspan
               x="0"
               y="0"
               id="tspan94"
               style="font-size:7.97009993px;font-variant:normal;font-weight:normal;writing-mode:lr-tb;fill:#000000;fill-opacity:1;fill-rule:nonzero;stroke:none;font-family:LMRoman8;-inkscape-font-specification:LMRoman8-Regular">2</tspan></text>
<text
             transform="matrix(1,0,0,-1,124.406,706.412)"
             id="text96"><tspan
               x="0"
               y="0"
               id="tspan98"
               style="font-size:11.9552002px;font-variant:normal;font-weight:normal;writing-mode:lr-tb;fill:#000000;fill-opacity:1;fill-rule:nonzero;stroke:none;font-family:LMMathItalic12;-inkscape-font-specification:LMMathItalic12-Regular">R</tspan></text>
</g></g></g></g></svg>