<?xml version="1.0" encoding="UTF-8" standalone="no"?>
<!-- Created with Inkscape (http://www.inkscape.org/) -->

<svg
   xmlns:dc="http://purl.org/dc/elements/1.1/"
   xmlns:cc="http://creativecommons.org/ns#"
   xmlns:rdf="http://www.w3.org/1999/02/22-rdf-syntax-ns#"
   xmlns:svg="http://www.w3.org/2000/svg"
   xmlns="http://www.w3.org/2000/svg"
   xmlns:inkscape="http://www.inkscape.org/namespaces/inkscape"
   version="1.1"
   width="531.25"
   height="375"
   id="svg2"
   xml:space="preserve"><metadata
     id="metadata8"><rdf:RDF><cc:Work
         rdf:about=""><dc:format>image/svg+xml</dc:format><dc:type
           rdf:resource="http://purl.org/dc/dcmitype/StillImage" /></cc:Work></rdf:RDF></metadata><defs
     id="defs6"><clipPath
       id="clipPath16"><path
         d="m 0,0 595.276,0 0,841.89 L 0,841.89 0,0 z"
         inkscape:connector-curvature="0"
         id="path18" /></clipPath><clipPath
       id="clipPath20"><path
         d="m 0,0 426.08752,0 0,299.71545 L 0,299.71545 0,0 z"
         inkscape:connector-curvature="0"
         id="path22" /></clipPath><clipPath
       id="clipPath24"><path
         d="m 0,0 426.08752,0 0,299.71545 L 0,299.71545 0,0 z"
         inkscape:connector-curvature="0"
         id="path26" /></clipPath></defs><g
     transform="matrix(1.25,0,0,-1.25,0,375)"
     id="g10"><g
       transform="translate(-72,-472)"
       id="g12"><g
         id="g14" /><g
         id="g28"><g
           clip-path="url(#clipPath16)"
           id="g30"><g
             transform="translate(70.866,471.307)"
             id="g32"><g
               transform="scale(1.00006,1.00006)"
               id="g34"><g
                 id="g36"><g
                   id="g38" /><g
                   id="g40"><g
                     clip-path="url(#clipPath20)"
                     id="g42"><g
                       id="g44"><g
                         transform="matrix(1,0,0,-1,0,299.71545)"
                         id="g46"><path
                           d="m 89.836,279.113 213.465,0"
                           inkscape:connector-curvature="0"
                           id="path48"
                           style="fill:none;stroke:#000000;stroke-width:0.80000001;stroke-linecap:butt;stroke-linejoin:miter;stroke-miterlimit:4;stroke-opacity:1;stroke-dasharray:none" /></g><g
                         transform="matrix(-1,0,0,1,0,299.71545)"
                         id="g50"><path
                           d="m -295.301,-279.113 3.199,-3.203 -11.199,3.203 11.199,3.199 -3.199,-3.199 z"
                           inkscape:connector-curvature="0"
                           id="path52"
                           style="fill:#000000;fill-opacity:1;fill-rule:evenodd;stroke:#000000;stroke-width:0.80000001;stroke-linecap:butt;stroke-linejoin:miter;stroke-miterlimit:4;stroke-opacity:1;stroke-dasharray:none" /></g><g
                         transform="matrix(1,0,0,-1,0,299.71545)"
                         id="g54"><path
                           d="M 24.84,0.09 88.645,279.742 425.938,144.391"
                           inkscape:connector-curvature="0"
                           id="path56"
                           style="fill:none;stroke:#000000;stroke-width:0.80000001;stroke-linecap:butt;stroke-linejoin:miter;stroke-miterlimit:4;stroke-opacity:1;stroke-dasharray:none" /></g></g></g></g></g></g><g
               transform="translate(-70.866,-471.307)"
               id="g58"><text
                 transform="matrix(1,0,0,-1,337.312,547.421)"
                 id="text60"><tspan
                   x="0"
                   y="0"
                   id="tspan62"
                   style="font-size:11.9552002px;font-variant:normal;font-weight:normal;writing-mode:lr-tb;fill:#000000;fill-opacity:1;fill-rule:nonzero;stroke:none;font-family:LMMathItalic12;-inkscape-font-specification:LMMathItalic12-Regular">θ</tspan></text>
<text
                 transform="matrix(1,0,0,-1,346.413,547.421)"
                 id="text64"><tspan
                   x="0"
                   y="0"
                   id="tspan66"
                   style="font-size:11.9552002px;font-variant:normal;font-weight:normal;writing-mode:lr-tb;fill:#000000;fill-opacity:1;fill-rule:nonzero;stroke:none;font-family:LMRoman12;-inkscape-font-specification:LMRoman12-Regular">=</tspan></text>
<text
                 transform="matrix(1,0,0,-1,358.839,547.421)"
                 id="text68"><tspan
                   x="0"
                   y="0"
                   id="tspan70"
                   style="font-size:11.9552002px;font-variant:normal;font-weight:normal;writing-mode:lr-tb;fill:#000000;fill-opacity:1;fill-rule:nonzero;stroke:none;font-family:LMMathItalic12;-inkscape-font-specification:LMMathItalic12-Regular">α</tspan><tspan
                   x="-62.896"
                   y="-185.438"
                   id="tspan72"
                   style="font-size:11.9552002px;font-variant:normal;font-weight:normal;writing-mode:lr-tb;fill:#000000;fill-opacity:1;fill-rule:nonzero;stroke:none;font-family:LMMathItalic12;-inkscape-font-specification:LMMathItalic12-Regular">r</tspan></text>
<text
                 transform="matrix(1,0,0,-1,304.864,732.859)"
                 id="text74"><tspan
                   x="0"
                   y="0"
                   id="tspan76"
                   style="font-size:11.9552002px;font-variant:normal;font-weight:normal;writing-mode:lr-tb;fill:#000000;fill-opacity:1;fill-rule:nonzero;stroke:none;font-family:LMRoman12;-inkscape-font-specification:LMRoman12-Regular">=</tspan></text>
<text
                 transform="matrix(1,0,0,-1,317.29,732.859)"
                 id="text78"><tspan
                   x="0"
                   y="0"
                   id="tspan80"
                   style="font-size:11.9552002px;font-variant:normal;font-weight:normal;writing-mode:lr-tb;fill:#000000;fill-opacity:1;fill-rule:nonzero;stroke:none;font-family:LMMathItalic12;-inkscape-font-specification:LMMathItalic12-Regular">r</tspan></text>
<text
                 transform="matrix(1,0,0,-1,322.565,731.066)"
                 id="text82"><tspan
                   x="0"
                   y="0"
                   id="tspan84"
                   style="font-size:7.97009993px;font-variant:normal;font-weight:normal;writing-mode:lr-tb;fill:#000000;fill-opacity:1;fill-rule:nonzero;stroke:none;font-family:LMRoman8;-inkscape-font-specification:LMRoman8-Regular">2</tspan></text>
<text
                 transform="matrix(1,0,0,-1,327.297,732.859)"
                 id="text86"><tspan
                   x="0"
                   y="0"
                   id="tspan88"
                   style="font-size:11.9552002px;font-variant:normal;font-weight:normal;writing-mode:lr-tb;fill:#000000;fill-opacity:1;fill-rule:nonzero;stroke:none;font-family:LMRoman12;-inkscape-font-specification:LMRoman12-Regular">(</tspan></text>
<text
                 transform="matrix(1,0,0,-1,331.85,732.859)"
                 id="text90"><tspan
                   x="0"
                   y="0"
                   id="tspan92"
                   style="font-size:11.9552002px;font-variant:normal;font-weight:normal;writing-mode:lr-tb;fill:#000000;fill-opacity:1;fill-rule:nonzero;stroke:none;font-family:LMMathItalic12;-inkscape-font-specification:LMMathItalic12-Regular">θ</tspan></text>
<text
                 transform="matrix(1,0,0,-1,337.63,732.859)"
                 id="text94"><tspan
                   x="0"
                   y="0"
                   id="tspan96"
                   style="font-size:11.9552002px;font-variant:normal;font-weight:normal;writing-mode:lr-tb;fill:#000000;fill-opacity:1;fill-rule:nonzero;stroke:none;font-family:LMRoman12;-inkscape-font-specification:LMRoman12-Regular">)</tspan></text>
<text
                 transform="matrix(1,0,0,-1,155.086,473.069)"
                 id="text98"><tspan
                   x="0"
                   y="0"
                   id="tspan100"
                   style="font-size:11.9552002px;font-variant:normal;font-weight:normal;writing-mode:lr-tb;fill:#000000;fill-opacity:1;fill-rule:nonzero;stroke:none;font-family:LMMathItalic12;-inkscape-font-specification:LMMathItalic12-Regular">O</tspan></text>
<g
                 transform="translate(70.866,471.307)"
                 id="g102"><g
                   transform="scale(1.00006,1.00006)"
                   id="g104"><g
                     id="g106"><g
                       id="g108" /><g
                       id="g110"><g
                         clip-path="url(#clipPath24)"
                         id="g112"><g
                           id="g114"><g
                             transform="matrix(1,0,0,-1,0,299.71545)"
                             id="g116"><path
                               d="m 62.211,165.859 c 12.695,-6.093 23.969,-8.433 39.953,-1.195 22.418,9.238 26.684,25.621 38.16,39.356 19.477,29.035 44.324,6.867 58.434,17.886 l 10.137,9.543"
                               inkscape:connector-curvature="0"
                               id="path118"
                               style="fill:none;stroke:#000000;stroke-width:0.80000001;stroke-linecap:butt;stroke-linejoin:miter;stroke-miterlimit:4;stroke-opacity:1;stroke-dasharray:none" /></g><g
                             transform="matrix(1,0,0,-1,0,299.71545)"
                             id="g120"><path
                               d="m 36.57,50.18 c 33.664,-19.774 75.059,-28.723 124.621,-26.235 34.512,2.598 62.622,13.93 76.325,31.602 17.882,24.344 13.277,46.781 32.199,59.629 31.558,17.562 53.047,15.941 80.496,13.715 23.086,-1.485 29.918,14.91 37.566,30.406"
                               inkscape:connector-curvature="0"
                               id="path122"
                               style="fill:none;stroke:#000000;stroke-width:0.80000001;stroke-linecap:butt;stroke-linejoin:miter;stroke-miterlimit:4;stroke-opacity:1;stroke-dasharray:none" /></g><g
                             transform="matrix(1,0,0,-1,0,299.71545)"
                             id="g124"><path
                               d="m 203.852,225.801 c -2.786,-2.645 -6.141,-5.363 -7.454,-6.043 -3.14,-1.621 -9.871,-1.981 -20.449,-1.078 -13.035,1.105 -19.941,-0.496 -27.25,-6.313 -3.457,-2.754 -9.707,-10.754 -17.519,-22.437 -9.176,-13.723 -16.59,-20.512 -27.746,-25.407 -13.645,-5.98 -25.161,-6.382 -36.957,-1.281 -1.606,0.692 -3.067,1.11 -3.247,0.93 -0.179,-0.18 -6.136,-25.746 -13.23,-56.809 l -12.902,-56.48 2.136,-1.379 c 4.059,-2.621 17.668,-8.93 25.688,-11.91 25.988,-9.664 53.109,-13.77 86.332,-13.078 16.824,0.351 24.848,1.328 38.289,4.656 23.035,5.703 40.961,16.598 49.77,30.254 4.109,6.367 8.125,15.203 11.835,26.039 5.715,16.687 7.618,20.422 13.329,26.14 2.828,2.836 5.027,4.247 11.824,7.579 22.219,10.894 37.617,13.234 70.086,10.64 19,-1.515 27.961,4.133 37.808,23.828 1.532,3.067 2.703,5.637 2.602,5.711 -0.25,0.176 -175.848,70.571 -176.981,70.946 -0.55,0.183 -2.839,-1.547 -5.964,-4.508 z"
                               inkscape:connector-curvature="0"
                               id="path126"
                               style="fill:#c8c8c8;fill-opacity:1;fill-rule:nonzero;stroke:#000000;stroke-width:0.59627301;stroke-linecap:butt;stroke-linejoin:miter;stroke-miterlimit:4;stroke-opacity:1;stroke-dasharray:none" /></g></g></g></g></g></g><g
                   transform="translate(-70.866,-471.307)"
                   id="g128"><text
                     transform="matrix(1,0,0,-1,72.262,670.425)"
                     id="text130"><tspan
                       x="0"
                       y="0"
                       id="tspan132"
                       style="font-size:11.9552002px;font-variant:normal;font-weight:normal;writing-mode:lr-tb;fill:#000000;fill-opacity:1;fill-rule:nonzero;stroke:none;font-family:LMMathItalic12;-inkscape-font-specification:LMMathItalic12-Regular">θ</tspan></text>
<text
                     transform="matrix(1,0,0,-1,81.364,670.425)"
                     id="text134"><tspan
                       x="0"
                       y="0"
                       id="tspan136"
                       style="font-size:11.9552002px;font-variant:normal;font-weight:normal;writing-mode:lr-tb;fill:#000000;fill-opacity:1;fill-rule:nonzero;stroke:none;font-family:LMRoman12;-inkscape-font-specification:LMRoman12-Regular">=</tspan></text>
<text
                     transform="matrix(1,0,0,-1,93.789,670.425)"
                     id="text138"><tspan
                       x="0"
                       y="0"
                       id="tspan140"
                       style="font-size:11.9552002px;font-variant:normal;font-weight:normal;writing-mode:lr-tb;fill:#000000;fill-opacity:1;fill-rule:nonzero;stroke:none;font-family:LMMathItalic12;-inkscape-font-specification:LMMathItalic12-Regular">β</tspan><tspan
                       x="143.048"
                       y="21.735001"
                       id="tspan142"
                       style="font-size:11.9552002px;font-variant:normal;font-weight:normal;writing-mode:lr-tb;fill:#000000;fill-opacity:1;fill-rule:nonzero;stroke:none;font-family:LMMathItalic12;-inkscape-font-specification:LMMathItalic12-Regular">R</tspan><tspan
                       x="55.816002"
                       y="122.438"
                       id="tspan144"
                       style="font-size:11.9552002px;font-variant:normal;font-weight:normal;writing-mode:lr-tb;fill:#000000;fill-opacity:1;fill-rule:nonzero;stroke:none;font-family:LMMathItalic12;-inkscape-font-specification:LMMathItalic12-Regular">r</tspan></text>
<text
                     transform="matrix(1,0,0,-1,158.526,547.987)"
                     id="text146"><tspan
                       x="0"
                       y="0"
                       id="tspan148"
                       style="font-size:11.9552002px;font-variant:normal;font-weight:normal;writing-mode:lr-tb;fill:#000000;fill-opacity:1;fill-rule:nonzero;stroke:none;font-family:LMRoman12;-inkscape-font-specification:LMRoman12-Regular">=</tspan></text>
<text
                     transform="matrix(1,0,0,-1,170.952,547.987)"
                     id="text150"><tspan
                       x="0"
                       y="0"
                       id="tspan152"
                       style="font-size:11.9552002px;font-variant:normal;font-weight:normal;writing-mode:lr-tb;fill:#000000;fill-opacity:1;fill-rule:nonzero;stroke:none;font-family:LMMathItalic12;-inkscape-font-specification:LMMathItalic12-Regular">r</tspan></text>
<text
                     transform="matrix(1,0,0,-1,176.227,546.194)"
                     id="text154"><tspan
                       x="0"
                       y="0"
                       id="tspan156"
                       style="font-size:7.97009993px;font-variant:normal;font-weight:normal;writing-mode:lr-tb;fill:#000000;fill-opacity:1;fill-rule:nonzero;stroke:none;font-family:LMRoman8;-inkscape-font-specification:LMRoman8-Regular">1</tspan></text>
<text
                     transform="matrix(1,0,0,-1,180.96,547.987)"
                     id="text158"><tspan
                       x="0"
                       y="0"
                       id="tspan160"
                       style="font-size:11.9552002px;font-variant:normal;font-weight:normal;writing-mode:lr-tb;fill:#000000;fill-opacity:1;fill-rule:nonzero;stroke:none;font-family:LMRoman12;-inkscape-font-specification:LMRoman12-Regular">(</tspan></text>
<text
                     transform="matrix(1,0,0,-1,185.512,547.987)"
                     id="text162"><tspan
                       x="0"
                       y="0"
                       id="tspan164"
                       style="font-size:11.9552002px;font-variant:normal;font-weight:normal;writing-mode:lr-tb;fill:#000000;fill-opacity:1;fill-rule:nonzero;stroke:none;font-family:LMMathItalic12;-inkscape-font-specification:LMMathItalic12-Regular">θ</tspan></text>
<text
                     transform="matrix(1,0,0,-1,191.292,547.987)"
                     id="text166"><tspan
                       x="0"
                       y="0"
                       id="tspan168"
                       style="font-size:11.9552002px;font-variant:normal;font-weight:normal;writing-mode:lr-tb;fill:#000000;fill-opacity:1;fill-rule:nonzero;stroke:none;font-family:LMRoman12;-inkscape-font-specification:LMRoman12-Regular">)</tspan></text>
</g></g></g></g></g></g></g></g></svg>