<?xml version="1.0" encoding="UTF-8" standalone="no"?>
<!-- Created with Inkscape (http://www.inkscape.org/) -->

<svg
   xmlns:dc="http://purl.org/dc/elements/1.1/"
   xmlns:cc="http://creativecommons.org/ns#"
   xmlns:rdf="http://www.w3.org/1999/02/22-rdf-syntax-ns#"
   xmlns:svg="http://www.w3.org/2000/svg"
   xmlns="http://www.w3.org/2000/svg"
   xmlns:inkscape="http://www.inkscape.org/namespaces/inkscape"
   version="1.1"
   width="458.75"
   height="405"
   id="svg2"
   xml:space="preserve"><metadata
     id="metadata8"><rdf:RDF><cc:Work
         rdf:about=""><dc:format>image/svg+xml</dc:format><dc:type
           rdf:resource="http://purl.org/dc/dcmitype/StillImage" /></cc:Work></rdf:RDF></metadata><defs
     id="defs6"><clipPath
       id="clipPath16"><path
         d="m 0,0 595.276,0 0,841.89 L 0,841.89 0,0 z"
         inkscape:connector-curvature="0"
         id="path18" /></clipPath><clipPath
       id="clipPath20"><path
         d="m 0,0 365.97021,0 0,324.77902 L 0,324.77902 0,0 z"
         inkscape:connector-curvature="0"
         id="path22" /></clipPath><clipPath
       id="clipPath24"><path
         d="m 0,0 365.97021,0 0,324.77902 L 0,324.77902 0,0 z"
         inkscape:connector-curvature="0"
         id="path26" /></clipPath><clipPath
       id="clipPath28"><path
         d="m 0,0 365.97021,0 0,324.77902 L 0,324.77902 0,0 z"
         inkscape:connector-curvature="0"
         id="path30" /></clipPath></defs><g
     transform="matrix(1.25,0,0,-1.25,0,405)"
     id="g10"><g
       transform="translate(-70,-448)"
       id="g12"><g
         id="g14" /><g
         id="g32"><g
           clip-path="url(#clipPath16)"
           id="g34"><g
             transform="translate(70.866,446.243)"
             id="g36"><g
               transform="scale(1.00008,1.00008)"
               id="g38"><g
                 id="g40"><g
                   id="g42" /><g
                   id="g44"><g
                     clip-path="url(#clipPath20)"
                     id="g46"><g
                       id="g48"><g
                         transform="matrix(1,0,0,-1,0,324.77902)"
                         id="g50"><path
                           d="m 0,306.523 328.098,0"
                           inkscape:connector-curvature="0"
                           id="path52"
                           style="fill:none;stroke:#000000;stroke-width:0.80000001;stroke-linecap:butt;stroke-linejoin:miter;stroke-miterlimit:4;stroke-opacity:1;stroke-dasharray:none" /></g><g
                         transform="matrix(-1,0,0,1,0,324.77902)"
                         id="g54"><path
                           d="m -320.098,-306.523 3.2,-3.2 -11.2,3.2 11.2,3.203 -3.2,-3.203 z"
                           inkscape:connector-curvature="0"
                           id="path56"
                           style="fill:#000000;fill-opacity:1;fill-rule:evenodd;stroke:#000000;stroke-width:0.80000001;stroke-linecap:butt;stroke-linejoin:miter;stroke-miterlimit:4;stroke-opacity:1;stroke-dasharray:none" /></g><g
                         transform="matrix(1,0,0,-1,0,324.77902)"
                         id="g58"><path
                           d="M 8.891,314.602 129.301,194.191"
                           inkscape:connector-curvature="0"
                           id="path60"
                           style="fill:none;stroke:#000000;stroke-width:0.80000001;stroke-linecap:butt;stroke-linejoin:miter;stroke-miterlimit:4;stroke-opacity:1;stroke-dasharray:none" /></g><g
                         transform="matrix(-1,-1,-1,1,0,324.77902)"
                         id="g62"><path
                           d="m 38.104,-161.748 2.261,-2.262 -7.92,2.264 7.922,2.262 -2.263,-2.264 z"
                           inkscape:connector-curvature="0"
                           id="path64"
                           style="fill:#000000;fill-opacity:1;fill-rule:evenodd;stroke:#000000;stroke-width:0.56568497;stroke-linecap:butt;stroke-linejoin:miter;stroke-miterlimit:4;stroke-opacity:1;stroke-dasharray:none" /></g><path
                         d="m 214.961,112.806 c -44.379,-1.672 -80.793,-9.984 -99.398,-33.132 -15.149,-19.082 -1.086,-29.516 17.777,-34.75 34.594,-7.36 62.902,-14.989 97.781,-8.887 18.195,4.137 10.961,15.461 8.082,25.051 -8.34,28.613 27.305,8.449 56.57,28.285 9.52,6.605 25.61,14.82 -27.476,21.011 -30.266,1.586 -33.945,4.04 -53.336,2.422 z"
                         inkscape:connector-curvature="0"
                         id="path66"
                         style="fill:#000000;fill-opacity:0.21568598;fill-rule:evenodd;stroke:none" /><g
                         transform="matrix(1,0,0,-1,0,324.77902)"
                         id="g68"><path
                           d="m 214.961,211.973 c -44.379,1.672 -80.793,9.984 -99.398,33.132 -15.149,19.083 -1.086,29.516 17.777,34.75 34.594,7.36 62.902,14.989 97.781,8.887 18.195,-4.137 10.961,-15.461 8.082,-25.051 -8.34,-28.613 27.305,-8.449 56.57,-28.285 9.52,-6.605 25.61,-14.82 -27.476,-21.011 -30.266,-1.586 -33.945,-4.04 -53.336,-2.422 z"
                           inkscape:connector-curvature="0"
                           id="path70"
                           style="fill:none;stroke:#000000;stroke-width:0.80000001;stroke-linecap:butt;stroke-linejoin:miter;stroke-miterlimit:4;stroke-opacity:1;stroke-dasharray:none" /></g><g
                         transform="matrix(1,0,0,-1,0,324.77902)"
                         id="g72"><path
                           d="m 16.969,319.453 0,-317.996"
                           inkscape:connector-curvature="0"
                           id="path74"
                           style="fill:none;stroke:#000000;stroke-width:0.80000001;stroke-linecap:butt;stroke-linejoin:miter;stroke-miterlimit:4;stroke-opacity:1;stroke-dasharray:none" /></g><g
                         transform="matrix(0,-1,-1,0,0,324.77902)"
                         id="g76"><path
                           d="m 9.457,-16.969 3.199,-3.203 -11.199,3.203 11.199,3.199 -3.199,-3.199 z"
                           inkscape:connector-curvature="0"
                           id="path78"
                           style="fill:#000000;fill-opacity:1;fill-rule:evenodd;stroke:#000000;stroke-width:0.80000001;stroke-linecap:butt;stroke-linejoin:miter;stroke-miterlimit:4;stroke-opacity:1;stroke-dasharray:none" /></g><g
                         transform="matrix(1,0,0,-1,0,324.77902)"
                         id="g80"><path
                           d="m 109.098,177.664 0,-109.098"
                           inkscape:connector-curvature="0"
                           id="path82"
                           style="fill:none;stroke:#000000;stroke-width:0.80000001;stroke-linecap:butt;stroke-linejoin:miter;stroke-miterlimit:4;stroke-opacity:1;stroke-dasharray:none" /></g><g
                         transform="matrix(1,0,0,-1,0,324.77902)"
                         id="g84"><path
                           d="m 305.875,143.316 0,-89.296"
                           inkscape:connector-curvature="0"
                           id="path86"
                           style="fill:none;stroke:#000000;stroke-width:0.80000001;stroke-linecap:butt;stroke-linejoin:miter;stroke-miterlimit:4;stroke-opacity:1;stroke-dasharray:none" /></g><path
                         d="m 214.961,194.408 c -44.379,-1.676 -80.793,-9.984 -99.398,-33.133 -15.149,-19.086 -1.086,-29.516 17.777,-34.75 34.594,-7.363 62.902,-14.992 97.781,-8.891 18.195,4.141 10.961,15.465 8.082,25.055 -8.34,28.61 27.305,8.445 56.57,28.281 9.52,6.61 25.61,14.825 -27.476,21.012 -30.266,1.59 -33.945,4.043 -53.336,2.426 z"
                         inkscape:connector-curvature="0"
                         id="path88"
                         style="fill:#000000;fill-opacity:0.21568598;fill-rule:evenodd;stroke:none" /><g
                         transform="matrix(1,0,0,-1,0,324.77902)"
                         id="g90"><path
                           d="m 214.961,130.371 c -44.379,1.676 -80.793,9.984 -99.398,33.133 -15.149,19.086 -1.086,29.516 17.777,34.75 34.594,7.363 62.902,14.992 97.781,8.891 18.195,-4.141 10.961,-15.465 8.082,-25.055 -8.34,-28.61 27.305,-8.445 56.57,-28.281 9.52,-6.61 25.61,-14.825 -27.476,-21.012 -30.266,-1.59 -33.945,-4.043 -53.336,-2.426 z"
                           inkscape:connector-curvature="0"
                           id="path92"
                           style="fill:none;stroke:#000000;stroke-width:0.80000001;stroke-linecap:butt;stroke-linejoin:miter;stroke-miterlimit:4;stroke-opacity:1;stroke-dasharray:none" /></g></g></g></g></g></g><g
               transform="translate(-70.866,-446.243)"
               id="g94"><text
                 transform="matrix(1,0,0,-1,252.266,515.795)"
                 id="text96"><tspan
                   x="0"
                   y="0"
                   id="tspan98"
                   style="font-size:11.9552002px;font-variant:normal;font-weight:normal;writing-mode:lr-tb;fill:#000000;fill-opacity:1;fill-rule:nonzero;stroke:none;font-family:LMMathItalic12;-inkscape-font-specification:LMMathItalic12-Regular">R</tspan></text>
<g
                 transform="translate(70.866,446.243)"
                 id="g100"><g
                   transform="scale(1.00008,1.00008)"
                   id="g102"><g
                     id="g104"><g
                       id="g106" /><g
                       id="g108"><g
                         clip-path="url(#clipPath24)"
                         id="g110"><g
                           id="g112"><g
                             transform="matrix(1,0,0,-1,0,324.77902)"
                             id="g114"><path
                               d="m 16.969,217.691 c 30.453,-36.496 59.015,-73.371 115.562,-104.652 40.492,-24.637 152.11,-0.613 229.508,0 -22.246,29.332 -42.586,60.445 -48.891,104.652 -105.925,9.68 -249.21,-24.777 -296.179,0 z"
                               inkscape:connector-curvature="0"
                               id="path116"
                               style="fill:none;stroke:#000000;stroke-width:0.80000001;stroke-linecap:butt;stroke-linejoin:miter;stroke-miterlimit:4;stroke-opacity:1;stroke-dasharray:none" /></g></g></g></g></g></g><g
                   transform="translate(-70.866,-446.243)"
                   id="g118"><text
                     transform="matrix(1,0,0,-1,338.057,574.469)"
                     id="text120"><tspan
                       x="0"
                       y="0"
                       id="tspan122"
                       style="font-size:11.9552002px;font-variant:normal;font-weight:normal;writing-mode:lr-tb;fill:#000000;fill-opacity:1;fill-rule:nonzero;stroke:none;font-family:LMMathItalic12;-inkscape-font-specification:LMMathItalic12-Regular">z</tspan></text>
<text
                     transform="matrix(1,0,0,-1,347.349,574.469)"
                     id="text124"><tspan
                       x="0"
                       y="0"
                       id="tspan126"
                       style="font-size:11.9552002px;font-variant:normal;font-weight:normal;writing-mode:lr-tb;fill:#000000;fill-opacity:1;fill-rule:nonzero;stroke:none;font-family:LMRoman12;-inkscape-font-specification:LMRoman12-Regular">=</tspan></text>
<text
                     transform="matrix(1,0,0,-1,359.774,574.469)"
                     id="text128"><tspan
                       x="0"
                       y="0"
                       id="tspan130"
                       style="font-size:11.9552002px;font-variant:normal;font-weight:normal;writing-mode:lr-tb;fill:#000000;fill-opacity:1;fill-rule:nonzero;stroke:none;font-family:LMMathItalic12;-inkscape-font-specification:LMMathItalic12-Regular">g</tspan></text>
<text
                     transform="matrix(1,0,0,-1,365.38,572.676)"
                     id="text132"><tspan
                       x="0"
                       y="0"
                       id="tspan134"
                       style="font-size:7.97009993px;font-variant:normal;font-weight:normal;writing-mode:lr-tb;fill:#000000;fill-opacity:1;fill-rule:nonzero;stroke:none;font-family:LMRoman8;-inkscape-font-specification:LMRoman8-Regular">1</tspan></text>
<text
                     transform="matrix(1,0,0,-1,370.112,574.469)"
                     id="text136"><tspan
                       x="0"
                       y="0"
                       id="tspan138"
                       style="font-size:11.9552002px;font-variant:normal;font-weight:normal;writing-mode:lr-tb;fill:#000000;fill-opacity:1;fill-rule:nonzero;stroke:none;font-family:LMRoman12;-inkscape-font-specification:LMRoman12-Regular">(</tspan></text>
<text
                     transform="matrix(1,0,0,-1,374.664,574.469)"
                     id="text140"><tspan
                       x="0 6.6518731 11.900206"
                       y="0"
                       id="tspan142"
                       style="font-size:11.9552002px;font-variant:normal;font-weight:normal;writing-mode:lr-tb;fill:#000000;fill-opacity:1;fill-rule:nonzero;stroke:none;font-family:LMMathItalic12;-inkscape-font-specification:LMMathItalic12-Regular">x,y</tspan></text>
<text
                     transform="matrix(1,0,0,-1,392.697,574.469)"
                     id="text144"><tspan
                       x="0"
                       y="0"
                       id="tspan146"
                       style="font-size:11.9552002px;font-variant:normal;font-weight:normal;writing-mode:lr-tb;fill:#000000;fill-opacity:1;fill-rule:nonzero;stroke:none;font-family:LMRoman12;-inkscape-font-specification:LMRoman12-Regular">)</tspan></text>
<text
                     transform="matrix(1,0,0,-1,393.068,448.594)"
                     id="text148"><tspan
                       x="0"
                       y="0"
                       id="tspan150"
                       style="font-size:11.9552002px;font-variant:normal;font-weight:normal;writing-mode:lr-tb;fill:#000000;fill-opacity:1;fill-rule:nonzero;stroke:none;font-family:LMMathItalic12;-inkscape-font-specification:LMMathItalic12-Regular">x</tspan><tspan
                       x="-243.815"
                       y="-92.431"
                       id="tspan152"
                       style="font-size:11.9552002px;font-variant:normal;font-weight:normal;writing-mode:lr-tb;fill:#000000;fill-opacity:1;fill-rule:nonzero;stroke:none;font-family:LMMathItalic12;-inkscape-font-specification:LMMathItalic12-Regular">y</tspan><tspan
                       x="-300.383"
                       y="-296.172"
                       id="tspan154"
                       style="font-size:11.9552002px;font-variant:normal;font-weight:normal;writing-mode:lr-tb;fill:#000000;fill-opacity:1;fill-rule:nonzero;stroke:none;font-family:LMMathItalic12;-inkscape-font-specification:LMMathItalic12-Regular">z</tspan></text>
<g
                     transform="translate(70.866,446.243)"
                     id="g156"><g
                       transform="scale(1.00008,1.00008)"
                       id="g158"><g
                         id="g160"><g
                           id="g162" /><g
                           id="g164"><g
                             clip-path="url(#clipPath28)"
                             id="g166"><g
                               id="g168"><g
                                 transform="matrix(1,0,0,-1,0,324.77902)"
                                 id="g170"><path
                                   d="M 16.969,124.848 C 63.238,99.16 86.961,64.801 120.813,34.34 168.09,58.395 206.012,44.555 231.93,39.188 273.082,29.383 314.836,10.48 365.27,19.793 l -61.821,84.449 C 238.199,79.602 167.617,81.344 109.5,106.262 80.742,119.758 50.035,126.434 16.969,124.848 z"
                                   inkscape:connector-curvature="0"
                                   id="path172"
                                   style="fill:none;stroke:#000000;stroke-width:0.80000001;stroke-linecap:butt;stroke-linejoin:miter;stroke-miterlimit:4;stroke-opacity:1;stroke-dasharray:none" /></g><path
                                 d="m 214.973,276.447 c -44.442,-0.719 -80.907,-4.285 -99.539,-14.223 -15.168,-8.195 -1.086,-12.672 17.804,-14.918 34.641,-3.16 62.989,-6.437 97.918,-3.816 18.219,1.777 10.973,6.637 8.094,10.754 -8.352,12.285 27.34,3.625 56.645,12.14 9.535,2.84 25.648,6.368 -27.512,9.024 -30.309,0.68 -33.992,1.734 -53.41,1.039 z"
                                 inkscape:connector-curvature="0"
                                 id="path174"
                                 style="fill:#000000;fill-opacity:0.21568598;fill-rule:evenodd;stroke:none" /><g
                                 transform="matrix(1,0,0,-1,0,324.77902)"
                                 id="g176"><path
                                   d="m 214.973,48.332 c -44.442,0.719 -80.907,4.285 -99.539,14.223 -15.168,8.195 -1.086,12.672 17.804,14.918 34.641,3.16 62.989,6.437 97.918,3.816 18.219,-1.777 10.973,-6.637 8.094,-10.754 -8.352,-12.285 27.34,-3.625 56.645,-12.14 9.535,-2.84 25.648,-6.368 -27.512,-9.024 -30.309,-0.68 -33.992,-1.734 -53.41,-1.039 z"
                                   inkscape:connector-curvature="0"
                                   id="path178"
                                   style="fill:none;stroke:#000000;stroke-width:0.80000001;stroke-linecap:butt;stroke-linejoin:miter;stroke-miterlimit:4;stroke-opacity:1;stroke-dasharray:none" /></g><path
                                 d="m 109.793,203.021 0,49.793 2.355,-1.199 c 5.676,-2.883 13.86,-4.27 38.051,-6.445 33.317,-2.996 51.43,-3.743 69.903,-2.887 17.8,0.82 23.433,2.215 23.433,5.793 0,1.441 -0.308,2.031 -2.836,5.371 -4.617,6.094 -2.304,7.105 17.989,7.867 20.921,0.789 30.136,2.078 41.515,5.805 l 5.152,1.687 0,-85.418 -2.32,1.395 c -6.015,3.625 -23.402,7.047 -41.922,8.25 -3.777,0.246 -10.687,0.805 -15.355,1.242 -12.977,1.223 -21.063,1.367 -33.942,0.609 -28.871,-1.699 -46.191,-4.621 -62.746,-10.585 -17.047,-6.141 -31.082,-16.559 -37.418,-27.778 l -1.859,-3.297 0,49.797 z"
                                 inkscape:connector-curvature="0"
                                 id="path180"
                                 style="fill:#000000;fill-opacity:0.21568598;fill-rule:nonzero;stroke:none" /><g
                                 transform="matrix(1,0,0,-1,0,324.77902)"
                                 id="g182"><path
                                   d="m 109.793,121.758 0,-49.793 2.355,1.199 c 5.676,2.883 13.86,4.27 38.051,6.445 33.317,2.996 51.43,3.743 69.903,2.887 17.8,-0.82 23.433,-2.215 23.433,-5.793 0,-1.441 -0.308,-2.031 -2.836,-5.371 -4.617,-6.094 -2.304,-7.105 17.989,-7.867 20.921,-0.789 30.136,-2.078 41.515,-5.805 l 5.152,-1.687 0,85.418 -2.32,-1.395 c -6.015,-3.625 -23.402,-7.047 -41.922,-8.25 -3.777,-0.246 -10.687,-0.805 -15.355,-1.242 -12.977,-1.223 -21.063,-1.367 -33.942,-0.609 -28.871,1.699 -46.191,4.621 -62.746,10.585 -17.047,6.141 -31.082,16.559 -37.418,27.778 l -1.859,3.297 0,-49.797 z"
                                   inkscape:connector-curvature="0"
                                   id="path184"
                                   style="fill:none;stroke:#000000;stroke-width:0.40406099;stroke-linecap:butt;stroke-linejoin:miter;stroke-miterlimit:4;stroke-opacity:1;stroke-dasharray:none" /></g></g></g></g></g></g><g
                       transform="translate(-70.866,-446.243)"
                       id="g186"><text
                         transform="matrix(1,0,0,-1,252.266,650.197)"
                         id="text188"><tspan
                           x="0"
                           y="0"
                           id="tspan190"
                           style="font-size:11.9552002px;font-variant:normal;font-weight:normal;writing-mode:lr-tb;fill:#000000;fill-opacity:1;fill-rule:nonzero;stroke:none;font-family:LMMathItalic12;-inkscape-font-specification:LMMathItalic12-Regular">G</tspan><tspan
                           x="-36.124001"
                           y="-83.182999"
                           id="tspan192"
                           style="font-size:11.9552002px;font-variant:normal;font-weight:normal;writing-mode:lr-tb;fill:#000000;fill-opacity:1;fill-rule:nonzero;stroke:none;font-family:LMMathItalic12;-inkscape-font-specification:LMMathItalic12-Regular">z</tspan></text>
<text
                         transform="matrix(1,0,0,-1,225.433,733.38)"
                         id="text194"><tspan
                           x="0"
                           y="0"
                           id="tspan196"
                           style="font-size:11.9552002px;font-variant:normal;font-weight:normal;writing-mode:lr-tb;fill:#000000;fill-opacity:1;fill-rule:nonzero;stroke:none;font-family:LMRoman12;-inkscape-font-specification:LMRoman12-Regular">=</tspan></text>
<text
                         transform="matrix(1,0,0,-1,237.859,733.38)"
                         id="text198"><tspan
                           x="0"
                           y="0"
                           id="tspan200"
                           style="font-size:11.9552002px;font-variant:normal;font-weight:normal;writing-mode:lr-tb;fill:#000000;fill-opacity:1;fill-rule:nonzero;stroke:none;font-family:LMMathItalic12;-inkscape-font-specification:LMMathItalic12-Regular">g</tspan></text>
<text
                         transform="matrix(1,0,0,-1,243.464,731.587)"
                         id="text202"><tspan
                           x="0"
                           y="0"
                           id="tspan204"
                           style="font-size:7.97009993px;font-variant:normal;font-weight:normal;writing-mode:lr-tb;fill:#000000;fill-opacity:1;fill-rule:nonzero;stroke:none;font-family:LMRoman8;-inkscape-font-specification:LMRoman8-Regular">2</tspan></text>
<text
                         transform="matrix(1,0,0,-1,248.196,733.38)"
                         id="text206"><tspan
                           x="0"
                           y="0"
                           id="tspan208"
                           style="font-size:11.9552002px;font-variant:normal;font-weight:normal;writing-mode:lr-tb;fill:#000000;fill-opacity:1;fill-rule:nonzero;stroke:none;font-family:LMRoman12;-inkscape-font-specification:LMRoman12-Regular">(</tspan></text>
<text
                         transform="matrix(1,0,0,-1,252.749,733.38)"
                         id="text210"><tspan
                           x="0 6.6518731 11.900206"
                           y="0"
                           id="tspan212"
                           style="font-size:11.9552002px;font-variant:normal;font-weight:normal;writing-mode:lr-tb;fill:#000000;fill-opacity:1;fill-rule:nonzero;stroke:none;font-family:LMMathItalic12;-inkscape-font-specification:LMMathItalic12-Regular">x,y</tspan></text>
<text
                         transform="matrix(1,0,0,-1,270.781,733.38)"
                         id="text214"><tspan
                           x="0"
                           y="0"
                           id="tspan216"
                           style="font-size:11.9552002px;font-variant:normal;font-weight:normal;writing-mode:lr-tb;fill:#000000;fill-opacity:1;fill-rule:nonzero;stroke:none;font-family:LMRoman12;-inkscape-font-specification:LMRoman12-Regular">)</tspan></text>
</g></g></g></g></g></g></g></g></g></g></svg>