<?xml version="1.0" encoding="UTF-8" standalone="no"?>
<!-- Created with Inkscape (http://www.inkscape.org/) -->

<svg
   xmlns:dc="http://purl.org/dc/elements/1.1/"
   xmlns:cc="http://creativecommons.org/ns#"
   xmlns:rdf="http://www.w3.org/1999/02/22-rdf-syntax-ns#"
   xmlns:svg="http://www.w3.org/2000/svg"
   xmlns="http://www.w3.org/2000/svg"
   xmlns:inkscape="http://www.inkscape.org/namespaces/inkscape"
   version="1.1"
   width="384.46875"
   height="328.8125"
   id="svg2"
   xml:space="preserve"><metadata
     id="metadata8"><rdf:RDF><cc:Work
         rdf:about=""><dc:format>image/svg+xml</dc:format><dc:type
           rdf:resource="http://purl.org/dc/dcmitype/StillImage" /></cc:Work></rdf:RDF></metadata><defs
     id="defs6" /><g
     transform="matrix(1.25,0,0,-1.25,0,328.81249)"
     id="g10"><g
       id="g12"><g
         transform="matrix(1,0,0,-1,0,263.04999)"
         id="g14"><path
           d="m 134.531,-5.355 c 0.192,0.949 0.387,1.73 0.578,2.156 0.711,1.574 1.422,7.703 2.133,9.195 0.711,1.496 1.422,7.316 2.133,8.734 0.711,1.418 1.422,6.934 2.133,8.274 0.715,1.344 1.426,6.551 2.137,7.816 0.71,1.266 1.421,6.168 2.132,7.356 0.711,1.187 1.422,5.785 2.133,6.894 0.711,1.114 1.422,5.403 2.133,6.438 0.711,1.035 1.422,5.019 2.133,5.976 0.711,0.957 1.422,4.633 2.133,5.516 0.711,0.879 1.421,4.25 2.132,5.055 0.711,0.804 1.422,3.871 2.137,4.597 0.711,0.731 1.422,3.489 2.133,4.137 0.711,0.652 1.422,3.106 2.133,3.68 0.711,0.574 1.422,2.719 2.133,3.219 0.711,0.496 1.421,2.335 2.132,2.757 0.711,0.422 1.422,1.953 2.133,2.297 0.711,0.344 1.422,1.57 2.133,1.84 0.711,0.27 1.422,1.188 2.133,1.379 0.711,0.191 1.426,0.805 2.137,0.918 0.71,0.117 1.421,0.422 2.132,0.461 0.711,0.039 1.422,0.039 2.133,0 0.711,-0.039 1.422,-0.344 2.133,-0.461 0.711,-0.113 1.422,-0.727 2.133,-0.918 0.711,-0.191 1.422,-1.109 2.133,-1.379 0.711,-0.27 1.421,-1.496 2.132,-1.84 0.711,-0.344 1.422,-1.875 2.133,-2.297 0.715,-0.422 1.426,-2.261 2.137,-2.757 0.711,-0.5 1.422,-2.645 2.133,-3.219 0.711,-0.574 1.422,-3.028 2.133,-3.68 0.711,-0.648 1.421,-3.406 2.132,-4.137 0.711,-0.726 1.422,-3.793 2.133,-4.597 0.711,-0.805 1.422,-4.176 2.133,-5.055 0.711,-0.883 1.422,-4.559 2.133,-5.516 0.711,-0.957 1.422,-4.941 2.137,-5.976 0.71,-1.035 1.421,-5.324 2.132,-6.438 0.711,-1.109 1.422,-5.707 2.133,-6.894 0.711,-1.188 1.422,-6.09 2.133,-7.356 0.711,-1.265 1.422,-6.472 2.133,-7.816 0.711,-1.34 1.422,-6.856 2.133,-8.274 0.711,-1.418 1.421,-7.238 2.132,-8.734 0.711,-1.492 1.422,-7.621 2.133,-9.195 0.196,-0.422 0.387,-1.203 0.578,-2.153"
           inkscape:connector-curvature="0"
           id="path16"
           style="fill:none;stroke:#ff8400;stroke-width:4.21439981;stroke-linecap:butt;stroke-linejoin:miter;stroke-miterlimit:4;stroke-opacity:1;stroke-dasharray:none" /></g><g
         transform="matrix(1,0,0,-1,0,263.04999)"
         id="g18"><path
           d="m 6.211,-5.055 c 0.148,1.032 0.293,1.875 0.441,2.391 0.711,2.488 1.422,12.297 2.133,14.711 0.711,2.414 1.422,11.914 2.133,14.25 0.711,2.336 1.422,11.531 2.133,13.793 0.715,2.258 1.426,11.144 2.137,13.328 0.71,2.184 1.421,10.766 2.132,12.871 0.711,2.109 1.422,10.383 2.133,12.414 0.711,2.031 1.422,10 2.133,11.953 0.711,1.953 1.422,9.614 2.133,11.492 0.711,1.875 1.422,9.231 2.133,11.032 0.71,1.8 1.421,8.851 2.132,10.574 0.711,1.723 1.422,8.465 2.137,10.113 0.711,1.649 1.422,8.082 2.133,9.653 0.711,1.57 1.422,7.703 2.133,9.195 0.711,1.492 1.422,7.316 2.133,8.734 0.71,1.418 1.421,6.934 2.132,8.274 0.711,1.343 1.422,6.55 2.133,7.816 0.711,1.266 1.422,6.168 2.133,7.356 0.711,1.187 1.422,5.785 2.133,6.894 0.711,1.113 1.426,5.402 2.137,6.438 0.71,1.031 1.421,5.015 2.132,5.976 0.711,0.957 1.422,4.633 2.133,5.516 0.711,0.879 1.422,4.25 2.133,5.054 0.711,0.805 1.422,3.872 2.133,4.598 0.711,0.727 1.422,3.488 2.133,4.137 0.71,0.652 1.421,3.105 2.132,3.68 0.711,0.574 1.422,2.718 2.133,3.218 0.715,0.496 1.426,2.336 2.137,2.758 0.711,0.422 1.422,1.953 2.133,2.297 0.711,0.344 1.422,1.57 2.133,1.84 0.71,0.265 1.421,1.187 2.132,1.379 0.711,0.191 1.422,0.804 2.133,0.918 0.711,0.117 1.422,0.422 2.133,0.461 0.711,0.039 1.422,0.039 2.133,0 0.711,-0.039 1.422,-0.344 2.137,-0.461 0.71,-0.114 1.421,-0.727 2.132,-0.918 0.711,-0.192 1.422,-1.114 2.133,-1.379 0.711,-0.27 1.422,-1.496 2.133,-1.84 0.711,-0.344 1.422,-1.875 2.133,-2.297 0.711,-0.422 1.422,-2.262 2.133,-2.758 0.71,-0.5 1.421,-2.644 2.132,-3.218 0.711,-0.575 1.422,-3.028 2.133,-3.68 0.715,-0.649 1.426,-3.41 2.137,-4.137 0.711,-0.726 1.422,-3.793 2.133,-4.598 0.711,-0.804 1.422,-4.175 2.133,-5.054 0.71,-0.883 1.421,-4.559 2.132,-5.516 0.711,-0.961 1.422,-4.945 2.133,-5.976 0.711,-1.036 1.422,-5.325 2.133,-6.438 0.711,-1.109 1.422,-5.707 2.133,-6.894 0.711,-1.188 1.422,-6.09 2.137,-7.356 0.71,-1.266 1.421,-6.473 2.132,-7.816 0.711,-1.34 1.422,-6.856 2.133,-8.274 0.711,-1.418 1.422,-7.242 2.133,-8.734 0.711,-1.492 1.422,-7.625 2.133,-9.195 0.711,-1.571 1.422,-8.004 2.133,-9.653 0.71,-1.648 1.421,-8.39 2.132,-10.113 0.711,-1.723 1.422,-8.774 2.133,-10.574 0.711,-1.801 1.426,-9.157 2.137,-11.032 0.711,-1.878 1.422,-9.539 2.133,-11.492 0.711,-1.953 1.422,-9.922 2.133,-11.953 0.71,-2.031 1.421,-10.305 2.132,-12.414 0.711,-2.105 1.422,-10.687 2.133,-12.871 0.711,-2.184 1.422,-11.07 2.133,-13.328 0.711,-2.262 1.422,-11.457 2.133,-13.793 0.711,-2.336 1.422,-11.836 2.133,-14.25 0.714,-2.414 1.425,-12.223 2.136,-14.711 0.145,-0.516 0.293,-1.356 0.442,-2.391"
           inkscape:connector-curvature="0"
           id="path20"
           style="fill:none;stroke:#0000ff;stroke-width:4.21439981;stroke-linecap:butt;stroke-linejoin:miter;stroke-miterlimit:4;stroke-opacity:1;stroke-dasharray:none" /></g><g
         transform="matrix(1,0,0,-1,0,263.04999)"
         id="g22"><path
           d="m 310.906,148.523 -315.703,0"
           inkscape:connector-curvature="0"
           id="path24"
           style="fill:none;stroke:#000000;stroke-width:1.60000002;stroke-linecap:butt;stroke-linejoin:miter;stroke-miterlimit:4;stroke-opacity:1;stroke-dasharray:none" /></g><g
         transform="matrix(1,0,0,-1,0,263.04999)"
         id="g26"><path
           d="m 38.391,148.523 c 0,3.047 -2.469,5.52 -5.52,5.52 -3.047,0 -5.519,-2.473 -5.516,-5.52 -0.003,-3.05 2.469,-5.523 5.516,-5.523 3.051,0 5.52,2.473 5.52,5.523 z"
           inkscape:connector-curvature="0"
           id="path28"
           style="fill:#0000ff;fill-opacity:1;fill-rule:nonzero;stroke:#0000ff;stroke-width:1.60000002;stroke-linecap:butt;stroke-linejoin:miter;stroke-miterlimit:4;stroke-opacity:1;stroke-dasharray:none" /></g><g
         transform="matrix(1,0,0,-1,0,263.04999)"
         id="g30"><path
           d="m 123.219,148.523 c 0,3.047 -2.469,5.52 -5.52,5.52 -3.047,0 -5.519,-2.473 -5.515,-5.52 -0.004,-3.05 2.468,-5.523 5.515,-5.523 3.051,0 5.52,2.473 5.52,5.523 z"
           inkscape:connector-curvature="0"
           id="path32"
           style="fill:#0000ff;fill-opacity:1;fill-rule:nonzero;stroke:#0000ff;stroke-width:1.60000002;stroke-linecap:butt;stroke-linejoin:miter;stroke-miterlimit:4;stroke-opacity:1;stroke-dasharray:none" /></g><g
         transform="matrix(1,0,0,-1,0,263.04999)"
         id="g34"><path
           d="m 241.148,148.285 c 0,3.051 -2.468,5.52 -5.515,5.52 -3.051,0 -5.52,-2.469 -5.52,-5.52 0,-3.047 2.469,-5.519 5.52,-5.519 3.047,0 5.515,2.472 5.515,5.519 z"
           inkscape:connector-curvature="0"
           id="path36"
           style="fill:#800000;fill-opacity:1;fill-rule:nonzero;stroke:#800000;stroke-width:1.60000002;stroke-linecap:butt;stroke-linejoin:miter;stroke-miterlimit:4;stroke-opacity:1;stroke-dasharray:none" /></g><g
         transform="matrix(1,0,0,-1,0,263.04999)"
         id="g38"><path
           d="m 187.469,148.523 c 0,1.524 -1.235,2.758 -2.758,2.758 -1.523,0 -2.762,-1.234 -2.758,-2.758 -0.004,-1.527 1.235,-2.761 2.758,-2.761 1.523,0 2.758,1.234 2.758,2.761 z"
           inkscape:connector-curvature="0"
           id="path40"
           style="fill:#000000;fill-opacity:1;fill-rule:nonzero;stroke:#000000;stroke-width:0.80000001;stroke-linecap:butt;stroke-linejoin:miter;stroke-miterlimit:4;stroke-opacity:1;stroke-dasharray:none" /></g><text
         transform="matrix(1,0,0,-1,212.48201,125.34403)"
         id="text42"><tspan
           x="0"
           y="0"
           id="tspan44"
           style="font-size:17.60000038px;font-variant:normal;font-weight:normal;writing-mode:lr-tb;fill:#800000;fill-opacity:1;fill-rule:nonzero;stroke:none;font-family:DejaVu Sans;-inkscape-font-specification:DejaVuSans">Δ</tspan></text>
<text
         transform="matrix(1,0,0,-1,230.09961,125.34403)"
         id="text46"><tspan
           x="0 14.7312 20.3104"
           y="0"
           id="tspan48"
           style="font-size:17.60000038px;font-variant:normal;font-weight:normal;writing-mode:lr-tb;fill:#800000;fill-opacity:1;fill-rule:nonzero;stroke:none;font-family:DejaVu Sans;-inkscape-font-specification:DejaVuSans">= 0</tspan></text>
<text
         transform="matrix(1,0,0,-1,218.36689,206.36005)"
         id="text50"><tspan
           x="0"
           y="0"
           id="tspan52"
           style="font-size:17.60000038px;font-variant:normal;font-weight:normal;writing-mode:lr-tb;fill:#ff8400;fill-opacity:1;fill-rule:nonzero;stroke:none;font-family:DejaVu Sans;-inkscape-font-specification:DejaVuSans">Δ</tspan></text>
<text
         transform="matrix(1,0,0,-1,235.98449,206.36005)"
         id="text54"><tspan
           x="0 14.7312 20.3104"
           y="0"
           id="tspan56"
           style="font-size:17.60000038px;font-variant:normal;font-weight:normal;writing-mode:lr-tb;fill:#ff8400;fill-opacity:1;fill-rule:nonzero;stroke:none;font-family:DejaVu Sans;-inkscape-font-specification:DejaVuSans">&lt; 0</tspan></text>
<text
         transform="matrix(1,0,0,-1,51.910181,128.83426)"
         id="text58"><tspan
           x="0"
           y="0"
           id="tspan60"
           style="font-size:17.60000038px;font-variant:normal;font-weight:normal;writing-mode:lr-tb;fill:#0000ff;fill-opacity:1;fill-rule:nonzero;stroke:none;font-family:DejaVu Sans;-inkscape-font-specification:DejaVuSans">Δ</tspan></text>
<text
         transform="matrix(1,0,0,-1,69.527781,128.83426)"
         id="text62"><tspan
           x="0 14.7312 20.3104"
           y="0"
           id="tspan64"
           style="font-size:17.60000038px;font-variant:normal;font-weight:normal;writing-mode:lr-tb;fill:#0000ff;fill-opacity:1;fill-rule:nonzero;stroke:none;font-family:DejaVu Sans;-inkscape-font-specification:DejaVuSans">&gt; 0</tspan></text>
<g
         transform="matrix(1,0,0,-1,0,263.04999)"
         id="g66"><path
           d="m 184.711,-6.141 0,272.852"
           inkscape:connector-curvature="0"
           id="path68"
           style="fill:none;stroke:#000000;stroke-width:1.60000002;stroke-linecap:butt;stroke-linejoin:miter;stroke-miterlimit:4;stroke-opacity:1;stroke-dasharray:none" /></g><g
         transform="matrix(1,0,0,-1,0,263.04999)"
         id="g70"><path
           d="m 188.039,266.137 c 0.172,-0.895 0.348,-1.625 0.52,-2.043 0.711,-1.723 1.421,-8.465 2.132,-10.114 0.711,-1.648 1.422,-8.082 2.133,-9.652 0.711,-1.574 1.422,-7.703 2.133,-9.195 0.711,-1.496 1.422,-7.317 2.133,-8.735 0.711,-1.418 1.422,-6.933 2.133,-8.273 0.711,-1.344 1.422,-6.551 2.132,-7.816 0.715,-1.266 1.426,-6.168 2.137,-7.356 0.711,-1.187 1.422,-5.785 2.133,-6.894 0.711,-1.114 1.422,-5.403 2.133,-6.438 0.711,-1.035 1.422,-5.019 2.133,-5.976 0.711,-0.957 1.421,-4.633 2.132,-5.516 0.711,-0.879 1.422,-4.25 2.133,-5.055 0.711,-0.804 1.422,-3.871 2.133,-4.597 0.711,-0.731 1.422,-3.489 2.137,-4.137 0.711,-0.652 1.422,-3.106 2.133,-3.68 0.711,-0.574 1.421,-2.719 2.132,-3.219 0.711,-0.496 1.422,-2.336 2.133,-2.757 0.711,-0.422 1.422,-1.954 2.133,-2.297 0.711,-0.344 1.422,-1.571 2.133,-1.84 0.711,-0.27 1.422,-1.188 2.133,-1.379 0.711,-0.191 1.422,-0.805 2.132,-0.918 0.711,-0.117 1.426,-0.422 2.137,-0.461 0.711,-0.039 1.422,-0.039 2.133,0 0.711,0.039 1.422,0.344 2.133,0.461 0.711,0.113 1.422,0.727 2.133,0.918 0.711,0.191 1.421,1.109 2.132,1.379 0.711,0.269 1.422,1.496 2.133,1.84 0.711,0.343 1.422,1.875 2.133,2.297 0.711,0.421 1.422,2.261 2.133,2.757 0.715,0.5 1.426,2.645 2.137,3.219 0.711,0.574 1.421,3.028 2.132,3.68 0.711,0.648 1.422,3.406 2.133,4.137 0.711,0.726 1.422,3.793 2.133,4.597 0.711,0.805 1.422,4.176 2.133,5.055 0.711,0.883 1.422,4.559 2.133,5.516 0.711,0.957 1.422,4.941 2.132,5.976 0.711,1.035 1.422,5.324 2.137,6.438 0.711,1.109 1.422,5.707 2.133,6.894 0.711,1.188 1.422,6.09 2.133,7.356 0.711,1.265 1.422,6.472 2.133,7.816 0.711,1.34 1.421,6.855 2.132,8.273 0.711,1.418 1.422,7.239 2.133,8.735 0.711,1.492 1.422,7.621 2.133,9.195 0.711,1.57 1.422,8.004 2.133,9.652 0.711,1.649 1.426,8.391 2.137,10.114 0.171,0.418 0.343,1.152 0.515,2.047"
           inkscape:connector-curvature="0"
           id="path72"
           style="fill:none;stroke:#800000;stroke-width:4.21439981;stroke-linecap:butt;stroke-linejoin:miter;stroke-miterlimit:4;stroke-opacity:1;stroke-dasharray:none" /></g></g></g></svg>