<?xml version="1.0" encoding="UTF-8" standalone="no"?>
<!-- Created with Inkscape (http://www.inkscape.org/) -->

<svg
   xmlns:dc="http://purl.org/dc/elements/1.1/"
   xmlns:cc="http://creativecommons.org/ns#"
   xmlns:rdf="http://www.w3.org/1999/02/22-rdf-syntax-ns#"
   xmlns:svg="http://www.w3.org/2000/svg"
   xmlns="http://www.w3.org/2000/svg"
   xmlns:inkscape="http://www.inkscape.org/namespaces/inkscape"
   version="1.1"
   width="485.62079"
   height="485.625"
   id="svg2"
   xml:space="preserve"><metadata
     id="metadata8"><rdf:RDF><cc:Work
         rdf:about=""><dc:format>image/svg+xml</dc:format><dc:type
           rdf:resource="http://purl.org/dc/dcmitype/StillImage" /></cc:Work></rdf:RDF></metadata><defs
     id="defs6"><clipPath
       id="clipPath20"><path
         d="M 0,0 389,0 389,389 0,389 0,0 z"
         inkscape:connector-curvature="0"
         id="path22" /></clipPath><clipPath
       id="clipPath32"><path
         d="M 0,0 389,0 389,389 0,389 0,0 z"
         inkscape:connector-curvature="0"
         id="path34" /></clipPath><clipPath
       id="clipPath44"><path
         d="M 0,0 389,0 389,389 0,389 0,0 z"
         inkscape:connector-curvature="0"
         id="path46" /></clipPath><clipPath
       id="clipPath54"><path
         d="m 0,389 388.75,0 0,-389 L 0,0 0,389 z"
         inkscape:connector-curvature="0"
         id="path56" /></clipPath><clipPath
       id="clipPath64"><path
         d="M 0,0 389,0 389,389 0,389 0,0 z"
         inkscape:connector-curvature="0"
         id="path66" /></clipPath><clipPath
       id="clipPath74"><path
         d="M 0,389 389,389 389,0.25 0,0.25 0,389 z"
         inkscape:connector-curvature="0"
         id="path76" /></clipPath><clipPath
       id="clipPath84"><path
         d="M 0,0 389,0 389,389 0,389 0,0 z"
         inkscape:connector-curvature="0"
         id="path86" /></clipPath><clipPath
       id="clipPath96"><path
         d="m 0,389 388.75,0 0,-389 L 0,0 0,389 z"
         inkscape:connector-curvature="0"
         id="path98" /></clipPath><clipPath
       id="clipPath106"><path
         d="m 0,204 388,0 0,24 -388,0 0,-24 z"
         inkscape:connector-curvature="0"
         id="path108" /></clipPath><clipPath
       id="clipPath120"><path
         d="m 70.75,220.25 8,0 0,-16 -8,0 0,16 z"
         inkscape:connector-curvature="0"
         id="path122" /></clipPath><clipPath
       id="clipPath130"><path
         d="m 73,211 11,0 0,2 -11,0 0,-2 z"
         inkscape:connector-curvature="0"
         id="path132" /></clipPath><clipPath
       id="clipPath144"><path
         d="M 8,1 379,1 379,389 8,389 8,1 z"
         inkscape:connector-curvature="0"
         id="path146" /></clipPath><clipPath
       id="clipPath208"><path
         d="m 134.75,30.25 8,0 0,-16 -8,0 0,16 z"
         inkscape:connector-curvature="0"
         id="path210" /></clipPath><clipPath
       id="clipPath218"><path
         d="m 137,21 11,0 0,2 -11,0 0,-2 z"
         inkscape:connector-curvature="0"
         id="path220" /></clipPath><clipPath
       id="clipPath232"><path
         d="m 142,17 26,0 0,55 -26,0 0,-55 z"
         inkscape:connector-curvature="0"
         id="path234" /></clipPath><clipPath
       id="clipPath246"><path
         d="m 142.75,71.25 8,0 0,-16 -8,0 0,16 z"
         inkscape:connector-curvature="0"
         id="path248" /></clipPath><clipPath
       id="clipPath256"><path
         d="m 145,62 11,0 0,2 -11,0 0,-2 z"
         inkscape:connector-curvature="0"
         id="path258" /></clipPath><clipPath
       id="clipPath270"><path
         d="m 142,58 26,0 0,54 -26,0 0,-54 z"
         inkscape:connector-curvature="0"
         id="path272" /></clipPath><clipPath
       id="clipPath284"><path
         d="m 142.75,111.25 8,0 0,-16 -8,0 0,16 z"
         inkscape:connector-curvature="0"
         id="path286" /></clipPath><clipPath
       id="clipPath294"><path
         d="m 145,102 11,0 0,2 -11,0 0,-2 z"
         inkscape:connector-curvature="0"
         id="path296" /></clipPath><clipPath
       id="clipPath308"><path
         d="m 142,98 26,0 0,55 -26,0 0,-55 z"
         inkscape:connector-curvature="0"
         id="path310" /></clipPath><clipPath
       id="clipPath322"><path
         d="m 142.75,152.25 8,0 0,-16 -8,0 0,16 z"
         inkscape:connector-curvature="0"
         id="path324" /></clipPath><clipPath
       id="clipPath332"><path
         d="m 145,143 11,0 0,2 -11,0 0,-2 z"
         inkscape:connector-curvature="0"
         id="path334" /></clipPath><clipPath
       id="clipPath346"><path
         d="m 142,139 26,0 0,55 -26,0 0,-55 z"
         inkscape:connector-curvature="0"
         id="path348" /></clipPath><clipPath
       id="clipPath360"><path
         d="m 142.75,193.25 8,0 0,-16 -8,0 0,16 z"
         inkscape:connector-curvature="0"
         id="path362" /></clipPath><clipPath
       id="clipPath370"><path
         d="m 145,184 11,0 0,2 -11,0 0,-2 z"
         inkscape:connector-curvature="0"
         id="path372" /></clipPath><clipPath
       id="clipPath384"><path
         d="m 152,1 16,0 0,369 -16,0 0,-369 z"
         inkscape:connector-curvature="0"
         id="path386" /></clipPath></defs><g
     transform="matrix(1.25,0,0,-1.25,0,485.625)"
     id="g10"><g
       id="g12"><g
         transform="translate(0,-0.5)"
         id="g14"><g
           id="g16"><g
             clip-path="url(#clipPath20)"
             id="g18"><g
               id="g24"><g
                 id="g26"><g
                   id="g28"><g
                     clip-path="url(#clipPath32)"
                     id="g30"><g
                       id="g36"><g
                         id="g38"><g
                           id="g40"><g
                             clip-path="url(#clipPath44)"
                             id="g42"><g
                               id="g48" /><g
                               id="g50"><g
                                 clip-path="url(#clipPath54)"
                                 id="g52"><g
                                   id="g58"><g
                                   id="g60"><g
                                   clip-path="url(#clipPath64)"
                                   id="g62"><g
                                   id="g68" /><g
                                   id="g70"><g
                                   clip-path="url(#clipPath74)"
                                   id="g72"><g
                                   id="g78"><g
                                   id="g80"><g
                                   clip-path="url(#clipPath84)"
                                   id="g82"><g
                                   id="g88"><path
                                   d="m 167.129,226.621 1.16,0.09 0.992,0.219 1.098,0.41 1.062,0.582 0.989,0.726 0.871,0.821 0.82,0.98 0.77,1.153 0.648,1.277 0.563,1.43 0.386,1.351 0.313,1.61 0.16,1.691 0.008,1.699 -0.117,1.59 -0.301,1.922 -0.403,1.637 -0.636,1.91 -0.711,1.672 -0.949,1.808 -1.063,1.672 -1.269,1.68 -1.309,1.461 -1.57,1.476 -1.789,1.41 -1.68,1.114 -1.942,1.066 -2.14,0.934 -2.199,0.738 -2.243,0.531 -2.57,0.367 -2.398,0.133 -2.621,-0.09 -2.418,-0.3 -2.692,-0.563 -2.551,-0.758 -2.66,-1.039 -2.59,-1.261 -2.687,-1.579 -2.539,-1.781 -2.531,-2.082 -2.43,-2.316 -2.141,-2.352 -2.332,-2.949 -1.968,-2.859 -1.942,-3.274 -1.699,-3.328 -1.688,-3.93 -1.281,-3.582 -1.23,-4.25 -0.91,-4.019 -0.731,-4.547 -0.418,-4.043 -0.211,-4.707 0.07,-4.633 0.34,-4.68 0.629,-4.718 0.871,-4.539 1.239,-4.903 1.48,-4.64 1.859,-4.829 1.973,-4.289 2.481,-4.64 2.66,-4.313 2.937,-4.136 3.371,-4.133 3.36,-3.617 3.691,-3.481 4.34,-3.562 4.18,-2.95 4.488,-2.718 4.793,-2.43 4.558,-1.93 5.04,-1.722 5.152,-1.329 5.648,-1.011 5.09,-0.508 5.969,-0.141 5.449,0.301 5.422,0.699 5.852,1.219 5.867,1.691 5.301,1.969 5.558,2.531 5.344,2.911 5.656,3.629 4.774,3.539 5.289,4.519 4.781,4.684 4.519,5.027 4.27,5.422 4.09,5.91 4.008,6.649 3.363,6.441 2.988,6.648 2.828,7.422 2.41,7.668 1.813,7.11 1.68,8.64 1.007,7.403 0.711,8.808 0.192,8.531 -0.242,7.68 -0.739,8.68 -1.25,8.75 -1.761,8.668 -2.079,7.98 -2.621,8.16 -3.211,8.289 -3.679,8.071 -4.289,8.07 -4.2,6.883 -5.179,7.437 -5.66,7.121 -5.891,6.489 -5.699,5.543 -7.18,6.117 -6.41,4.762 -7.801,5.007 -7.211,3.954 -8.179,3.757 -8.051,3.02 -8.617,2.531 -8.102,1.75 -8.879,1.25 -9.359,0.59 -8.223,-0.09 -8.918,-0.738 -9.223,-1.461 -9,-2.133 -8.636,-2.719 -9.481,-3.769 -8.359,-4.07 -8.75,-5.032 -7.711,-5.179 -8.172,-6.297 -7.398,-6.543 -7.391,-7.449 -6.871,-7.848 -6.77,-8.813 -6.078,-9.019 -5.73,-9.738 -5.16,-10.141 -4.282,-9.699 L 12.051,275.961 8.75,265.301 5.84,253.621 3.648,242.18 1.922,229.238 1.039,217.859 0.75,204.82 1.148,192.852 2.309,179.738 3.941,168.449 6.488,155.68 l 3.16,-12.211 3.864,-12.02 4.508,-11.738 4.968,-11.012 6.043,-11.551 6.399,-10.617 7.39,-10.711 7.239,-9.25 8.601,-9.66 8.781,-8.68 9.27,-8.031 10.199,-7.699 9.809,-6.41 10.441,-5.879 11.942,-5.621 11.136,-4.281 11.672,-3.559 12.121,-2.738 11.321,-1.723 12.199,-0.969 12.211,-0.07 13.109,0.922 11.559,1.668 13.281,2.941 11.891,3.571 11.609,4.386 12.258,5.672 12.043,6.66 10.648,6.879 10.969,8.16 10.301,8.782 10.672,10.398 8.769,9.699 9.5,11.922 8.34,11.918 7.641,12.453 6.988,13.059 6.441,13.89 6,15.282 4.739,14.476 3.929,14.684 3.36,16.039 2.461,16.309 1.48,15.601"
                                   inkscape:connector-curvature="0"
                                   id="path90"
                                   style="fill:none;stroke:#78000e;stroke-width:1.5;stroke-linecap:butt;stroke-linejoin:round;stroke-miterlimit:10;stroke-opacity:1;stroke-dasharray:none" /></g></g></g></g></g></g></g></g></g></g></g></g></g></g></g><g
                       id="g92"><g
                         clip-path="url(#clipPath96)"
                         id="g94"><g
                           id="g100"><g
                             id="g102"><g
                               clip-path="url(#clipPath106)"
                               id="g104"><g
                                 id="g110"><path
                                   d="m 0.75,226.621 387,0"
                                   inkscape:connector-curvature="0"
                                   id="path112"
                                   style="fill:none;stroke:#000000;stroke-width:1;stroke-linecap:butt;stroke-linejoin:round;stroke-miterlimit:10;stroke-opacity:1;stroke-dasharray:none" /><path
                                   d="m 79.352,226.621 0,-4"
                                   inkscape:connector-curvature="0"
                                   id="path114"
                                   style="fill:none;stroke:#000000;stroke-width:0.80000001;stroke-linecap:butt;stroke-linejoin:round;stroke-miterlimit:10;stroke-opacity:1;stroke-dasharray:none" /></g><g
                                 id="g116"><g
                                   clip-path="url(#clipPath120)"
                                   id="g118"><g
                                   id="g124"><g
                                   id="g126"><g
                                   clip-path="url(#clipPath130)"
                                   id="g128"><g
                                   id="g134"><path
                                   d="m 73.301,212.141 9.898,0 0,-0.781 -9.898,0 0,0.781 z"
                                   inkscape:connector-curvature="0"
                                   id="path136"
                                   style="fill:#000000;fill-opacity:1;fill-rule:nonzero;stroke:none" /></g></g></g></g></g></g></g></g></g><g
                           id="g138"><g
                             id="g140"><g
                               clip-path="url(#clipPath144)"
                               id="g142"><g
                                 id="g148"><path
                                   d="m 87.27,217.191 -0.579,-1.25 -2.992,0 -0.648,-1.332 c 0,0 1.929,-0.3 3.078,-1.449 0,0 0.961,-0.988 0.961,-2.351 0,0 0,-0.778 -0.309,-1.438 0,0 -0.312,-0.672 -0.801,-1.141 0,0 -0.48,-0.46 -1.07,-0.75 0,0 -0.851,-0.402 -1.738,-0.402 0,0 -0.891,0 -1.293,0.301 0,0 -0.41,0.312 -0.41,0.672 0,0 0,0.199 0.172,0.359 0,0 0.168,0.149 0.418,0.149 0,0 0.191,0 0.332,-0.047 0,0 0.14,-0.063 0.488,-0.313 0,0 0.562,-0.371 1.121,-0.371 0,0 0.859,0 1.5,0.652 0,0 0.641,0.649 0.641,1.579 0,0 0,0.89 -0.582,1.671 0,0 -0.579,0.79 -1.59,1.211 0,0 -0.797,0.329 -2.168,0.387 l 1.898,3.863 3.571,0 z"
                                   inkscape:connector-curvature="0"
                                   id="path150"
                                   style="fill:#000000;fill-opacity:1;fill-rule:nonzero;stroke:none" /><path
                                   d="m 167.129,226.621 0,-4"
                                   inkscape:connector-curvature="0"
                                   id="path152"
                                   style="fill:none;stroke:#000000;stroke-width:0.80000001;stroke-linecap:butt;stroke-linejoin:round;stroke-miterlimit:10;stroke-opacity:1;stroke-dasharray:none" /><path
                                   d="m 158.301,214.16 c 0,0 0,1.699 0.5,2.93 0,0 0.508,1.219 1.371,1.82 0,0 0.656,0.481 1.359,0.481 0,0 1.141,0 2.047,-1.172 0,0 1.141,-1.438 1.141,-3.91 0,0 0,-1.731 -0.5,-2.93 0,0 -0.5,-1.207 -1.27,-1.75 0,0 -0.777,-0.551 -1.5,-0.551 0,0 -1.418,0 -2.359,1.672 0,0 -0.789,1.422 -0.789,3.41 z m 1.429,-0.191 c 0,0 0,-2.047 0.5,-3.34 0,0 0.43,-1.098 1.25,-1.098 0,0 0.399,0 0.821,0.36 0,0 0.418,0.359 0.64,1.187 0,0 0.34,1.262 0.34,3.563 0,0 0,1.687 -0.359,2.828 0,0 -0.25,0.84 -0.672,1.191 0,0 -0.301,0.25 -0.73,0.25 0,0 -0.489,0 -0.879,-0.461 0,0 -0.532,-0.609 -0.719,-1.91 0,0 -0.192,-1.309 -0.192,-2.57 z"
                                   inkscape:connector-curvature="0"
                                   id="path154"
                                   style="fill:#000000;fill-opacity:1;fill-rule:nonzero;stroke:none" /><path
                                   d="m 254.91,226.621 0,-4"
                                   inkscape:connector-curvature="0"
                                   id="path156"
                                   style="fill:none;stroke:#000000;stroke-width:0.80000001;stroke-linecap:butt;stroke-linejoin:round;stroke-miterlimit:10;stroke-opacity:1;stroke-dasharray:none" /><path
                                   d="m 258.27,217.191 -0.579,-1.25 -2.992,0 -0.648,-1.332 c 0,0 1.929,-0.3 3.078,-1.449 0,0 0.961,-0.988 0.961,-2.351 0,0 0,-0.778 -0.309,-1.438 0,0 -0.312,-0.672 -0.801,-1.141 0,0 -0.48,-0.46 -1.07,-0.75 0,0 -0.851,-0.402 -1.738,-0.402 0,0 -0.891,0 -1.293,0.301 0,0 -0.41,0.312 -0.41,0.672 0,0 0,0.199 0.172,0.359 0,0 0.168,0.149 0.418,0.149 0,0 0.191,0 0.332,-0.047 0,0 0.14,-0.063 0.488,-0.313 0,0 0.562,-0.371 1.121,-0.371 0,0 0.859,0 1.5,0.652 0,0 0.641,0.649 0.641,1.579 0,0 0,0.89 -0.582,1.671 0,0 -0.579,0.79 -1.59,1.211 0,0 -0.797,0.329 -2.168,0.387 l 1.898,3.863 3.571,0 z"
                                   inkscape:connector-curvature="0"
                                   id="path158"
                                   style="fill:#000000;fill-opacity:1;fill-rule:nonzero;stroke:none" /><path
                                   d="m 342.691,226.621 0,-4"
                                   inkscape:connector-curvature="0"
                                   id="path160"
                                   style="fill:none;stroke:#000000;stroke-width:0.80000001;stroke-linecap:butt;stroke-linejoin:round;stroke-miterlimit:10;stroke-opacity:1;stroke-dasharray:none" /><path
                                   d="m 336.52,216.199 2.402,1.192 0.25,0 0,-8.391 c 0,0 0,-0.828 0.066,-1.039 0,0 0.071,-0.211 0.293,-0.32 0,0 0.219,-0.11 0.891,-0.121 l 0,-0.27 -3.731,0 0,0.27 c 0,0 0.7,0.011 0.899,0.121 0,0 0.211,0.109 0.289,0.289 0,0 0.07,0.179 0.07,1.07 l 0,5.359 c 0,0 0,1.09 -0.058,1.391 0,0 -0.063,0.23 -0.192,0.34 0,0 -0.14,0.109 -0.32,0.109 0,0 -0.289,0 -0.75,-0.219 l -0.109,0.219 z m 6.281,-4.039 c 0,0 0,1.699 0.5,2.93 0,0 0.508,1.219 1.371,1.82 0,0 0.656,0.481 1.359,0.481 0,0 1.141,0 2.047,-1.172 0,0 1.141,-1.438 1.141,-3.91 0,0 0,-1.731 -0.5,-2.93 0,0 -0.5,-1.207 -1.27,-1.75 0,0 -0.777,-0.551 -1.5,-0.551 0,0 -1.418,0 -2.359,1.672 0,0 -0.789,1.422 -0.789,3.41 z m 1.429,-0.191 c 0,0 0,-2.047 0.5,-3.34 0,0 0.43,-1.098 1.25,-1.098 0,0 0.399,0 0.821,0.36 0,0 0.418,0.359 0.64,1.187 0,0 0.34,1.262 0.34,3.563 0,0 0,1.687 -0.359,2.828 0,0 -0.25,0.84 -0.672,1.191 0,0 -0.301,0.25 -0.73,0.25 0,0 -0.489,0 -0.879,-0.461 0,0 -0.532,-0.609 -0.719,-1.91 0,0 -0.192,-1.309 -0.192,-2.57 z"
                                   inkscape:connector-curvature="0"
                                   id="path162"
                                   style="fill:#000000;fill-opacity:1;fill-rule:nonzero;stroke:none" /><path
                                   d="m 9.121,226.621 0,-2"
                                   inkscape:connector-curvature="0"
                                   id="path164"
                                   style="fill:none;stroke:#000000;stroke-width:0.80000001;stroke-linecap:butt;stroke-linejoin:round;stroke-miterlimit:10;stroke-opacity:1;stroke-dasharray:none" /><path
                                   d="m 26.68,226.621 0,-2"
                                   inkscape:connector-curvature="0"
                                   id="path166"
                                   style="fill:none;stroke:#000000;stroke-width:0.80000001;stroke-linecap:butt;stroke-linejoin:round;stroke-miterlimit:10;stroke-opacity:1;stroke-dasharray:none" /><path
                                   d="m 44.238,226.621 0,-2"
                                   inkscape:connector-curvature="0"
                                   id="path168"
                                   style="fill:none;stroke:#000000;stroke-width:0.80000001;stroke-linecap:butt;stroke-linejoin:round;stroke-miterlimit:10;stroke-opacity:1;stroke-dasharray:none" /><path
                                   d="m 61.789,226.621 0,-2"
                                   inkscape:connector-curvature="0"
                                   id="path170"
                                   style="fill:none;stroke:#000000;stroke-width:0.80000001;stroke-linecap:butt;stroke-linejoin:round;stroke-miterlimit:10;stroke-opacity:1;stroke-dasharray:none" /><path
                                   d="m 96.91,226.621 0,-2"
                                   inkscape:connector-curvature="0"
                                   id="path172"
                                   style="fill:none;stroke:#000000;stroke-width:0.80000001;stroke-linecap:butt;stroke-linejoin:round;stroke-miterlimit:10;stroke-opacity:1;stroke-dasharray:none" /><path
                                   d="m 114.461,226.621 0,-2"
                                   inkscape:connector-curvature="0"
                                   id="path174"
                                   style="fill:none;stroke:#000000;stroke-width:0.80000001;stroke-linecap:butt;stroke-linejoin:round;stroke-miterlimit:10;stroke-opacity:1;stroke-dasharray:none" /><path
                                   d="m 132.02,226.621 0,-2"
                                   inkscape:connector-curvature="0"
                                   id="path176"
                                   style="fill:none;stroke:#000000;stroke-width:0.80000001;stroke-linecap:butt;stroke-linejoin:round;stroke-miterlimit:10;stroke-opacity:1;stroke-dasharray:none" /><path
                                   d="m 149.57,226.621 0,-2"
                                   inkscape:connector-curvature="0"
                                   id="path178"
                                   style="fill:none;stroke:#000000;stroke-width:0.80000001;stroke-linecap:butt;stroke-linejoin:round;stroke-miterlimit:10;stroke-opacity:1;stroke-dasharray:none" /><path
                                   d="m 184.691,226.621 0,-2"
                                   inkscape:connector-curvature="0"
                                   id="path180"
                                   style="fill:none;stroke:#000000;stroke-width:0.80000001;stroke-linecap:butt;stroke-linejoin:round;stroke-miterlimit:10;stroke-opacity:1;stroke-dasharray:none" /><path
                                   d="m 202.238,226.621 0,-2"
                                   inkscape:connector-curvature="0"
                                   id="path182"
                                   style="fill:none;stroke:#000000;stroke-width:0.80000001;stroke-linecap:butt;stroke-linejoin:round;stroke-miterlimit:10;stroke-opacity:1;stroke-dasharray:none" /><path
                                   d="m 219.801,226.621 0,-2"
                                   inkscape:connector-curvature="0"
                                   id="path184"
                                   style="fill:none;stroke:#000000;stroke-width:0.80000001;stroke-linecap:butt;stroke-linejoin:round;stroke-miterlimit:10;stroke-opacity:1;stroke-dasharray:none" /><path
                                   d="m 237.359,226.621 0,-2"
                                   inkscape:connector-curvature="0"
                                   id="path186"
                                   style="fill:none;stroke:#000000;stroke-width:0.80000001;stroke-linecap:butt;stroke-linejoin:round;stroke-miterlimit:10;stroke-opacity:1;stroke-dasharray:none" /><path
                                   d="m 272.469,226.621 0,-2"
                                   inkscape:connector-curvature="0"
                                   id="path188"
                                   style="fill:none;stroke:#000000;stroke-width:0.80000001;stroke-linecap:butt;stroke-linejoin:round;stroke-miterlimit:10;stroke-opacity:1;stroke-dasharray:none" /><path
                                   d="m 290.031,226.621 0,-2"
                                   inkscape:connector-curvature="0"
                                   id="path190"
                                   style="fill:none;stroke:#000000;stroke-width:0.80000001;stroke-linecap:butt;stroke-linejoin:round;stroke-miterlimit:10;stroke-opacity:1;stroke-dasharray:none" /><path
                                   d="m 307.578,226.621 0,-2"
                                   inkscape:connector-curvature="0"
                                   id="path192"
                                   style="fill:none;stroke:#000000;stroke-width:0.80000001;stroke-linecap:butt;stroke-linejoin:round;stroke-miterlimit:10;stroke-opacity:1;stroke-dasharray:none" /><path
                                   d="m 325.141,226.621 0,-2"
                                   inkscape:connector-curvature="0"
                                   id="path194"
                                   style="fill:none;stroke:#000000;stroke-width:0.80000001;stroke-linecap:butt;stroke-linejoin:round;stroke-miterlimit:10;stroke-opacity:1;stroke-dasharray:none" /><path
                                   d="m 360.25,226.621 0,-2"
                                   inkscape:connector-curvature="0"
                                   id="path196"
                                   style="fill:none;stroke:#000000;stroke-width:0.80000001;stroke-linecap:butt;stroke-linejoin:round;stroke-miterlimit:10;stroke-opacity:1;stroke-dasharray:none" /><path
                                   d="m 377.809,226.621 0,-2"
                                   inkscape:connector-curvature="0"
                                   id="path198"
                                   style="fill:none;stroke:#000000;stroke-width:0.80000001;stroke-linecap:butt;stroke-linejoin:round;stroke-miterlimit:10;stroke-opacity:1;stroke-dasharray:none" /><path
                                   d="m 167.129,1.25 0,387"
                                   inkscape:connector-curvature="0"
                                   id="path200"
                                   style="fill:none;stroke:#000000;stroke-width:1;stroke-linecap:butt;stroke-linejoin:round;stroke-miterlimit:10;stroke-opacity:1;stroke-dasharray:none" /><path
                                   d="m 167.129,22.422 -4,0"
                                   inkscape:connector-curvature="0"
                                   id="path202"
                                   style="fill:none;stroke:#000000;stroke-width:0.80000001;stroke-linecap:butt;stroke-linejoin:round;stroke-miterlimit:10;stroke-opacity:1;stroke-dasharray:none" /></g><g
                                 id="g204"><g
                                   clip-path="url(#clipPath208)"
                                   id="g206"><g
                                   id="g212"><g
                                   id="g214"><g
                                   clip-path="url(#clipPath218)"
                                   id="g216"><g
                                   id="g222"><path
                                   d="m 137.301,22.141 9.898,0 0,-0.781 -9.898,0 0,0.781 z"
                                   inkscape:connector-curvature="0"
                                   id="path224"
                                   style="fill:#000000;fill-opacity:1;fill-rule:nonzero;stroke:none" /></g></g></g></g></g></g></g></g></g><g
                           id="g226"><g
                             id="g228"><g
                               clip-path="url(#clipPath232)"
                               id="g230"><g
                                 id="g236"><path
                                   d="m 146.52,26.199 2.402,1.192 0.25,0 0,-8.391 c 0,0 0,-0.828 0.066,-1.039 0,0 0.071,-0.211 0.293,-0.32 0,0 0.219,-0.11 0.891,-0.121 l 0,-0.27 -3.731,0 0,0.27 c 0,0 0.7,0.011 0.899,0.121 0,0 0.211,0.109 0.289,0.289 0,0 0.07,0.179 0.07,1.07 l 0,5.359 c 0,0 0,1.09 -0.058,1.391 0,0 -0.063,0.23 -0.192,0.34 0,0 -0.14,0.109 -0.32,0.109 0,0 -0.289,0 -0.75,-0.219 l -0.109,0.219 z m 6.281,-4.039 c 0,0 0,1.699 0.5,2.93 0,0 0.508,1.219 1.371,1.82 0,0 0.656,0.481 1.359,0.481 0,0 1.141,0 2.047,-1.172 0,0 1.141,-1.438 1.141,-3.91 0,0 0,-1.731 -0.5,-2.93 0,0 -0.5,-1.207 -1.27,-1.75 0,0 -0.777,-0.551 -1.5,-0.551 0,0 -1.418,0 -2.359,1.672 0,0 -0.789,1.422 -0.789,3.41 z m 1.429,-0.191 c 0,0 0,-2.047 0.5,-3.34 0,0 0.43,-1.098 1.25,-1.098 0,0 0.399,0 0.821,0.36 0,0 0.418,0.359 0.64,1.187 0,0 0.34,1.262 0.34,3.563 0,0 0,1.687 -0.359,2.828 0,0 -0.25,0.84 -0.672,1.191 0,0 -0.301,0.25 -0.73,0.25 0,0 -0.489,0 -0.879,-0.461 0,0 -0.532,-0.609 -0.719,-1.91 0,0 -0.192,-1.309 -0.192,-2.57 z"
                                   inkscape:connector-curvature="0"
                                   id="path238"
                                   style="fill:#000000;fill-opacity:1;fill-rule:nonzero;stroke:none" /><path
                                   d="m 167.129,63.262 -4,0"
                                   inkscape:connector-curvature="0"
                                   id="path240"
                                   style="fill:none;stroke:#000000;stroke-width:0.80000001;stroke-linecap:butt;stroke-linejoin:round;stroke-miterlimit:10;stroke-opacity:1;stroke-dasharray:none" /></g><g
                                 id="g242"><g
                                   clip-path="url(#clipPath246)"
                                   id="g244"><g
                                   id="g250"><g
                                   id="g252"><g
                                   clip-path="url(#clipPath256)"
                                   id="g254"><g
                                   id="g260"><path
                                   d="m 145.301,63.141 9.898,0 0,-0.781 -9.898,0 0,0.781 z"
                                   inkscape:connector-curvature="0"
                                   id="path262"
                                   style="fill:#000000;fill-opacity:1;fill-rule:nonzero;stroke:none" /></g></g></g></g></g></g></g></g></g><g
                           id="g264"><g
                             id="g266"><g
                               clip-path="url(#clipPath270)"
                               id="g268"><g
                                 id="g274"><path
                                   d="m 155.629,63.25 c 0,0 -1.18,0.969 -1.52,1.551 0,0 -0.339,0.59 -0.339,1.219 0,0 0,0.96 0.75,1.671 0,0 0.75,0.7 1.98,0.7 0,0 1.199,0 1.941,-0.661 0,0 0.731,-0.652 0.731,-1.48 0,0 0,-0.559 -0.402,-1.141 0,0 -0.391,-0.578 -1.641,-1.359 0,0 1.281,-1 1.699,-1.559 0,0 0.563,-0.75 0.563,-1.582 0,0 0,-1.05 -0.801,-1.789 0,0 -0.789,-0.742 -2.09,-0.742 0,0 -1.422,0 -2.219,0.871 0,0 -0.621,0.723 -0.621,1.571 0,0 0,0.652 0.442,1.3 0,0 0.449,0.649 1.527,1.43 z m 1.152,0.781 c 0,0 0.879,0.797 1.11,1.258 0,0 0.238,0.461 0.238,1.039 0,0 0,0.762 -0.43,1.203 0,0 -0.429,0.438 -1.179,0.438 0,0 -0.75,0 -1.219,-0.438 0,0 -0.473,-0.441 -0.473,-1.011 0,0 0,-0.379 0.192,-0.758 0,0 0.199,-0.383 0.558,-0.731 l 1.203,-1 z m -0.812,-1.062 c 0,0 -0.61,-0.5 -0.899,-1.11 0,0 -0.289,-0.609 -0.289,-1.308 0,0 0,-0.942 0.52,-1.512 0,0 0.508,-0.57 1.308,-0.57 0,0 0.801,0 1.27,0.441 0,0 0.48,0.449 0.48,1.09 0,0 0,0.531 -0.281,0.949 0,0 -0.519,0.77 -2.109,2.02 z"
                                   inkscape:connector-curvature="0"
                                   id="path276"
                                   style="fill:#000000;fill-opacity:1;fill-rule:nonzero;stroke:none" /><path
                                   d="m 167.129,104.102 -4,0"
                                   inkscape:connector-curvature="0"
                                   id="path278"
                                   style="fill:none;stroke:#000000;stroke-width:0.80000001;stroke-linecap:butt;stroke-linejoin:round;stroke-miterlimit:10;stroke-opacity:1;stroke-dasharray:none" /></g><g
                                 id="g280"><g
                                   clip-path="url(#clipPath284)"
                                   id="g282"><g
                                   id="g288"><g
                                   id="g290"><g
                                   clip-path="url(#clipPath294)"
                                   id="g292"><g
                                   id="g298"><path
                                   d="m 145.301,103.141 9.898,0 0,-0.781 -9.898,0 0,0.781 z"
                                   inkscape:connector-curvature="0"
                                   id="path300"
                                   style="fill:#000000;fill-opacity:1;fill-rule:nonzero;stroke:none" /></g></g></g></g></g></g></g></g></g><g
                           id="g302"><g
                             id="g304"><g
                               clip-path="url(#clipPath308)"
                               id="g306"><g
                                 id="g312"><path
                                   d="m 159.469,108.391 0,-0.282 c 0,0 -0.969,-0.089 -1.578,-0.379 0,0 -0.61,-0.289 -1.2,-0.89 0,0 -0.601,-0.59 -0.992,-1.32 0,0 -0.39,-0.719 -0.648,-1.719 0,0 1.039,0.719 2.109,0.719 0,0 1.012,0 1.762,-0.821 0,0 0.75,-0.82 0.75,-2.109 0,0 0,-1.25 -0.75,-2.281 0,0 -0.902,-1.231 -2.402,-1.231 0,0 -1.02,0 -1.739,0.672 0,0 -1.39,1.309 -1.39,3.391 0,0 0,1.339 0.539,2.539 0,0 0.539,1.199 1.531,2.129 0,0 0.988,0.941 1.898,1.261 0,0 0.911,0.321 1.692,0.321 l 0.418,0 z m -4.547,-5.121 c 0,0 -0.141,-1 -0.141,-1.61 0,0 0,-0.711 0.27,-1.531 0,0 0.258,-0.82 0.758,-1.301 0,0 0.382,-0.348 0.921,-0.348 0,0 0.629,0 1.141,0.61 0,0 0.508,0.601 0.508,1.711 0,0 0,1.25 -0.5,2.16 0,0 -0.5,0.918 -1.43,0.918 0,0 -0.277,0 -0.59,-0.117 0,0 -0.308,-0.121 -0.937,-0.492 z"
                                   inkscape:connector-curvature="0"
                                   id="path314"
                                   style="fill:#000000;fill-opacity:1;fill-rule:nonzero;stroke:none" /><path
                                   d="m 167.129,144.941 -4,0"
                                   inkscape:connector-curvature="0"
                                   id="path316"
                                   style="fill:none;stroke:#000000;stroke-width:0.80000001;stroke-linecap:butt;stroke-linejoin:round;stroke-miterlimit:10;stroke-opacity:1;stroke-dasharray:none" /></g><g
                                 id="g318"><g
                                   clip-path="url(#clipPath322)"
                                   id="g320"><g
                                   id="g326"><g
                                   id="g328"><g
                                   clip-path="url(#clipPath332)"
                                   id="g330"><g
                                   id="g336"><path
                                   d="m 145.301,144.141 9.898,0 0,-0.781 -9.898,0 0,0.781 z"
                                   inkscape:connector-curvature="0"
                                   id="path338"
                                   style="fill:#000000;fill-opacity:1;fill-rule:nonzero;stroke:none" /></g></g></g></g></g></g></g></g></g><g
                           id="g340"><g
                             id="g342"><g
                               clip-path="url(#clipPath346)"
                               id="g344"><g
                                 id="g350"><path
                                   d="m 159.73,142.91 0,-1.031 -1.339,0 0,-2.629 -1.2,0 0,2.629 -4.211,0 0,0.93 4.61,6.582 0.801,0 0,-6.481 1.339,0 z m -2.539,0 0,4.93 -3.492,-4.93 3.492,0 z"
                                   inkscape:connector-curvature="0"
                                   id="path352"
                                   style="fill:#000000;fill-opacity:1;fill-rule:nonzero;stroke:none" /><path
                                   d="m 167.129,185.781 -4,0"
                                   inkscape:connector-curvature="0"
                                   id="path354"
                                   style="fill:none;stroke:#000000;stroke-width:0.80000001;stroke-linecap:butt;stroke-linejoin:round;stroke-miterlimit:10;stroke-opacity:1;stroke-dasharray:none" /></g><g
                                 id="g356"><g
                                   clip-path="url(#clipPath360)"
                                   id="g358"><g
                                   id="g364"><g
                                   id="g366"><g
                                   clip-path="url(#clipPath370)"
                                   id="g368"><g
                                   id="g374"><path
                                   d="m 145.301,185.141 9.898,0 0,-0.781 -9.898,0 0,0.781 z"
                                   inkscape:connector-curvature="0"
                                   id="path376"
                                   style="fill:#000000;fill-opacity:1;fill-rule:nonzero;stroke:none" /></g></g></g></g></g></g></g></g></g><g
                           id="g378"><g
                             id="g380"><g
                               clip-path="url(#clipPath384)"
                               id="g382"><g
                                 id="g388"><path
                                   d="m 159.629,182.16 -0.688,-1.91 -5.863,0 0,0.27 c 0,0 2.582,2.359 3.633,3.859 0,0 1.059,1.5 1.059,2.73 0,0 0,0.942 -0.579,1.551 0,0 -0.582,0.61 -1.39,0.61 0,0 -0.723,0 -1.313,-0.43 0,0 -0.578,-0.43 -0.859,-1.262 l -0.27,0 c 0,0 0.192,1.363 0.942,2.082 0,0 0.758,0.731 1.89,0.731 0,0 1.219,0 2.02,-0.782 0,0 0.809,-0.781 0.809,-1.828 0,0 0,-0.75 -0.348,-1.511 0,0 -0.543,-1.192 -1.762,-2.5 0,0 -1.82,-2 -2.281,-2.411 l 2.59,0 c 0,0 0.801,0 1.121,0.051 0,0 0.32,0.059 0.57,0.238 0,0 0.262,0.18 0.449,0.512 l 0.27,0 z"
                                   inkscape:connector-curvature="0"
                                   id="path390"
                                   style="fill:#000000;fill-opacity:1;fill-rule:nonzero;stroke:none" /><path
                                   d="m 167.129,226.621 -4,0"
                                   inkscape:connector-curvature="0"
                                   id="path392"
                                   style="fill:none;stroke:#000000;stroke-width:0.80000001;stroke-linecap:butt;stroke-linejoin:round;stroke-miterlimit:10;stroke-opacity:1;stroke-dasharray:none" /><path
                                   d="m 167.129,267.461 -4,0"
                                   inkscape:connector-curvature="0"
                                   id="path394"
                                   style="fill:none;stroke:#000000;stroke-width:0.80000001;stroke-linecap:butt;stroke-linejoin:round;stroke-miterlimit:10;stroke-opacity:1;stroke-dasharray:none" /><path
                                   d="m 159.629,264.16 -0.688,-1.91 -5.863,0 0,0.27 c 0,0 2.582,2.359 3.633,3.859 0,0 1.059,1.5 1.059,2.73 0,0 0,0.942 -0.579,1.551 0,0 -0.582,0.61 -1.39,0.61 0,0 -0.723,0 -1.313,-0.43 0,0 -0.578,-0.43 -0.859,-1.262 l -0.27,0 c 0,0 0.192,1.363 0.942,2.082 0,0 0.758,0.731 1.89,0.731 0,0 1.219,0 2.02,-0.782 0,0 0.809,-0.781 0.809,-1.828 0,0 0,-0.75 -0.348,-1.511 0,0 -0.543,-1.192 -1.762,-2.5 0,0 -1.82,-2 -2.281,-2.411 l 2.59,0 c 0,0 0.801,0 1.121,0.051 0,0 0.32,0.059 0.57,0.238 0,0 0.262,0.18 0.449,0.512 l 0.27,0 z"
                                   inkscape:connector-curvature="0"
                                   id="path396"
                                   style="fill:#000000;fill-opacity:1;fill-rule:nonzero;stroke:none" /><path
                                   d="m 167.129,308.301 -4,0"
                                   inkscape:connector-curvature="0"
                                   id="path398"
                                   style="fill:none;stroke:#000000;stroke-width:0.80000001;stroke-linecap:butt;stroke-linejoin:round;stroke-miterlimit:10;stroke-opacity:1;stroke-dasharray:none" /><path
                                   d="m 159.73,306.91 0,-1.031 -1.339,0 0,-2.629 -1.2,0 0,2.629 -4.211,0 0,0.93 4.61,6.582 0.801,0 0,-6.481 1.339,0 z m -2.539,0 0,4.93 -3.492,-4.93 3.492,0 z"
                                   inkscape:connector-curvature="0"
                                   id="path400"
                                   style="fill:#000000;fill-opacity:1;fill-rule:nonzero;stroke:none" /><path
                                   d="m 167.129,349.141 -4,0"
                                   inkscape:connector-curvature="0"
                                   id="path402"
                                   style="fill:none;stroke:#000000;stroke-width:0.80000001;stroke-linecap:butt;stroke-linejoin:round;stroke-miterlimit:10;stroke-opacity:1;stroke-dasharray:none" /><path
                                   d="m 159.469,353.391 0,-0.282 c 0,0 -0.969,-0.089 -1.578,-0.379 0,0 -0.61,-0.289 -1.2,-0.89 0,0 -0.601,-0.59 -0.992,-1.32 0,0 -0.39,-0.719 -0.648,-1.719 0,0 1.039,0.719 2.109,0.719 0,0 1.012,0 1.762,-0.821 0,0 0.75,-0.82 0.75,-2.109 0,0 0,-1.25 -0.75,-2.281 0,0 -0.902,-1.231 -2.402,-1.231 0,0 -1.02,0 -1.739,0.672 0,0 -1.39,1.309 -1.39,3.391 0,0 0,1.339 0.539,2.539 0,0 0.539,1.199 1.531,2.129 0,0 0.988,0.941 1.898,1.261 0,0 0.911,0.321 1.692,0.321 l 0.418,0 z m -4.547,-5.121 c 0,0 -0.141,-1 -0.141,-1.61 0,0 0,-0.711 0.27,-1.531 0,0 0.258,-0.82 0.758,-1.301 0,0 0.382,-0.348 0.921,-0.348 0,0 0.629,0 1.141,0.61 0,0 0.508,0.601 0.508,1.711 0,0 0,1.25 -0.5,2.16 0,0 -0.5,0.918 -1.43,0.918 0,0 -0.277,0 -0.59,-0.117 0,0 -0.308,-0.121 -0.937,-0.492 z"
                                   inkscape:connector-curvature="0"
                                   id="path404"
                                   style="fill:#000000;fill-opacity:1;fill-rule:nonzero;stroke:none" /><path
                                   d="m 167.129,2 -2,0"
                                   inkscape:connector-curvature="0"
                                   id="path406"
                                   style="fill:none;stroke:#000000;stroke-width:0.80000001;stroke-linecap:butt;stroke-linejoin:round;stroke-miterlimit:10;stroke-opacity:1;stroke-dasharray:none" /><path
                                   d="m 167.129,42.84 -2,0"
                                   inkscape:connector-curvature="0"
                                   id="path408"
                                   style="fill:none;stroke:#000000;stroke-width:0.80000001;stroke-linecap:butt;stroke-linejoin:round;stroke-miterlimit:10;stroke-opacity:1;stroke-dasharray:none" /><path
                                   d="m 167.129,83.68 -2,0"
                                   inkscape:connector-curvature="0"
                                   id="path410"
                                   style="fill:none;stroke:#000000;stroke-width:0.80000001;stroke-linecap:butt;stroke-linejoin:round;stroke-miterlimit:10;stroke-opacity:1;stroke-dasharray:none" /><path
                                   d="m 167.129,124.52 -2,0"
                                   inkscape:connector-curvature="0"
                                   id="path412"
                                   style="fill:none;stroke:#000000;stroke-width:0.80000001;stroke-linecap:butt;stroke-linejoin:round;stroke-miterlimit:10;stroke-opacity:1;stroke-dasharray:none" /><path
                                   d="m 167.129,165.359 -2,0"
                                   inkscape:connector-curvature="0"
                                   id="path414"
                                   style="fill:none;stroke:#000000;stroke-width:0.80000001;stroke-linecap:butt;stroke-linejoin:round;stroke-miterlimit:10;stroke-opacity:1;stroke-dasharray:none" /><path
                                   d="m 167.129,206.199 -2,0"
                                   inkscape:connector-curvature="0"
                                   id="path416"
                                   style="fill:none;stroke:#000000;stroke-width:0.80000001;stroke-linecap:butt;stroke-linejoin:round;stroke-miterlimit:10;stroke-opacity:1;stroke-dasharray:none" /><path
                                   d="m 167.129,247.039 -2,0"
                                   inkscape:connector-curvature="0"
                                   id="path418"
                                   style="fill:none;stroke:#000000;stroke-width:0.80000001;stroke-linecap:butt;stroke-linejoin:round;stroke-miterlimit:10;stroke-opacity:1;stroke-dasharray:none" /><path
                                   d="m 167.129,287.879 -2,0"
                                   inkscape:connector-curvature="0"
                                   id="path420"
                                   style="fill:none;stroke:#000000;stroke-width:0.80000001;stroke-linecap:butt;stroke-linejoin:round;stroke-miterlimit:10;stroke-opacity:1;stroke-dasharray:none" /><path
                                   d="m 167.129,328.719 -2,0"
                                   inkscape:connector-curvature="0"
                                   id="path422"
                                   style="fill:none;stroke:#000000;stroke-width:0.80000001;stroke-linecap:butt;stroke-linejoin:round;stroke-miterlimit:10;stroke-opacity:1;stroke-dasharray:none" /><path
                                   d="m 167.129,369.559 -2,0"
                                   inkscape:connector-curvature="0"
                                   id="path424"
                                   style="fill:none;stroke:#000000;stroke-width:0.80000001;stroke-linecap:butt;stroke-linejoin:round;stroke-miterlimit:10;stroke-opacity:1;stroke-dasharray:none" /></g></g></g></g></g></g></g></g></g></g></g></g></g></g></g></svg>