<?xml version="1.0" encoding="UTF-8" standalone="no"?>
<!-- Created with Inkscape (http://www.inkscape.org/) -->

<svg
   xmlns:dc="http://purl.org/dc/elements/1.1/"
   xmlns:cc="http://creativecommons.org/ns#"
   xmlns:rdf="http://www.w3.org/1999/02/22-rdf-syntax-ns#"
   xmlns:svg="http://www.w3.org/2000/svg"
   xmlns="http://www.w3.org/2000/svg"
   xmlns:inkscape="http://www.inkscape.org/namespaces/inkscape"
   version="1.1"
   width="482.09027"
   height="488.47116"
   id="svg2"
   xml:space="preserve"><metadata
     id="metadata8"><rdf:RDF><cc:Work
         rdf:about=""><dc:format>image/svg+xml</dc:format><dc:type
           rdf:resource="http://purl.org/dc/dcmitype/StillImage" /></cc:Work></rdf:RDF></metadata><defs
     id="defs6"><clipPath
       id="clipPath20"><path
         d="M 0,0 386,0 386,391 0,391 0,0 z"
         inkscape:connector-curvature="0"
         id="path22" /></clipPath><clipPath
       id="clipPath32"><path
         d="M 0,0 386,0 386,391 0,391 0,0 z"
         inkscape:connector-curvature="0"
         id="path34" /></clipPath><clipPath
       id="clipPath44"><path
         d="M 0,2 386,2 386,391 0,391 0,2 z"
         inkscape:connector-curvature="0"
         id="path46" /></clipPath><clipPath
       id="clipPath54"><path
         d="M 0,391 386,391 386,2 0,2 0,391 z"
         inkscape:connector-curvature="0"
         id="path56" /></clipPath><clipPath
       id="clipPath64"><path
         d="m 20,23 366,0 0,368 -366,0 0,-368 z"
         inkscape:connector-curvature="0"
         id="path66" /></clipPath><clipPath
       id="clipPath74"><path
         d="M 20.051,391 386,391 386,23 20.051,23 l 0,368 z"
         inkscape:connector-curvature="0"
         id="path76" /></clipPath><clipPath
       id="clipPath84"><path
         d="m 21,84 365,0 0,246 -365,0 0,-246 z"
         inkscape:connector-curvature="0"
         id="path86" /></clipPath><clipPath
       id="clipPath96"><path
         d="M 0,391 386,391 386,2 0,2 0,391 z"
         inkscape:connector-curvature="0"
         id="path98" /></clipPath><clipPath
       id="clipPath106"><path
         d="M 21,3 386,3 386,25 21,25 21,3 z"
         inkscape:connector-curvature="0"
         id="path108" /></clipPath><clipPath
       id="clipPath118"><path
         d="m 197.051,18 13,0 0,-15 -13,0 0,15 z"
         inkscape:connector-curvature="0"
         id="path120" /></clipPath><clipPath
       id="clipPath128"><path
         d="m 200,5 7,0 0,7 -7,0 0,-7 z"
         inkscape:connector-curvature="0"
         id="path130" /></clipPath><clipPath
       id="clipPath142"><path
         d="M 0,24 22,24 22,391 0,391 0,24 z"
         inkscape:connector-curvature="0"
         id="path144" /></clipPath><clipPath
       id="clipPath154"><path
         d="m 0,215 10.051,0 0,-15 L 0,200 0,215 z"
         inkscape:connector-curvature="0"
         id="path156" /></clipPath><clipPath
       id="clipPath164"><path
         d="m 0,200 7,0 0,9 -7,0 0,-9 z"
         inkscape:connector-curvature="0"
         id="path166" /></clipPath></defs><g
     transform="matrix(1.25,0,0,-1.25,0,488.47115)"
     id="g10"><g
       id="g12"><g
         transform="translate(0,-0.223083)"
         id="g14"><g
           id="g16"><g
             clip-path="url(#clipPath20)"
             id="g18"><g
               id="g24"><g
                 id="g26"><g
                   id="g28"><g
                     clip-path="url(#clipPath32)"
                     id="g30"><g
                       id="g36"><g
                         id="g38"><g
                           id="g40"><g
                             clip-path="url(#clipPath44)"
                             id="g42"><g
                               id="g48" /><g
                               id="g50"><g
                                 clip-path="url(#clipPath54)"
                                 id="g52"><g
                                   id="g58"><g
                                   id="g60"><g
                                   clip-path="url(#clipPath64)"
                                   id="g62"><g
                                   id="g68" /><g
                                   id="g70"><g
                                   clip-path="url(#clipPath74)"
                                   id="g72"><g
                                   id="g78"><g
                                   id="g80"><g
                                   clip-path="url(#clipPath84)"
                                   id="g82"><g
                                   id="g88"><path
                                   d="m 21.051,85.172 1.91,0.008 1.668,0.039 1.871,0.07 1.891,0.102 1.871,0.129 1.738,0.152 1.801,0.18 1.871,0.218 1.848,0.25 1.91,0.282 1.679,0.277 1.903,0.34 1.898,0.383 1.828,0.386 1.672,0.383 1.969,0.488 1.68,0.442 1.953,0.539 1.726,0.512 1.891,0.589 1.801,0.59 1.879,0.649 1.73,0.629 1.871,0.703 1.93,0.758 1.691,0.691 1.821,0.777 1.878,0.832 1.84,0.852 1.782,0.84 1.968,0.976 1.782,0.903 1.886,1 1.723,0.929 1.879,1.039 1.769,1.012 1.84,1.09 1.813,1.09 1.886,1.179 1.821,1.161 1.859,1.211 1.852,1.226 1.699,1.16 1.941,1.364 1.739,1.238 1.863,1.351 1.769,1.321 1.969,1.5 1.711,1.316 1.938,1.531 1.761,1.411 1.93,1.582 1.672,1.386 1.898,1.602 1.828,1.57 1.832,1.602 1.829,1.617 1.75,1.57 1.902,1.731 1.801,1.672 1.91,1.789 1.719,1.629 1.898,1.839 1.82,1.77 1.821,1.801 1.898,1.89 1.75,1.77 1.793,1.832 1.969,2.039 1.789,1.867 1.832,1.934 1.867,1.976 1.711,1.84 1.82,1.973 1.813,1.98 1.937,2.141 1.711,1.898 1.969,2.2 1.781,2.011 1.758,2 1.891,2.168 1.91,2.192 1.723,2 1.839,2.148 1.789,2.102 1.95,2.289 1.679,1.992 1.93,2.297 1.813,2.172 1.796,2.148 1.801,2.172 1.84,2.219 1.941,2.359 1.79,2.172 1.761,2.141 1.879,2.296 1.879,2.301 1.68,2.071 2,2.449 1.672,2.051 1.949,2.402 1.871,2.297 1.66,2.051 1.879,2.3 1.879,2.309 1.883,2.312 1.738,2.129 1.801,2.2 1.859,2.269 1.86,2.262 1.91,2.32 1.679,2.039 1.891,2.281 1.898,2.278 1.84,2.191 1.66,1.981 1.981,2.339 1.672,1.969 1.949,2.281 1.73,2 1.891,2.18 1.809,2.07 1.879,2.129 1.73,1.942 1.859,2.078 1.942,2.133 1.68,1.84 1.82,1.968 1.879,2 1.84,1.942 1.781,1.847 1.98,2.032 1.77,1.789 1.898,1.89 1.723,1.68 1.867,1.809 1.774,1.671 1.847,1.719 1.801,1.641 1.891,1.68 1.82,1.589 1.867,1.582 1.844,1.539 1.699,1.372 1.949,1.527 1.739,1.332 1.851,1.367 1.781,1.281 1.969,1.36 1.699,1.14 1.942,1.243 1.769,1.089 1.93,1.129 1.66,0.93 1.899,1.012 1.832,0.918 1.839,0.871 1.821,0.801 1.758,0.718 1.89,0.719 1.813,0.621 1.898,0.59 1.719,0.48 1.902,0.461 1.821,0.379 1.82,0.309 1.898,0.25 1.75,0.16 1.789,0.102 1.981,0.039 1.789,-0.051 1.832,-0.117 1.859,-0.203 1.711,-0.25 1.828,-0.348 1.813,-0.43 1.93,-0.543 1.707,-0.558 1.972,-0.739 1.778,-0.75 1.761,-0.82 1.899,-0.98 1.902,-1.082 1.731,-1.071 1.839,-1.226 1.789,-1.293 1.942,-1.508 1.68,-1.391 1.929,-1.711 1.821,-1.699 1.796,-1.789 1.801,-1.902 1.832,-2.028 1.949,-2.281 1.782,-2.199 1.758,-2.27 1.878,-2.55 1.883,-2.661 1.77,-2.628"
                                   inkscape:connector-curvature="0"
                                   id="path90"
                                   style="fill:none;stroke:#78000e;stroke-width:1.5;stroke-linecap:butt;stroke-linejoin:round;stroke-miterlimit:10;stroke-opacity:1;stroke-dasharray:none" /></g></g></g></g></g></g></g></g></g></g></g></g></g></g></g><g
                       id="g92"><g
                         clip-path="url(#clipPath96)"
                         id="g94"><g
                           id="g100"><g
                             id="g102"><g
                               clip-path="url(#clipPath106)"
                               id="g104"><g
                                 id="g110"><path
                                   d="m 21.051,24 364,0"
                                   inkscape:connector-curvature="0"
                                   id="path112"
                                   style="fill:none;stroke:#000000;stroke-width:1;stroke-linecap:butt;stroke-linejoin:round;stroke-miterlimit:10;stroke-opacity:1;stroke-dasharray:none" /></g><g
                                 id="g114"><g
                                   clip-path="url(#clipPath118)"
                                   id="g116"><g
                                   id="g122"><g
                                   id="g124"><g
                                   clip-path="url(#clipPath128)"
                                   id="g126"><g
                                   id="g132"><path
                                   d="m 203.301,11.75 c 0,0 0.308,-0.328 0.469,-0.672 0,0 0.121,-0.219 0.371,-1.187 l 0.57,0.828 c 0,0 0.219,0.312 0.539,0.582 0,0 0.32,0.277 0.551,0.39 0,0 0.16,0.059 0.34,0.059 0,0 0.269,0 0.429,-0.148 0,0 0.168,-0.153 0.168,-0.352 0,0 0,-0.25 -0.097,-0.34 0,0 -0.172,-0.16 -0.403,-0.16 0,0 -0.136,0 -0.277,0.059 0,0 -0.301,0.101 -0.41,0.101 0,0 -0.16,0 -0.36,-0.18 0,0 -0.39,-0.32 -0.941,-1.281 l 0.52,-2.168 c 0,0 0.121,-0.5 0.199,-0.601 0,0 0.082,-0.102 0.172,-0.102 0,0 0.129,0 0.32,0.141 0,0 0.34,0.301 0.59,0.761 l 0.219,-0.101 c 0,0 -0.411,-0.75 -1.02,-1.25 0,0 -0.34,-0.289 -0.59,-0.289 0,0 -0.359,0 -0.558,0.41 0,0 -0.141,0.25 -0.551,2.129 0,0 -1,-1.719 -1.59,-2.207 0,0 -0.391,-0.332 -0.75,-0.332 0,0 -0.25,0 -0.473,0.191 0,0 -0.136,0.141 -0.136,0.379 0,0 0,0.199 0.136,0.34 0,0 0.141,0.141 0.34,0.141 0,0 0.203,0 0.422,-0.2 0,0 0.18,-0.14 0.27,-0.14 0,0 0.058,0 0.191,0.09 0,0 0.289,0.25 0.809,1.05 0,0 0.511,0.789 0.671,1.149 0,0 -0.39,1.551 -0.421,1.629 0,0 -0.141,0.422 -0.379,0.59 0,0 -0.231,0.171 -0.7,0.171 0,0 -0.14,0 -0.332,-0.011 l 0,0.23 1.692,0.301 z"
                                   inkscape:connector-curvature="0"
                                   id="path134"
                                   style="fill:#000000;fill-opacity:1;fill-rule:nonzero;stroke:none" /></g></g></g></g></g></g></g></g></g><g
                           id="g136"><g
                             id="g138"><g
                               clip-path="url(#clipPath142)"
                               id="g140"><g
                                 id="g146"><path
                                   d="m 21.051,24 0,367"
                                   inkscape:connector-curvature="0"
                                   id="path148"
                                   style="fill:none;stroke:#000000;stroke-width:1;stroke-linecap:butt;stroke-linejoin:round;stroke-miterlimit:10;stroke-opacity:1;stroke-dasharray:none" /></g><g
                                 id="g150"><g
                                   clip-path="url(#clipPath154)"
                                   id="g152"><g
                                   id="g158"><g
                                   id="g160"><g
                                   clip-path="url(#clipPath164)"
                                   id="g162"><g
                                   id="g168"><path
                                   d="m 3.129,208.75 c 0,0 0.223,-0.371 0.301,-0.699 0,0 0.07,-0.321 0.172,-1.25 l 0.257,-3.129 c 0,0 0.391,0.457 1.11,1.457 0,0 0.351,0.48 0.859,1.312 0,0 0.313,0.5 0.391,0.7 0,0 0.031,0.109 0.031,0.218 0,0 0,0.063 -0.039,0.11 0,0 -0.051,0.051 -0.242,0.109 0,0 -0.188,0.063 -0.297,0.223 0,0 -0.121,0.148 -0.121,0.371 0,0 0,0.25 0.148,0.418 0,0 0.153,0.16 0.379,0.16 0,0 0.281,0 0.481,-0.23 0,0 0.191,-0.239 0.191,-0.641 0,0 0,-0.5 -0.34,-1.149 0,0 -0.34,-0.652 -1.32,-1.98 0,0 -0.981,-1.328 -2.371,-2.91 0,0 -0.949,-1.07 -1.418,-1.36 0,0 -0.473,-0.289 -0.801,-0.289 0,0 -0.199,0 -0.352,0.149 0,0 -0.148,0.16 -0.148,0.351 0,0 0,0.25 0.211,0.45 0,0 0.219,0.199 0.449,0.199 0,0 0.121,0 0.219,-0.059 0,0 0.051,-0.031 0.109,-0.179 0,0 0.063,-0.153 0.114,-0.192 0,0 0.027,-0.031 0.078,-0.031 0,0 0.031,0 0.121,0.062 0,0 0.359,0.219 0.808,0.688 0,0 0.61,0.621 0.911,1.012 l -0.36,4.019 c 0,0 -0.082,1 -0.262,1.219 0,0 -0.179,0.211 -0.597,0.211 0,0 -0.141,0 -0.481,-0.039 l -0.05,0.23 1.859,0.469 z"
                                   inkscape:connector-curvature="0"
                                   id="path170"
                                   style="fill:#000000;fill-opacity:1;fill-rule:nonzero;stroke:none" /></g></g></g></g></g></g></g></g></g></g></g></g></g></g></g></g></g></g><path
         d="m 120.109,128.632 0,-103.82"
         inkscape:connector-curvature="0"
         id="path172"
         style="fill:none;stroke:#000000;stroke-width:0.80000001;stroke-linecap:butt;stroke-linejoin:miter;stroke-miterlimit:4;stroke-opacity:1;stroke-dasharray:3.2, 3.2;stroke-dashoffset:0" /><path
         d="m 335.461,327.964 0,-303.152"
         inkscape:connector-curvature="0"
         id="path174"
         style="fill:none;stroke:#000000;stroke-width:0.80000001;stroke-linecap:butt;stroke-linejoin:miter;stroke-miterlimit:4;stroke-opacity:1;stroke-dasharray:3.2, 3.2;stroke-dashoffset:0" /></g></g></svg>