<?xml version="1.0" encoding="UTF-8" standalone="no"?>
<!-- Created with Inkscape (http://www.inkscape.org/) -->

<svg
   xmlns:dc="http://purl.org/dc/elements/1.1/"
   xmlns:cc="http://creativecommons.org/ns#"
   xmlns:rdf="http://www.w3.org/1999/02/22-rdf-syntax-ns#"
   xmlns:svg="http://www.w3.org/2000/svg"
   xmlns="http://www.w3.org/2000/svg"
   xmlns:inkscape="http://www.inkscape.org/namespaces/inkscape"
   version="1.1"
   width="481.16248"
   height="478.95001"
   id="svg2"
   xml:space="preserve"><metadata
     id="metadata8"><rdf:RDF><cc:Work
         rdf:about=""><dc:format>image/svg+xml</dc:format><dc:type
           rdf:resource="http://purl.org/dc/dcmitype/StillImage" /></cc:Work></rdf:RDF></metadata><defs
     id="defs6"><clipPath
       id="clipPath20"><path
         d="M 0,0 385,0 385,384 0,384 0,0 z"
         inkscape:connector-curvature="0"
         id="path22" /></clipPath><clipPath
       id="clipPath32"><path
         d="M 0,0 385,0 385,384 0,384 0,0 z"
         inkscape:connector-curvature="0"
         id="path34" /></clipPath><clipPath
       id="clipPath44"><path
         d="M 0,0 385,0 385,384 0,384 0,0 z"
         inkscape:connector-curvature="0"
         id="path46" /></clipPath><clipPath
       id="clipPath56"><path
         d="m 38,35 346,0 0,349 -346,0 0,-349 z"
         inkscape:connector-curvature="0"
         id="path58" /></clipPath><clipPath
       id="clipPath66"><path
         d="m 38.051,384 345.488,0 0,-349 -345.488,0 0,349 z"
         inkscape:connector-curvature="0"
         id="path68" /></clipPath><clipPath
       id="clipPath76"><path
         d="m 38,171 345,0 0,190 -345,0 0,-190 z"
         inkscape:connector-curvature="0"
         id="path78" /></clipPath><clipPath
       id="clipPath90"><path
         d="M 37,0 382,0 382,37 37,37 37,0 z"
         inkscape:connector-curvature="0"
         id="path92" /></clipPath><clipPath
       id="clipPath102"><path
         d="m 204.051,13 13,0 0,-13 -13,0 0,13 z"
         inkscape:connector-curvature="0"
         id="path104" /></clipPath><clipPath
       id="clipPath112"><path
         d="m 207,0 7,0 0,7 -7,0 0,-7 z"
         inkscape:connector-curvature="0"
         id="path114" /></clipPath><clipPath
       id="clipPath126"><path
         d="m 0,15 385,0 0,369 L 0,384 0,15 z"
         inkscape:connector-curvature="0"
         id="path128" /></clipPath><clipPath
       id="clipPath176"><path
         d="m 0,217 10.051,0 0,-15 L 0,202 0,217 z"
         inkscape:connector-curvature="0"
         id="path178" /></clipPath><clipPath
       id="clipPath186"><path
         d="m 0,202 7,0 0,9 -7,0 0,-9 z"
         inkscape:connector-curvature="0"
         id="path188" /></clipPath><clipPath
       id="clipPath200"><path
         d="m 14,29 24,0 0,340 -24,0 0,-340 z"
         inkscape:connector-curvature="0"
         id="path202" /></clipPath></defs><g
     transform="matrix(1.25,0,0,-1.25,0,478.95001)"
     id="g10"><g
       id="g12"><g
         transform="translate(0,-0.839996)"
         id="g14"><g
           id="g16"><g
             clip-path="url(#clipPath20)"
             id="g18"><g
               id="g24"><g
                 id="g26"><g
                   id="g28"><g
                     clip-path="url(#clipPath32)"
                     id="g30"><g
                       id="g36"><g
                         id="g38"><g
                           id="g40"><g
                             clip-path="url(#clipPath44)"
                             id="g42"><g
                               id="g48"><g
                                 id="g50"><g
                                   id="g52"><g
                                   clip-path="url(#clipPath56)"
                                   id="g54"><g
                                   id="g60" /><g
                                   id="g62"><g
                                   clip-path="url(#clipPath66)"
                                   id="g64"><g
                                   id="g70"><g
                                   id="g72"><g
                                   clip-path="url(#clipPath76)"
                                   id="g74"><g
                                   id="g80"><path
                                   d="m 39.051,244.969 1.801,-2.969 1.57,-2.512 1.758,-2.718 1.769,-2.649 1.77,-2.551 1.64,-2.289 1.692,-2.293 1.75,-2.289 1.75,-2.219 1.801,-2.199 1.578,-1.871 1.781,-2.051 1.789,-1.988 1.719,-1.851 1.57,-1.629 1.859,-1.879 1.582,-1.532 1.829,-1.742 1.632,-1.476 1.778,-1.571 1.703,-1.453 1.769,-1.468 1.618,-1.301 1.75,-1.348 1.832,-1.359 1.578,-1.141 1.711,-1.199 1.769,-1.192 1.731,-1.121 1.679,-1.05 1.86,-1.118 1.672,-0.972 1.781,-0.989 1.617,-0.871 1.77,-0.918 1.66,-0.82 1.742,-0.832 1.699,-0.777 1.77,-0.782 1.718,-0.718 1.75,-0.703 1.743,-0.661 1.589,-0.578 1.829,-0.64 1.64,-0.539 1.75,-0.539 1.672,-0.5 1.848,-0.512 1.609,-0.43 1.82,-0.441 1.661,-0.391 1.82,-0.387 1.57,-0.312 1.781,-0.328 1.731,-0.289 1.719,-0.262 1.718,-0.238 1.653,-0.211 1.777,-0.192 1.703,-0.16 1.789,-0.148 1.621,-0.11 1.789,-0.089 1.711,-0.071 1.707,-0.043 1.793,-0.019 1.649,0 1.68,0.031 1.859,0.051 1.691,0.078 1.719,0.09 1.75,0.121 1.609,0.14 1.723,0.161 1.699,0.179 1.821,0.219 1.609,0.211 1.859,0.27 1.672,0.269 1.66,0.281 1.778,0.328 1.793,0.352 1.629,0.328 1.718,0.391 1.692,0.39 1.828,0.45 1.582,0.402 1.82,0.488 1.707,0.481 1.692,0.5 1.691,0.519 1.731,0.539 1.828,0.614 1.672,0.57 1.66,0.59 1.769,0.648 1.77,0.66 1.59,0.621 1.871,0.758 1.578,0.653 1.832,0.777 1.758,0.769 1.57,0.704 1.762,0.808 1.769,0.84 1.77,0.859 1.629,0.813 1.699,0.859 1.75,0.91 1.75,0.93 1.793,0.981 1.59,0.878 1.777,1.008 1.789,1.043 1.723,1.02 1.57,0.949 1.859,1.141 1.579,0.988 1.832,1.172 1.629,1.058 1.781,1.18 1.687,1.152 1.774,1.207 1.629,1.141 1.75,1.242 1.82,1.321 1.59,1.168 1.711,1.269 1.769,1.352 1.731,1.328 1.679,1.312 1.86,1.481 1.668,1.347 1.781,1.461 1.621,1.34 1.758,1.5 1.672,1.418 1.73,1.512 1.699,1.488 1.782,1.594 1.718,1.547 1.75,1.609 1.739,1.621 1.59,1.5 1.832,1.75 1.64,1.582 1.739,1.707 1.671,1.66 1.86,1.864 1.609,1.629 1.82,1.879 1.661,1.73 1.82,1.922 1.559,1.668 1.789,1.93 1.73,1.89 1.723,1.899 1.718,1.921 1.649,1.872 1.781,2.039 1.699,1.968 1.789,2.09 1.622,1.922 1.789,2.141 1.711,2.066 1.71,2.094 1.79,2.207 1.64,2.051 1.692,2.121 1.859,2.379 1.68,2.172 1.73,2.238 1.75,2.301 1.609,2.14 1.719,2.297 1.699,2.313 1.821,2.488 1.609,2.223 1.863,2.589 1.668,2.36 1.661,2.359 1.781,2.551 1.789,2.598 1.621,2.382 1.73,2.547 1.688,2.524 1.832,2.75 1.578,2.398 1.82,2.781 1.7,2.649 1.703,2.629 1.687,2.672 1.731,2.738 1.832,2.93 1.668,2.722 1.66,2.699 1.769,2.911 1.77,2.937 1.66,2.781"
                                   inkscape:connector-curvature="0"
                                   id="path82"
                                   style="fill:none;stroke:#78000e;stroke-width:1.5;stroke-linecap:butt;stroke-linejoin:round;stroke-miterlimit:10;stroke-opacity:1;stroke-dasharray:none" /></g></g></g></g></g></g></g></g></g></g></g></g></g><g
                         id="g84"><g
                           id="g86"><g
                             clip-path="url(#clipPath90)"
                             id="g88"><g
                               id="g94"><path
                                 d="m 37.051,36 344.488,0"
                                 inkscape:connector-curvature="0"
                                 id="path96"
                                 style="fill:none;stroke:#000000;stroke-width:1;stroke-linecap:butt;stroke-linejoin:round;stroke-miterlimit:10;stroke-opacity:1;stroke-dasharray:none" /></g><g
                               id="g98"><g
                                 clip-path="url(#clipPath102)"
                                 id="g100"><g
                                   id="g106"><g
                                   id="g108"><g
                                   clip-path="url(#clipPath112)"
                                   id="g110"><g
                                   id="g116"><path
                                   d="m 210.301,6.75 c 0,0 0.308,-0.328 0.469,-0.672 0,0 0.121,-0.219 0.371,-1.187 l 0.57,0.828 c 0,0 0.219,0.312 0.539,0.582 0,0 0.32,0.277 0.551,0.39 0,0 0.16,0.059 0.34,0.059 0,0 0.269,0 0.429,-0.148 0,0 0.168,-0.153 0.168,-0.352 0,0 0,-0.25 -0.097,-0.34 0,0 -0.172,-0.16 -0.403,-0.16 0,0 -0.136,0 -0.277,0.059 0,0 -0.301,0.101 -0.41,0.101 0,0 -0.16,0 -0.36,-0.18 0,0 -0.39,-0.32 -0.941,-1.281 l 0.52,-2.168 c 0,0 0.121,-0.5 0.199,-0.601 0,0 0.082,-0.102 0.172,-0.102 0,0 0.129,0 0.32,0.141 0,0 0.34,0.301 0.59,0.761 l 0.219,-0.101 c 0,0 -0.411,-0.75 -1.02,-1.25 0,0 -0.34,-0.289 -0.59,-0.289 0,0 -0.359,0 -0.558,0.41 0,0 -0.141,0.25 -0.551,2.129 0,0 -1,-1.719 -1.59,-2.207 0,0 -0.391,-0.332 -0.75,-0.332 0,0 -0.25,0 -0.473,0.191 0,0 -0.136,0.141 -0.136,0.379 0,0 0,0.199 0.136,0.34 0,0 0.141,0.141 0.34,0.141 0,0 0.203,0 0.422,-0.2 0,0 0.18,-0.14 0.27,-0.14 0,0 0.058,0 0.191,0.09 0,0 0.289,0.25 0.809,1.05 0,0 0.511,0.789 0.671,1.149 0,0 -0.39,1.551 -0.421,1.629 0,0 -0.141,0.422 -0.379,0.59 0,0 -0.231,0.171 -0.7,0.171 0,0 -0.14,0 -0.332,-0.011 l 0,0.23 1.692,0.301 z"
                                   inkscape:connector-curvature="0"
                                   id="path118"
                                   style="fill:#000000;fill-opacity:1;fill-rule:nonzero;stroke:none" /></g></g></g></g></g></g></g></g></g><g
                         id="g120"><g
                           id="g122"><g
                             clip-path="url(#clipPath126)"
                             id="g124"><g
                               id="g130"><path
                                 d="m 39.051,36 0,-4"
                                 inkscape:connector-curvature="0"
                                 id="path132"
                                 style="fill:none;stroke:#000000;stroke-width:0.80000001;stroke-linecap:butt;stroke-linejoin:round;stroke-miterlimit:10;stroke-opacity:1;stroke-dasharray:none" /><path
                                 d="m 153.211,36 0,-4"
                                 inkscape:connector-curvature="0"
                                 id="path134"
                                 style="fill:none;stroke:#000000;stroke-width:0.80000001;stroke-linecap:butt;stroke-linejoin:round;stroke-miterlimit:10;stroke-opacity:1;stroke-dasharray:none" /><path
                                 d="m 151.82,24.949 2.399,1.192 0.25,0 0,-8.391 c 0,0 0,-0.828 0.07,-1.039 0,0 0.07,-0.211 0.289,-0.32 0,0 0.223,-0.11 0.891,-0.121 l 0,-0.27 -3.731,0 0,0.27 c 0,0 0.703,0.011 0.903,0.121 0,0 0.211,0.109 0.289,0.289 0,0 0.07,0.179 0.07,1.07 l 0,5.359 c 0,0 0,1.09 -0.059,1.391 0,0 -0.062,0.23 -0.191,0.34 0,0 -0.141,0.109 -0.32,0.109 0,0 -0.289,0 -0.75,-0.219 l -0.11,0.219 z"
                                 inkscape:connector-curvature="0"
                                 id="path136"
                                 style="fill:#000000;fill-opacity:1;fill-rule:nonzero;stroke:none" /><path
                                 d="m 267.379,36 0,-4"
                                 inkscape:connector-curvature="0"
                                 id="path138"
                                 style="fill:none;stroke:#000000;stroke-width:0.80000001;stroke-linecap:butt;stroke-linejoin:round;stroke-miterlimit:10;stroke-opacity:1;stroke-dasharray:none" /><path
                                 d="m 259.82,24.949 2.399,1.192 0.25,0 0,-8.391 c 0,0 0,-0.828 0.07,-1.039 0,0 0.07,-0.211 0.289,-0.32 0,0 0.223,-0.11 0.891,-0.121 l 0,-0.27 -3.731,0 0,0.27 c 0,0 0.703,0.011 0.903,0.121 0,0 0.211,0.109 0.289,0.289 0,0 0.07,0.179 0.07,1.07 l 0,5.359 c 0,0 0,1.09 -0.059,1.391 0,0 -0.062,0.23 -0.191,0.34 0,0 -0.141,0.109 -0.32,0.109 0,0 -0.289,0 -0.75,-0.219 l -0.11,0.219 z m 7.61,-7.527 c 0,0 0.34,0 0.57,-0.242 0,0 0.238,-0.239 0.238,-0.571 0,0 0,-0.339 -0.238,-0.578 0,0 -0.23,-0.23 -0.57,-0.23 0,0 -0.352,0 -0.578,0.23 0,0 -0.243,0.239 -0.243,0.578 0,0 0,0.34 0.243,0.582 0,0 0.226,0.231 0.578,0.231 z m 8.39,8.519 -0.582,-1.25 -2.988,0 -0.648,-1.332 c 0,0 1.929,-0.3 3.078,-1.449 0,0 0.961,-0.988 0.961,-2.351 0,0 0,-0.778 -0.313,-1.438 0,0 -0.308,-0.672 -0.797,-1.141 0,0 -0.48,-0.46 -1.07,-0.75 0,0 -0.852,-0.402 -1.742,-0.402 0,0 -0.891,0 -1.289,0.301 0,0 -0.41,0.312 -0.41,0.672 0,0 0,0.199 0.171,0.359 0,0 0.168,0.149 0.418,0.149 0,0 0.192,0 0.332,-0.047 0,0 0.137,-0.063 0.489,-0.313 0,0 0.558,-0.371 1.121,-0.371 0,0 0.859,0 1.5,0.652 0,0 0.64,0.649 0.64,1.579 0,0 0,0.89 -0.582,1.671 0,0 -0.578,0.79 -1.589,1.211 0,0 -0.801,0.329 -2.168,0.387 l 1.898,3.863 3.57,0 z"
                                 inkscape:connector-curvature="0"
                                 id="path140"
                                 style="fill:#000000;fill-opacity:1;fill-rule:nonzero;stroke:none" /><path
                                 d="m 381.539,36 0,-4"
                                 inkscape:connector-curvature="0"
                                 id="path142"
                                 style="fill:none;stroke:#000000;stroke-width:0.80000001;stroke-linecap:butt;stroke-linejoin:round;stroke-miterlimit:10;stroke-opacity:1;stroke-dasharray:none" /><path
                                 d="m 384.93,17.91 -0.692,-1.91 -5.859,0 0,0.27 c 0,0 2.582,2.359 3.633,3.859 0,0 1.058,1.5 1.058,2.73 0,0 0,0.942 -0.582,1.551 0,0 -0.578,0.61 -1.386,0.61 0,0 -0.723,0 -1.313,-0.43 0,0 -0.578,-0.43 -0.859,-1.262 l -0.27,0 c 0,0 0.192,1.363 0.942,2.082 0,0 0.757,0.731 1.886,0.731 0,0 1.223,0 2.024,-0.782 0,0 0.808,-0.781 0.808,-1.828 0,0 0,-0.75 -0.351,-1.511 0,0 -0.539,-1.192 -1.758,-2.5 0,0 -1.82,-2 -2.281,-2.411 l 2.59,0 c 0,0 0.8,0 1.121,0.051 0,0 0.32,0.059 0.57,0.238 0,0 0.258,0.18 0.449,0.512 l 0.27,0 z"
                                 inkscape:connector-curvature="0"
                                 id="path144"
                                 style="fill:#000000;fill-opacity:1;fill-rule:nonzero;stroke:none" /><path
                                 d="m 61.879,36 0,-2"
                                 inkscape:connector-curvature="0"
                                 id="path146"
                                 style="fill:none;stroke:#000000;stroke-width:0.80000001;stroke-linecap:butt;stroke-linejoin:round;stroke-miterlimit:10;stroke-opacity:1;stroke-dasharray:none" /><path
                                 d="m 84.719,36 0,-2"
                                 inkscape:connector-curvature="0"
                                 id="path148"
                                 style="fill:none;stroke:#000000;stroke-width:0.80000001;stroke-linecap:butt;stroke-linejoin:round;stroke-miterlimit:10;stroke-opacity:1;stroke-dasharray:none" /><path
                                 d="m 107.551,36 0,-2"
                                 inkscape:connector-curvature="0"
                                 id="path150"
                                 style="fill:none;stroke:#000000;stroke-width:0.80000001;stroke-linecap:butt;stroke-linejoin:round;stroke-miterlimit:10;stroke-opacity:1;stroke-dasharray:none" /><path
                                 d="m 130.379,36 0,-2"
                                 inkscape:connector-curvature="0"
                                 id="path152"
                                 style="fill:none;stroke:#000000;stroke-width:0.80000001;stroke-linecap:butt;stroke-linejoin:round;stroke-miterlimit:10;stroke-opacity:1;stroke-dasharray:none" /><path
                                 d="m 176.051,36 0,-2"
                                 inkscape:connector-curvature="0"
                                 id="path154"
                                 style="fill:none;stroke:#000000;stroke-width:0.80000001;stroke-linecap:butt;stroke-linejoin:round;stroke-miterlimit:10;stroke-opacity:1;stroke-dasharray:none" /><path
                                 d="m 198.879,36 0,-2"
                                 inkscape:connector-curvature="0"
                                 id="path156"
                                 style="fill:none;stroke:#000000;stroke-width:0.80000001;stroke-linecap:butt;stroke-linejoin:round;stroke-miterlimit:10;stroke-opacity:1;stroke-dasharray:none" /><path
                                 d="m 221.711,36 0,-2"
                                 inkscape:connector-curvature="0"
                                 id="path158"
                                 style="fill:none;stroke:#000000;stroke-width:0.80000001;stroke-linecap:butt;stroke-linejoin:round;stroke-miterlimit:10;stroke-opacity:1;stroke-dasharray:none" /><path
                                 d="m 244.551,36 0,-2"
                                 inkscape:connector-curvature="0"
                                 id="path160"
                                 style="fill:none;stroke:#000000;stroke-width:0.80000001;stroke-linecap:butt;stroke-linejoin:round;stroke-miterlimit:10;stroke-opacity:1;stroke-dasharray:none" /><path
                                 d="m 290.211,36 0,-2"
                                 inkscape:connector-curvature="0"
                                 id="path162"
                                 style="fill:none;stroke:#000000;stroke-width:0.80000001;stroke-linecap:butt;stroke-linejoin:round;stroke-miterlimit:10;stroke-opacity:1;stroke-dasharray:none" /><path
                                 d="m 313.039,36 0,-2"
                                 inkscape:connector-curvature="0"
                                 id="path164"
                                 style="fill:none;stroke:#000000;stroke-width:0.80000001;stroke-linecap:butt;stroke-linejoin:round;stroke-miterlimit:10;stroke-opacity:1;stroke-dasharray:none" /><path
                                 d="m 335.879,36 0,-2"
                                 inkscape:connector-curvature="0"
                                 id="path166"
                                 style="fill:none;stroke:#000000;stroke-width:0.80000001;stroke-linecap:butt;stroke-linejoin:round;stroke-miterlimit:10;stroke-opacity:1;stroke-dasharray:none" /><path
                                 d="m 358.711,36 0,-2"
                                 inkscape:connector-curvature="0"
                                 id="path168"
                                 style="fill:none;stroke:#000000;stroke-width:0.80000001;stroke-linecap:butt;stroke-linejoin:round;stroke-miterlimit:10;stroke-opacity:1;stroke-dasharray:none" /><path
                                 d="m 37.051,36 0,348"
                                 inkscape:connector-curvature="0"
                                 id="path170"
                                 style="fill:none;stroke:#000000;stroke-width:1;stroke-linecap:butt;stroke-linejoin:round;stroke-miterlimit:10;stroke-opacity:1;stroke-dasharray:none" /></g><g
                               id="g172"><g
                                 clip-path="url(#clipPath176)"
                                 id="g174"><g
                                   id="g180"><g
                                   id="g182"><g
                                   clip-path="url(#clipPath186)"
                                   id="g184"><g
                                   id="g190"><path
                                   d="m 3.129,210.75 c 0,0 0.223,-0.371 0.301,-0.699 0,0 0.07,-0.321 0.172,-1.25 l 0.257,-3.129 c 0,0 0.391,0.457 1.11,1.457 0,0 0.351,0.48 0.859,1.312 0,0 0.313,0.5 0.391,0.7 0,0 0.031,0.109 0.031,0.218 0,0 0,0.063 -0.039,0.11 0,0 -0.051,0.051 -0.242,0.109 0,0 -0.188,0.063 -0.297,0.223 0,0 -0.121,0.148 -0.121,0.371 0,0 0,0.25 0.148,0.418 0,0 0.153,0.16 0.379,0.16 0,0 0.281,0 0.481,-0.23 0,0 0.191,-0.239 0.191,-0.641 0,0 0,-0.5 -0.34,-1.149 0,0 -0.34,-0.652 -1.32,-1.98 0,0 -0.981,-1.328 -2.371,-2.91 0,0 -0.949,-1.07 -1.418,-1.36 0,0 -0.473,-0.289 -0.801,-0.289 0,0 -0.199,0 -0.352,0.149 0,0 -0.148,0.16 -0.148,0.351 0,0 0,0.25 0.211,0.45 0,0 0.219,0.199 0.449,0.199 0,0 0.121,0 0.219,-0.059 0,0 0.051,-0.031 0.109,-0.179 0,0 0.063,-0.153 0.114,-0.192 0,0 0.027,-0.031 0.078,-0.031 0,0 0.031,0 0.121,0.062 0,0 0.359,0.219 0.808,0.688 0,0 0.61,0.621 0.911,1.012 l -0.36,4.019 c 0,0 -0.082,1 -0.262,1.219 0,0 -0.179,0.211 -0.597,0.211 0,0 -0.141,0 -0.481,-0.039 l -0.05,0.23 1.859,0.469 z"
                                   inkscape:connector-curvature="0"
                                   id="path192"
                                   style="fill:#000000;fill-opacity:1;fill-rule:nonzero;stroke:none" /></g></g></g></g></g></g></g></g></g><g
                         id="g194"><g
                           id="g196"><g
                             clip-path="url(#clipPath200)"
                             id="g198"><g
                               id="g204"><path
                                 d="m 37.051,36 -4,0"
                                 inkscape:connector-curvature="0"
                                 id="path206"
                                 style="fill:none;stroke:#000000;stroke-width:0.80000001;stroke-linecap:butt;stroke-linejoin:round;stroke-miterlimit:10;stroke-opacity:1;stroke-dasharray:none" /><path
                                 d="m 25.602,34.91 c 0,0 0,1.699 0.5,2.93 0,0 0.507,1.219 1.367,1.82 0,0 0.66,0.481 1.359,0.481 0,0 1.141,0 2.051,-1.172 0,0 1.141,-1.438 1.141,-3.91 0,0 0,-1.731 -0.5,-2.93 0,0 -0.5,-1.207 -1.27,-1.75 0,0 -0.781,-0.551 -1.5,-0.551 0,0 -1.422,0 -2.359,1.672 0,0 -0.789,1.422 -0.789,3.41 z m 1.429,-0.191 c 0,0 0,-2.047 0.5,-3.34 0,0 0.43,-1.098 1.25,-1.098 0,0 0.399,0 0.821,0.36 0,0 0.418,0.359 0.636,1.187 0,0 0.34,1.262 0.34,3.563 0,0 0,1.687 -0.359,2.828 0,0 -0.25,0.84 -0.668,1.191 0,0 -0.301,0.25 -0.731,0.25 0,0 -0.492,0 -0.879,-0.461 0,0 -0.531,-0.609 -0.722,-1.91 0,0 -0.188,-1.309 -0.188,-2.57 z"
                                 inkscape:connector-curvature="0"
                                 id="path208"
                                 style="fill:#000000;fill-opacity:1;fill-rule:nonzero;stroke:none" /><path
                                 d="m 37.051,76.941 -4,0"
                                 inkscape:connector-curvature="0"
                                 id="path210"
                                 style="fill:none;stroke:#000000;stroke-width:0.80000001;stroke-linecap:butt;stroke-linejoin:round;stroke-miterlimit:10;stroke-opacity:1;stroke-dasharray:none" /><path
                                 d="m 14.602,75.91 c 0,0 0,1.699 0.5,2.93 0,0 0.507,1.219 1.367,1.82 0,0 0.66,0.481 1.359,0.481 0,0 1.141,0 2.051,-1.172 0,0 1.141,-1.438 1.141,-3.91 0,0 0,-1.731 -0.5,-2.93 0,0 -0.5,-1.207 -1.27,-1.75 0,0 -0.781,-0.551 -1.5,-0.551 0,0 -1.422,0 -2.359,1.672 0,0 -0.789,1.422 -0.789,3.41 z m 1.429,-0.191 c 0,0 0,-2.047 0.5,-3.34 0,0 0.43,-1.098 1.25,-1.098 0,0 0.399,0 0.821,0.36 0,0 0.418,0.359 0.636,1.187 0,0 0.34,1.262 0.34,3.563 0,0 0,1.687 -0.359,2.828 0,0 -0.25,0.84 -0.668,1.191 0,0 -0.301,0.25 -0.731,0.25 0,0 -0.492,0 -0.879,-0.461 0,0 -0.531,-0.609 -0.722,-1.91 0,0 -0.188,-1.309 -0.188,-2.57 z m 7.399,-3.297 c 0,0 0.34,0 0.57,-0.242 0,0 0.238,-0.239 0.238,-0.571 0,0 0,-0.339 -0.238,-0.578 0,0 -0.23,-0.23 -0.57,-0.23 0,0 -0.352,0 -0.578,0.23 0,0 -0.243,0.239 -0.243,0.578 0,0 0,0.34 0.243,0.582 0,0 0.226,0.231 0.578,0.231 z m 8.75,0.488 -0.692,-1.91 -5.859,0 0,0.27 c 0,0 2.582,2.359 3.633,3.859 0,0 1.058,1.5 1.058,2.73 0,0 0,0.942 -0.582,1.551 0,0 -0.578,0.61 -1.386,0.61 0,0 -0.723,0 -1.313,-0.43 0,0 -0.578,-0.43 -0.859,-1.262 l -0.27,0 c 0,0 0.192,1.363 0.942,2.082 0,0 0.757,0.731 1.886,0.731 0,0 1.223,0 2.024,-0.782 0,0 0.808,-0.781 0.808,-1.828 0,0 0,-0.75 -0.351,-1.511 0,0 -0.539,-1.192 -1.758,-2.5 0,0 -1.82,-2 -2.281,-2.411 l 2.59,0 c 0,0 0.8,0 1.121,0.051 0,0 0.32,0.059 0.57,0.238 0,0 0.258,0.18 0.449,0.512 l 0.27,0 z"
                                 inkscape:connector-curvature="0"
                                 id="path212"
                                 style="fill:#000000;fill-opacity:1;fill-rule:nonzero;stroke:none" /><path
                                 d="m 37.051,117.879 -4,0"
                                 inkscape:connector-curvature="0"
                                 id="path214"
                                 style="fill:none;stroke:#000000;stroke-width:0.80000001;stroke-linecap:butt;stroke-linejoin:round;stroke-miterlimit:10;stroke-opacity:1;stroke-dasharray:none" /><path
                                 d="m 14.602,116.91 c 0,0 0,1.699 0.5,2.93 0,0 0.507,1.219 1.367,1.82 0,0 0.66,0.481 1.359,0.481 0,0 1.141,0 2.051,-1.172 0,0 1.141,-1.438 1.141,-3.91 0,0 0,-1.731 -0.5,-2.93 0,0 -0.5,-1.207 -1.27,-1.75 0,0 -0.781,-0.551 -1.5,-0.551 0,0 -1.422,0 -2.359,1.672 0,0 -0.789,1.422 -0.789,3.41 z m 1.429,-0.191 c 0,0 0,-2.047 0.5,-3.34 0,0 0.43,-1.098 1.25,-1.098 0,0 0.399,0 0.821,0.36 0,0 0.418,0.359 0.636,1.187 0,0 0.34,1.262 0.34,3.563 0,0 0,1.687 -0.359,2.828 0,0 -0.25,0.84 -0.668,1.191 0,0 -0.301,0.25 -0.731,0.25 0,0 -0.492,0 -0.879,-0.461 0,0 -0.531,-0.609 -0.722,-1.91 0,0 -0.188,-1.309 -0.188,-2.57 z m 7.399,-3.297 c 0,0 0.34,0 0.57,-0.242 0,0 0.238,-0.239 0.238,-0.571 0,0 0,-0.339 -0.238,-0.578 0,0 -0.23,-0.23 -0.57,-0.23 0,0 -0.352,0 -0.578,0.23 0,0 -0.243,0.239 -0.243,0.578 0,0 0,0.34 0.243,0.582 0,0 0.226,0.231 0.578,0.231 z m 8.851,2.238 0,-1.031 -1.34,0 0,-2.629 -1.203,0 0,2.629 -4.207,0 0,0.93 4.61,6.582 0.8,0 0,-6.481 1.34,0 z m -2.543,0 0,4.93 -3.488,-4.93 3.488,0 z"
                                 inkscape:connector-curvature="0"
                                 id="path216"
                                 style="fill:#000000;fill-opacity:1;fill-rule:nonzero;stroke:none" /><path
                                 d="m 37.051,158.82 -4,0"
                                 inkscape:connector-curvature="0"
                                 id="path218"
                                 style="fill:none;stroke:#000000;stroke-width:0.80000001;stroke-linecap:butt;stroke-linejoin:round;stroke-miterlimit:10;stroke-opacity:1;stroke-dasharray:none" /><path
                                 d="m 14.602,157.91 c 0,0 0,1.699 0.5,2.93 0,0 0.507,1.219 1.367,1.82 0,0 0.66,0.481 1.359,0.481 0,0 1.141,0 2.051,-1.172 0,0 1.141,-1.438 1.141,-3.91 0,0 0,-1.731 -0.5,-2.93 0,0 -0.5,-1.207 -1.27,-1.75 0,0 -0.781,-0.551 -1.5,-0.551 0,0 -1.422,0 -2.359,1.672 0,0 -0.789,1.422 -0.789,3.41 z m 1.429,-0.191 c 0,0 0,-2.047 0.5,-3.34 0,0 0.43,-1.098 1.25,-1.098 0,0 0.399,0 0.821,0.36 0,0 0.418,0.359 0.636,1.187 0,0 0.34,1.262 0.34,3.563 0,0 0,1.687 -0.359,2.828 0,0 -0.25,0.84 -0.668,1.191 0,0 -0.301,0.25 -0.731,0.25 0,0 -0.492,0 -0.879,-0.461 0,0 -0.531,-0.609 -0.722,-1.91 0,0 -0.188,-1.309 -0.188,-2.57 z m 7.399,-3.297 c 0,0 0.34,0 0.57,-0.242 0,0 0.238,-0.239 0.238,-0.571 0,0 0,-0.339 -0.238,-0.578 0,0 -0.23,-0.23 -0.57,-0.23 0,0 -0.352,0 -0.578,0.23 0,0 -0.243,0.239 -0.243,0.578 0,0 0,0.34 0.243,0.582 0,0 0.226,0.231 0.578,0.231 z m 8.59,8.719 0,-0.282 c 0,0 -0.969,-0.089 -1.579,-0.379 0,0 -0.613,-0.289 -1.203,-0.89 0,0 -0.597,-0.59 -0.988,-1.32 0,0 -0.391,-0.719 -0.648,-1.719 0,0 1.039,0.719 2.109,0.719 0,0 1.008,0 1.758,-0.821 0,0 0.75,-0.82 0.75,-2.109 0,0 0,-1.25 -0.75,-2.281 0,0 -0.899,-1.231 -2.399,-1.231 0,0 -1.019,0 -1.742,0.672 0,0 -1.387,1.309 -1.387,3.391 0,0 0,1.339 0.539,2.539 0,0 0.54,1.199 1.532,2.129 0,0 0.988,0.941 1.898,1.261 0,0 0.91,0.321 1.692,0.321 l 0.418,0 z m -4.551,-5.121 c 0,0 -0.141,-1 -0.141,-1.61 0,0 0,-0.711 0.274,-1.531 0,0 0.257,-0.82 0.757,-1.301 0,0 0.379,-0.348 0.922,-0.348 0,0 0.629,0 1.141,0.61 0,0 0.508,0.601 0.508,1.711 0,0 0,1.25 -0.5,2.16 0,0 -0.5,0.918 -1.43,0.918 0,0 -0.281,0 -0.59,-0.117 0,0 -0.308,-0.121 -0.941,-0.492 z"
                                 inkscape:connector-curvature="0"
                                 id="path220"
                                 style="fill:#000000;fill-opacity:1;fill-rule:nonzero;stroke:none" /><path
                                 d="m 37.051,199.762 -4,0"
                                 inkscape:connector-curvature="0"
                                 id="path222"
                                 style="fill:none;stroke:#000000;stroke-width:0.80000001;stroke-linecap:butt;stroke-linejoin:round;stroke-miterlimit:10;stroke-opacity:1;stroke-dasharray:none" /><path
                                 d="m 14.602,198.91 c 0,0 0,1.699 0.5,2.93 0,0 0.507,1.219 1.367,1.82 0,0 0.66,0.481 1.359,0.481 0,0 1.141,0 2.051,-1.172 0,0 1.141,-1.438 1.141,-3.91 0,0 0,-1.731 -0.5,-2.93 0,0 -0.5,-1.207 -1.27,-1.75 0,0 -0.781,-0.551 -1.5,-0.551 0,0 -1.422,0 -2.359,1.672 0,0 -0.789,1.422 -0.789,3.41 z m 1.429,-0.191 c 0,0 0,-2.047 0.5,-3.34 0,0 0.43,-1.098 1.25,-1.098 0,0 0.399,0 0.821,0.36 0,0 0.418,0.359 0.636,1.187 0,0 0.34,1.262 0.34,3.563 0,0 0,1.687 -0.359,2.828 0,0 -0.25,0.84 -0.668,1.191 0,0 -0.301,0.25 -0.731,0.25 0,0 -0.492,0 -0.879,-0.461 0,0 -0.531,-0.609 -0.722,-1.91 0,0 -0.188,-1.309 -0.188,-2.57 z m 7.399,-3.297 c 0,0 0.34,0 0.57,-0.242 0,0 0.238,-0.239 0.238,-0.571 0,0 0,-0.339 -0.238,-0.578 0,0 -0.23,-0.23 -0.57,-0.23 0,0 -0.352,0 -0.578,0.23 0,0 -0.243,0.239 -0.243,0.578 0,0 0,0.34 0.243,0.582 0,0 0.226,0.231 0.578,0.231 z M 28.18,199 c 0,0 -1.18,0.969 -1.52,1.551 0,0 -0.34,0.59 -0.34,1.219 0,0 0,0.96 0.75,1.671 0,0 0.75,0.7 1.981,0.7 0,0 1.199,0 1.937,-0.661 0,0 0.731,-0.652 0.731,-1.48 0,0 0,-0.559 -0.399,-1.141 0,0 -0.39,-0.578 -1.64,-1.359 0,0 1.281,-1 1.699,-1.559 0,0 0.562,-0.75 0.562,-1.582 0,0 0,-1.05 -0.8,-1.789 0,0 -0.789,-0.742 -2.09,-0.742 0,0 -1.422,0 -2.223,0.871 0,0 -0.617,0.723 -0.617,1.571 0,0 0,0.652 0.437,1.3 0,0 0.454,0.649 1.532,1.43 z m 1.148,0.781 c 0,0 0.883,0.797 1.113,1.258 0,0 0.239,0.461 0.239,1.039 0,0 0,0.762 -0.43,1.203 0,0 -0.43,0.438 -1.18,0.438 0,0 -0.75,0 -1.218,-0.438 0,0 -0.473,-0.441 -0.473,-1.011 0,0 0,-0.379 0.191,-0.758 0,0 0.2,-0.383 0.559,-0.731 l 1.199,-1 z m -0.808,-1.062 c 0,0 -0.61,-0.5 -0.899,-1.11 0,0 -0.293,-0.609 -0.293,-1.308 0,0 0,-0.942 0.524,-1.512 0,0 0.507,-0.57 1.308,-0.57 0,0 0.801,0 1.27,0.441 0,0 0.48,0.449 0.48,1.09 0,0 0,0.531 -0.281,0.949 0,0 -0.52,0.77 -2.109,2.02 z"
                                 inkscape:connector-curvature="0"
                                 id="path224"
                                 style="fill:#000000;fill-opacity:1;fill-rule:nonzero;stroke:none" /><path
                                 d="m 37.051,240.699 -4,0"
                                 inkscape:connector-curvature="0"
                                 id="path226"
                                 style="fill:none;stroke:#000000;stroke-width:0.80000001;stroke-linecap:butt;stroke-linejoin:round;stroke-miterlimit:10;stroke-opacity:1;stroke-dasharray:none" /><path
                                 d="m 26.82,243.949 2.399,1.192 0.25,0 0,-8.391 c 0,0 0,-0.828 0.07,-1.039 0,0 0.07,-0.211 0.289,-0.32 0,0 0.223,-0.11 0.891,-0.121 l 0,-0.27 -3.731,0 0,0.27 c 0,0 0.703,0.011 0.903,0.121 0,0 0.211,0.109 0.289,0.289 0,0 0.07,0.179 0.07,1.07 l 0,5.359 c 0,0 0,1.09 -0.059,1.391 0,0 -0.062,0.23 -0.191,0.34 0,0 -0.141,0.109 -0.32,0.109 0,0 -0.289,0 -0.75,-0.219 l -0.11,0.219 z"
                                 inkscape:connector-curvature="0"
                                 id="path228"
                                 style="fill:#000000;fill-opacity:1;fill-rule:nonzero;stroke:none" /><path
                                 d="m 37.051,281.648 -4,0"
                                 inkscape:connector-curvature="0"
                                 id="path230"
                                 style="fill:none;stroke:#000000;stroke-width:0.80000001;stroke-linecap:butt;stroke-linejoin:round;stroke-miterlimit:10;stroke-opacity:1;stroke-dasharray:none" /><path
                                 d="m 15.82,284.949 2.399,1.192 0.25,0 0,-8.391 c 0,0 0,-0.828 0.07,-1.039 0,0 0.07,-0.211 0.289,-0.32 0,0 0.223,-0.11 0.891,-0.121 l 0,-0.27 -3.731,0 0,0.27 c 0,0 0.703,0.011 0.903,0.121 0,0 0.211,0.109 0.289,0.289 0,0 0.07,0.179 0.07,1.07 l 0,5.359 c 0,0 0,1.09 -0.059,1.391 0,0 -0.062,0.23 -0.191,0.34 0,0 -0.141,0.109 -0.32,0.109 0,0 -0.289,0 -0.75,-0.219 l -0.11,0.219 z m 7.61,-7.527 c 0,0 0.34,0 0.57,-0.242 0,0 0.238,-0.239 0.238,-0.571 0,0 0,-0.339 -0.238,-0.578 0,0 -0.23,-0.23 -0.57,-0.23 0,0 -0.352,0 -0.578,0.23 0,0 -0.243,0.239 -0.243,0.578 0,0 0,0.34 0.243,0.582 0,0 0.226,0.231 0.578,0.231 z m 8.75,0.488 -0.692,-1.91 -5.859,0 0,0.27 c 0,0 2.582,2.359 3.633,3.859 0,0 1.058,1.5 1.058,2.73 0,0 0,0.942 -0.582,1.551 0,0 -0.578,0.61 -1.386,0.61 0,0 -0.723,0 -1.313,-0.43 0,0 -0.578,-0.43 -0.859,-1.262 l -0.27,0 c 0,0 0.192,1.363 0.942,2.082 0,0 0.757,0.731 1.886,0.731 0,0 1.223,0 2.024,-0.782 0,0 0.808,-0.781 0.808,-1.828 0,0 0,-0.75 -0.351,-1.511 0,0 -0.539,-1.192 -1.758,-2.5 0,0 -1.82,-2 -2.281,-2.411 l 2.59,0 c 0,0 0.8,0 1.121,0.051 0,0 0.32,0.059 0.57,0.238 0,0 0.258,0.18 0.449,0.512 l 0.27,0 z"
                                 inkscape:connector-curvature="0"
                                 id="path232"
                                 style="fill:#000000;fill-opacity:1;fill-rule:nonzero;stroke:none" /><path
                                 d="m 37.051,322.59 -4,0"
                                 inkscape:connector-curvature="0"
                                 id="path234"
                                 style="fill:none;stroke:#000000;stroke-width:0.80000001;stroke-linecap:butt;stroke-linejoin:round;stroke-miterlimit:10;stroke-opacity:1;stroke-dasharray:none" /><path
                                 d="m 15.82,325.949 2.399,1.192 0.25,0 0,-8.391 c 0,0 0,-0.828 0.07,-1.039 0,0 0.07,-0.211 0.289,-0.32 0,0 0.223,-0.11 0.891,-0.121 l 0,-0.27 -3.731,0 0,0.27 c 0,0 0.703,0.011 0.903,0.121 0,0 0.211,0.109 0.289,0.289 0,0 0.07,0.179 0.07,1.07 l 0,5.359 c 0,0 0,1.09 -0.059,1.391 0,0 -0.062,0.23 -0.191,0.34 0,0 -0.141,0.109 -0.32,0.109 0,0 -0.289,0 -0.75,-0.219 l -0.11,0.219 z m 7.61,-7.527 c 0,0 0.34,0 0.57,-0.242 0,0 0.238,-0.239 0.238,-0.571 0,0 0,-0.339 -0.238,-0.578 0,0 -0.23,-0.23 -0.57,-0.23 0,0 -0.352,0 -0.578,0.23 0,0 -0.243,0.239 -0.243,0.578 0,0 0,0.34 0.243,0.582 0,0 0.226,0.231 0.578,0.231 z m 8.851,2.238 0,-1.031 -1.34,0 0,-2.629 -1.203,0 0,2.629 -4.207,0 0,0.93 4.61,6.582 0.8,0 0,-6.481 1.34,0 z m -2.543,0 0,4.93 -3.488,-4.93 3.488,0 z"
                                 inkscape:connector-curvature="0"
                                 id="path236"
                                 style="fill:#000000;fill-opacity:1;fill-rule:nonzero;stroke:none" /><path
                                 d="m 37.051,363.531 -4,0"
                                 inkscape:connector-curvature="0"
                                 id="path238"
                                 style="fill:none;stroke:#000000;stroke-width:0.80000001;stroke-linecap:butt;stroke-linejoin:round;stroke-miterlimit:10;stroke-opacity:1;stroke-dasharray:none" /><path
                                 d="m 15.82,366.949 2.399,1.192 0.25,0 0,-8.391 c 0,0 0,-0.828 0.07,-1.039 0,0 0.07,-0.211 0.289,-0.32 0,0 0.223,-0.11 0.891,-0.121 l 0,-0.27 -3.731,0 0,0.27 c 0,0 0.703,0.011 0.903,0.121 0,0 0.211,0.109 0.289,0.289 0,0 0.07,0.179 0.07,1.07 l 0,5.359 c 0,0 0,1.09 -0.059,1.391 0,0 -0.062,0.23 -0.191,0.34 0,0 -0.141,0.109 -0.32,0.109 0,0 -0.289,0 -0.75,-0.219 l -0.11,0.219 z m 7.61,-7.527 c 0,0 0.34,0 0.57,-0.242 0,0 0.238,-0.239 0.238,-0.571 0,0 0,-0.339 -0.238,-0.578 0,0 -0.23,-0.23 -0.57,-0.23 0,0 -0.352,0 -0.578,0.23 0,0 -0.243,0.239 -0.243,0.578 0,0 0,0.34 0.243,0.582 0,0 0.226,0.231 0.578,0.231 z m 8.59,8.719 0,-0.282 c 0,0 -0.969,-0.089 -1.579,-0.379 0,0 -0.613,-0.289 -1.203,-0.89 0,0 -0.597,-0.59 -0.988,-1.32 0,0 -0.391,-0.719 -0.648,-1.719 0,0 1.039,0.719 2.109,0.719 0,0 1.008,0 1.758,-0.821 0,0 0.75,-0.82 0.75,-2.109 0,0 0,-1.25 -0.75,-2.281 0,0 -0.899,-1.231 -2.399,-1.231 0,0 -1.019,0 -1.742,0.672 0,0 -1.387,1.309 -1.387,3.391 0,0 0,1.339 0.539,2.539 0,0 0.54,1.199 1.532,2.129 0,0 0.988,0.941 1.898,1.261 0,0 0.91,0.321 1.692,0.321 l 0.418,0 z m -4.551,-5.121 c 0,0 -0.141,-1 -0.141,-1.61 0,0 0,-0.711 0.274,-1.531 0,0 0.257,-0.82 0.757,-1.301 0,0 0.379,-0.348 0.922,-0.348 0,0 0.629,0 1.141,0.61 0,0 0.508,0.601 0.508,1.711 0,0 0,1.25 -0.5,2.16 0,0 -0.5,0.918 -1.43,0.918 0,0 -0.281,0 -0.59,-0.117 0,0 -0.308,-0.121 -0.941,-0.492 z"
                                 inkscape:connector-curvature="0"
                                 id="path240"
                                 style="fill:#000000;fill-opacity:1;fill-rule:nonzero;stroke:none" /><path
                                 d="m 37.051,56.469 -2,0"
                                 inkscape:connector-curvature="0"
                                 id="path242"
                                 style="fill:none;stroke:#000000;stroke-width:0.80000001;stroke-linecap:butt;stroke-linejoin:round;stroke-miterlimit:10;stroke-opacity:1;stroke-dasharray:none" /><path
                                 d="m 37.051,97.41 -2,0"
                                 inkscape:connector-curvature="0"
                                 id="path244"
                                 style="fill:none;stroke:#000000;stroke-width:0.80000001;stroke-linecap:butt;stroke-linejoin:round;stroke-miterlimit:10;stroke-opacity:1;stroke-dasharray:none" /><path
                                 d="m 37.051,138.352 -2,0"
                                 inkscape:connector-curvature="0"
                                 id="path246"
                                 style="fill:none;stroke:#000000;stroke-width:0.80000001;stroke-linecap:butt;stroke-linejoin:round;stroke-miterlimit:10;stroke-opacity:1;stroke-dasharray:none" /><path
                                 d="m 37.051,179.289 -2,0"
                                 inkscape:connector-curvature="0"
                                 id="path248"
                                 style="fill:none;stroke:#000000;stroke-width:0.80000001;stroke-linecap:butt;stroke-linejoin:round;stroke-miterlimit:10;stroke-opacity:1;stroke-dasharray:none" /><path
                                 d="m 37.051,220.23 -2,0"
                                 inkscape:connector-curvature="0"
                                 id="path250"
                                 style="fill:none;stroke:#000000;stroke-width:0.80000001;stroke-linecap:butt;stroke-linejoin:round;stroke-miterlimit:10;stroke-opacity:1;stroke-dasharray:none" /><path
                                 d="m 37.051,261.172 -2,0"
                                 inkscape:connector-curvature="0"
                                 id="path252"
                                 style="fill:none;stroke:#000000;stroke-width:0.80000001;stroke-linecap:butt;stroke-linejoin:round;stroke-miterlimit:10;stroke-opacity:1;stroke-dasharray:none" /><path
                                 d="m 37.051,302.121 -2,0"
                                 inkscape:connector-curvature="0"
                                 id="path254"
                                 style="fill:none;stroke:#000000;stroke-width:0.80000001;stroke-linecap:butt;stroke-linejoin:round;stroke-miterlimit:10;stroke-opacity:1;stroke-dasharray:none" /><path
                                 d="m 37.051,343.059 -2,0"
                                 inkscape:connector-curvature="0"
                                 id="path256"
                                 style="fill:none;stroke:#000000;stroke-width:0.80000001;stroke-linecap:butt;stroke-linejoin:round;stroke-miterlimit:10;stroke-opacity:1;stroke-dasharray:none" /></g></g></g></g></g></g></g></g></g></g></g></g></g></g></svg>