<?xml version="1.0" encoding="UTF-8" standalone="no"?>
<!-- Created with Inkscape (http://www.inkscape.org/) -->

<svg
   xmlns:dc="http://purl.org/dc/elements/1.1/"
   xmlns:cc="http://creativecommons.org/ns#"
   xmlns:rdf="http://www.w3.org/1999/02/22-rdf-syntax-ns#"
   xmlns:svg="http://www.w3.org/2000/svg"
   xmlns="http://www.w3.org/2000/svg"
   xmlns:inkscape="http://www.inkscape.org/namespaces/inkscape"
   version="1.1"
   width="482.82968"
   height="429.11841"
   id="svg2"
   xml:space="preserve"><metadata
     id="metadata8"><rdf:RDF><cc:Work
         rdf:about=""><dc:format>image/svg+xml</dc:format><dc:type
           rdf:resource="http://purl.org/dc/dcmitype/StillImage" /></cc:Work></rdf:RDF></metadata><defs
     id="defs6"><clipPath
       id="clipPath20"><path
         d="M 0,0 387,0 387,344 0,344 0,0 z"
         inkscape:connector-curvature="0"
         id="path22" /></clipPath><clipPath
       id="clipPath32"><path
         d="M 0,0 387,0 387,344 0,344 0,0 z"
         inkscape:connector-curvature="0"
         id="path34" /></clipPath><clipPath
       id="clipPath44"><path
         d="M 0,0 387,0 387,344 0,344 0,0 z"
         inkscape:connector-curvature="0"
         id="path46" /></clipPath><clipPath
       id="clipPath54"><path
         d="m 0,344 386.516,0 0,-344 L 0,0 0,344 z"
         inkscape:connector-curvature="0"
         id="path56" /></clipPath><clipPath
       id="clipPath64"><path
         d="M 4,0 387,0 387,344 4,344 4,0 z"
         inkscape:connector-curvature="0"
         id="path66" /></clipPath><clipPath
       id="clipPath74"><path
         d="M 4.949,344 387,344 387,0.484 4.949,0.484 4.949,344 z"
         inkscape:connector-curvature="0"
         id="path76" /></clipPath><clipPath
       id="clipPath84"><path
         d="m 5,40 255,0 0,265 L 5,305 5,40 z"
         inkscape:connector-curvature="0"
         id="path86" /></clipPath><clipPath
       id="clipPath98"><path
         d="m 0,344 386.516,0 0,-344 L 0,0 0,344 z"
         inkscape:connector-curvature="0"
         id="path100" /></clipPath><clipPath
       id="clipPath108"><path
         d="M 4,0 387,0 387,344 4,344 4,0 z"
         inkscape:connector-curvature="0"
         id="path110" /></clipPath><clipPath
       id="clipPath118"><path
         d="M 4.949,344 387,344 387,0.484 4.949,0.484 4.949,344 z"
         inkscape:connector-curvature="0"
         id="path120" /></clipPath><clipPath
       id="clipPath128"><path
         d="m 100,0 287,0 0,344 -287,0 0,-344 z"
         inkscape:connector-curvature="0"
         id="path130" /></clipPath><clipPath
       id="clipPath144"><path
         d="m 0,152 386,0 0,21 -386,0 0,-21 z"
         inkscape:connector-curvature="0"
         id="path146" /></clipPath><clipPath
       id="clipPath162"><path
         d="m 0,166.609 5.449,0 0,-14.141 -5.449,0 0,14.141 z"
         inkscape:connector-curvature="0"
         id="path164" /></clipPath><clipPath
       id="clipPath172"><path
         d="m 0,158 10,0 0,2 -10,0 0,-2 z"
         inkscape:connector-curvature="0"
         id="path174" /></clipPath><clipPath
       id="clipPath186"><path
         d="m 7,152 63,0 0,21 -63,0 0,-21 z"
         inkscape:connector-curvature="0"
         id="path188" /></clipPath><clipPath
       id="clipPath202"><path
         d="m 60.461,166.609 8,0 0,-14.141 -8,0 0,14.141 z"
         inkscape:connector-curvature="0"
         id="path204" /></clipPath><clipPath
       id="clipPath212"><path
         d="m 63,158 10,0 0,2 -10,0 0,-2 z"
         inkscape:connector-curvature="0"
         id="path214" /></clipPath><clipPath
       id="clipPath226"><path
         d="M 37,1 355,1 355,344 37,344 37,1 z"
         inkscape:connector-curvature="0"
         id="path228" /></clipPath><clipPath
       id="clipPath294"><path
         d="m 108.469,47.316 8,0 0,-14.137 -8,0 0,14.137 z"
         inkscape:connector-curvature="0"
         id="path296" /></clipPath><clipPath
       id="clipPath304"><path
         d="m 111,39 10,0 0,2 -10,0 0,-2 z"
         inkscape:connector-curvature="0"
         id="path306" /></clipPath><clipPath
       id="clipPath318"><path
         d="m 108,35 25,0 0,79 -25,0 0,-79 z"
         inkscape:connector-curvature="0"
         id="path320" /></clipPath><clipPath
       id="clipPath334"><path
         d="m 108.469,113.59 8,0 0,-14.137 -8,0 0,14.137 z"
         inkscape:connector-curvature="0"
         id="path336" /></clipPath><clipPath
       id="clipPath344"><path
         d="m 111,105 10,0 0,2 -10,0 0,-2 z"
         inkscape:connector-curvature="0"
         id="path346" /></clipPath><clipPath
       id="clipPath358"><path
         d="m 118,7 15,0 0,331 -15,0 0,-331 z"
         inkscape:connector-curvature="0"
         id="path360" /></clipPath></defs><g
     transform="matrix(1.25,0,0,-1.25,0,429.11842)"
     id="g10"><g
       id="g12"><g
         transform="translate(0,-0.705261)"
         id="g14"><g
           id="g16"><g
             clip-path="url(#clipPath20)"
             id="g18"><g
               id="g24"><g
                 id="g26"><g
                   id="g28"><g
                     clip-path="url(#clipPath32)"
                     id="g30"><g
                       id="g36"><g
                         id="g38"><g
                           id="g40"><g
                             clip-path="url(#clipPath44)"
                             id="g42"><g
                               id="g48" /><g
                               id="g50"><g
                                 clip-path="url(#clipPath54)"
                                 id="g52"><g
                                   id="g58"><g
                                   id="g60"><g
                                   clip-path="url(#clipPath64)"
                                   id="g62"><g
                                   id="g68" /><g
                                   id="g70"><g
                                   clip-path="url(#clipPath74)"
                                   id="g72"><g
                                   id="g78"><g
                                   id="g80"><g
                                   clip-path="url(#clipPath84)"
                                   id="g82"><g
                                   id="g88"><g
                                   transform="matrix(1,0,0,0.883496,0,344)"
                                   id="g90"><path
                                   d="m 5.949,-194.283 0.071,-4.921 0.171,-4.271 0.321,-4.811 0.449,-4.81 0.59,-4.78 0.652,-4.399 0.797,-4.541 0.953,-4.651 1.078,-4.611 1.242,-4.691 1.188,-4.09 1.473,-4.554 1.597,-4.51 1.66,-4.289 1.602,-3.842 2.039,-4.492 1.82,-3.74 2.231,-4.271 2.082,-3.701 2.379,-3.979 2.383,-3.701 2.578,-3.758 2.461,-3.374 2.742,-3.541 2.961,-3.559 2.648,-2.998 2.949,-3.144 3.133,-3.13 3.141,-2.94 3.121,-2.728 3.539,-2.914 3.25,-2.48 3.543,-2.52 3.27,-2.171 3.64,-2.237 3.469,-1.972 3.691,-1.941 3.653,-1.751 3.871,-1.689 3.769,-1.49 3.891,-1.38 3.898,-1.22 3.614,-0.99 4.168,-0.982 3.742,-0.738 4.019,-0.641 3.852,-0.469 4.289,-0.362 3.734,-0.168 4.231,-0.04 3.847,0.11 4.211,0.27 3.633,0.367 4.121,0.584 3.949,0.698 3.942,0.849 3.891,0.99 3.718,1.092 3.981,1.331 3.761,1.411 3.922,1.618 3.5,1.609 3.828,1.91 3.614,1.972 3.539,2.1 3.64,2.33 3.301,2.273 3.321,2.436 3.582,2.843 3.168,2.688 3.171,2.883 3.141,3.029 2.813,2.9 2.917,3.201 2.813,3.272 2.91,3.621 2.469,3.281 2.762,3.899 2.39,3.613 2.27,3.647 2.34,4.024 2.23,4.12 1.93,3.82 1.941,4.139 1.789,4.103 1.813,4.51 1.468,3.97 1.563,4.611 1.34,4.391 1.219,4.39 1.109,4.439 1,4.572 0.93,4.881 0.73,4.51 0.613,4.474 0.52,4.798 0.379,4.81 0.238,4.324 0.133,5.129 0,4.302 -0.133,5.018 -0.258,4.793 -0.351,4.262 -0.508,4.779 -0.641,4.78 -0.781,4.744 -0.828,4.36 -0.981,4.492 -1.14,4.598 -1.262,4.541 -1.418,4.611 -1.363,4.019 -1.649,4.47 -1.781,4.413 -1.828,4.191 -1.762,3.749 -2.211,4.373 -1.968,3.63 -2.403,4.138 -2.218,3.595 -2.551,3.829 -2.52,3.568 -2.73,3.621 -2.594,3.223 -2.879,3.378 -3.101,3.391 -2.77,2.861 -3.07,2.971 -3.25,2.949 -3.262,2.763 -3.219,2.56 -3.66,2.702 -3.351,2.299 -3.641,2.321 -3.352,1.99 -3.718,2.029 -3.551,1.782 -3.762,1.72 -3.719,1.547 -3.933,1.481 -3.828,1.274 -3.942,1.158 -3.941,0.999 -3.653,0.792 -4.199,0.751 -3.769,0.527 -4.032,0.411 -3.871,0.261 -4.308,0.119 -3.723,-0.031 -4.23,-0.199 -3.852,-0.318 -4.191,-0.522 -3.61,-0.57 -4.09,-0.801 -3.921,-0.928 -3.899,-1.061 -3.851,-1.212 -3.672,-1.299 -3.918,-1.539 -3.703,-1.623 -3.852,-1.839 -3.43,-1.8 -3.738,-2.122 -3.531,-2.166 -3.461,-2.304 -3.543,-2.529 -3.207,-2.449 -3.211,-2.631 -3.461,-3.033 -3.062,-2.869 -3.051,-3.042 -3.02,-3.21 -2.691,-3.051 -2.789,-3.36 -2.672,-3.431 -2.758,-3.767 -2.34,-3.422 -2.601,-4.041 -2.243,-3.741 -2.121,-3.78 -2.168,-4.143 -2.07,-4.24 -1.769,-3.931 -1.774,-4.24 -1.617,-4.191 -1.633,-4.612 -1.308,-4.05 -1.372,-4.691 -1.168,-4.461 -1.043,-4.461 -0.929,-4.488 -0.821,-4.62 -0.73,-4.934 -0.551,-4.541 -0.418,-4.501 -0.332,-4.819 -0.187,-4.828 -0.063,-4.554"
                                   inkscape:connector-curvature="0"
                                   id="path92"
                                   style="fill:none;stroke:#78000e;stroke-width:1.50024796;stroke-linecap:butt;stroke-linejoin:round;stroke-miterlimit:10;stroke-opacity:1;stroke-dasharray:none" /></g></g></g></g></g></g></g></g></g></g></g></g></g></g></g></g><g
                       id="g94"><g
                         clip-path="url(#clipPath98)"
                         id="g96"><g
                           id="g102"><g
                             id="g104"><g
                               clip-path="url(#clipPath108)"
                               id="g106"><g
                                 id="g112" /><g
                                 id="g114"><g
                                   clip-path="url(#clipPath118)"
                                   id="g116"><g
                                   id="g122"><g
                                   id="g124"><g
                                   clip-path="url(#clipPath128)"
                                   id="g126"><g
                                   id="g132"><g
                                   transform="matrix(1,0,0,0.883496,0,344)"
                                   id="g134"><path
                                   d="m 132.48,-194.283 -0.07,0 -0.168,-0.018 -0.308,-0.04 -0.454,-0.093 -0.57,-0.15 -0.637,-0.199 -0.773,-0.278 -0.898,-0.389 -0.993,-0.513 -1.129,-0.641 -1.058,-0.677 -1.281,-0.911 -1.352,-1.07 -1.359,-1.202 -1.282,-1.229 -1.55,-1.65 -1.34,-1.569 -1.57,-2.012 -1.387,-1.959 -1.512,-2.352 -1.41,-2.44 -1.441,-2.742 -1.27,-2.701 -1.301,-3.108 -1.269,-3.44 -1.032,-3.183 -1.007,-3.599 -0.922,-3.922 -0.762,-4.01 -0.609,-4.041 -0.5,-4.669 -0.289,-4.342 -0.122,-4.788 0.063,-4.462 0.27,-4.991 0.449,-4.802 0.691,-5.111 0.891,-5.08 1.179,-5.372 1.368,-5.222 1.652,-5.381 1.898,-5.341 1.973,-4.898 2.531,-5.602 2.508,-4.97 2.93,-5.23 3.062,-4.943 3.692,-5.381 3.429,-4.55 4.161,-5.022 4.043,-4.417 4.679,-4.665 4.25,-3.851 5.09,-4.169 5.141,-3.798 5.351,-3.555 5.551,-3.281 5.512,-2.887 6.152,-2.829 6.031,-2.392 6.52,-2.18 6.051,-1.663 6.812,-1.481 6.649,-1.048 6.73,-0.689 7.125,-0.332 6.621,0.062 6.828,0.438 7.582,0.919 6.883,1.243 7.039,1.671 7.133,2.109 6.512,2.312 6.89,2.848 6.77,3.232 7.133,3.891 6.179,3.811 6.993,4.81 6.16,4.722 5.929,5.018 6.192,5.784 6.004,6.189 5.238,5.952 5.34,6.641 4.973,6.791 5.089,7.68 4.153,6.91 4.468,8.224 3.883,7.972 3.539,8.131 3.223,8.329 2.949,8.702 2.738,9.404 2.172,8.767 1.801,8.772 1.551,9.484 1.148,9.55 0.703,8.631 0.407,10.253 0,8.591 -0.399,10.04 -0.789,9.542 -1.019,8.475 -1.532,9.44 -1.921,9.391 -2.301,9.223 -2.457,8.401 -2.883,8.542 -3.32,8.639 -3.649,8.392 -4.101,8.391 -3.891,7.154 -4.672,7.791 -4.992,7.512 -5.09,6.928 -4.832,6.022 -6.008,6.8 -5.293,5.451 -6.371,5.96 -5.808,4.934 -6.563,5.019 -6.391,4.412 -6.8,4.192 -6.364,3.47 -6.961,3.347 -7.308,3.042 -6.414,2.273 -6.969,2.069 -7.223,1.72 -7.07,1.26 -6.832,0.84 -7.539,0.5 -6.723,0.048 -7.113,-0.34 -6.359,-0.659 -6.852,-1.079 -6.332,-1.37 -6.488,-1.769 -6.203,-2.073 -6.321,-2.49 -5.91,-2.71 -5.851,-3.073 -5.61,-3.32 -4.961,-3.29 -5.453,-4.028 -4.672,-3.824 -4.738,-4.28 -4.301,-4.28 -4.511,-4.938 -3.672,-4.422 -3.891,-5.164 -3.301,-4.819 -3.328,-5.372 -2.64,-4.7 -2.75,-5.421 -2.383,-5.279 -2.129,-5.292 -1.871,-5.279 -1.559,-5.063 -1.441,-5.442 -1.129,-5.138 -0.942,-5.341 -0.648,-4.762 -0.492,-5.173 -0.258,-4.85 -0.063,-4.709 0.133,-4.793 0.289,-4.279 0.45,-4.232 0.671,-4.501 0.75,-3.899 0.891,-3.811 1.027,-3.692 1.043,-3.228 1.2,-3.25 1.257,-3.033 1.434,-3.028 1.297,-2.494 1.543,-2.67 1.418,-2.198 1.422,-2.011 1.519,-1.959 1.52,-1.773 1.359,-1.437 1.41,-1.362 1.332,-1.158 1.379,-1.101 1.133,-0.814 1.219,-0.778 1.07,-0.61 0.969,-0.482 0.871,-0.376 0.781,-0.3 0.711,-0.221 0.539,-0.142 0.418,-0.08 0.32,-0.048 0.192,-0.022 0.058,0"
                                   inkscape:connector-curvature="0"
                                   id="path136"
                                   style="fill:none;stroke:#78000e;stroke-width:1.50024796;stroke-linecap:butt;stroke-linejoin:round;stroke-miterlimit:10;stroke-opacity:1;stroke-dasharray:none" /></g></g></g></g></g></g></g></g></g></g><g
                           id="g138"><g
                             id="g140"><g
                               clip-path="url(#clipPath144)"
                               id="g142"><g
                                 id="g148"><g
                                   transform="matrix(1,0,0,0.883496,0,344)"
                                   id="g150"><path
                                   d="m 5.949,-194.283 379.563,0"
                                   inkscape:connector-curvature="0"
                                   id="path152"
                                   style="fill:none;stroke:#000000;stroke-width:1.00016499;stroke-linecap:butt;stroke-linejoin:round;stroke-miterlimit:10;stroke-opacity:1;stroke-dasharray:none" /></g><g
                                   transform="matrix(1,0,0,0.883496,0,344)"
                                   id="g154"><path
                                   d="m 5.949,-194.283 0,-4.002"
                                   inkscape:connector-curvature="0"
                                   id="path156"
                                   style="fill:none;stroke:#000000;stroke-width:0.80013198;stroke-linecap:butt;stroke-linejoin:round;stroke-miterlimit:10;stroke-opacity:1;stroke-dasharray:none" /></g></g><g
                                 id="g158"><g
                                   clip-path="url(#clipPath162)"
                                   id="g160"><g
                                   id="g166"><g
                                   id="g168"><g
                                   clip-path="url(#clipPath172)"
                                   id="g170"><g
                                   id="g176"><path
                                   d="m 0,159.441 9.902,0 0,-0.688 -9.902,0 0,0.688 z"
                                   inkscape:connector-curvature="0"
                                   id="path178"
                                   style="fill:#000000;fill-opacity:1;fill-rule:nonzero;stroke:none" /></g></g></g></g></g></g></g></g></g><g
                           id="g180"><g
                             id="g182"><g
                               clip-path="url(#clipPath186)"
                               id="g184"><g
                                 id="g190"><path
                                   d="m 14.332,156.809 -0.691,-1.688 -5.86,0 0,0.238 c 0,0 2.582,2.086 3.629,3.411 0,0 1.063,1.328 1.063,2.414 0,0 0,0.832 -0.582,1.371 0,0 -0.578,0.539 -1.391,0.539 0,0 -0.719,0 -1.309,-0.383 0,0 -0.578,-0.379 -0.859,-1.113 l -0.269,0 c 0,0 0.187,1.203 0.937,1.84 0,0 0.762,0.644 1.891,0.644 0,0 1.222,0 2.023,-0.691 0,0 0.809,-0.688 0.809,-1.614 0,0 0,-0.664 -0.352,-1.336 0,0 -0.539,-1.05 -1.758,-2.211 0,0 -1.82,-1.765 -2.281,-2.128 l 2.59,0 c 0,0 0.801,0 1.121,0.046 0,0 0.32,0.051 0.57,0.211 0,0 0.258,0.161 0.45,0.45 l 0.269,0 z"
                                   inkscape:connector-curvature="0"
                                   id="path192"
                                   style="fill:#000000;fill-opacity:1;fill-rule:nonzero;stroke:none" /><g
                                   transform="matrix(1,0,0,0.883496,0,344)"
                                   id="g194"><path
                                   d="m 69.223,-194.283 0,-4.002"
                                   inkscape:connector-curvature="0"
                                   id="path196"
                                   style="fill:none;stroke:#000000;stroke-width:0.80013198;stroke-linecap:butt;stroke-linejoin:round;stroke-miterlimit:10;stroke-opacity:1;stroke-dasharray:none" /></g></g><g
                                 id="g198"><g
                                   clip-path="url(#clipPath202)"
                                   id="g200"><g
                                   id="g206"><g
                                   id="g208"><g
                                   clip-path="url(#clipPath212)"
                                   id="g210"><g
                                   id="g216"><path
                                   d="m 63.012,159.441 9.898,0 0,-0.688 -9.898,0 0,0.688 z"
                                   inkscape:connector-curvature="0"
                                   id="path218"
                                   style="fill:#000000;fill-opacity:1;fill-rule:nonzero;stroke:none" /></g></g></g></g></g></g></g></g></g><g
                           id="g220"><g
                             id="g222"><g
                               clip-path="url(#clipPath226)"
                               id="g224"><g
                                 id="g230"><path
                                   d="m 72.23,163.031 2.403,1.051 0.25,0 0,-7.414 c 0,0 0,-0.734 0.07,-0.918 0,0 0.07,-0.187 0.289,-0.285 0,0 0.219,-0.098 0.891,-0.106 l 0,-0.238 -3.731,0 0,0.238 c 0,0 0.7,0.008 0.899,0.106 0,0 0.211,0.098 0.293,0.258 0,0 0.07,0.16 0.07,0.945 l 0,4.738 c 0,0 0,0.961 -0.062,1.227 0,0 -0.059,0.203 -0.188,0.301 0,0 -0.141,0.097 -0.32,0.097 0,0 -0.293,0 -0.75,-0.195 l -0.114,0.195 z"
                                   inkscape:connector-curvature="0"
                                   id="path232"
                                   style="fill:#000000;fill-opacity:1;fill-rule:nonzero;stroke:none" /><g
                                   transform="matrix(1,0,0,0.883496,0,344)"
                                   id="g234"><path
                                   d="m 132.48,-194.283 0,-4.002"
                                   inkscape:connector-curvature="0"
                                   id="path236"
                                   style="fill:none;stroke:#000000;stroke-width:0.80013198;stroke-linecap:butt;stroke-linejoin:round;stroke-miterlimit:10;stroke-opacity:1;stroke-dasharray:none" /></g><path
                                   d="m 124.02,161.227 c 0,0 0,1.503 0.5,2.589 0,0 0.511,1.079 1.371,1.61 0,0 0.66,0.422 1.359,0.422 0,0 1.141,0 2.051,-1.032 0,0 1.14,-1.273 1.14,-3.457 0,0 0,-1.527 -0.5,-2.589 0,0 -0.5,-1.067 -1.269,-1.543 0,0 -0.781,-0.489 -1.5,-0.489 0,0 -1.422,0 -2.359,1.477 0,0 -0.793,1.254 -0.793,3.012 z m 1.429,-0.168 c 0,0 0,-1.809 0.5,-2.95 0,0 0.43,-0.972 1.25,-0.972 0,0 0.403,0 0.821,0.316 0,0 0.421,0.32 0.64,1.055 0,0 0.34,1.113 0.34,3.144 0,0 0,1.493 -0.359,2.5 0,0 -0.25,0.743 -0.668,1.051 0,0 -0.301,0.223 -0.731,0.223 0,0 -0.492,0 -0.883,-0.406 0,0 -0.527,-0.54 -0.718,-1.688 0,0 -0.192,-1.16 -0.192,-2.273 z"
                                   inkscape:connector-curvature="0"
                                   id="path238"
                                   style="fill:#000000;fill-opacity:1;fill-rule:nonzero;stroke:none" /><g
                                   transform="matrix(1,0,0,0.883496,0,344)"
                                   id="g240"><path
                                   d="m 195.754,-194.283 0,-4.002"
                                   inkscape:connector-curvature="0"
                                   id="path242"
                                   style="fill:none;stroke:#000000;stroke-width:0.80013198;stroke-linecap:butt;stroke-linejoin:round;stroke-miterlimit:10;stroke-opacity:1;stroke-dasharray:none" /></g><path
                                   d="m 194.254,163.031 2.398,1.051 0.25,0 0,-7.414 c 0,0 0,-0.734 0.071,-0.918 0,0 0.07,-0.187 0.289,-0.285 0,0 0.222,-0.098 0.89,-0.106 l 0,-0.238 -3.73,0 0,0.238 c 0,0 0.699,0.008 0.898,0.106 0,0 0.211,0.098 0.293,0.258 0,0 0.071,0.16 0.071,0.945 l 0,4.738 c 0,0 0,0.961 -0.063,1.227 0,0 -0.058,0.203 -0.187,0.301 0,0 -0.141,0.097 -0.321,0.097 0,0 -0.293,0 -0.75,-0.195 l -0.109,0.195 z"
                                   inkscape:connector-curvature="0"
                                   id="path244"
                                   style="fill:#000000;fill-opacity:1;fill-rule:nonzero;stroke:none" /><g
                                   transform="matrix(1,0,0,0.883496,0,344)"
                                   id="g246"><path
                                   d="m 259.023,-194.283 0,-4.002"
                                   inkscape:connector-curvature="0"
                                   id="path248"
                                   style="fill:none;stroke:#000000;stroke-width:0.80013198;stroke-linecap:butt;stroke-linejoin:round;stroke-miterlimit:10;stroke-opacity:1;stroke-dasharray:none" /></g><path
                                   d="m 262.375,156.809 -0.691,-1.688 -5.864,0 0,0.238 c 0,0 2.582,2.086 3.633,3.411 0,0 1.059,1.328 1.059,2.414 0,0 0,0.832 -0.578,1.371 0,0 -0.582,0.539 -1.391,0.539 0,0 -0.719,0 -1.309,-0.383 0,0 -0.582,-0.379 -0.863,-1.113 l -0.269,0 c 0,0 0.191,1.203 0.941,1.84 0,0 0.758,0.644 1.891,0.644 0,0 1.218,0 2.019,-0.691 0,0 0.809,-0.688 0.809,-1.614 0,0 0,-0.664 -0.348,-1.336 0,0 -0.543,-1.05 -1.762,-2.211 0,0 -1.82,-1.765 -2.281,-2.128 l 2.59,0 c 0,0 0.801,0 1.121,0.046 0,0 0.32,0.051 0.57,0.211 0,0 0.262,0.161 0.45,0.45 l 0.273,0 z"
                                   inkscape:connector-curvature="0"
                                   id="path250"
                                   style="fill:#000000;fill-opacity:1;fill-rule:nonzero;stroke:none" /><g
                                   transform="matrix(1,0,0,0.883496,0,344)"
                                   id="g252"><path
                                   d="m 322.281,-194.283 0,-4.002"
                                   inkscape:connector-curvature="0"
                                   id="path254"
                                   style="fill:none;stroke:#000000;stroke-width:0.80013198;stroke-linecap:butt;stroke-linejoin:round;stroke-miterlimit:10;stroke-opacity:1;stroke-dasharray:none" /></g><path
                                   d="m 319.273,162.234 c 0,0 0.418,0.883 1.071,1.364 0,0 0.64,0.484 1.609,0.484 0,0 1.192,0 1.832,-0.691 0,0 0.488,-0.512 0.488,-1.086 0,0 0,-0.973 -1.359,-1.989 0,0 0.899,-0.316 1.371,-0.91 0,0 0.469,-0.582 0.469,-1.386 0,0 0,-1.129 -0.809,-1.961 0,0 -1.082,-1.086 -3.101,-1.086 0,0 -1.012,0 -1.371,0.218 0,0 -0.36,0.223 -0.36,0.469 0,0 0,0.195 0.168,0.328 0,0 0.172,0.141 0.41,0.141 0,0 0.192,0 0.372,-0.055 0,0 0.128,-0.023 0.57,-0.226 0,0 0.449,-0.203 0.601,-0.239 0,0 0.289,-0.074 0.579,-0.074 0,0 0.75,0 1.312,0.516 0,0 0.547,0.512 0.547,1.199 0,0 0,0.504 -0.25,0.992 0,0 -0.199,0.371 -0.418,0.555 0,0 -0.313,0.258 -0.871,0.469 0,0 -0.551,0.203 -1.11,0.203 l -0.242,0 0,0.211 c 0,0 0.582,0.054 1.16,0.355 0,0 0.582,0.309 0.844,0.735 0,0 0.27,0.429 0.27,0.933 0,0 0,0.664 -0.473,1.078 0,0 -0.469,0.418 -1.168,0.418 0,0 -1.141,0 -1.91,-1.078 l -0.231,0.113 z"
                                   inkscape:connector-curvature="0"
                                   id="path256"
                                   style="fill:#000000;fill-opacity:1;fill-rule:nonzero;stroke:none" /><g
                                   transform="matrix(1,0,0,0.883496,0,344)"
                                   id="g258"><path
                                   d="m 37.586,-194.283 0,-1.999"
                                   inkscape:connector-curvature="0"
                                   id="path260"
                                   style="fill:none;stroke:#000000;stroke-width:0.80013198;stroke-linecap:butt;stroke-linejoin:round;stroke-miterlimit:10;stroke-opacity:1;stroke-dasharray:none" /></g><g
                                   transform="matrix(1,0,0,0.883496,0,344)"
                                   id="g262"><path
                                   d="m 100.848,-194.283 0,-1.999"
                                   inkscape:connector-curvature="0"
                                   id="path264"
                                   style="fill:none;stroke:#000000;stroke-width:0.80013198;stroke-linecap:butt;stroke-linejoin:round;stroke-miterlimit:10;stroke-opacity:1;stroke-dasharray:none" /></g><g
                                   transform="matrix(1,0,0,0.883496,0,344)"
                                   id="g266"><path
                                   d="m 164.117,-194.283 0,-1.999"
                                   inkscape:connector-curvature="0"
                                   id="path268"
                                   style="fill:none;stroke:#000000;stroke-width:0.80013198;stroke-linecap:butt;stroke-linejoin:round;stroke-miterlimit:10;stroke-opacity:1;stroke-dasharray:none" /></g><g
                                   transform="matrix(1,0,0,0.883496,0,344)"
                                   id="g270"><path
                                   d="m 227.387,-194.283 0,-1.999"
                                   inkscape:connector-curvature="0"
                                   id="path272"
                                   style="fill:none;stroke:#000000;stroke-width:0.80013198;stroke-linecap:butt;stroke-linejoin:round;stroke-miterlimit:10;stroke-opacity:1;stroke-dasharray:none" /></g><g
                                   transform="matrix(1,0,0,0.883496,0,344)"
                                   id="g274"><path
                                   d="m 290.648,-194.283 0,-1.999"
                                   inkscape:connector-curvature="0"
                                   id="path276"
                                   style="fill:none;stroke:#000000;stroke-width:0.80013198;stroke-linecap:butt;stroke-linejoin:round;stroke-miterlimit:10;stroke-opacity:1;stroke-dasharray:none" /></g><g
                                   transform="matrix(1,0,0,0.883496,0,344)"
                                   id="g278"><path
                                   d="m 353.918,-194.283 0,-1.999"
                                   inkscape:connector-curvature="0"
                                   id="path280"
                                   style="fill:none;stroke:#000000;stroke-width:0.80013198;stroke-linecap:butt;stroke-linejoin:round;stroke-miterlimit:10;stroke-opacity:1;stroke-dasharray:none" /></g><g
                                   transform="matrix(1,0,0,0.883496,0,344)"
                                   id="g282"><path
                                   d="m 132.48,-387.815 0,387.063"
                                   inkscape:connector-curvature="0"
                                   id="path284"
                                   style="fill:none;stroke:#000000;stroke-width:1.00016499;stroke-linecap:butt;stroke-linejoin:round;stroke-miterlimit:10;stroke-opacity:1;stroke-dasharray:none" /></g><g
                                   transform="matrix(1,0,0,0.883496,0,344)"
                                   id="g286"><path
                                   d="m 132.48,-343.279 -4,0"
                                   inkscape:connector-curvature="0"
                                   id="path288"
                                   style="fill:none;stroke:#000000;stroke-width:0.80013198;stroke-linecap:butt;stroke-linejoin:round;stroke-miterlimit:10;stroke-opacity:1;stroke-dasharray:none" /></g></g><g
                                 id="g290"><g
                                   clip-path="url(#clipPath294)"
                                   id="g292"><g
                                   id="g298"><g
                                   id="g300"><g
                                   clip-path="url(#clipPath304)"
                                   id="g302"><g
                                   id="g308"><path
                                   d="m 111.02,40.152 9.902,0 0,-0.691 -9.902,0 0,0.691 z"
                                   inkscape:connector-curvature="0"
                                   id="path310"
                                   style="fill:#000000;fill-opacity:1;fill-rule:nonzero;stroke:none" /></g></g></g></g></g></g></g></g></g><g
                           id="g312"><g
                             id="g314"><g
                               clip-path="url(#clipPath318)"
                               id="g316"><g
                                 id="g322"><path
                                   d="m 125.352,37.52 -0.692,-1.692 -5.859,0 0,0.242 c 0,0 2.578,2.082 3.629,3.41 0,0 1.062,1.325 1.062,2.411 0,0 0,0.832 -0.582,1.371 0,0 -0.578,0.539 -1.39,0.539 0,0 -0.719,0 -1.309,-0.379 0,0 -0.582,-0.383 -0.859,-1.113 l -0.274,0 c 0,0 0.192,1.199 0.942,1.836 0,0 0.761,0.644 1.89,0.644 0,0 1.219,0 2.02,-0.687 0,0 0.812,-0.692 0.812,-1.618 0,0 0,-0.664 -0.351,-1.336 0,0 -0.539,-1.05 -1.762,-2.207 0,0 -1.82,-1.769 -2.277,-2.128 l 2.589,0 c 0,0 0.801,0 1.118,0.042 0,0 0.32,0.051 0.57,0.211 0,0 0.262,0.161 0.453,0.454 l 0.27,0 z"
                                   inkscape:connector-curvature="0"
                                   id="path324"
                                   style="fill:#000000;fill-opacity:1;fill-rule:nonzero;stroke:none" /><g
                                   transform="matrix(1,0,0,0.883496,0,344)"
                                   id="g326"><path
                                   d="m 132.48,-268.774 -4,0"
                                   inkscape:connector-curvature="0"
                                   id="path328"
                                   style="fill:none;stroke:#000000;stroke-width:0.80013198;stroke-linecap:butt;stroke-linejoin:round;stroke-miterlimit:10;stroke-opacity:1;stroke-dasharray:none" /></g></g><g
                                 id="g330"><g
                                   clip-path="url(#clipPath334)"
                                   id="g332"><g
                                   id="g338"><g
                                   id="g340"><g
                                   clip-path="url(#clipPath344)"
                                   id="g342"><g
                                   id="g348"><path
                                   d="m 111.02,106.426 9.902,0 0,-0.691 -9.902,0 0,0.691 z"
                                   inkscape:connector-curvature="0"
                                   id="path350"
                                   style="fill:#000000;fill-opacity:1;fill-rule:nonzero;stroke:none" /></g></g></g></g></g></g></g></g></g><g
                           id="g352"><g
                             id="g354"><g
                               clip-path="url(#clipPath358)"
                               id="g356"><g
                                 id="g362"><path
                                   d="m 120.238,110.012 2.403,1.051 0.25,0 0,-7.415 c 0,0 0,-0.73 0.07,-0.918 0,0 0.07,-0.183 0.289,-0.281 0,0 0.219,-0.097 0.891,-0.109 l 0,-0.238 -3.731,0 0,0.238 c 0,0 0.699,0.012 0.899,0.109 0,0 0.211,0.098 0.293,0.254 0,0 0.07,0.16 0.07,0.945 l 0,4.739 c 0,0 0,0.961 -0.063,1.226 0,0 -0.058,0.203 -0.187,0.301 0,0 -0.141,0.098 -0.32,0.098 0,0 -0.293,0 -0.75,-0.196 l -0.114,0.196 z"
                                   inkscape:connector-curvature="0"
                                   id="path364"
                                   style="fill:#000000;fill-opacity:1;fill-rule:nonzero;stroke:none" /><g
                                   transform="matrix(1,0,0,0.883496,0,344)"
                                   id="g366"><path
                                   d="m 132.48,-194.283 -4,0"
                                   inkscape:connector-curvature="0"
                                   id="path368"
                                   style="fill:none;stroke:#000000;stroke-width:0.80013198;stroke-linecap:butt;stroke-linejoin:round;stroke-miterlimit:10;stroke-opacity:1;stroke-dasharray:none" /></g><g
                                   transform="matrix(1,0,0,0.883496,0,344)"
                                   id="g370"><path
                                   d="m 132.48,-119.779 -4,0"
                                   inkscape:connector-curvature="0"
                                   id="path372"
                                   style="fill:none;stroke:#000000;stroke-width:0.80013198;stroke-linecap:butt;stroke-linejoin:round;stroke-miterlimit:10;stroke-opacity:1;stroke-dasharray:none" /></g><path
                                   d="m 120.238,240.789 2.403,1.055 0.25,0 0,-7.414 c 0,0 0,-0.735 0.07,-0.922 0,0 0.07,-0.184 0.289,-0.281 0,0 0.219,-0.098 0.891,-0.106 l 0,-0.238 -3.731,0 0,0.238 c 0,0 0.699,0.008 0.899,0.106 0,0 0.211,0.097 0.293,0.257 0,0 0.07,0.157 0.07,0.946 l 0,4.734 c 0,0 0,0.965 -0.063,1.231 0,0 -0.058,0.203 -0.187,0.3 0,0 -0.141,0.094 -0.32,0.094 0,0 -0.293,0 -0.75,-0.191 l -0.114,0.191 z"
                                   inkscape:connector-curvature="0"
                                   id="path374"
                                   style="fill:#000000;fill-opacity:1;fill-rule:nonzero;stroke:none" /><g
                                   transform="matrix(1,0,0,0.883496,0,344)"
                                   id="g376"><path
                                   d="m 132.48,-45.288 -4,0"
                                   inkscape:connector-curvature="0"
                                   id="path378"
                                   style="fill:none;stroke:#000000;stroke-width:0.80013198;stroke-linecap:butt;stroke-linejoin:round;stroke-miterlimit:10;stroke-opacity:1;stroke-dasharray:none" /></g><path
                                   d="m 125.352,300.844 -0.692,-1.688 -5.859,0 0,0.239 c 0,0 2.578,2.085 3.629,3.41 0,0 1.062,1.324 1.062,2.414 0,0 0,0.828 -0.582,1.367 0,0 -0.578,0.539 -1.39,0.539 0,0 -0.719,0 -1.309,-0.379 0,0 -0.582,-0.379 -0.859,-1.113 l -0.274,0 c 0,0 0.192,1.203 0.942,1.836 0,0 0.761,0.648 1.89,0.648 0,0 1.219,0 2.02,-0.691 0,0 0.812,-0.688 0.812,-1.617 0,0 0,-0.664 -0.351,-1.332 0,0 -0.539,-1.055 -1.762,-2.211 0,0 -1.82,-1.766 -2.277,-2.129 l 2.589,0 c 0,0 0.801,0 1.118,0.043 0,0 0.32,0.054 0.57,0.211 0,0 0.262,0.16 0.453,0.453 l 0.27,0 z"
                                   inkscape:connector-curvature="0"
                                   id="path380"
                                   style="fill:#000000;fill-opacity:1;fill-rule:nonzero;stroke:none" /><g
                                   transform="matrix(1,0,0,0.883496,0,344)"
                                   id="g382"><path
                                   d="m 132.48,-380.524 -2,0"
                                   inkscape:connector-curvature="0"
                                   id="path384"
                                   style="fill:none;stroke:#000000;stroke-width:0.80013198;stroke-linecap:butt;stroke-linejoin:round;stroke-miterlimit:10;stroke-opacity:1;stroke-dasharray:none" /></g><g
                                   transform="matrix(1,0,0,0.883496,0,344)"
                                   id="g386"><path
                                   d="m 132.48,-306.029 -2,0"
                                   inkscape:connector-curvature="0"
                                   id="path388"
                                   style="fill:none;stroke:#000000;stroke-width:0.80013198;stroke-linecap:butt;stroke-linejoin:round;stroke-miterlimit:10;stroke-opacity:1;stroke-dasharray:none" /></g><g
                                   transform="matrix(1,0,0,0.883496,0,344)"
                                   id="g390"><path
                                   d="m 132.48,-231.529 -2,0"
                                   inkscape:connector-curvature="0"
                                   id="path392"
                                   style="fill:none;stroke:#000000;stroke-width:0.80013198;stroke-linecap:butt;stroke-linejoin:round;stroke-miterlimit:10;stroke-opacity:1;stroke-dasharray:none" /></g><g
                                   transform="matrix(1,0,0,0.883496,0,344)"
                                   id="g394"><path
                                   d="m 132.48,-157.024 -2,0"
                                   inkscape:connector-curvature="0"
                                   id="path396"
                                   style="fill:none;stroke:#000000;stroke-width:0.80013198;stroke-linecap:butt;stroke-linejoin:round;stroke-miterlimit:10;stroke-opacity:1;stroke-dasharray:none" /></g><g
                                   transform="matrix(1,0,0,0.883496,0,344)"
                                   id="g398"><path
                                   d="m 132.48,-82.533 -2,0"
                                   inkscape:connector-curvature="0"
                                   id="path400"
                                   style="fill:none;stroke:#000000;stroke-width:0.80013198;stroke-linecap:butt;stroke-linejoin:round;stroke-miterlimit:10;stroke-opacity:1;stroke-dasharray:none" /></g><g
                                   transform="matrix(1,0,0,0.883496,0,344)"
                                   id="g402"><path
                                   d="m 132.48,-8.029 -2,0"
                                   inkscape:connector-curvature="0"
                                   id="path404"
                                   style="fill:none;stroke:#000000;stroke-width:0.80013198;stroke-linecap:butt;stroke-linejoin:round;stroke-miterlimit:10;stroke-opacity:1;stroke-dasharray:none" /></g></g></g></g></g></g></g></g></g></g></g></g></g></g><path
         d="m 259.797,179.123 c -2.524,44.137 -25.699,83.851 -62.09,106.402 -16.687,10.34 -37.832,17.227 -55.875,18.196 l -7.086,0.378 4.067,3.801 c 19.136,17.906 45.929,29.875 73.847,32.996 7.375,0.825 21.981,0.813 29.653,-0.023 39.722,-4.328 77.351,-25.539 103.925,-58.59 10.555,-13.125 21.653,-33.051 27.547,-49.449 5.254,-14.617 9.184,-32.867 10.012,-46.485 0.211,-3.449 0.539,-8.035 0.73,-10.191 l 0.348,-3.918 -124.684,0 -0.394,6.883 z"
         inkscape:connector-curvature="0"
         id="path406"
         style="fill:#c8c8c8;fill-opacity:1;fill-rule:nonzero;stroke:none" /></g></g></svg>