<?xml version="1.0" encoding="UTF-8" standalone="no"?>
<!-- Created with Inkscape (http://www.inkscape.org/) -->

<svg
   xmlns:dc="http://purl.org/dc/elements/1.1/"
   xmlns:cc="http://creativecommons.org/ns#"
   xmlns:rdf="http://www.w3.org/1999/02/22-rdf-syntax-ns#"
   xmlns:svg="http://www.w3.org/2000/svg"
   xmlns="http://www.w3.org/2000/svg"
   xmlns:inkscape="http://www.inkscape.org/namespaces/inkscape"
   version="1.1"
   width="484.53751"
   height="485.625"
   id="svg2"
   xml:space="preserve"><metadata
     id="metadata8"><rdf:RDF><cc:Work
         rdf:about=""><dc:format>image/svg+xml</dc:format><dc:type
           rdf:resource="http://purl.org/dc/dcmitype/StillImage" /></cc:Work></rdf:RDF></metadata><defs
     id="defs6"><clipPath
       id="clipPath20"><path
         d="M 0,0 388,0 388,389 0,389 0,0 z"
         inkscape:connector-curvature="0"
         id="path22" /></clipPath><clipPath
       id="clipPath32"><path
         d="M 0,0 388,0 388,389 0,389 0,0 z"
         inkscape:connector-curvature="0"
         id="path34" /></clipPath><clipPath
       id="clipPath44"><path
         d="M 0,0 388,0 388,389 0,389 0,0 z"
         inkscape:connector-curvature="0"
         id="path46" /></clipPath><clipPath
       id="clipPath56"><path
         d="M 0,0 387,0 387,389 0,389 0,0 z"
         inkscape:connector-curvature="0"
         id="path58" /></clipPath><clipPath
       id="clipPath66"><path
         d="m 0,389 386.238,0 0,-388.75 L 0,0.25 0,389 z"
         inkscape:connector-curvature="0"
         id="path68" /></clipPath><clipPath
       id="clipPath76"><path
         d="M 0,0 385,0 385,389 0,389 0,0 z"
         inkscape:connector-curvature="0"
         id="path78" /></clipPath><clipPath
       id="clipPath90"><path
         d="M 0,1 388,1 388,389 0,389 0,1 z"
         inkscape:connector-curvature="0"
         id="path92" /></clipPath><clipPath
       id="clipPath162"><path
         d="m 18.75,53.25 8,0 0,-16 -8,0 0,16 z"
         inkscape:connector-curvature="0"
         id="path164" /></clipPath><clipPath
       id="clipPath172"><path
         d="m 21,44 11,0 0,2 -11,0 0,-2 z"
         inkscape:connector-curvature="0"
         id="path174" /></clipPath><clipPath
       id="clipPath186"><path
         d="m 7,40 37,0 0,89 -37,0 0,-89 z"
         inkscape:connector-curvature="0"
         id="path188" /></clipPath><clipPath
       id="clipPath200"><path
         d="m 7.75,128.25 8,0 0,-16 -8,0 0,16 z"
         inkscape:connector-curvature="0"
         id="path202" /></clipPath><clipPath
       id="clipPath210"><path
         d="m 10,119 11,0 0,2 -11,0 0,-2 z"
         inkscape:connector-curvature="0"
         id="path212" /></clipPath><clipPath
       id="clipPath224"><path
         d="m 18,15 26,0 0,359 -26,0 0,-359 z"
         inkscape:connector-curvature="0"
         id="path226" /></clipPath></defs><g
     transform="matrix(1.25,0,0,-1.25,0,485.625)"
     id="g10"><g
       id="g12"><g
         transform="translate(0,-0.5)"
         id="g14"><g
           id="g16"><g
             clip-path="url(#clipPath20)"
             id="g18"><g
               id="g24"><g
                 id="g26"><g
                   id="g28"><g
                     clip-path="url(#clipPath32)"
                     id="g30"><g
                       id="g36"><g
                         id="g38"><g
                           id="g40"><g
                             clip-path="url(#clipPath44)"
                             id="g42"><g
                               id="g48"><g
                                 id="g50"><g
                                   id="g52"><g
                                   clip-path="url(#clipPath56)"
                                   id="g54"><g
                                   id="g60" /><g
                                   id="g62"><g
                                   clip-path="url(#clipPath66)"
                                   id="g64"><g
                                   id="g70"><g
                                   id="g72"><g
                                   clip-path="url(#clipPath76)"
                                   id="g74"><g
                                   id="g80"><path
                                   d="m 384.238,194.75 -0.277,9.84 -0.691,8.531 -1.29,9.559 -1.82,9.55 -2.34,9.399 -2.629,8.609 -3.191,8.782 -3.77,8.921 -4.242,8.7 -4.847,8.738 -4.661,7.5 -5.671,8.191 -6.129,7.95 -6.309,7.378 -6.043,6.442 -7.566,7.332 -6.711,5.918 -8.129,6.519 -7.473,5.442 -8.461,5.609 -8.297,4.961 -8.89,4.789 -8.34,4.039 -9.16,3.961 -9.672,3.668 -8.527,2.844 -9.293,2.668 -9.68,2.34 -9.508,1.879 -9.211,1.421 -10.219,1.141 -9.16,0.617 -9.711,0.262 -8.718,-0.129 -9.43,-0.519 -8.762,-0.84 -9,-1.25 -8.64,-1.563 -8.84,-1.988 -8.309,-2.25 -8.262,-2.621 -7.949,-2.899 -7.07,-2.921 -7.809,-3.629 -6.722,-3.493 -6.86,-3.957 -6.269,-3.992 -6.602,-4.66 -5.418,-4.199 -5.789,-4.942 -4.941,-4.636 -5.039,-5.211 -4.039,-4.602 -4.243,-5.308 -3.738,-5.211 -3.391,-5.25 -3.031,-5.27 -2.578,-5.07 -2.449,-5.481 -2,-5.199 -1.762,-5.43 -1.301,-4.871 -1.129,-5.3 -0.769,-5 -0.492,-4.887 -0.219,-4.981 0.039,-4.48 0.281,-4.449 0.559,-4.75 0.723,-4.153 0.937,-4.078 1.141,-3.961 1.199,-3.492 1.422,-3.527 1.539,-3.321 1.769,-3.351 1.661,-2.758 1.992,-2.98 1.859,-2.5 1.867,-2.282 2.051,-2.257 2.063,-2.063 1.867,-1.687 1.961,-1.633 1.879,-1.41 1.972,-1.348 1.649,-1.012 1.8,-1.008 1.598,-0.812 1.481,-0.66 1.371,-0.539 1.269,-0.45 1.192,-0.359 0.949,-0.242 0.789,-0.168 0.691,-0.109 0.508,-0.071 0.32,-0.019 0.18,-0.012 -0.18,-0.012 -0.347,-0.027 -0.461,-0.063 -0.68,-0.109 -0.851,-0.18 -1,-0.257 -1.071,-0.321 -1.238,-0.429 -1.41,-0.563 -1.52,-0.687 -1.691,-0.84 -1.57,-0.883 -1.848,-1.149 -1.941,-1.32 -1.918,-1.449 -1.774,-1.473 -2.137,-1.949 -1.82,-1.809 -2.109,-2.32 -1.84,-2.238 -1.981,-2.652 -1.82,-2.731 -1.82,-3.039 -1.582,-2.98 -1.598,-3.411 -1.512,-3.738 -1.179,-3.43 -1.121,-3.882 -0.957,-4.18 -0.743,-4.258 -0.507,-4.281 -0.313,-4.91 -0.039,-4.551 0.238,-4.981 0.461,-4.617 0.801,-5.152 1.031,-4.93 1.391,-5.219 1.656,-5.16 2.094,-5.441 2.34,-5.258 2.75,-5.391 3.066,-5.32 3.141,-4.871 3.961,-5.519 3.879,-4.879 4.492,-5.11 4.629,-4.793 5.519,-5.179 5.102,-4.36 6.14,-4.769 5.918,-4.168 6.821,-4.34 6.16,-3.563 7.32,-3.808 7.36,-3.43 7.628,-3.16 7.864,-2.859 7.777,-2.473 8.652,-2.34 8.438,-1.91 9.09,-1.66 8.39,-1.16 9.422,-0.93 9.149,-0.5 9.23,-0.129 9.731,0.27 9.007,0.628 9.274,1.024 10.226,1.566 9.262,1.832 9.418,2.282 9.512,2.726 8.66,2.883 9.121,3.449 8.91,3.828 9.348,4.512 8.07,4.352 9.082,5.429 7.949,5.258 7.629,5.551 7.903,6.332 7.597,6.707 6.61,6.41 6.679,7.109 6.153,7.231 6.25,8.133 5.051,7.269 5.347,8.61 4.59,8.308 4.109,8.43 3.661,8.609 3.269,8.942 2.934,9.629 2.199,8.941 1.711,8.922 1.308,9.598 0.77,9.628 0.238,9.102"
                                   inkscape:connector-curvature="0"
                                   id="path82"
                                   style="fill:none;stroke:#78000e;stroke-width:1.5;stroke-linecap:butt;stroke-linejoin:round;stroke-miterlimit:10;stroke-opacity:1;stroke-dasharray:none" /></g></g></g></g></g></g></g></g></g></g></g></g></g><g
                         id="g84"><g
                           id="g86"><g
                             clip-path="url(#clipPath90)"
                             id="g88"><g
                               id="g94"><path
                                 d="m 0.75,194.75 383.488,0"
                                 inkscape:connector-curvature="0"
                                 id="path96"
                                 style="fill:none;stroke:#000000;stroke-width:1;stroke-linecap:butt;stroke-linejoin:round;stroke-miterlimit:10;stroke-opacity:1;stroke-dasharray:none" /><path
                                 d="m 43.352,194.75 0,-4"
                                 inkscape:connector-curvature="0"
                                 id="path98"
                                 style="fill:none;stroke:#000000;stroke-width:0.80000001;stroke-linecap:butt;stroke-linejoin:round;stroke-miterlimit:10;stroke-opacity:1;stroke-dasharray:none" /><path
                                 d="m 34.301,182.16 c 0,0 0,1.699 0.5,2.93 0,0 0.508,1.219 1.371,1.82 0,0 0.656,0.481 1.359,0.481 0,0 1.141,0 2.047,-1.172 0,0 1.141,-1.438 1.141,-3.91 0,0 0,-1.731 -0.5,-2.93 0,0 -0.5,-1.207 -1.27,-1.75 0,0 -0.777,-0.551 -1.5,-0.551 0,0 -1.418,0 -2.359,1.672 0,0 -0.789,1.422 -0.789,3.41 z m 1.429,-0.191 c 0,0 0,-2.047 0.5,-3.34 0,0 0.43,-1.098 1.25,-1.098 0,0 0.399,0 0.821,0.36 0,0 0.418,0.359 0.64,1.187 0,0 0.34,1.262 0.34,3.563 0,0 0,1.687 -0.359,2.828 0,0 -0.25,0.84 -0.672,1.191 0,0 -0.301,0.25 -0.73,0.25 0,0 -0.489,0 -0.879,-0.461 0,0 -0.532,-0.609 -0.719,-1.91 0,0 -0.192,-1.309 -0.192,-2.57 z"
                                 inkscape:connector-curvature="0"
                                 id="path100"
                                 style="fill:#000000;fill-opacity:1;fill-rule:nonzero;stroke:none" /><path
                                 d="m 128.57,194.75 0,-4"
                                 inkscape:connector-curvature="0"
                                 id="path102"
                                 style="fill:none;stroke:#000000;stroke-width:0.80000001;stroke-linecap:butt;stroke-linejoin:round;stroke-miterlimit:10;stroke-opacity:1;stroke-dasharray:none" /><path
                                 d="m 119.301,180.16 c 0,0 0,1.699 0.5,2.93 0,0 0.508,1.219 1.371,1.82 0,0 0.656,0.481 1.359,0.481 0,0 1.141,0 2.047,-1.172 0,0 1.141,-1.438 1.141,-3.91 0,0 0,-1.731 -0.5,-2.93 0,0 -0.5,-1.207 -1.27,-1.75 0,0 -0.777,-0.551 -1.5,-0.551 0,0 -1.418,0 -2.359,1.672 0,0 -0.789,1.422 -0.789,3.41 z m 1.429,-0.191 c 0,0 0,-2.047 0.5,-3.34 0,0 0.43,-1.098 1.25,-1.098 0,0 0.399,0 0.821,0.36 0,0 0.418,0.359 0.64,1.187 0,0 0.34,1.262 0.34,3.563 0,0 0,1.687 -0.359,2.828 0,0 -0.25,0.84 -0.672,1.191 0,0 -0.301,0.25 -0.73,0.25 0,0 -0.489,0 -0.879,-0.461 0,0 -0.532,-0.609 -0.719,-1.91 0,0 -0.192,-1.309 -0.192,-2.57 z m 7.399,-3.297 c 0,0 0.34,0 0.57,-0.242 0,0 0.242,-0.239 0.242,-0.571 0,0 0,-0.339 -0.242,-0.578 0,0 -0.23,-0.23 -0.57,-0.23 0,0 -0.348,0 -0.578,0.23 0,0 -0.242,0.239 -0.242,0.578 0,0 0,0.34 0.242,0.582 0,0 0.23,0.231 0.578,0.231 z m 8.391,8.519 -0.579,-1.25 -2.992,0 -0.648,-1.332 c 0,0 1.929,-0.3 3.078,-1.449 0,0 0.961,-0.988 0.961,-2.351 0,0 0,-0.778 -0.309,-1.438 0,0 -0.312,-0.672 -0.801,-1.141 0,0 -0.48,-0.46 -1.07,-0.75 0,0 -0.851,-0.402 -1.738,-0.402 0,0 -0.891,0 -1.293,0.301 0,0 -0.41,0.312 -0.41,0.672 0,0 0,0.199 0.172,0.359 0,0 0.168,0.149 0.418,0.149 0,0 0.191,0 0.332,-0.047 0,0 0.14,-0.063 0.488,-0.313 0,0 0.562,-0.371 1.121,-0.371 0,0 0.859,0 1.5,0.652 0,0 0.641,0.649 0.641,1.579 0,0 0,0.89 -0.582,1.671 0,0 -0.579,0.79 -1.59,1.211 0,0 -0.797,0.329 -2.168,0.387 l 1.898,3.863 3.571,0 z"
                                 inkscape:connector-curvature="0"
                                 id="path104"
                                 style="fill:#000000;fill-opacity:1;fill-rule:nonzero;stroke:none" /><path
                                 d="m 213.801,194.75 0,-4"
                                 inkscape:connector-curvature="0"
                                 id="path106"
                                 style="fill:none;stroke:#000000;stroke-width:0.80000001;stroke-linecap:butt;stroke-linejoin:round;stroke-miterlimit:10;stroke-opacity:1;stroke-dasharray:none" /><path
                                 d="m 212.52,184.199 2.402,1.192 0.25,0 0,-8.391 c 0,0 0,-0.828 0.066,-1.039 0,0 0.071,-0.211 0.293,-0.32 0,0 0.219,-0.11 0.891,-0.121 l 0,-0.27 -3.731,0 0,0.27 c 0,0 0.7,0.011 0.899,0.121 0,0 0.211,0.109 0.289,0.289 0,0 0.07,0.179 0.07,1.07 l 0,5.359 c 0,0 0,1.09 -0.058,1.391 0,0 -0.063,0.23 -0.192,0.34 0,0 -0.14,0.109 -0.32,0.109 0,0 -0.289,0 -0.75,-0.219 l -0.109,0.219 z"
                                 inkscape:connector-curvature="0"
                                 id="path108"
                                 style="fill:#000000;fill-opacity:1;fill-rule:nonzero;stroke:none" /><path
                                 d="m 299.02,194.75 0,-4"
                                 inkscape:connector-curvature="0"
                                 id="path110"
                                 style="fill:none;stroke:#000000;stroke-width:0.80000001;stroke-linecap:butt;stroke-linejoin:round;stroke-miterlimit:10;stroke-opacity:1;stroke-dasharray:none" /><path
                                 d="m 291.52,184.199 2.402,1.192 0.25,0 0,-8.391 c 0,0 0,-0.828 0.066,-1.039 0,0 0.071,-0.211 0.293,-0.32 0,0 0.219,-0.11 0.891,-0.121 l 0,-0.27 -3.731,0 0,0.27 c 0,0 0.7,0.011 0.899,0.121 0,0 0.211,0.109 0.289,0.289 0,0 0.07,0.179 0.07,1.07 l 0,5.359 c 0,0 0,1.09 -0.058,1.391 0,0 -0.063,0.23 -0.192,0.34 0,0 -0.14,0.109 -0.32,0.109 0,0 -0.289,0 -0.75,-0.219 l -0.109,0.219 z m 7.609,-7.527 c 0,0 0.34,0 0.57,-0.242 0,0 0.242,-0.239 0.242,-0.571 0,0 0,-0.339 -0.242,-0.578 0,0 -0.23,-0.23 -0.57,-0.23 0,0 -0.348,0 -0.578,0.23 0,0 -0.242,0.239 -0.242,0.578 0,0 0,0.34 0.242,0.582 0,0 0.23,0.231 0.578,0.231 z m 8.391,8.519 -0.579,-1.25 -2.992,0 -0.648,-1.332 c 0,0 1.929,-0.3 3.078,-1.449 0,0 0.961,-0.988 0.961,-2.351 0,0 0,-0.778 -0.309,-1.438 0,0 -0.312,-0.672 -0.801,-1.141 0,0 -0.48,-0.46 -1.07,-0.75 0,0 -0.851,-0.402 -1.738,-0.402 0,0 -0.891,0 -1.293,0.301 0,0 -0.41,0.312 -0.41,0.672 0,0 0,0.199 0.172,0.359 0,0 0.168,0.149 0.418,0.149 0,0 0.191,0 0.332,-0.047 0,0 0.14,-0.063 0.488,-0.313 0,0 0.562,-0.371 1.121,-0.371 0,0 0.859,0 1.5,0.652 0,0 0.641,0.649 0.641,1.579 0,0 0,0.89 -0.582,1.671 0,0 -0.579,0.79 -1.59,1.211 0,0 -0.797,0.329 -2.168,0.387 l 1.898,3.863 3.571,0 z"
                                 inkscape:connector-curvature="0"
                                 id="path112"
                                 style="fill:#000000;fill-opacity:1;fill-rule:nonzero;stroke:none" /><path
                                 d="m 384.238,194.75 0,-4"
                                 inkscape:connector-curvature="0"
                                 id="path114"
                                 style="fill:none;stroke:#000000;stroke-width:0.80000001;stroke-linecap:butt;stroke-linejoin:round;stroke-miterlimit:10;stroke-opacity:1;stroke-dasharray:none" /><path
                                 d="m 387.629,177.16 -0.688,-1.91 -5.863,0 0,0.27 c 0,0 2.582,2.359 3.633,3.859 0,0 1.059,1.5 1.059,2.73 0,0 0,0.942 -0.579,1.551 0,0 -0.582,0.61 -1.39,0.61 0,0 -0.723,0 -1.313,-0.43 0,0 -0.578,-0.43 -0.859,-1.262 l -0.27,0 c 0,0 0.192,1.363 0.942,2.082 0,0 0.758,0.731 1.89,0.731 0,0 1.219,0 2.02,-0.782 0,0 0.809,-0.781 0.809,-1.828 0,0 0,-0.75 -0.348,-1.511 0,0 -0.543,-1.192 -1.762,-2.5 0,0 -1.82,-2 -2.281,-2.411 l 2.59,0 c 0,0 0.801,0 1.121,0.051 0,0 0.32,0.059 0.57,0.238 0,0 0.262,0.18 0.449,0.512 l 0.27,0 z"
                                 inkscape:connector-curvature="0"
                                 id="path116"
                                 style="fill:#000000;fill-opacity:1;fill-rule:nonzero;stroke:none" /><path
                                 d="m 9.262,194.75 0,-2"
                                 inkscape:connector-curvature="0"
                                 id="path118"
                                 style="fill:none;stroke:#000000;stroke-width:0.80000001;stroke-linecap:butt;stroke-linejoin:round;stroke-miterlimit:10;stroke-opacity:1;stroke-dasharray:none" /><path
                                 d="m 26.309,194.75 0,-2"
                                 inkscape:connector-curvature="0"
                                 id="path120"
                                 style="fill:none;stroke:#000000;stroke-width:0.80000001;stroke-linecap:butt;stroke-linejoin:round;stroke-miterlimit:10;stroke-opacity:1;stroke-dasharray:none" /><path
                                 d="m 60.391,194.75 0,-2"
                                 inkscape:connector-curvature="0"
                                 id="path122"
                                 style="fill:none;stroke:#000000;stroke-width:0.80000001;stroke-linecap:butt;stroke-linejoin:round;stroke-miterlimit:10;stroke-opacity:1;stroke-dasharray:none" /><path
                                 d="m 77.441,194.75 0,-2"
                                 inkscape:connector-curvature="0"
                                 id="path124"
                                 style="fill:none;stroke:#000000;stroke-width:0.80000001;stroke-linecap:butt;stroke-linejoin:round;stroke-miterlimit:10;stroke-opacity:1;stroke-dasharray:none" /><path
                                 d="m 94.48,194.75 0,-2"
                                 inkscape:connector-curvature="0"
                                 id="path126"
                                 style="fill:none;stroke:#000000;stroke-width:0.80000001;stroke-linecap:butt;stroke-linejoin:round;stroke-miterlimit:10;stroke-opacity:1;stroke-dasharray:none" /><path
                                 d="m 111.531,194.75 0,-2"
                                 inkscape:connector-curvature="0"
                                 id="path128"
                                 style="fill:none;stroke:#000000;stroke-width:0.80000001;stroke-linecap:butt;stroke-linejoin:round;stroke-miterlimit:10;stroke-opacity:1;stroke-dasharray:none" /><path
                                 d="m 145.621,194.75 0,-2"
                                 inkscape:connector-curvature="0"
                                 id="path130"
                                 style="fill:none;stroke:#000000;stroke-width:0.80000001;stroke-linecap:butt;stroke-linejoin:round;stroke-miterlimit:10;stroke-opacity:1;stroke-dasharray:none" /><path
                                 d="m 162.66,194.75 0,-2"
                                 inkscape:connector-curvature="0"
                                 id="path132"
                                 style="fill:none;stroke:#000000;stroke-width:0.80000001;stroke-linecap:butt;stroke-linejoin:round;stroke-miterlimit:10;stroke-opacity:1;stroke-dasharray:none" /><path
                                 d="m 179.711,194.75 0,-2"
                                 inkscape:connector-curvature="0"
                                 id="path134"
                                 style="fill:none;stroke:#000000;stroke-width:0.80000001;stroke-linecap:butt;stroke-linejoin:round;stroke-miterlimit:10;stroke-opacity:1;stroke-dasharray:none" /><path
                                 d="m 196.75,194.75 0,-2"
                                 inkscape:connector-curvature="0"
                                 id="path136"
                                 style="fill:none;stroke:#000000;stroke-width:0.80000001;stroke-linecap:butt;stroke-linejoin:round;stroke-miterlimit:10;stroke-opacity:1;stroke-dasharray:none" /><path
                                 d="m 230.84,194.75 0,-2"
                                 inkscape:connector-curvature="0"
                                 id="path138"
                                 style="fill:none;stroke:#000000;stroke-width:0.80000001;stroke-linecap:butt;stroke-linejoin:round;stroke-miterlimit:10;stroke-opacity:1;stroke-dasharray:none" /><path
                                 d="m 247.891,194.75 0,-2"
                                 inkscape:connector-curvature="0"
                                 id="path140"
                                 style="fill:none;stroke:#000000;stroke-width:0.80000001;stroke-linecap:butt;stroke-linejoin:round;stroke-miterlimit:10;stroke-opacity:1;stroke-dasharray:none" /><path
                                 d="m 264.93,194.75 0,-2"
                                 inkscape:connector-curvature="0"
                                 id="path142"
                                 style="fill:none;stroke:#000000;stroke-width:0.80000001;stroke-linecap:butt;stroke-linejoin:round;stroke-miterlimit:10;stroke-opacity:1;stroke-dasharray:none" /><path
                                 d="m 281.98,194.75 0,-2"
                                 inkscape:connector-curvature="0"
                                 id="path144"
                                 style="fill:none;stroke:#000000;stroke-width:0.80000001;stroke-linecap:butt;stroke-linejoin:round;stroke-miterlimit:10;stroke-opacity:1;stroke-dasharray:none" /><path
                                 d="m 316.059,194.75 0,-2"
                                 inkscape:connector-curvature="0"
                                 id="path146"
                                 style="fill:none;stroke:#000000;stroke-width:0.80000001;stroke-linecap:butt;stroke-linejoin:round;stroke-miterlimit:10;stroke-opacity:1;stroke-dasharray:none" /><path
                                 d="m 333.109,194.75 0,-2"
                                 inkscape:connector-curvature="0"
                                 id="path148"
                                 style="fill:none;stroke:#000000;stroke-width:0.80000001;stroke-linecap:butt;stroke-linejoin:round;stroke-miterlimit:10;stroke-opacity:1;stroke-dasharray:none" /><path
                                 d="m 350.148,194.75 0,-2"
                                 inkscape:connector-curvature="0"
                                 id="path150"
                                 style="fill:none;stroke:#000000;stroke-width:0.80000001;stroke-linecap:butt;stroke-linejoin:round;stroke-miterlimit:10;stroke-opacity:1;stroke-dasharray:none" /><path
                                 d="m 367.199,194.75 0,-2"
                                 inkscape:connector-curvature="0"
                                 id="path152"
                                 style="fill:none;stroke:#000000;stroke-width:0.80000001;stroke-linecap:butt;stroke-linejoin:round;stroke-miterlimit:10;stroke-opacity:1;stroke-dasharray:none" /><path
                                 d="m 43.352,1.25 0,387"
                                 inkscape:connector-curvature="0"
                                 id="path154"
                                 style="fill:none;stroke:#000000;stroke-width:1;stroke-linecap:butt;stroke-linejoin:round;stroke-miterlimit:10;stroke-opacity:1;stroke-dasharray:none" /><path
                                 d="m 43.352,45.789 -4,0"
                                 inkscape:connector-curvature="0"
                                 id="path156"
                                 style="fill:none;stroke:#000000;stroke-width:0.80000001;stroke-linecap:butt;stroke-linejoin:round;stroke-miterlimit:10;stroke-opacity:1;stroke-dasharray:none" /></g><g
                               id="g158"><g
                                 clip-path="url(#clipPath162)"
                                 id="g160"><g
                                   id="g166"><g
                                   id="g168"><g
                                   clip-path="url(#clipPath172)"
                                   id="g170"><g
                                   id="g176"><path
                                   d="m 21.301,45.141 9.898,0 0,-0.781 -9.898,0 0,0.781 z"
                                   inkscape:connector-curvature="0"
                                   id="path178"
                                   style="fill:#000000;fill-opacity:1;fill-rule:nonzero;stroke:none" /></g></g></g></g></g></g></g></g></g><g
                         id="g180"><g
                           id="g182"><g
                             clip-path="url(#clipPath186)"
                             id="g184"><g
                               id="g190"><path
                                 d="m 30.52,49.199 2.402,1.192 0.25,0 0,-8.391 c 0,0 0,-0.828 0.066,-1.039 0,0 0.071,-0.211 0.293,-0.32 0,0 0.219,-0.11 0.891,-0.121 l 0,-0.27 -3.731,0 0,0.27 c 0,0 0.7,0.011 0.899,0.121 0,0 0.211,0.109 0.289,0.289 0,0 0.07,0.179 0.07,1.07 l 0,5.359 c 0,0 0,1.09 -0.058,1.391 0,0 -0.063,0.23 -0.192,0.34 0,0 -0.14,0.109 -0.32,0.109 0,0 -0.289,0 -0.75,-0.219 l -0.109,0.219 z"
                                 inkscape:connector-curvature="0"
                                 id="path192"
                                 style="fill:#000000;fill-opacity:1;fill-rule:nonzero;stroke:none" /><path
                                 d="m 43.352,120.27 -4,0"
                                 inkscape:connector-curvature="0"
                                 id="path194"
                                 style="fill:none;stroke:#000000;stroke-width:0.80000001;stroke-linecap:butt;stroke-linejoin:round;stroke-miterlimit:10;stroke-opacity:1;stroke-dasharray:none" /></g><g
                               id="g196"><g
                                 clip-path="url(#clipPath200)"
                                 id="g198"><g
                                   id="g204"><g
                                   id="g206"><g
                                   clip-path="url(#clipPath210)"
                                   id="g208"><g
                                   id="g214"><path
                                   d="m 10.301,120.141 9.898,0 0,-0.781 -9.898,0 0,0.781 z"
                                   inkscape:connector-curvature="0"
                                   id="path216"
                                   style="fill:#000000;fill-opacity:1;fill-rule:nonzero;stroke:none" /></g></g></g></g></g></g></g></g></g><g
                         id="g218"><g
                           id="g220"><g
                             clip-path="url(#clipPath224)"
                             id="g222"><g
                               id="g228"><path
                                 d="m 18.301,120.16 c 0,0 0,1.699 0.5,2.93 0,0 0.508,1.219 1.371,1.82 0,0 0.656,0.481 1.359,0.481 0,0 1.141,0 2.047,-1.172 0,0 1.141,-1.438 1.141,-3.91 0,0 0,-1.731 -0.5,-2.93 0,0 -0.5,-1.207 -1.27,-1.75 0,0 -0.777,-0.551 -1.5,-0.551 0,0 -1.418,0 -2.359,1.672 0,0 -0.789,1.422 -0.789,3.41 z m 1.429,-0.191 c 0,0 0,-2.047 0.5,-3.34 0,0 0.43,-1.098 1.25,-1.098 0,0 0.399,0 0.821,0.36 0,0 0.418,0.359 0.64,1.187 0,0 0.34,1.262 0.34,3.563 0,0 0,1.687 -0.359,2.828 0,0 -0.25,0.84 -0.672,1.191 0,0 -0.301,0.25 -0.73,0.25 0,0 -0.489,0 -0.879,-0.461 0,0 -0.532,-0.609 -0.719,-1.91 0,0 -0.192,-1.309 -0.192,-2.57 z m 7.399,-3.297 c 0,0 0.34,0 0.57,-0.242 0,0 0.242,-0.239 0.242,-0.571 0,0 0,-0.339 -0.242,-0.578 0,0 -0.23,-0.23 -0.57,-0.23 0,0 -0.348,0 -0.578,0.23 0,0 -0.242,0.239 -0.242,0.578 0,0 0,0.34 0.242,0.582 0,0 0.23,0.231 0.578,0.231 z m 8.391,8.519 -0.579,-1.25 -2.992,0 -0.648,-1.332 c 0,0 1.929,-0.3 3.078,-1.449 0,0 0.961,-0.988 0.961,-2.351 0,0 0,-0.778 -0.309,-1.438 0,0 -0.312,-0.672 -0.801,-1.141 0,0 -0.48,-0.46 -1.07,-0.75 0,0 -0.851,-0.402 -1.738,-0.402 0,0 -0.891,0 -1.293,0.301 0,0 -0.41,0.312 -0.41,0.672 0,0 0,0.199 0.172,0.359 0,0 0.168,0.149 0.418,0.149 0,0 0.191,0 0.332,-0.047 0,0 0.14,-0.063 0.488,-0.313 0,0 0.562,-0.371 1.121,-0.371 0,0 0.859,0 1.5,0.652 0,0 0.641,0.649 0.641,1.579 0,0 0,0.89 -0.582,1.671 0,0 -0.579,0.79 -1.59,1.211 0,0 -0.797,0.329 -2.168,0.387 l 1.898,3.863 3.571,0 z"
                                 inkscape:connector-curvature="0"
                                 id="path230"
                                 style="fill:#000000;fill-opacity:1;fill-rule:nonzero;stroke:none" /><path
                                 d="m 43.352,194.75 -4,0"
                                 inkscape:connector-curvature="0"
                                 id="path232"
                                 style="fill:none;stroke:#000000;stroke-width:0.80000001;stroke-linecap:butt;stroke-linejoin:round;stroke-miterlimit:10;stroke-opacity:1;stroke-dasharray:none" /><path
                                 d="m 43.352,269.23 -4,0"
                                 inkscape:connector-curvature="0"
                                 id="path234"
                                 style="fill:none;stroke:#000000;stroke-width:0.80000001;stroke-linecap:butt;stroke-linejoin:round;stroke-miterlimit:10;stroke-opacity:1;stroke-dasharray:none" /><path
                                 d="m 18.301,268.16 c 0,0 0,1.699 0.5,2.93 0,0 0.508,1.219 1.371,1.82 0,0 0.656,0.481 1.359,0.481 0,0 1.141,0 2.047,-1.172 0,0 1.141,-1.438 1.141,-3.91 0,0 0,-1.731 -0.5,-2.93 0,0 -0.5,-1.207 -1.27,-1.75 0,0 -0.777,-0.551 -1.5,-0.551 0,0 -1.418,0 -2.359,1.672 0,0 -0.789,1.422 -0.789,3.41 z m 1.429,-0.191 c 0,0 0,-2.047 0.5,-3.34 0,0 0.43,-1.098 1.25,-1.098 0,0 0.399,0 0.821,0.36 0,0 0.418,0.359 0.64,1.187 0,0 0.34,1.262 0.34,3.563 0,0 0,1.687 -0.359,2.828 0,0 -0.25,0.84 -0.672,1.191 0,0 -0.301,0.25 -0.73,0.25 0,0 -0.489,0 -0.879,-0.461 0,0 -0.532,-0.609 -0.719,-1.91 0,0 -0.192,-1.309 -0.192,-2.57 z m 7.399,-3.297 c 0,0 0.34,0 0.57,-0.242 0,0 0.242,-0.239 0.242,-0.571 0,0 0,-0.339 -0.242,-0.578 0,0 -0.23,-0.23 -0.57,-0.23 0,0 -0.348,0 -0.578,0.23 0,0 -0.242,0.239 -0.242,0.578 0,0 0,0.34 0.242,0.582 0,0 0.23,0.231 0.578,0.231 z m 8.391,8.519 -0.579,-1.25 -2.992,0 -0.648,-1.332 c 0,0 1.929,-0.3 3.078,-1.449 0,0 0.961,-0.988 0.961,-2.351 0,0 0,-0.778 -0.309,-1.438 0,0 -0.312,-0.672 -0.801,-1.141 0,0 -0.48,-0.46 -1.07,-0.75 0,0 -0.851,-0.402 -1.738,-0.402 0,0 -0.891,0 -1.293,0.301 0,0 -0.41,0.312 -0.41,0.672 0,0 0,0.199 0.172,0.359 0,0 0.168,0.149 0.418,0.149 0,0 0.191,0 0.332,-0.047 0,0 0.14,-0.063 0.488,-0.313 0,0 0.562,-0.371 1.121,-0.371 0,0 0.859,0 1.5,0.652 0,0 0.641,0.649 0.641,1.579 0,0 0,0.89 -0.582,1.671 0,0 -0.579,0.79 -1.59,1.211 0,0 -0.797,0.329 -2.168,0.387 l 1.898,3.863 3.571,0 z"
                                 inkscape:connector-curvature="0"
                                 id="path236"
                                 style="fill:#000000;fill-opacity:1;fill-rule:nonzero;stroke:none" /><path
                                 d="m 43.352,343.711 -4,0"
                                 inkscape:connector-curvature="0"
                                 id="path238"
                                 style="fill:none;stroke:#000000;stroke-width:0.80000001;stroke-linecap:butt;stroke-linejoin:round;stroke-miterlimit:10;stroke-opacity:1;stroke-dasharray:none" /><path
                                 d="m 30.52,347.199 2.402,1.192 0.25,0 0,-8.391 c 0,0 0,-0.828 0.066,-1.039 0,0 0.071,-0.211 0.293,-0.32 0,0 0.219,-0.11 0.891,-0.121 l 0,-0.27 -3.731,0 0,0.27 c 0,0 0.7,0.011 0.899,0.121 0,0 0.211,0.109 0.289,0.289 0,0 0.07,0.179 0.07,1.07 l 0,5.359 c 0,0 0,1.09 -0.058,1.391 0,0 -0.063,0.23 -0.192,0.34 0,0 -0.14,0.109 -0.32,0.109 0,0 -0.289,0 -0.75,-0.219 l -0.109,0.219 z"
                                 inkscape:connector-curvature="0"
                                 id="path240"
                                 style="fill:#000000;fill-opacity:1;fill-rule:nonzero;stroke:none" /><path
                                 d="m 43.352,16 -2,0"
                                 inkscape:connector-curvature="0"
                                 id="path242"
                                 style="fill:none;stroke:#000000;stroke-width:0.80000001;stroke-linecap:butt;stroke-linejoin:round;stroke-miterlimit:10;stroke-opacity:1;stroke-dasharray:none" /><path
                                 d="m 43.352,30.891 -2,0"
                                 inkscape:connector-curvature="0"
                                 id="path244"
                                 style="fill:none;stroke:#000000;stroke-width:0.80000001;stroke-linecap:butt;stroke-linejoin:round;stroke-miterlimit:10;stroke-opacity:1;stroke-dasharray:none" /><path
                                 d="m 43.352,60.691 -2,0"
                                 inkscape:connector-curvature="0"
                                 id="path246"
                                 style="fill:none;stroke:#000000;stroke-width:0.80000001;stroke-linecap:butt;stroke-linejoin:round;stroke-miterlimit:10;stroke-opacity:1;stroke-dasharray:none" /><path
                                 d="m 43.352,75.578 -2,0"
                                 inkscape:connector-curvature="0"
                                 id="path248"
                                 style="fill:none;stroke:#000000;stroke-width:0.80000001;stroke-linecap:butt;stroke-linejoin:round;stroke-miterlimit:10;stroke-opacity:1;stroke-dasharray:none" /><path
                                 d="m 43.352,90.48 -2,0"
                                 inkscape:connector-curvature="0"
                                 id="path250"
                                 style="fill:none;stroke:#000000;stroke-width:0.80000001;stroke-linecap:butt;stroke-linejoin:round;stroke-miterlimit:10;stroke-opacity:1;stroke-dasharray:none" /><path
                                 d="m 43.352,105.371 -2,0"
                                 inkscape:connector-curvature="0"
                                 id="path252"
                                 style="fill:none;stroke:#000000;stroke-width:0.80000001;stroke-linecap:butt;stroke-linejoin:round;stroke-miterlimit:10;stroke-opacity:1;stroke-dasharray:none" /><path
                                 d="m 43.352,135.172 -2,0"
                                 inkscape:connector-curvature="0"
                                 id="path254"
                                 style="fill:none;stroke:#000000;stroke-width:0.80000001;stroke-linecap:butt;stroke-linejoin:round;stroke-miterlimit:10;stroke-opacity:1;stroke-dasharray:none" /><path
                                 d="m 43.352,150.059 -2,0"
                                 inkscape:connector-curvature="0"
                                 id="path256"
                                 style="fill:none;stroke:#000000;stroke-width:0.80000001;stroke-linecap:butt;stroke-linejoin:round;stroke-miterlimit:10;stroke-opacity:1;stroke-dasharray:none" /><path
                                 d="m 43.352,164.961 -2,0"
                                 inkscape:connector-curvature="0"
                                 id="path258"
                                 style="fill:none;stroke:#000000;stroke-width:0.80000001;stroke-linecap:butt;stroke-linejoin:round;stroke-miterlimit:10;stroke-opacity:1;stroke-dasharray:none" /><path
                                 d="m 43.352,179.852 -2,0"
                                 inkscape:connector-curvature="0"
                                 id="path260"
                                 style="fill:none;stroke:#000000;stroke-width:0.80000001;stroke-linecap:butt;stroke-linejoin:round;stroke-miterlimit:10;stroke-opacity:1;stroke-dasharray:none" /><path
                                 d="m 43.352,209.641 -2,0"
                                 inkscape:connector-curvature="0"
                                 id="path262"
                                 style="fill:none;stroke:#000000;stroke-width:0.80000001;stroke-linecap:butt;stroke-linejoin:round;stroke-miterlimit:10;stroke-opacity:1;stroke-dasharray:none" /><path
                                 d="m 43.352,224.539 -2,0"
                                 inkscape:connector-curvature="0"
                                 id="path264"
                                 style="fill:none;stroke:#000000;stroke-width:0.80000001;stroke-linecap:butt;stroke-linejoin:round;stroke-miterlimit:10;stroke-opacity:1;stroke-dasharray:none" /><path
                                 d="m 43.352,239.441 -2,0"
                                 inkscape:connector-curvature="0"
                                 id="path266"
                                 style="fill:none;stroke:#000000;stroke-width:0.80000001;stroke-linecap:butt;stroke-linejoin:round;stroke-miterlimit:10;stroke-opacity:1;stroke-dasharray:none" /><path
                                 d="m 43.352,254.328 -2,0"
                                 inkscape:connector-curvature="0"
                                 id="path268"
                                 style="fill:none;stroke:#000000;stroke-width:0.80000001;stroke-linecap:butt;stroke-linejoin:round;stroke-miterlimit:10;stroke-opacity:1;stroke-dasharray:none" /><path
                                 d="m 43.352,284.121 -2,0"
                                 inkscape:connector-curvature="0"
                                 id="path270"
                                 style="fill:none;stroke:#000000;stroke-width:0.80000001;stroke-linecap:butt;stroke-linejoin:round;stroke-miterlimit:10;stroke-opacity:1;stroke-dasharray:none" /><path
                                 d="m 43.352,299.02 -2,0"
                                 inkscape:connector-curvature="0"
                                 id="path272"
                                 style="fill:none;stroke:#000000;stroke-width:0.80000001;stroke-linecap:butt;stroke-linejoin:round;stroke-miterlimit:10;stroke-opacity:1;stroke-dasharray:none" /><path
                                 d="m 43.352,313.922 -2,0"
                                 inkscape:connector-curvature="0"
                                 id="path274"
                                 style="fill:none;stroke:#000000;stroke-width:0.80000001;stroke-linecap:butt;stroke-linejoin:round;stroke-miterlimit:10;stroke-opacity:1;stroke-dasharray:none" /><path
                                 d="m 43.352,328.809 -2,0"
                                 inkscape:connector-curvature="0"
                                 id="path276"
                                 style="fill:none;stroke:#000000;stroke-width:0.80000001;stroke-linecap:butt;stroke-linejoin:round;stroke-miterlimit:10;stroke-opacity:1;stroke-dasharray:none" /><path
                                 d="m 43.352,358.602 -2,0"
                                 inkscape:connector-curvature="0"
                                 id="path278"
                                 style="fill:none;stroke:#000000;stroke-width:0.80000001;stroke-linecap:butt;stroke-linejoin:round;stroke-miterlimit:10;stroke-opacity:1;stroke-dasharray:none" /><path
                                 d="m 43.352,373.5 -2,0"
                                 inkscape:connector-curvature="0"
                                 id="path280"
                                 style="fill:none;stroke:#000000;stroke-width:0.80000001;stroke-linecap:butt;stroke-linejoin:round;stroke-miterlimit:10;stroke-opacity:1;stroke-dasharray:none" /></g></g></g></g></g></g></g></g></g></g></g></g></g></g></svg>