<?xml version="1.0" encoding="UTF-8" standalone="no"?>
<!-- Created with Inkscape (http://www.inkscape.org/) -->

<svg
   xmlns:dc="http://purl.org/dc/elements/1.1/"
   xmlns:cc="http://creativecommons.org/ns#"
   xmlns:rdf="http://www.w3.org/1999/02/22-rdf-syntax-ns#"
   xmlns:svg="http://www.w3.org/2000/svg"
   xmlns="http://www.w3.org/2000/svg"
   xmlns:inkscape="http://www.inkscape.org/namespaces/inkscape"
   version="1.1"
   width="433.75"
   height="380"
   id="svg2"
   xml:space="preserve"><metadata
     id="metadata8"><rdf:RDF><cc:Work
         rdf:about=""><dc:format>image/svg+xml</dc:format><dc:type
           rdf:resource="http://purl.org/dc/dcmitype/StillImage" /></cc:Work></rdf:RDF></metadata><defs
     id="defs6"><clipPath
       id="clipPath18"><path
         d="m 0.800781,8.39844 3464.699219,0 0,3025.20156 -3464.699219,0 0,-3025.20156 z"
         inkscape:connector-curvature="0"
         id="path20" /></clipPath></defs><g
     transform="matrix(1.25,0,0,-1.25,0,380)"
     id="g10"><g
       transform="scale(0.1,0.1)"
       id="g12"><g
         id="g14"><g
           clip-path="url(#clipPath18)"
           id="g16"><path
             d="m 129.199,3450.2 32,-137.7 32.102,-130.9 32.097,-124.4 32.102,-118.2 32.102,-112.4 32,-106.7 32.097,-101.4 32.102,-96.4 32.097,-91.5 32.102,-86.9 32,-82.5 32.102,-78.3 32.097,-74.3 32.102,-70.5 32.097,-66.9 32,-63.5 32.102,-60.1 32.102,-57 32.097,-53.9 32.102,-51.1 32,-48.4 32.097,-45.7 32.102,-43.2 32.102,-40.8 32.097,-38.5 32,-36.3 32.102,-34.2 32.099,-32.2 32.1,-30.2 32.1,-28.4 32,-26.5 32.1,-24.8 32.1,-23.2 32.1,-21.5 32.1,-19.9 32.1,-18.5 32,-17 32.1,-15.5 32.1,-14.2 32.1,-12.8 32.1,-11.5 32,-10.3 32.1,-8.9 32.1,-7.7 32.1,-6.5 32.1,-5.3 32,-4.1 32.1,-3 32.1,-1.7 32.1,-0.6 32.1,0.6 32,1.7 32.1,3 32.1,4.1 32.1,5.3 32.1,6.5 32,7.7 32.1,8.9 32.1,10.3 32.1,11.5 32.1,12.8 32,14.2 32.1,15.5 32.1,17 32.1,18.5 32.1,19.9 32,21.5 32.1,23.2 32.1,24.8 32.1,26.5 32.1,28.4 32.1,30.2 32,32.2 32.1,34.2 32.1,36.3 32.1,38.5 32.1,40.8 32,43.2 32.1,45.7 32.1,48.4 32.1,51.1 32.1,53.9 32,57 32.1,60.1 32.1,63.5 32.1,66.9 32.1,70.5 32,74.3 32.1,78.3 32.1,82.5 32.1,86.9 32.1,91.5 32,96.4 32.1,101.4 32.1,106.7 32.1,112.4 32.1,118.2 32,124.4 32.1,130.9 32.1,137.7"
             inkscape:connector-curvature="0"
             id="path22"
             style="fill:none;stroke:#000000;stroke-width:7.5;stroke-linecap:round;stroke-linejoin:round;stroke-miterlimit:10;stroke-opacity:1;stroke-dasharray:none" /><path
             d="m 0.800781,587.301 3464.699219,0"
             inkscape:connector-curvature="0"
             id="path24"
             style="fill:none;stroke:#000000;stroke-width:7.5;stroke-linecap:round;stroke-linejoin:round;stroke-miterlimit:10;stroke-opacity:1;stroke-dasharray:none" /><path
             d="m 1733.2,8.39844 0,3025.20156"
             inkscape:connector-curvature="0"
             id="path26"
             style="fill:none;stroke:#000000;stroke-width:7.5;stroke-linecap:round;stroke-linejoin:round;stroke-miterlimit:10;stroke-opacity:1;stroke-dasharray:none" /></g></g></g></g></svg>