<?xml version="1.0" encoding="UTF-8" standalone="no"?>
<!-- Created with Inkscape (http://www.inkscape.org/) -->

<svg
   xmlns:dc="http://purl.org/dc/elements/1.1/"
   xmlns:cc="http://creativecommons.org/ns#"
   xmlns:rdf="http://www.w3.org/1999/02/22-rdf-syntax-ns#"
   xmlns:svg="http://www.w3.org/2000/svg"
   xmlns="http://www.w3.org/2000/svg"
   xmlns:inkscape="http://www.inkscape.org/namespaces/inkscape"
   version="1.1"
   width="433.75"
   height="380"
   id="svg2"
   xml:space="preserve"><metadata
     id="metadata8"><rdf:RDF><cc:Work
         rdf:about=""><dc:format>image/svg+xml</dc:format><dc:type
           rdf:resource="http://purl.org/dc/dcmitype/StillImage" /></cc:Work></rdf:RDF></metadata><defs
     id="defs6"><clipPath
       id="clipPath18"><path
         d="m 0.800781,8.39844 3464.699219,0 0,3025.20156 -3464.699219,0 0,-3025.20156 z"
         inkscape:connector-curvature="0"
         id="path20" /></clipPath></defs><g
     transform="matrix(1.25,0,0,-1.25,0,380)"
     id="g10"><g
       transform="scale(0.1,0.1)"
       id="g12"><g
         id="g14"><g
           clip-path="url(#clipPath18)"
           id="g16"><path
             d="m 663.801,454.398 26.801,4.5 26.699,4.602 26.699,4.898 26.801,5 26.699,5.102 26.699,5.398 26.801,5.602 26.699,5.699 26.699,6 26.801,6.102 26.699,6.398 26.704,6.602 26.798,6.898 26.7,7.102 26.7,7.301 26.8,7.597 26.7,7.903 26.7,8.199 26.8,8.398 26.7,8.801 26.7,9.102 26.8,9.296 26.7,9.801 26.7,10 26.8,10.5 26.7,10.801 26.7,11.199 26.8,11.5 26.7,12 26.7,12.5 26.8,12.801 26.7,13.301 26.7,13.801 26.8,14.296 26.7,14.801 26.7,15.403 26.8,15.796 26.7,16.5 26.7,17 26.8,17.602 26.7,18.301 26.7,18.898 26.8,19.5 26.7,20.301 26.7,21 26.8,21.801 26.7,22.5 26.7,23.299 26.8,24.2 26.7,25 26.7,25.9 26.8,26.8 26.7,27.8 26.8,28.8 26.7,29.8 26.7,30.8 26.8,32 26.7,33.1 26.7,34.3 26.8,35.5 26.7,36.7 26.7,38.1 26.8,39.4 26.7,40.9 26.7,42.3 26.8,43.8 26.7,45.3 26.7,47 26.8,48.6 26.7,50.4 26.7,52.2 26.8,54 26.7,55.9 26.7,58 26.8,60 26.7,62.1 26.7,64.4 26.8,66.7 26.7,69 26.7,71.5 26.8,74 26.7,76.7 26.7,79.4 26.8,82.2 26.7,85.2 26.7,88.1 26.8,91.4 26.7,94.6 26.7,97.9 26.8,101.5 26.7,105 26.7,108.8 26.8,112.7 4.6,20.1"
             inkscape:connector-curvature="0"
             id="path22"
             style="fill:none;stroke:#000000;stroke-width:7.5;stroke-linecap:round;stroke-linejoin:round;stroke-miterlimit:10;stroke-opacity:1;stroke-dasharray:none" /><path
             d="m 0.800781,224.199 3464.699219,0"
             inkscape:connector-curvature="0"
             id="path24"
             style="fill:none;stroke:#000000;stroke-width:7.5;stroke-linecap:round;stroke-linejoin:round;stroke-miterlimit:10;stroke-opacity:1;stroke-dasharray:none" /><path
             d="m 281.898,8.39844 0,3025.20156"
             inkscape:connector-curvature="0"
             id="path26"
             style="fill:none;stroke:#000000;stroke-width:7.5;stroke-linecap:round;stroke-linejoin:round;stroke-miterlimit:10;stroke-opacity:1;stroke-dasharray:none" /><g
             transform="scale(10,10)"
             id="g28"><text
               transform="matrix(1,0,0,-1,180.96,9.96992)"
               id="text30"><tspan
                 x="0"
                 y="0"
                 id="tspan32"
                 style="font-size:16px;font-variant:normal;font-weight:normal;writing-mode:lr-tb;fill:#000000;fill-opacity:1;fill-rule:nonzero;stroke:none;font-family:Helvetica;-inkscape-font-specification:Helvetica">t</tspan><tspan
                 x="-168.03999"
                 y="-178.45"
                 id="tspan34"
                 style="font-size:16px;font-variant:normal;font-weight:normal;writing-mode:lr-tb;fill:#000000;fill-opacity:1;fill-rule:nonzero;stroke:none;font-family:Helvetica;-inkscape-font-specification:Helvetica">u</tspan></text>
</g></g></g></g></g></svg>