<?xml version="1.0" encoding="UTF-8" standalone="no"?>
<!-- Created with Inkscape (http://www.inkscape.org/) -->

<svg
   xmlns:dc="http://purl.org/dc/elements/1.1/"
   xmlns:cc="http://creativecommons.org/ns#"
   xmlns:rdf="http://www.w3.org/1999/02/22-rdf-syntax-ns#"
   xmlns:svg="http://www.w3.org/2000/svg"
   xmlns="http://www.w3.org/2000/svg"
   xmlns:inkscape="http://www.inkscape.org/namespaces/inkscape"
   version="1.1"
   width="693.05933"
   height="477.57751"
   id="svg2"
   xml:space="preserve"><metadata
     id="metadata8"><rdf:RDF><cc:Work
         rdf:about=""><dc:format>image/svg+xml</dc:format><dc:type
           rdf:resource="http://purl.org/dc/dcmitype/StillImage" /></cc:Work></rdf:RDF></metadata><defs
     id="defs6" /><g
     transform="matrix(1.25,0,0,-1.25,0,477.57751)"
     id="g10"><g
       id="g12"><g
         transform="matrix(1,0,0,-1,0,382.06201)"
         id="g14"><path
           d="m 162.965,177.652 c 0,65.161 -21.164,117.985 -47.274,117.985 -26.109,0 -47.277,-52.824 -47.277,-117.985 0,-65.164 21.168,-117.988 47.277,-117.988 26.11,0 47.274,52.824 47.274,117.988"
           inkscape:connector-curvature="0"
           id="path16"
           style="fill:none;stroke:#000000;stroke-width:0.80000001;stroke-linecap:butt;stroke-linejoin:miter;stroke-miterlimit:4;stroke-opacity:1;stroke-dasharray:2.4, 2.4;stroke-dashoffset:0" /></g><g
         transform="matrix(1,0,0,-1,0,382.06201)"
         id="g18"><path
           d="m 438.582,177.652 c 0,97.411 -31.641,176.375 -70.672,176.375 -39.031,0 -70.672,-78.964 -70.672,-176.375 0,-97.41 31.641,-176.379 70.672,-176.379 39.031,0 70.672,78.969 70.672,176.379 z"
           inkscape:connector-curvature="0"
           id="path20"
           style="fill:none;stroke:#000000;stroke-width:0.80000001;stroke-linecap:butt;stroke-linejoin:miter;stroke-miterlimit:4;stroke-opacity:1;stroke-dasharray:none" /></g><g
         transform="matrix(1,0,0,-1,0,382.06201)"
         id="g22"><path
           d="M 116.547,295.617 C 99.492,296.387 83.598,274.176 74.945,237.492 66.297,200.809 66.234,155.34 74.785,118.508 83.332,81.676 99.168,59.195 116.223,59.672"
           inkscape:connector-curvature="0"
           id="path24"
           style="fill:none;stroke:#000000;stroke-width:0.80000001;stroke-linecap:butt;stroke-linejoin:miter;stroke-miterlimit:4;stroke-opacity:1;stroke-dasharray:none" /></g><g
         transform="matrix(1,0,0,-1,0,382.06201)"
         id="g26"><path
           d="m 116.094,295.613 250.519,58.184"
           inkscape:connector-curvature="0"
           id="path28"
           style="fill:none;stroke:#000000;stroke-width:0.80000001;stroke-linecap:butt;stroke-linejoin:miter;stroke-miterlimit:4;stroke-opacity:1;stroke-dasharray:none" /></g><g
         transform="matrix(1,0,0,-1,0,382.06201)"
         id="g30"><path
           d="M 115.285,58.832 364.996,1.457"
           inkscape:connector-curvature="0"
           id="path32"
           style="fill:none;stroke:#000000;stroke-width:0.80000001;stroke-linecap:butt;stroke-linejoin:miter;stroke-miterlimit:4;stroke-opacity:1;stroke-dasharray:none" /></g><g
         transform="matrix(1,0,0,-1,0,382.06201)"
         id="g34"><path
           d="m 100.094,311.613 250.519,58.184"
           inkscape:connector-curvature="0"
           id="path36"
           style="fill:none;stroke:#000000;stroke-width:0.80000001;stroke-linecap:butt;stroke-linejoin:miter;stroke-miterlimit:4;stroke-opacity:1;stroke-dasharray:none" /></g><g
         transform="matrix(1,-0.232258,-0.232258,-1,0,382.06201)"
         id="g38"><path
           d="m 171.434,273.605 3.119,-3.119 -10.912,3.12 10.911,3.115 -3.118,-3.116 z"
           inkscape:connector-curvature="0"
           id="path40"
           style="fill:#000000;fill-opacity:1;fill-rule:evenodd;stroke:#000000;stroke-width:0.77925801;stroke-linecap:butt;stroke-linejoin:miter;stroke-miterlimit:4;stroke-opacity:1;stroke-dasharray:none" /></g><g
         transform="matrix(-1,0.232258,0.232258,1,0,382.06201)"
         id="g42"><path
           d="m -406.368,-273.606 3.117,-3.115 -10.909,3.116 10.911,3.118 -3.119,-3.119 z"
           inkscape:connector-curvature="0"
           id="path44"
           style="fill:#000000;fill-opacity:1;fill-rule:evenodd;stroke:#000000;stroke-width:0.77925801;stroke-linecap:butt;stroke-linejoin:miter;stroke-miterlimit:4;stroke-opacity:1;stroke-dasharray:none" /></g><g
         transform="matrix(1,0,0,-1,0,382.06201)"
         id="g46"><path
           d="m 369.863,176.82 0,-175.363"
           inkscape:connector-curvature="0"
           id="path48"
           style="fill:none;stroke:#000000;stroke-width:0.80000001;stroke-linecap:butt;stroke-linejoin:miter;stroke-miterlimit:4;stroke-opacity:1;stroke-dasharray:none" /></g><g
         transform="matrix(0,1,1,0,0,382.06201)"
         id="g50"><path
           d="m -173.684,369.863 c 0,1.766 -1.433,3.2 -3.199,3.2 -1.765,0 -3.199,-1.434 -3.199,-3.2 0,-1.769 1.434,-3.203 3.199,-3.203 1.766,0 3.199,1.434 3.199,3.203 z"
           inkscape:connector-curvature="0"
           id="path52"
           style="fill:#000000;fill-opacity:1;fill-rule:evenodd;stroke:#000000;stroke-width:0.80000001;stroke-linecap:butt;stroke-linejoin:miter;stroke-miterlimit:4;stroke-opacity:1;stroke-dasharray:none" /></g><g
         transform="matrix(0,-1,-1,0,0,382.06201)"
         id="g54"><path
           d="m 9.457,-369.863 3.199,-3.2 -11.199,3.2 11.199,3.203 -3.199,-3.203 z"
           inkscape:connector-curvature="0"
           id="path56"
           style="fill:#000000;fill-opacity:1;fill-rule:evenodd;stroke:#000000;stroke-width:0.80000001;stroke-linecap:butt;stroke-linejoin:miter;stroke-miterlimit:4;stroke-opacity:1;stroke-dasharray:none" /></g><g
         transform="matrix(1,0,0,-1,0,382.06201)"
         id="g58"><path
           d="m 114.48,176.117 0,-114.75"
           inkscape:connector-curvature="0"
           id="path60"
           style="fill:none;stroke:#000000;stroke-width:0.80000001;stroke-linecap:butt;stroke-linejoin:miter;stroke-miterlimit:4;stroke-opacity:1;stroke-dasharray:none" /></g><g
         transform="matrix(0,1,1,0,0,382.06201)"
         id="g62"><path
           d="m -172.984,114.48 c 0,1.766 -1.434,3.2 -3.2,3.2 -1.765,0 -3.199,-1.434 -3.199,-3.2 0,-1.769 1.434,-3.203 3.199,-3.203 1.766,0 3.2,1.434 3.2,3.203 z"
           inkscape:connector-curvature="0"
           id="path64"
           style="fill:#000000;fill-opacity:1;fill-rule:evenodd;stroke:#000000;stroke-width:0.80000001;stroke-linecap:butt;stroke-linejoin:miter;stroke-miterlimit:4;stroke-opacity:1;stroke-dasharray:none" /></g><g
         transform="matrix(0,-1,-1,0,0,382.06201)"
         id="g66"><path
           d="m 69.367,-114.48 3.199,-3.2 -11.199,3.2 11.199,3.203 -3.199,-3.203 z"
           inkscape:connector-curvature="0"
           id="path68"
           style="fill:#000000;fill-opacity:1;fill-rule:evenodd;stroke:#000000;stroke-width:0.80000001;stroke-linecap:butt;stroke-linejoin:miter;stroke-miterlimit:4;stroke-opacity:1;stroke-dasharray:none" /></g></g></g></svg>