<?xml version="1.0" encoding="UTF-8" standalone="no"?>
<!-- Created with Inkscape (http://www.inkscape.org/) -->

<svg
   xmlns:dc="http://purl.org/dc/elements/1.1/"
   xmlns:cc="http://creativecommons.org/ns#"
   xmlns:rdf="http://www.w3.org/1999/02/22-rdf-syntax-ns#"
   xmlns:svg="http://www.w3.org/2000/svg"
   xmlns="http://www.w3.org/2000/svg"
   xmlns:inkscape="http://www.inkscape.org/namespaces/inkscape"
   version="1.1"
   width="620.07294"
   height="210.28572"
   id="svg2"
   xml:space="preserve"><metadata
     id="metadata8"><rdf:RDF><cc:Work
         rdf:about=""><dc:format>image/svg+xml</dc:format><dc:type
           rdf:resource="http://purl.org/dc/dcmitype/StillImage" /></cc:Work></rdf:RDF></metadata><defs
     id="defs6" /><g
     transform="matrix(1.25,0,0,-1.25,0,210.28572)"
     id="g10"><g
       id="g12"><g
         transform="matrix(1,0,0,-1,0,168.22858)"
         id="g14"><path
           d="m 125.031,84.113 c 0,46.235 -14.07,83.715 -31.429,83.715 -17.356,0 -31.426,-37.48 -31.426,-83.715 0,-46.234 14.07,-83.715 31.426,-83.715 17.359,0 31.429,37.481 31.429,83.715 z"
           inkscape:connector-curvature="0"
           id="path16"
           style="fill:none;stroke:#000000;stroke-width:0.80000001;stroke-linecap:butt;stroke-linejoin:miter;stroke-miterlimit:4;stroke-opacity:1;stroke-dasharray:none" /></g><g
         transform="matrix(1,0,0,-1,0,168.22858)"
         id="g18"><path
           d="m 374.148,0.977 c 11.989,-3.766 23.727,11.086 30.204,38.218 6.476,27.129 6.546,61.746 0.183,89.063 -6.367,27.32 -18.043,42.512 -30.043,39.097"
           inkscape:connector-curvature="0"
           id="path20"
           style="fill:none;stroke:#000000;stroke-width:0.80000001;stroke-linecap:butt;stroke-linejoin:miter;stroke-miterlimit:4;stroke-opacity:1;stroke-dasharray:none" /></g><g
         transform="matrix(1,0,0,-1,0,168.22858)"
         id="g22"><path
           d="m 98.402,1.113 c 106.657,71.508 166.809,70.977 276,-0.57"
           inkscape:connector-curvature="0"
           id="path24"
           style="fill:none;stroke:#000000;stroke-width:0.80000001;stroke-linecap:butt;stroke-linejoin:miter;stroke-miterlimit:4;stroke-opacity:1;stroke-dasharray:none" /></g><g
         transform="matrix(1,0,0,-1,0,168.22858)"
         id="g26"><path
           d="m 98.117,166.969 c 106.656,-71.508 166.813,-70.973 276,0.574"
           inkscape:connector-curvature="0"
           id="path28"
           style="fill:none;stroke:#000000;stroke-width:0.80000001;stroke-linecap:butt;stroke-linejoin:miter;stroke-miterlimit:4;stroke-opacity:1;stroke-dasharray:none" /></g><g
         transform="matrix(1,0,0,-1,0,168.22858)"
         id="g30"><path
           d="m 0.004,82.688 473.711,2.855"
           inkscape:connector-curvature="0"
           id="path32"
           style="fill:none;stroke:#000000;stroke-width:0.80000001;stroke-linecap:butt;stroke-linejoin:miter;stroke-miterlimit:4;stroke-opacity:1;stroke-dasharray:6.4, 0.8;stroke-dashoffset:0" /></g><g
         transform="matrix(-1,0.00603137,0.00603137,1,0,168.22858)"
         id="g34"><path
           d="m -466.217,-82.684 3.203,-3.199 -11.2,3.2 11.199,3.202 -3.202,-3.203 z"
           inkscape:connector-curvature="0"
           id="path36"
           style="fill:#000000;fill-opacity:1;fill-rule:evenodd;stroke:#000000;stroke-width:0.79998499;stroke-linecap:butt;stroke-linejoin:miter;stroke-miterlimit:4;stroke-opacity:1;stroke-dasharray:none" /></g><g
         transform="matrix(1,0,0,-1,0,168.22858)"
         id="g38"><path
           d="m 93.602,83.973 0,6.855"
           inkscape:connector-curvature="0"
           id="path40"
           style="fill:none;stroke:#000000;stroke-width:0.80000001;stroke-linecap:butt;stroke-linejoin:miter;stroke-miterlimit:4;stroke-opacity:1;stroke-dasharray:none" /></g><g
         transform="matrix(1,0,0,-1,0,168.22858)"
         id="g42"><path
           d="m 377.832,85.57 0,6.86"
           inkscape:connector-curvature="0"
           id="path44"
           style="fill:none;stroke:#000000;stroke-width:0.80000001;stroke-linecap:butt;stroke-linejoin:miter;stroke-miterlimit:4;stroke-opacity:1;stroke-dasharray:none" /></g><g
         transform="matrix(1,0,0,-1,0,168.22858)"
         id="g46"><path
           d="m 235.715,84.43 0,6.855"
           inkscape:connector-curvature="0"
           id="path48"
           style="fill:none;stroke:#000000;stroke-width:0.80000001;stroke-linecap:butt;stroke-linejoin:miter;stroke-miterlimit:4;stroke-opacity:1;stroke-dasharray:none" /></g></g></g></svg>