<?xml version="1.0" encoding="UTF-8" standalone="no"?>
<!-- Created with Inkscape (http://www.inkscape.org/) -->

<svg
   xmlns:dc="http://purl.org/dc/elements/1.1/"
   xmlns:cc="http://creativecommons.org/ns#"
   xmlns:rdf="http://www.w3.org/1999/02/22-rdf-syntax-ns#"
   xmlns:svg="http://www.w3.org/2000/svg"
   xmlns="http://www.w3.org/2000/svg"
   xmlns:inkscape="http://www.inkscape.org/namespaces/inkscape"
   version="1.1"
   width="473.88242"
   height="356.18735"
   id="svg2"
   xml:space="preserve"><metadata
     id="metadata8"><rdf:RDF><cc:Work
         rdf:about=""><dc:format>image/svg+xml</dc:format><dc:type
           rdf:resource="http://purl.org/dc/dcmitype/StillImage" /></cc:Work></rdf:RDF></metadata><defs
     id="defs6" /><g
     transform="matrix(1.25,0,0,-1.25,0,356.18736)"
     id="g10"><g
       id="g12"><g
         transform="matrix(1,0,0,-1,0,284.94989)"
         id="g14"><path
           d="m 11.789,276.871 0,-256.539"
           inkscape:connector-curvature="0"
           id="path16"
           style="fill:none;stroke:#000000;stroke-width:0.80000001;stroke-linecap:butt;stroke-linejoin:miter;stroke-miterlimit:4;stroke-opacity:1;stroke-dasharray:none" /></g><g
         transform="matrix(0,-1,-1,0,0,284.94989)"
         id="g18"><path
           d="m 28.332,-11.789 3.199,-3.199 -11.199,3.199 11.199,3.199 -3.199,-3.199 z"
           inkscape:connector-curvature="0"
           id="path20"
           style="fill:#000000;fill-opacity:1;fill-rule:evenodd;stroke:#000000;stroke-width:0.80000001;stroke-linecap:butt;stroke-linejoin:miter;stroke-miterlimit:4;stroke-opacity:1;stroke-dasharray:none" /></g><g
         transform="matrix(1,0,0,-1,0,284.94989)"
         id="g22"><path
           d="m 0,269.574 305.379,0"
           inkscape:connector-curvature="0"
           id="path24"
           style="fill:none;stroke:#000000;stroke-width:0.80000001;stroke-linecap:butt;stroke-linejoin:miter;stroke-miterlimit:4;stroke-opacity:1;stroke-dasharray:none" /></g><g
         transform="matrix(-1,0,0,1,0,284.94989)"
         id="g26"><path
           d="m -297.379,-269.574 3.199,-3.199 -11.199,3.199 11.199,3.199 -3.199,-3.199 z"
           inkscape:connector-curvature="0"
           id="path28"
           style="fill:#000000;fill-opacity:1;fill-rule:evenodd;stroke:#000000;stroke-width:0.80000001;stroke-linecap:butt;stroke-linejoin:miter;stroke-miterlimit:4;stroke-opacity:1;stroke-dasharray:none" /></g><path
         d="M 86.145,90.02 205.637,209.512 279.461,135.688 159.969,16.196 86.145,90.02 z"
         inkscape:connector-curvature="0"
         id="path30"
         style="fill:#000000;fill-opacity:0.21568598;fill-rule:nonzero;stroke:none" /><g
         transform="matrix(1,1,1,-1,0,284.94989)"
         id="g32"><path
           d="m -54.393,140.537 119.493,0 0,73.824 -119.493,0 0,-73.824 z"
           inkscape:connector-curvature="0"
           id="path34"
           style="fill:none;stroke:#000000;stroke-width:0.56568497;stroke-linecap:butt;stroke-linejoin:miter;stroke-miterlimit:4;stroke-opacity:1;stroke-dasharray:none" /></g><g
         transform="matrix(1,0,0,-1,0,284.94989)"
         id="g36"><path
           d="M 11.789,269.574 254.293,27.07"
           inkscape:connector-curvature="0"
           id="path38"
           style="fill:none;stroke:#000000;stroke-width:0.72000003;stroke-linecap:butt;stroke-linejoin:miter;stroke-miterlimit:4;stroke-opacity:1;stroke-dasharray:2.16, 2.16;stroke-dashoffset:0" /></g><g
         transform="matrix(1,0,0,-1,0,284.94989)"
         id="g40"><path
           d="M 85.887,194.355 11.789,120.254"
           inkscape:connector-curvature="0"
           id="path42"
           style="fill:none;stroke:#000000;stroke-width:0.72000003;stroke-linecap:butt;stroke-linejoin:miter;stroke-miterlimit:4;stroke-opacity:1;stroke-dasharray:2.16, 2.16;stroke-dashoffset:0" /></g><g
         transform="matrix(1,0,0,-1,0,284.94989)"
         id="g44"><path
           d="M 204.289,74.355 130.188,0.254"
           inkscape:connector-curvature="0"
           id="path46"
           style="fill:none;stroke:#000000;stroke-width:0.72000003;stroke-linecap:butt;stroke-linejoin:miter;stroke-miterlimit:4;stroke-opacity:1;stroke-dasharray:2.16, 2.16;stroke-dashoffset:0" /></g><g
         transform="matrix(1,0,0,-1,0,284.94989)"
         id="g48"><path
           d="m 316.164,186.23 -37.301,-37.3"
           inkscape:connector-curvature="0"
           id="path50"
           style="fill:none;stroke:#000000;stroke-width:0.72000003;stroke-linecap:butt;stroke-linejoin:miter;stroke-miterlimit:4;stroke-opacity:1;stroke-dasharray:2.16, 2.16;stroke-dashoffset:0" /></g></g></g></svg>