<?xml version="1.0" encoding="UTF-8" standalone="no"?>
<!-- Created with Inkscape (http://www.inkscape.org/) -->

<svg
   xmlns:dc="http://purl.org/dc/elements/1.1/"
   xmlns:cc="http://creativecommons.org/ns#"
   xmlns:rdf="http://www.w3.org/1999/02/22-rdf-syntax-ns#"
   xmlns:svg="http://www.w3.org/2000/svg"
   xmlns="http://www.w3.org/2000/svg"
   xmlns:inkscape="http://www.inkscape.org/namespaces/inkscape"
   version="1.1"
   width="357.5"
   height="276.25"
   id="svg2"
   xml:space="preserve"><metadata
     id="metadata8"><rdf:RDF><cc:Work
         rdf:about=""><dc:format>image/svg+xml</dc:format><dc:type
           rdf:resource="http://purl.org/dc/dcmitype/StillImage" /></cc:Work></rdf:RDF></metadata><defs
     id="defs6"><clipPath
       id="clipPath44"><path
         d="m -990,3860 0,0 0,0 0,0 z"
         inkscape:connector-curvature="0"
         id="path46" /></clipPath><clipPath
       id="clipPath62"><path
         d="m -990,3860 0,0 0,0 0,0 z"
         inkscape:connector-curvature="0"
         id="path64" /></clipPath></defs><g
     transform="matrix(1.25,0,0,-1.25,0,276.25)"
     id="g10"><g
       transform="scale(0.1,0.1)"
       id="g12"><path
         d="m 173.602,904.301 26.796,26.5 26.801,25.898 26.801,25.403 26.801,24.898 26.801,24.4 26.699,23.9 26.801,23.4 26.796,22.9 26.801,22.4 26.801,21.9 26.801,21.4 26.801,20.9 26.796,20.5 26.801,20 26.801,19.6 26.801,19.1 26.801,18.6 26.699,18.2 26.801,17.8 26.796,17.3 26.801,16.9 26.801,16.5 26.801,16.1 26.801,15.6 26.796,15.3 26.801,14.8 26.801,14.5 26.801,14 26.801,13.7 26.699,13.3 26.799,12.9 26.8,12.5 26.8,12.2 26.8,11.9 26.8,11.4 26.8,11.2 26.8,10.7 26.8,10.5 26.8,10.1 26.8,9.8 26.8,9.5 26.7,9.1 26.8,8.9 26.8,8.5 26.8,8.2 26.8,8 26.8,7.6 26.8,7.4 26.8,7.1 26.8,6.8 26.8,6.6 26.8,6.3 26.8,6 26.7,5.8 26.8,5.5 26.8,5.3 26.8,5.1 26.8,4.8 26.8,4.6 26.8,4.4 26.8,4.2 26.8,3.9 26.8,3.8 26.8,3.5 26.8,3.4 26.7,3.2 26.8,3 26.8,2.8 26.8,2.7 26.8,2.5 26.8,2.3 26.8,2.2 26.8,2 26.8,1.9 26.8,1.7 26.8,1.6 26.8,1.5 26.7,1.3 26.8,1.3 26.8,1.1 26.8,1 26.8,0.9 26.8,0.9 26.8,0.7 26.8,0.6 26.8,0.6 26.8,0.5 26.8,0.4 26.8,0.4 26.7,0.2 26.8,0.3 26.8,0.2 26.8,0.1 26.8,0.1 26.8,0.1 26.8,0.1 107.2,0"
         inkscape:connector-curvature="0"
         id="path14"
         style="fill:none;stroke:#000000;stroke-width:7.5;stroke-linecap:round;stroke-linejoin:round;stroke-miterlimit:10;stroke-opacity:1;stroke-dasharray:none" /><path
         d="m 173.602,191.102 0,2005.798"
         inkscape:connector-curvature="0"
         id="path16"
         style="fill:none;stroke:#000000;stroke-width:7.5;stroke-linecap:round;stroke-linejoin:round;stroke-miterlimit:10;stroke-opacity:1;stroke-dasharray:none" /><path
         d="m 210.898,2057.8 -37.296,139.1 -37.301,-139.1"
         inkscape:connector-curvature="0"
         id="path18"
         style="fill:none;stroke:#000000;stroke-width:7.5;stroke-linecap:round;stroke-linejoin:round;stroke-miterlimit:10;stroke-opacity:1;stroke-dasharray:none" /><path
         d="m 173.602,191.102 2679.198,0"
         inkscape:connector-curvature="0"
         id="path20"
         style="fill:none;stroke:#000000;stroke-width:7.5;stroke-linecap:round;stroke-linejoin:round;stroke-miterlimit:10;stroke-opacity:1;stroke-dasharray:none" /><path
         d="m 2713.7,153.902 139.1,37.2 -139.1,37.3"
         inkscape:connector-curvature="0"
         id="path22"
         style="fill:none;stroke:#000000;stroke-width:7.5;stroke-linecap:round;stroke-linejoin:round;stroke-miterlimit:10;stroke-opacity:1;stroke-dasharray:none" /><g
         transform="scale(10,10)"
         id="g24"><text
           transform="matrix(1,0,0,-1,2.18984,190.3)"
           id="text26"><tspan
             x="0"
             y="0"
             id="tspan28"
             style="font-size:16px;font-variant:normal;font-weight:normal;writing-mode:lr-tb;fill:#000000;fill-opacity:1;fill-rule:nonzero;stroke:none;font-family:Helvetica;-inkscape-font-specification:Helvetica">p</tspan><tspan
             x="-3.05"
             y="100.29"
             id="tspan30"
             style="font-size:16px;font-variant:normal;font-weight:normal;writing-mode:lr-tb;fill:#000000;fill-opacity:1;fill-rule:nonzero;stroke:none;font-family:Helvetica;-inkscape-font-specification:Helvetica">p</tspan></text>
<text
           transform="matrix(1,0,0,-1,8.03007,87.07992)"
           id="text32"><tspan
             x="0"
             y="0"
             id="tspan34"
             style="font-size:11px;font-variant:normal;font-weight:normal;writing-mode:lr-tb;fill:#000000;fill-opacity:1;fill-rule:nonzero;stroke:none;font-family:Helvetica;-inkscape-font-specification:Helvetica">0</tspan></text>
<text
           transform="matrix(1,0,0,-1,267.90007,187.19992)"
           id="text36"><tspan
             x="0"
             y="0"
             id="tspan38"
             style="font-size:16px;font-variant:normal;font-weight:normal;writing-mode:lr-tb;fill:#000000;fill-opacity:1;fill-rule:nonzero;stroke:none;font-family:Helvetica;-inkscape-font-specification:Helvetica">M</tspan></text>
</g><g
         id="g40"><g
           clip-path="url(#clipPath44)"
           id="g42"><g
             transform="matrix(1042.8,0,0,-4.8,-1860.12,406.28)"
             id="g48"><rect
               width="1"
               height="1"
               x="0"
               y="0"
               transform="matrix(1,0,0,-1,0,1)"
               id="rect50"
               style="fill:#000000;fill-opacity:1;fill-rule:nonzero" /></g></g></g><g
         transform="scale(10,10)"
         id="g52"><text
           transform="matrix(1,0,0,-1,272.564,0.45)"
           id="text54"><tspan
             x="0"
             y="0"
             id="tspan56"
             style="font-size:17.2154007px;font-variant:normal;font-weight:normal;writing-mode:lr-tb;fill:#000000;fill-opacity:1;fill-rule:nonzero;stroke:none;font-family:CMMI12;-inkscape-font-specification:CMMI12">t</tspan></text>
</g><g
         id="g58"><g
           clip-path="url(#clipPath62)"
           id="g60"><g
             transform="matrix(373.2,0,0,-7.2,-1202.52,-235.72)"
             id="g66"><rect
               width="1"
               height="1"
               x="0"
               y="0"
               transform="matrix(1,0,0,-1,0,1)"
               id="rect68"
               style="fill:#000000;fill-opacity:1;fill-rule:nonzero" /></g><g
             transform="matrix(384,0,0,-7.2,-1212.12,-611.32)"
             id="g70"><rect
               width="1"
               height="1"
               x="0"
               y="0"
               transform="matrix(1,0,0,-1,0,1)"
               id="rect72"
               style="fill:#000000;fill-opacity:1;fill-rule:nonzero" /></g></g></g></g></g></svg>