<?xml version="1.0" encoding="UTF-8" standalone="no"?>
<!-- Created with Inkscape (http://www.inkscape.org/) -->

<svg
   xmlns:dc="http://purl.org/dc/elements/1.1/"
   xmlns:cc="http://creativecommons.org/ns#"
   xmlns:rdf="http://www.w3.org/1999/02/22-rdf-syntax-ns#"
   xmlns:svg="http://www.w3.org/2000/svg"
   xmlns="http://www.w3.org/2000/svg"
   xmlns:inkscape="http://www.inkscape.org/namespaces/inkscape"
   version="1.1"
   width="287.67365"
   height="308.93594"
   id="svg2"
   xml:space="preserve"><metadata
     id="metadata8"><rdf:RDF><cc:Work
         rdf:about=""><dc:format>image/svg+xml</dc:format><dc:type
           rdf:resource="http://purl.org/dc/dcmitype/StillImage" /></cc:Work></rdf:RDF></metadata><defs
     id="defs6" /><g
     transform="matrix(1.25,0,0,-1.25,0,308.93593)"
     id="g10"><g
       id="g12"><g
         transform="matrix(1,0,0,-1,0,247.14874)"
         id="g14"><path
           d="m 4.023,225.305 224.661,0"
           inkscape:connector-curvature="0"
           id="path16"
           style="fill:none;stroke:#000000;stroke-width:0.80000001;stroke-linecap:butt;stroke-linejoin:miter;stroke-miterlimit:4;stroke-opacity:1;stroke-dasharray:none" /></g><g
         transform="matrix(-1,0,0,1,0,247.14874)"
         id="g18"><path
           d="m -220.684,-225.305 3.2,-3.199 -11.2,3.199 11.2,3.2 -3.2,-3.2 z"
           inkscape:connector-curvature="0"
           id="path20"
           style="fill:#000000;fill-opacity:1;fill-rule:evenodd;stroke:#000000;stroke-width:0.80000001;stroke-linecap:butt;stroke-linejoin:miter;stroke-miterlimit:4;stroke-opacity:1;stroke-dasharray:none" /></g><g
         transform="matrix(1,0,0,-1,0,247.14874)"
         id="g22"><path
           d="m 16.148,236.621 0,-235.164"
           inkscape:connector-curvature="0"
           id="path24"
           style="fill:none;stroke:#000000;stroke-width:0.80000001;stroke-linecap:butt;stroke-linejoin:miter;stroke-miterlimit:4;stroke-opacity:1;stroke-dasharray:none" /></g><g
         transform="matrix(0,-1,-1,0,0,247.14874)"
         id="g26"><path
           d="m 9.457,-16.148 3.199,-3.2 -11.199,3.2 11.199,3.203 -3.199,-3.203 z"
           inkscape:connector-curvature="0"
           id="path28"
           style="fill:#000000;fill-opacity:1;fill-rule:evenodd;stroke:#000000;stroke-width:0.80000001;stroke-linecap:butt;stroke-linejoin:miter;stroke-miterlimit:4;stroke-opacity:1;stroke-dasharray:none" /></g><path
         d="m 59.199,218.746 106.414,0 0,-120.738 -106.414,0 0,120.738 z"
         inkscape:connector-curvature="0"
         id="path30"
         style="fill:#000000;fill-opacity:0.21568598;fill-rule:nonzero;stroke:none" /><g
         transform="matrix(1,0,0,-1,0,247.14874)"
         id="g32"><path
           d="m 59.199,28.402 106.414,0 0,120.738 -106.414,0 0,-120.738 z"
           inkscape:connector-curvature="0"
           id="path34"
           style="fill:none;stroke:#000000;stroke-width:0.80000001;stroke-linecap:butt;stroke-linejoin:miter;stroke-miterlimit:4;stroke-opacity:1;stroke-dasharray:none" /></g><g
         transform="matrix(1,0,0,-1,0,247.14874)"
         id="g36"><path
           d="m 59.199,149.551 0,79.808"
           inkscape:connector-curvature="0"
           id="path38"
           style="fill:none;stroke:#000000;stroke-width:0.80000001;stroke-linecap:butt;stroke-linejoin:miter;stroke-miterlimit:4;stroke-opacity:1;stroke-dasharray:2.4, 2.4;stroke-dashoffset:0" /></g><g
         transform="matrix(1,0,0,-1,0,247.14874)"
         id="g40"><path
           d="m 165.613,149.551 0,78.992"
           inkscape:connector-curvature="0"
           id="path42"
           style="fill:none;stroke:#000000;stroke-width:0.80000001;stroke-linecap:butt;stroke-linejoin:miter;stroke-miterlimit:4;stroke-opacity:1;stroke-dasharray:2.4, 2.4;stroke-dashoffset:0" /></g><g
         transform="matrix(1,0,0,-1,0,247.14874)"
         id="g44"><path
           d="m 57.973,28.402 -45.43,0"
           inkscape:connector-curvature="0"
           id="path46"
           style="fill:none;stroke:#000000;stroke-width:0.80000001;stroke-linecap:butt;stroke-linejoin:miter;stroke-miterlimit:4;stroke-opacity:1;stroke-dasharray:2.4, 2.4;stroke-dashoffset:0" /></g><g
         transform="matrix(1,0,0,-1,0,247.14874)"
         id="g48"><path
           d="m 57.973,149.141 -45.43,0"
           inkscape:connector-curvature="0"
           id="path50"
           style="fill:none;stroke:#000000;stroke-width:0.80000001;stroke-linecap:butt;stroke-linejoin:miter;stroke-miterlimit:4;stroke-opacity:1;stroke-dasharray:2.4, 2.4;stroke-dashoffset:0" /></g></g></g></svg>