<?xml version="1.0" encoding="UTF-8" standalone="no"?>
<!-- Created with Inkscape (http://www.inkscape.org/) -->

<svg
   xmlns:dc="http://purl.org/dc/elements/1.1/"
   xmlns:cc="http://creativecommons.org/ns#"
   xmlns:rdf="http://www.w3.org/1999/02/22-rdf-syntax-ns#"
   xmlns:svg="http://www.w3.org/2000/svg"
   xmlns="http://www.w3.org/2000/svg"
   xmlns:inkscape="http://www.inkscape.org/namespaces/inkscape"
   version="1.1"
   width="433.75"
   height="380"
   id="svg2"
   xml:space="preserve"><metadata
     id="metadata8"><rdf:RDF><cc:Work
         rdf:about=""><dc:format>image/svg+xml</dc:format><dc:type
           rdf:resource="http://purl.org/dc/dcmitype/StillImage" /></cc:Work></rdf:RDF></metadata><defs
     id="defs6"><clipPath
       id="clipPath18"><path
         d="m 0.800781,8.39844 3464.699219,0 0,3025.20156 -3464.699219,0 0,-3025.20156 z"
         inkscape:connector-curvature="0"
         id="path20" /></clipPath></defs><g
     transform="matrix(1.25,0,0,-1.25,0,380)"
     id="g10"><g
       transform="scale(0.1,0.1)"
       id="g12"><g
         id="g14"><g
           clip-path="url(#clipPath18)"
           id="g16"><path
             d="m 129.199,-173.699 32,83.8006 32.102,79.7968 32.097,75.9024 32.102,72.3982 32.102,68.801 32,65.602 32.097,62.398 32.102,59.5 32.097,56.602 32.102,54 32,51.5 32.102,49 32.097,46.699 32.102,44.597 32.097,42.5 32,40.602 32.102,38.699 32.102,36.903 32.097,35.296 32.102,33.704 32,32.199 32.097,30.801 32.102,29.498 32.102,28.2 32.097,27 32,25.9 32.102,24.9 32.099,23.8 32.1,22.9 32.1,22.1 32,21.2 32.1,20.4 32.1,19.7 32.1,19.1 32.1,18.4 32.1,17.9 32,17.3 32.1,16.8 32.1,16.4 32.1,16 32.1,15.6 32,15.3 32.1,15 32.1,14.7 32.1,14.6 32.1,14.4 32,14.2 32.1,14.1 32.1,14 32.1,14 32.1,14.1 32,14 32.1,14.1 32.1,14.2 32.1,14.4 32.1,14.5 32,14.8 32.1,15 32.1,15.3 32.1,15.6 32.1,16 32,16.4 32.1,16.8 32.1,17.3 32.1,17.9 32.1,18.4 32,19.1 32.1,19.7 32.1,20.4 32.1,21.2 32.1,22.1 32.1,22.9 32,23.8 32.1,24.9 32.1,25.9 32.1,27 32.1,28.2 32,29.5 32.1,30.8 32.1,32.2 32.1,33.7 32.1,35.3 32,36.9 32.1,38.7 32.1,40.6 32.1,42.5 32.1,44.6 32,46.7 32.1,49 32.1,51.5 32.1,54 32.1,56.6 32,59.5 32.1,62.4 32.1,65.6 32.1,68.8 32.1,72.4 32,75.9 32.1,79.8 32.1,83.8"
             inkscape:connector-curvature="0"
             id="path22"
             style="fill:none;stroke:#000000;stroke-width:7.5;stroke-linecap:round;stroke-linejoin:round;stroke-miterlimit:10;stroke-opacity:1;stroke-dasharray:none" /><path
             d="M 0.800781,1521 3465.5,1521"
             inkscape:connector-curvature="0"
             id="path24"
             style="fill:none;stroke:#000000;stroke-width:7.5;stroke-linecap:round;stroke-linejoin:round;stroke-miterlimit:10;stroke-opacity:1;stroke-dasharray:none" /><path
             d="m 1733.2,8.39844 0,3025.20156"
             inkscape:connector-curvature="0"
             id="path26"
             style="fill:none;stroke:#000000;stroke-width:7.5;stroke-linecap:round;stroke-linejoin:round;stroke-miterlimit:10;stroke-opacity:1;stroke-dasharray:none" /></g></g></g></g></svg>