<?xml version="1.0" encoding="UTF-8" standalone="no"?>
<!-- Created with Inkscape (http://www.inkscape.org/) -->

<svg
   xmlns:dc="http://purl.org/dc/elements/1.1/"
   xmlns:cc="http://creativecommons.org/ns#"
   xmlns:rdf="http://www.w3.org/1999/02/22-rdf-syntax-ns#"
   xmlns:svg="http://www.w3.org/2000/svg"
   xmlns="http://www.w3.org/2000/svg"
   xmlns:inkscape="http://www.inkscape.org/namespaces/inkscape"
   version="1.1"
   width="404.24045"
   height="372.81589"
   id="svg2"
   xml:space="preserve"><metadata
     id="metadata8"><rdf:RDF><cc:Work
         rdf:about=""><dc:format>image/svg+xml</dc:format><dc:type
           rdf:resource="http://purl.org/dc/dcmitype/StillImage" /></cc:Work></rdf:RDF></metadata><defs
     id="defs6" /><g
     transform="matrix(1.25,0,0,-1.25,0,372.81589)"
     id="g10"><g
       id="g12"><g
         transform="matrix(1,0,0,-1,0,298.25272)"
         id="g14"><path
           d="m 48.215,297.359 95.629,-74.144 178.094,0"
           inkscape:connector-curvature="0"
           id="path16"
           style="fill:none;stroke:#000000;stroke-width:0.80000001;stroke-linecap:butt;stroke-linejoin:miter;stroke-miterlimit:4;stroke-opacity:1;stroke-dasharray:none" /></g><g
         transform="matrix(1,0.775362,0.775362,-1,0,298.25272)"
         id="g18"><path
           d="m -107.561,209.058 2.53,-2.527 -8.851,2.529 8.851,2.53 -2.53,-2.532 z"
           inkscape:connector-curvature="0"
           id="path20"
           style="fill:#000000;fill-opacity:1;fill-rule:evenodd;stroke:#000000;stroke-width:0.63222098;stroke-linecap:butt;stroke-linejoin:miter;stroke-miterlimit:4;stroke-opacity:1;stroke-dasharray:none" /></g><g
         transform="matrix(-1,0,0,1,0,298.25272)"
         id="g22"><path
           d="m -313.938,-223.215 3.2,-3.199 -11.2,3.199 11.2,3.203 -3.2,-3.203 z"
           inkscape:connector-curvature="0"
           id="path24"
           style="fill:#000000;fill-opacity:1;fill-rule:evenodd;stroke:#000000;stroke-width:0.80000001;stroke-linecap:butt;stroke-linejoin:miter;stroke-miterlimit:4;stroke-opacity:1;stroke-dasharray:none" /></g><g
         transform="matrix(1,0,0,-1,0,298.25272)"
         id="g26"><path
           d="m 143.844,223.207 0,-221.75"
           inkscape:connector-curvature="0"
           id="path28"
           style="fill:none;stroke:#000000;stroke-width:0.80000001;stroke-linecap:butt;stroke-linejoin:miter;stroke-miterlimit:4;stroke-opacity:1;stroke-dasharray:none" /></g><g
         transform="matrix(0,-1,-1,0,0,298.25272)"
         id="g30"><path
           d="m 9.457,-143.844 3.199,-3.199 -11.199,3.199 11.199,3.199 -3.199,-3.199 z"
           inkscape:connector-curvature="0"
           id="path32"
           style="fill:#000000;fill-opacity:1;fill-rule:evenodd;stroke:#000000;stroke-width:0.80000001;stroke-linecap:butt;stroke-linejoin:miter;stroke-miterlimit:4;stroke-opacity:1;stroke-dasharray:none" /></g><g
         transform="matrix(1,0,0,-1,0,298.25272)"
         id="g34"><path
           d="m 287.289,222.52 c 0,27.171 -64.223,49.203 -143.445,49.203 -79.223,0 -143.446,-22.032 -143.446,-49.203 0,-27.172 64.223,-49.2 143.446,-49.2 79.222,0 143.445,22.028 143.445,49.2"
           inkscape:connector-curvature="0"
           id="path36"
           style="fill:none;stroke:#000000;stroke-width:0.80000001;stroke-linecap:butt;stroke-linejoin:miter;stroke-miterlimit:4;stroke-opacity:1;stroke-dasharray:3.2, 3.2;stroke-dashoffset:0" /></g><g
         transform="matrix(1,0,0,-1,0,298.25272)"
         id="g38"><path
           d="m 0.555,221.414 c 0.144,-51.836 27.691,-99.641 72.222,-125.351 44.536,-25.708 99.266,-25.399 143.516,0.808 44.246,26.207 71.262,74.32 70.836,126.152"
           inkscape:connector-curvature="0"
           id="path40"
           style="fill:none;stroke:#000000;stroke-width:0.80000001;stroke-linecap:butt;stroke-linejoin:miter;stroke-miterlimit:4;stroke-opacity:1;stroke-dasharray:none" /></g></g></g></svg>