<?xml version="1.0" encoding="UTF-8" standalone="no"?>
<!-- Created with Inkscape (http://www.inkscape.org/) -->

<svg
   xmlns:dc="http://purl.org/dc/elements/1.1/"
   xmlns:cc="http://creativecommons.org/ns#"
   xmlns:rdf="http://www.w3.org/1999/02/22-rdf-syntax-ns#"
   xmlns:svg="http://www.w3.org/2000/svg"
   xmlns="http://www.w3.org/2000/svg"
   xmlns:inkscape="http://www.inkscape.org/namespaces/inkscape"
   version="1.1"
   width="457.46277"
   height="405.97379"
   id="svg2"
   xml:space="preserve"><metadata
     id="metadata8"><rdf:RDF><cc:Work
         rdf:about=""><dc:format>image/svg+xml</dc:format><dc:type
           rdf:resource="http://purl.org/dc/dcmitype/StillImage" /></cc:Work></rdf:RDF></metadata><defs
     id="defs6" /><g
     transform="matrix(1.25,0,0,-1.25,0,405.97378)"
     id="g10"><g
       id="g12"><g
         transform="matrix(1,0,0,-1,0,324.77902)"
         id="g14"><path
           d="m 0,306.523 328.098,0"
           inkscape:connector-curvature="0"
           id="path16"
           style="fill:none;stroke:#000000;stroke-width:0.80000001;stroke-linecap:butt;stroke-linejoin:miter;stroke-miterlimit:4;stroke-opacity:1;stroke-dasharray:none" /></g><g
         transform="matrix(-1,0,0,1,0,324.77902)"
         id="g18"><path
           d="m -320.098,-306.523 3.2,-3.2 -11.2,3.2 11.2,3.203 -3.2,-3.203 z"
           inkscape:connector-curvature="0"
           id="path20"
           style="fill:#000000;fill-opacity:1;fill-rule:evenodd;stroke:#000000;stroke-width:0.80000001;stroke-linecap:butt;stroke-linejoin:miter;stroke-miterlimit:4;stroke-opacity:1;stroke-dasharray:none" /></g><g
         transform="matrix(1,0,0,-1,0,324.77902)"
         id="g22"><path
           d="M 8.891,314.602 129.301,194.191"
           inkscape:connector-curvature="0"
           id="path24"
           style="fill:none;stroke:#000000;stroke-width:0.80000001;stroke-linecap:butt;stroke-linejoin:miter;stroke-miterlimit:4;stroke-opacity:1;stroke-dasharray:none" /></g><g
         transform="matrix(-1,-1,-1,1,0,324.77902)"
         id="g26"><path
           d="m 38.104,-161.748 2.261,-2.262 -7.92,2.264 7.922,2.262 -2.263,-2.264 z"
           inkscape:connector-curvature="0"
           id="path28"
           style="fill:#000000;fill-opacity:1;fill-rule:evenodd;stroke:#000000;stroke-width:0.56568497;stroke-linecap:butt;stroke-linejoin:miter;stroke-miterlimit:4;stroke-opacity:1;stroke-dasharray:none" /></g><path
         d="m 214.961,112.806 c -44.379,-1.672 -80.793,-9.984 -99.398,-33.132 -15.149,-19.082 -1.086,-29.516 17.777,-34.75 34.594,-7.36 62.902,-14.989 97.781,-8.887 18.195,4.137 10.961,15.461 8.082,25.051 -8.34,28.613 27.305,8.449 56.57,28.285 9.52,6.605 25.61,14.82 -27.476,21.011 -30.266,1.586 -33.945,4.04 -53.336,2.422 z"
         inkscape:connector-curvature="0"
         id="path30"
         style="fill:#000000;fill-opacity:0.21568598;fill-rule:evenodd;stroke:none" /><g
         transform="matrix(1,0,0,-1,0,324.77902)"
         id="g32"><path
           d="m 214.961,211.973 c -44.379,1.672 -80.793,9.984 -99.398,33.132 -15.149,19.083 -1.086,29.516 17.777,34.75 34.594,7.36 62.902,14.989 97.781,8.887 18.195,-4.137 10.961,-15.461 8.082,-25.051 -8.34,-28.613 27.305,-8.449 56.57,-28.285 9.52,-6.605 25.61,-14.82 -27.476,-21.011 -30.266,-1.586 -33.945,-4.04 -53.336,-2.422 z"
           inkscape:connector-curvature="0"
           id="path34"
           style="fill:none;stroke:#000000;stroke-width:0.80000001;stroke-linecap:butt;stroke-linejoin:miter;stroke-miterlimit:4;stroke-opacity:1;stroke-dasharray:none" /></g><g
         transform="matrix(1,0,0,-1,0,324.77902)"
         id="g36"><path
           d="m 16.969,319.453 0,-317.996"
           inkscape:connector-curvature="0"
           id="path38"
           style="fill:none;stroke:#000000;stroke-width:0.80000001;stroke-linecap:butt;stroke-linejoin:miter;stroke-miterlimit:4;stroke-opacity:1;stroke-dasharray:none" /></g><g
         transform="matrix(0,-1,-1,0,0,324.77902)"
         id="g40"><path
           d="m 9.457,-16.969 3.199,-3.203 -11.199,3.203 11.199,3.199 -3.199,-3.199 z"
           inkscape:connector-curvature="0"
           id="path42"
           style="fill:#000000;fill-opacity:1;fill-rule:evenodd;stroke:#000000;stroke-width:0.80000001;stroke-linecap:butt;stroke-linejoin:miter;stroke-miterlimit:4;stroke-opacity:1;stroke-dasharray:none" /></g><g
         transform="matrix(1,0,0,-1,0,324.77902)"
         id="g44"><path
           d="m 109.098,177.664 0,-109.098"
           inkscape:connector-curvature="0"
           id="path46"
           style="fill:none;stroke:#000000;stroke-width:0.80000001;stroke-linecap:butt;stroke-linejoin:miter;stroke-miterlimit:4;stroke-opacity:1;stroke-dasharray:none" /></g><g
         transform="matrix(1,0,0,-1,0,324.77902)"
         id="g48"><path
           d="m 305.875,143.316 0,-89.296"
           inkscape:connector-curvature="0"
           id="path50"
           style="fill:none;stroke:#000000;stroke-width:0.80000001;stroke-linecap:butt;stroke-linejoin:miter;stroke-miterlimit:4;stroke-opacity:1;stroke-dasharray:none" /></g><path
         d="m 214.961,194.408 c -44.379,-1.676 -80.793,-9.984 -99.398,-33.133 -15.149,-19.086 -1.086,-29.516 17.777,-34.75 34.594,-7.363 62.902,-14.992 97.781,-8.891 18.195,4.141 10.961,15.465 8.082,25.055 -8.34,28.61 27.305,8.445 56.57,28.281 9.52,6.61 25.61,14.825 -27.476,21.012 -30.266,1.59 -33.945,4.043 -53.336,2.426 z"
         inkscape:connector-curvature="0"
         id="path52"
         style="fill:#000000;fill-opacity:0.21568598;fill-rule:evenodd;stroke:none" /><g
         transform="matrix(1,0,0,-1,0,324.77902)"
         id="g54"><path
           d="m 214.961,130.371 c -44.379,1.676 -80.793,9.984 -99.398,33.133 -15.149,19.086 -1.086,29.516 17.777,34.75 34.594,7.363 62.902,14.992 97.781,8.891 18.195,-4.141 10.961,-15.465 8.082,-25.055 -8.34,-28.61 27.305,-8.445 56.57,-28.281 9.52,-6.61 25.61,-14.825 -27.476,-21.012 -30.266,-1.59 -33.945,-4.043 -53.336,-2.426 z"
           inkscape:connector-curvature="0"
           id="path56"
           style="fill:none;stroke:#000000;stroke-width:0.80000001;stroke-linecap:butt;stroke-linejoin:miter;stroke-miterlimit:4;stroke-opacity:1;stroke-dasharray:none" /></g></g></g></svg>