<?xml version="1.0" encoding="UTF-8" standalone="no"?>
<!-- Created with Inkscape (http://www.inkscape.org/) -->

<svg
   xmlns:dc="http://purl.org/dc/elements/1.1/"
   xmlns:cc="http://creativecommons.org/ns#"
   xmlns:rdf="http://www.w3.org/1999/02/22-rdf-syntax-ns#"
   xmlns:svg="http://www.w3.org/2000/svg"
   xmlns="http://www.w3.org/2000/svg"
   xmlns:inkscape="http://www.inkscape.org/namespaces/inkscape"
   version="1.1"
   width="305.84698"
   height="311.6658"
   id="svg2"
   xml:space="preserve"><metadata
     id="metadata8"><rdf:RDF><cc:Work
         rdf:about=""><dc:format>image/svg+xml</dc:format><dc:type
           rdf:resource="http://purl.org/dc/dcmitype/StillImage" /></cc:Work></rdf:RDF></metadata><defs
     id="defs6" /><g
     transform="matrix(1.25,0,0,-1.25,0,311.6658)"
     id="g10"><g
       id="g12"><g
         transform="matrix(1,0,0,-1,0,249.33264)"
         id="g14"><path
           d="m 0,229.754 224.656,0"
           inkscape:connector-curvature="0"
           id="path16"
           style="fill:none;stroke:#000000;stroke-width:0.80000001;stroke-linecap:butt;stroke-linejoin:miter;stroke-miterlimit:4;stroke-opacity:1;stroke-dasharray:none" /></g><g
         transform="matrix(-1,0,0,1,0,249.33264)"
         id="g18"><path
           d="m -216.656,-229.754 3.199,-3.199 -11.199,3.199 11.199,3.199 -3.199,-3.199 z"
           inkscape:connector-curvature="0"
           id="path20"
           style="fill:#000000;fill-opacity:1;fill-rule:evenodd;stroke:#000000;stroke-width:0.80000001;stroke-linecap:butt;stroke-linejoin:miter;stroke-miterlimit:4;stroke-opacity:1;stroke-dasharray:none" /></g><g
         transform="matrix(1,0,0,-1,0,249.33264)"
         id="g22"><path
           d="m 12.121,241.066 0,-235.164"
           inkscape:connector-curvature="0"
           id="path24"
           style="fill:none;stroke:#000000;stroke-width:0.80000001;stroke-linecap:butt;stroke-linejoin:miter;stroke-miterlimit:4;stroke-opacity:1;stroke-dasharray:none" /></g><g
         transform="matrix(0,-1,-1,0,0,249.33264)"
         id="g26"><path
           d="m 13.902,-12.121 3.203,-3.199 -11.203,3.199 11.203,3.199 -3.203,-3.199 z"
           inkscape:connector-curvature="0"
           id="path28"
           style="fill:#000000;fill-opacity:1;fill-rule:evenodd;stroke:#000000;stroke-width:0.80000001;stroke-linecap:butt;stroke-linejoin:miter;stroke-miterlimit:4;stroke-opacity:1;stroke-dasharray:none" /></g><path
         d="m 47.137,176.184 c 14.238,26.231 42.89,25.567 73.261,21.692 29.153,-4.051 45.383,9.664 66.711,16.371 l 0,-86.36 C 162.066,129.118 144.512,96.657 125.719,69.77 107.715,45.008 81.188,40.036 47.137,75.501 l 0,100.683 z"
         inkscape:connector-curvature="0"
         id="path30"
         style="fill:#000000;fill-opacity:0.21568598;fill-rule:evenodd;stroke:none" /><g
         transform="matrix(1,0,0,-1,0,249.33264)"
         id="g32"><path
           d="m 47.137,73.148 c 14.238,-26.23 42.89,-25.566 73.261,-21.691 29.153,4.051 45.383,-9.664 66.711,-16.371 l 0,86.359 c -25.043,-1.23 -42.597,31.231 -61.39,58.118 -18.004,24.761 -44.531,29.734 -78.582,-5.731 l 0,-100.684 z"
           inkscape:connector-curvature="0"
           id="path34"
           style="fill:none;stroke:#000000;stroke-width:0.80000001;stroke-linecap:butt;stroke-linejoin:miter;stroke-miterlimit:4;stroke-opacity:1;stroke-dasharray:none" /></g></g></g></svg>