<?xml version="1.0" encoding="UTF-8" standalone="no"?>
<!-- Created with Inkscape (http://www.inkscape.org/) -->

<svg
   xmlns:dc="http://purl.org/dc/elements/1.1/"
   xmlns:cc="http://creativecommons.org/ns#"
   xmlns:rdf="http://www.w3.org/1999/02/22-rdf-syntax-ns#"
   xmlns:svg="http://www.w3.org/2000/svg"
   xmlns="http://www.w3.org/2000/svg"
   xmlns:inkscape="http://www.inkscape.org/namespaces/inkscape"
   version="1.1"
   width="455"
   height="333.75"
   id="svg2"
   xml:space="preserve"><metadata
     id="metadata8"><rdf:RDF><cc:Work
         rdf:about=""><dc:format>image/svg+xml</dc:format><dc:type
           rdf:resource="http://purl.org/dc/dcmitype/StillImage" /></cc:Work></rdf:RDF></metadata><defs
     id="defs6"><clipPath
       id="clipPath16"><path
         d="m 0,0 595.276,0 0,841.89 L 0,841.89 0,0 z"
         inkscape:connector-curvature="0"
         id="path18" /></clipPath><clipPath
       id="clipPath20"><path
         d="m 0,0 362.83926,0 0,272.10782 L 0,272.10782 0,0 z"
         inkscape:connector-curvature="0"
         id="path22" /></clipPath><clipPath
       id="clipPath24"><path
         d="m 0,0 362.83926,0 0,272.10782 L 0,272.10782 0,0 z"
         inkscape:connector-curvature="0"
         id="path26" /></clipPath></defs><g
     transform="matrix(1.25,0,0,-1.25,0,333.75)"
     id="g10"><g
       transform="translate(-70,-501)"
       id="g12"><g
         id="g14" /><g
         id="g28"><g
           clip-path="url(#clipPath16)"
           id="g30"><g
             transform="translate(70.866,498.916)"
             id="g32"><g
               transform="scale(1.00003,1.00003)"
               id="g34"><g
                 id="g36"><g
                   id="g38" /><g
                   id="g40"><g
                     clip-path="url(#clipPath20)"
                     id="g42"><g
                       id="g44"><g
                         transform="matrix(1,0,0,-1,0,272.10782)"
                         id="g46"><path
                           d="m 0,253.852 328.098,0"
                           inkscape:connector-curvature="0"
                           id="path48"
                           style="fill:none;stroke:#000000;stroke-width:0.80000001;stroke-linecap:butt;stroke-linejoin:miter;stroke-miterlimit:4;stroke-opacity:1;stroke-dasharray:none" /></g><g
                         transform="matrix(-1,0,0,1,0,272.10782)"
                         id="g50"><path
                           d="m -320.098,-253.852 3.2,-3.199 -11.2,3.199 11.2,3.2 -3.2,-3.2 z"
                           inkscape:connector-curvature="0"
                           id="path52"
                           style="fill:#000000;fill-opacity:1;fill-rule:evenodd;stroke:#000000;stroke-width:0.80000001;stroke-linecap:butt;stroke-linejoin:miter;stroke-miterlimit:4;stroke-opacity:1;stroke-dasharray:none" /></g><g
                         transform="matrix(1,0,0,-1,0,272.10782)"
                         id="g54"><path
                           d="M 8.891,261.934 129.301,141.523"
                           inkscape:connector-curvature="0"
                           id="path56"
                           style="fill:none;stroke:#000000;stroke-width:0.80000001;stroke-linecap:butt;stroke-linejoin:miter;stroke-miterlimit:4;stroke-opacity:1;stroke-dasharray:none" /></g><g
                         transform="matrix(-1,-1,-1,1,0,272.10782)"
                         id="g58"><path
                           d="m 11.768,-135.412 2.261,-2.262 -7.918,2.262 7.92,2.264 -2.263,-2.264 z"
                           inkscape:connector-curvature="0"
                           id="path60"
                           style="fill:#000000;fill-opacity:1;fill-rule:evenodd;stroke:#000000;stroke-width:0.56568497;stroke-linecap:butt;stroke-linejoin:miter;stroke-miterlimit:4;stroke-opacity:1;stroke-dasharray:none" /></g><path
                         d="m 214.961,112.807 c -44.379,-1.672 -80.793,-9.984 -99.398,-33.133 -15.149,-19.086 -1.086,-29.515 17.777,-34.75 34.594,-7.359 62.902,-14.988 97.781,-8.886 18.195,4.136 10.961,15.46 8.082,25.05 -8.34,28.61 27.305,8.45 56.57,28.285 9.52,6.606 25.61,14.821 -27.476,21.008 -30.266,1.59 -33.945,4.043 -53.336,2.426 z"
                         inkscape:connector-curvature="0"
                         id="path62"
                         style="fill:#000000;fill-opacity:0.21568598;fill-rule:evenodd;stroke:none" /><g
                         transform="matrix(1,0,0,-1,0,272.10782)"
                         id="g64"><path
                           d="m 214.961,159.301 c -44.379,1.672 -80.793,9.984 -99.398,33.133 -15.149,19.086 -1.086,29.515 17.777,34.75 34.594,7.359 62.902,14.988 97.781,8.886 18.195,-4.136 10.961,-15.461 8.082,-25.05 -8.34,-28.61 27.305,-8.45 56.57,-28.286 9.52,-6.605 25.61,-14.82 -27.476,-21.007 -30.266,-1.59 -33.945,-4.043 -53.336,-2.426 z"
                           inkscape:connector-curvature="0"
                           id="path66"
                           style="fill:none;stroke:#000000;stroke-width:0.80000001;stroke-linecap:butt;stroke-linejoin:miter;stroke-miterlimit:4;stroke-opacity:1;stroke-dasharray:none" /></g><g
                         transform="matrix(1,0,0,-1,0,272.10782)"
                         id="g68"><path
                           d="m 16.969,266.781 0,-243.246"
                           inkscape:connector-curvature="0"
                           id="path70"
                           style="fill:none;stroke:#000000;stroke-width:0.80000001;stroke-linecap:butt;stroke-linejoin:miter;stroke-miterlimit:4;stroke-opacity:1;stroke-dasharray:none" /></g><g
                         transform="matrix(0,-1,-1,0,0,272.10782)"
                         id="g72"><path
                           d="m 31.535,-16.969 3.199,-3.203 -11.199,3.203 11.199,3.199 -3.199,-3.199 z"
                           inkscape:connector-curvature="0"
                           id="path74"
                           style="fill:#000000;fill-opacity:1;fill-rule:evenodd;stroke:#000000;stroke-width:0.80000001;stroke-linecap:butt;stroke-linejoin:miter;stroke-miterlimit:4;stroke-opacity:1;stroke-dasharray:none" /></g><g
                         transform="matrix(1,0,0,-1,0,272.10782)"
                         id="g76"><path
                           d="m 109.098,208.191 0,-115.562"
                           inkscape:connector-curvature="0"
                           id="path78"
                           style="fill:none;stroke:#000000;stroke-width:0.80000001;stroke-linecap:butt;stroke-linejoin:miter;stroke-miterlimit:4;stroke-opacity:1;stroke-dasharray:none" /></g><g
                         transform="matrix(1,0,0,-1,0,272.10782)"
                         id="g80"><path
                           d="m 305.875,173.039 0,-115.156"
                           inkscape:connector-curvature="0"
                           id="path82"
                           style="fill:none;stroke:#000000;stroke-width:0.80000001;stroke-linecap:butt;stroke-linejoin:miter;stroke-miterlimit:4;stroke-opacity:1;stroke-dasharray:none" /></g><g
                         transform="matrix(1,0,0,-1,0,272.10782)"
                         id="g84"><path
                           d="m 214.961,44.102 c -44.379,1.671 -80.793,9.98 -99.398,33.132 -15.149,19.082 -1.086,29.516 17.777,34.75 34.594,7.36 62.902,14.989 97.781,8.887 18.195,-4.137 10.961,-15.461 8.082,-25.051 -8.34,-28.613 27.305,-8.449 56.57,-28.285 9.52,-6.609 25.61,-14.82 -27.476,-21.012 -30.266,-1.585 -33.945,-4.039 -53.336,-2.421 z"
                           inkscape:connector-curvature="0"
                           id="path86"
                           style="fill:none;stroke:#000000;stroke-width:0.80000001;stroke-linecap:butt;stroke-linejoin:miter;stroke-miterlimit:4;stroke-opacity:1;stroke-dasharray:none" /></g></g></g></g></g></g><g
               transform="translate(-70.866,-498.916)"
               id="g88"><text
                 transform="matrix(1,0,0,-1,252.268,571.666)"
                 id="text90"><tspan
                   x="0"
                   y="0"
                   id="tspan92"
                   style="font-size:11.9552002px;font-variant:normal;font-weight:normal;writing-mode:lr-tb;fill:#000000;fill-opacity:1;fill-rule:nonzero;stroke:none;font-family:LMMathItalic12;-inkscape-font-specification:LMMathItalic12-Regular">R</tspan></text>
<g
                 transform="translate(70.866,498.916)"
                 id="g94"><g
                   transform="scale(1.00003,1.00003)"
                   id="g96"><g
                     id="g98"><g
                       id="g100" /><g
                       id="g102"><g
                         clip-path="url(#clipPath24)"
                         id="g104"><g
                           id="g106"><path
                             d="m 16.969,140.686 c 30.453,36.5 59.015,73.375 115.562,104.652 40.492,24.641 152.11,0.614 229.508,0 -22.246,-29.332 -42.586,-60.441 -48.891,-104.652 -105.925,-9.676 -249.21,24.777 -296.179,0 z"
                             inkscape:connector-curvature="0"
                             id="path108"
                             style="fill:#000000;fill-opacity:0.352941;fill-rule:evenodd;stroke:none" /><g
                             transform="matrix(1,0,0,-1,0,272.10782)"
                             id="g110"><path
                               d="M 16.969,131.422 C 47.422,94.922 75.984,58.047 132.531,26.77 c 40.492,-24.641 152.11,-0.614 229.508,0 -22.246,29.332 -42.586,60.441 -48.891,104.652 -105.925,9.676 -249.21,-24.777 -296.179,0 z"
                               inkscape:connector-curvature="0"
                               id="path112"
                               style="fill:none;stroke:#000000;stroke-width:0.80000001;stroke-linecap:butt;stroke-linejoin:miter;stroke-miterlimit:4;stroke-opacity:1;stroke-dasharray:none" /></g></g></g></g></g></g><g
                   transform="translate(-70.866,-498.916)"
                   id="g114"><text
                     transform="matrix(1,0,0,-1,253.868,758.865)"
                     id="text116"><tspan
                       x="0"
                       y="0"
                       id="tspan118"
                       style="font-size:11.9552002px;font-variant:normal;font-weight:normal;writing-mode:lr-tb;fill:#000000;fill-opacity:1;fill-rule:nonzero;stroke:none;font-family:LMMathItalic12;-inkscape-font-specification:LMMathItalic12-Regular">z</tspan></text>
<text
                     transform="matrix(1,0,0,-1,263.16,758.865)"
                     id="text120"><tspan
                       x="0"
                       y="0"
                       id="tspan122"
                       style="font-size:11.9552002px;font-variant:normal;font-weight:normal;writing-mode:lr-tb;fill:#000000;fill-opacity:1;fill-rule:nonzero;stroke:none;font-family:LMRoman12;-inkscape-font-specification:LMRoman12-Regular">=</tspan></text>
<text
                     transform="matrix(1,0,0,-1,275.586,758.865)"
                     id="text124"><tspan
                       x="0"
                       y="0"
                       id="tspan126"
                       style="font-size:11.9552002px;font-variant:normal;font-weight:normal;writing-mode:lr-tb;fill:#000000;fill-opacity:1;fill-rule:nonzero;stroke:none;font-family:LMMathItalic12;-inkscape-font-specification:LMMathItalic12-Regular">f</tspan></text>
<text
                     transform="matrix(1,0,0,-1,282.632,758.865)"
                     id="text128"><tspan
                       x="0"
                       y="0"
                       id="tspan130"
                       style="font-size:11.9552002px;font-variant:normal;font-weight:normal;writing-mode:lr-tb;fill:#000000;fill-opacity:1;fill-rule:nonzero;stroke:none;font-family:LMRoman12;-inkscape-font-specification:LMRoman12-Regular">(</tspan></text>
<text
                     transform="matrix(1,0,0,-1,287.184,758.865)"
                     id="text132"><tspan
                       x="0 6.6518731 11.900206"
                       y="0"
                       id="tspan134"
                       style="font-size:11.9552002px;font-variant:normal;font-weight:normal;writing-mode:lr-tb;fill:#000000;fill-opacity:1;fill-rule:nonzero;stroke:none;font-family:LMMathItalic12;-inkscape-font-specification:LMMathItalic12-Regular">x,y</tspan></text>
<text
                     transform="matrix(1,0,0,-1,305.217,758.865)"
                     id="text136"><tspan
                       x="0"
                       y="0"
                       id="tspan138"
                       style="font-size:11.9552002px;font-variant:normal;font-weight:normal;writing-mode:lr-tb;fill:#000000;fill-opacity:1;fill-rule:nonzero;stroke:none;font-family:LMRoman12;-inkscape-font-specification:LMRoman12-Regular">)</tspan></text>
<text
                     transform="matrix(1,0,0,-1,393.067,501.269)"
                     id="text140"><tspan
                       x="0"
                       y="0"
                       id="tspan142"
                       style="font-size:11.9552002px;font-variant:normal;font-weight:normal;writing-mode:lr-tb;fill:#000000;fill-opacity:1;fill-rule:nonzero;stroke:none;font-family:LMMathItalic12;-inkscape-font-specification:LMMathItalic12-Regular">x</tspan><tspan
                       x="-228.054"
                       y="-109.191"
                       id="tspan144"
                       style="font-size:11.9552002px;font-variant:normal;font-weight:normal;writing-mode:lr-tb;fill:#000000;fill-opacity:1;fill-rule:nonzero;stroke:none;font-family:LMMathItalic12;-inkscape-font-specification:LMMathItalic12-Regular">y</tspan><tspan
                       x="-300.38199"
                       y="-246.56799"
                       id="tspan146"
                       style="font-size:11.9552002px;font-variant:normal;font-weight:normal;writing-mode:lr-tb;fill:#000000;fill-opacity:1;fill-rule:nonzero;stroke:none;font-family:LMMathItalic12;-inkscape-font-specification:LMMathItalic12-Regular">z</tspan></text>
</g></g></g></g></g></g></g></g></svg>