<?xml version="1.0" encoding="UTF-8" standalone="no"?>
<!-- Created with Inkscape (http://www.inkscape.org/) -->

<svg
   xmlns:dc="http://purl.org/dc/elements/1.1/"
   xmlns:cc="http://creativecommons.org/ns#"
   xmlns:rdf="http://www.w3.org/1999/02/22-rdf-syntax-ns#"
   xmlns:svg="http://www.w3.org/2000/svg"
   xmlns="http://www.w3.org/2000/svg"
   xmlns:inkscape="http://www.inkscape.org/namespaces/inkscape"
   version="1.1"
   width="406.25"
   height="375"
   id="svg2"
   xml:space="preserve"><metadata
     id="metadata8"><rdf:RDF><cc:Work
         rdf:about=""><dc:format>image/svg+xml</dc:format><dc:type
           rdf:resource="http://purl.org/dc/dcmitype/StillImage" /></cc:Work></rdf:RDF></metadata><defs
     id="defs6"><clipPath
       id="clipPath16"><path
         d="m 0,0 595.276,0 0,841.89 L 0,841.89 0,0 z"
         inkscape:connector-curvature="0"
         id="path18" /></clipPath><clipPath
       id="clipPath20"><path
         d="m 0,0 323.39236,0 0,298.25272 L 0,298.25272 0,0 z"
         inkscape:connector-curvature="0"
         id="path22" /></clipPath><clipPath
       id="clipPath24"><path
         d="m 0,0 323.39236,0 0,298.25272 L 0,298.25272 0,0 z"
         inkscape:connector-curvature="0"
         id="path26" /></clipPath></defs><g
     transform="matrix(1.25,0,0,-1.25,0,375)"
     id="g10"><g
       transform="translate(-70,-472)"
       id="g12"><g
         id="g14" /><g
         id="g28"><g
           clip-path="url(#clipPath16)"
           id="g30"><g
             transform="translate(70.866,472.773)"
             id="g32"><g
               transform="scale(1.00003,1.00003)"
               id="g34"><g
                 id="g36"><g
                   id="g38" /><g
                   id="g40"><g
                     clip-path="url(#clipPath20)"
                     id="g42"><g
                       id="g44"><g
                         transform="matrix(1,0,0,-1,0,298.25272)"
                         id="g46"><path
                           d="m 48.215,297.359 95.629,-74.144 178.094,0"
                           inkscape:connector-curvature="0"
                           id="path48"
                           style="fill:none;stroke:#000000;stroke-width:0.80000001;stroke-linecap:butt;stroke-linejoin:miter;stroke-miterlimit:4;stroke-opacity:1;stroke-dasharray:none" /></g><g
                         transform="matrix(1,0.775362,0.775362,-1,0,298.25272)"
                         id="g50"><path
                           d="m -107.561,209.058 2.53,-2.527 -8.851,2.529 8.851,2.53 -2.53,-2.532 z"
                           inkscape:connector-curvature="0"
                           id="path52"
                           style="fill:#000000;fill-opacity:1;fill-rule:evenodd;stroke:#000000;stroke-width:0.63222098;stroke-linecap:butt;stroke-linejoin:miter;stroke-miterlimit:4;stroke-opacity:1;stroke-dasharray:none" /></g><g
                         transform="matrix(-1,0,0,1,0,298.25272)"
                         id="g54"><path
                           d="m -313.938,-223.215 3.2,-3.199 -11.2,3.199 11.2,3.203 -3.2,-3.203 z"
                           inkscape:connector-curvature="0"
                           id="path56"
                           style="fill:#000000;fill-opacity:1;fill-rule:evenodd;stroke:#000000;stroke-width:0.80000001;stroke-linecap:butt;stroke-linejoin:miter;stroke-miterlimit:4;stroke-opacity:1;stroke-dasharray:none" /></g><g
                         transform="matrix(1,0,0,-1,0,298.25272)"
                         id="g58"><path
                           d="m 143.844,223.207 0,-221.75"
                           inkscape:connector-curvature="0"
                           id="path60"
                           style="fill:none;stroke:#000000;stroke-width:0.80000001;stroke-linecap:butt;stroke-linejoin:miter;stroke-miterlimit:4;stroke-opacity:1;stroke-dasharray:none" /></g><g
                         transform="matrix(0,-1,-1,0,0,298.25272)"
                         id="g62"><path
                           d="m 9.457,-143.844 3.199,-3.199 -11.199,3.199 11.199,3.199 -3.199,-3.199 z"
                           inkscape:connector-curvature="0"
                           id="path64"
                           style="fill:#000000;fill-opacity:1;fill-rule:evenodd;stroke:#000000;stroke-width:0.80000001;stroke-linecap:butt;stroke-linejoin:miter;stroke-miterlimit:4;stroke-opacity:1;stroke-dasharray:none" /></g><g
                         transform="matrix(1,0,0,-1,0,298.25272)"
                         id="g66"><path
                           d="m 287.289,222.52 c 0,27.171 -64.223,49.203 -143.445,49.203 -79.223,0 -143.446,-22.032 -143.446,-49.203 0,-27.172 64.223,-49.2 143.446,-49.2 79.222,0 143.445,22.028 143.445,49.2"
                           inkscape:connector-curvature="0"
                           id="path68"
                           style="fill:none;stroke:#000000;stroke-width:0.80000001;stroke-linecap:butt;stroke-linejoin:miter;stroke-miterlimit:4;stroke-opacity:1;stroke-dasharray:3.2, 3.2;stroke-dashoffset:0" /></g><g
                         transform="matrix(1,0,0,-1,0,298.25272)"
                         id="g70"><path
                           d="m 0.555,221.414 c 0.144,-51.836 27.691,-99.641 72.222,-125.351 44.536,-25.708 99.266,-25.399 143.516,0.808 44.246,26.207 71.262,74.32 70.836,126.152"
                           inkscape:connector-curvature="0"
                           id="path72"
                           style="fill:none;stroke:#000000;stroke-width:0.80000001;stroke-linecap:butt;stroke-linejoin:miter;stroke-miterlimit:4;stroke-opacity:1;stroke-dasharray:none" /></g></g></g></g></g></g><g
               transform="translate(-70.866,-472.773)"
               id="g74"><text
                 transform="matrix(1,0,0,-1,295.88,622.942)"
                 id="text76"><tspan
                   x="0"
                   y="0"
                   id="tspan78"
                   style="font-size:11.9552002px;font-variant:normal;font-weight:normal;writing-mode:lr-tb;fill:#000000;fill-opacity:1;fill-rule:nonzero;stroke:none;font-family:LMMathItalic12;-inkscape-font-specification:LMMathItalic12-Regular">P</tspan></text>
<g
                 transform="translate(70.866,472.773)"
                 id="g80"><g
                   transform="scale(1.00003,1.00003)"
                   id="g82"><g
                     id="g84"><g
                       id="g86" /><g
                       id="g88"><g
                         clip-path="url(#clipPath24)"
                         id="g90"><g
                           id="g92"><g
                             transform="matrix(1,0,0,-1,0,298.25272)"
                             id="g94"><path
                               d="m 220.969,142.313 c 0,1.152 -0.934,2.085 -2.086,2.085 -1.153,0 -2.086,-0.933 -2.086,-2.085 0,-1.157 0.933,-2.09 2.086,-2.09 1.152,0 2.086,0.933 2.086,2.09 z"
                               inkscape:connector-curvature="0"
                               id="path96"
                               style="fill:#000000;fill-opacity:1;fill-rule:nonzero;stroke:#000000;stroke-width:0.80000001;stroke-linecap:butt;stroke-linejoin:miter;stroke-miterlimit:4;stroke-opacity:1;stroke-dasharray:none" /></g><g
                             transform="matrix(1,0,0,-1,0,298.25272)"
                             id="g98"><path
                               d="m 143.832,222.695 74.77,-80.636 0,111.562 -74.77,-30.926 z"
                               inkscape:connector-curvature="0"
                               id="path100"
                               style="fill:none;stroke:#000000;stroke-width:0.80000001;stroke-linecap:butt;stroke-linejoin:miter;stroke-miterlimit:4;stroke-opacity:1;stroke-dasharray:none" /></g><g
                             transform="matrix(1,0,0,-1,0,298.25272)"
                             id="g102"><path
                               d="m 175.203,235.648 c -14.219,3.997 -33.723,4.961 -50.652,2.5"
                               inkscape:connector-curvature="0"
                               id="path104"
                               style="fill:none;stroke:#000000;stroke-width:0.80000001;stroke-linecap:butt;stroke-linejoin:miter;stroke-miterlimit:4;stroke-opacity:1;stroke-dasharray:none" /></g><g
                             transform="matrix(1,0,0,-1,0,298.25272)"
                             id="g106"><path
                               d="m 143.719,152.203 c 16.191,0.106 31.543,9.195 42.043,24.895"
                               inkscape:connector-curvature="0"
                               id="path108"
                               style="fill:none;stroke:#000000;stroke-width:0.80000001;stroke-linecap:butt;stroke-linejoin:miter;stroke-miterlimit:4;stroke-opacity:1;stroke-dasharray:none" /></g><g
                             transform="matrix(1,0,0,-1,0,298.25272)"
                             id="g110"><path
                               d="m 287.289,222.52 c 0,17.578 -27.34,33.82 -71.723,42.609 -44.382,8.789 -99.062,8.789 -143.445,0 C 27.742,256.34 0.398,240.098 0.398,222.52"
                               inkscape:connector-curvature="0"
                               id="path112"
                               style="fill:none;stroke:#000000;stroke-width:0.80000001;stroke-linecap:butt;stroke-linejoin:miter;stroke-miterlimit:4;stroke-opacity:1;stroke-dasharray:none" /></g></g></g></g></g></g><g
                   transform="translate(-70.866,-472.773)"
                   id="g114"><text
                     transform="matrix(1,0,0,-1,235.146,621.886)"
                     id="text116"><tspan
                       x="0"
                       y="0"
                       id="tspan118"
                       style="font-size:11.9552002px;font-variant:normal;font-weight:normal;writing-mode:lr-tb;fill:#000000;fill-opacity:1;fill-rule:nonzero;stroke:none;font-family:LMMathItalic12;-inkscape-font-specification:LMMathItalic12-Regular">ϕ</tspan><tspan
                       x="-23.513"
                       y="107.115"
                       id="tspan120"
                       style="font-size:11.9552002px;font-variant:normal;font-weight:normal;writing-mode:lr-tb;fill:#000000;fill-opacity:1;fill-rule:nonzero;stroke:none;font-family:LMMathItalic12;-inkscape-font-specification:LMMathItalic12-Regular">θ</tspan></text>
</g></g></g></g></g></g></g></g></svg>