<?xml version="1.0" encoding="UTF-8" standalone="no"?>
<!-- Created with Inkscape (http://www.inkscape.org/) -->

<svg
   xmlns:dc="http://purl.org/dc/elements/1.1/"
   xmlns:cc="http://creativecommons.org/ns#"
   xmlns:rdf="http://www.w3.org/1999/02/22-rdf-syntax-ns#"
   xmlns:svg="http://www.w3.org/2000/svg"
   xmlns="http://www.w3.org/2000/svg"
   xmlns:inkscape="http://www.inkscape.org/namespaces/inkscape"
   version="1.1"
   width="453.54907"
   height="340.13477"
   id="svg2"
   xml:space="preserve"><metadata
     id="metadata8"><rdf:RDF><cc:Work
         rdf:about=""><dc:format>image/svg+xml</dc:format><dc:type
           rdf:resource="http://purl.org/dc/dcmitype/StillImage" /></cc:Work></rdf:RDF></metadata><defs
     id="defs6" /><g
     transform="matrix(1.25,0,0,-1.25,0,340.13477)"
     id="g10"><g
       id="g12"><g
         transform="matrix(1,0,0,-1,0,272.10782)"
         id="g14"><path
           d="m 0,253.852 328.098,0"
           inkscape:connector-curvature="0"
           id="path16"
           style="fill:none;stroke:#000000;stroke-width:0.80000001;stroke-linecap:butt;stroke-linejoin:miter;stroke-miterlimit:4;stroke-opacity:1;stroke-dasharray:none" /></g><g
         transform="matrix(-1,0,0,1,0,272.10782)"
         id="g18"><path
           d="m -320.098,-253.852 3.2,-3.199 -11.2,3.199 11.2,3.2 -3.2,-3.2 z"
           inkscape:connector-curvature="0"
           id="path20"
           style="fill:#000000;fill-opacity:1;fill-rule:evenodd;stroke:#000000;stroke-width:0.80000001;stroke-linecap:butt;stroke-linejoin:miter;stroke-miterlimit:4;stroke-opacity:1;stroke-dasharray:none" /></g><g
         transform="matrix(1,0,0,-1,0,272.10782)"
         id="g22"><path
           d="M 8.891,261.934 129.301,141.523"
           inkscape:connector-curvature="0"
           id="path24"
           style="fill:none;stroke:#000000;stroke-width:0.80000001;stroke-linecap:butt;stroke-linejoin:miter;stroke-miterlimit:4;stroke-opacity:1;stroke-dasharray:none" /></g><g
         transform="matrix(-1,-1,-1,1,0,272.10782)"
         id="g26"><path
           d="m 11.768,-135.412 2.261,-2.262 -7.918,2.262 7.92,2.264 -2.263,-2.264 z"
           inkscape:connector-curvature="0"
           id="path28"
           style="fill:#000000;fill-opacity:1;fill-rule:evenodd;stroke:#000000;stroke-width:0.56568497;stroke-linecap:butt;stroke-linejoin:miter;stroke-miterlimit:4;stroke-opacity:1;stroke-dasharray:none" /></g><path
         d="m 214.961,112.807 c -44.379,-1.672 -80.793,-9.984 -99.398,-33.133 -15.149,-19.086 -1.086,-29.515 17.777,-34.75 34.594,-7.359 62.902,-14.988 97.781,-8.886 18.195,4.136 10.961,15.46 8.082,25.05 -8.34,28.61 27.305,8.45 56.57,28.285 9.52,6.606 25.61,14.821 -27.476,21.008 -30.266,1.59 -33.945,4.043 -53.336,2.426 z"
         inkscape:connector-curvature="0"
         id="path30"
         style="fill:#000000;fill-opacity:0.21568598;fill-rule:evenodd;stroke:none" /><g
         transform="matrix(1,0,0,-1,0,272.10782)"
         id="g32"><path
           d="m 214.961,159.301 c -44.379,1.672 -80.793,9.984 -99.398,33.133 -15.149,19.086 -1.086,29.515 17.777,34.75 34.594,7.359 62.902,14.988 97.781,8.886 18.195,-4.136 10.961,-15.461 8.082,-25.05 -8.34,-28.61 27.305,-8.45 56.57,-28.286 9.52,-6.605 25.61,-14.82 -27.476,-21.007 -30.266,-1.59 -33.945,-4.043 -53.336,-2.426 z"
           inkscape:connector-curvature="0"
           id="path34"
           style="fill:none;stroke:#000000;stroke-width:0.80000001;stroke-linecap:butt;stroke-linejoin:miter;stroke-miterlimit:4;stroke-opacity:1;stroke-dasharray:none" /></g><g
         transform="matrix(1,0,0,-1,0,272.10782)"
         id="g36"><path
           d="m 16.969,266.781 0,-243.246"
           inkscape:connector-curvature="0"
           id="path38"
           style="fill:none;stroke:#000000;stroke-width:0.80000001;stroke-linecap:butt;stroke-linejoin:miter;stroke-miterlimit:4;stroke-opacity:1;stroke-dasharray:none" /></g><g
         transform="matrix(0,-1,-1,0,0,272.10782)"
         id="g40"><path
           d="m 31.535,-16.969 3.199,-3.203 -11.199,3.203 11.199,3.199 -3.199,-3.199 z"
           inkscape:connector-curvature="0"
           id="path42"
           style="fill:#000000;fill-opacity:1;fill-rule:evenodd;stroke:#000000;stroke-width:0.80000001;stroke-linecap:butt;stroke-linejoin:miter;stroke-miterlimit:4;stroke-opacity:1;stroke-dasharray:none" /></g><g
         transform="matrix(1,0,0,-1,0,272.10782)"
         id="g44"><path
           d="m 109.098,208.191 0,-115.562"
           inkscape:connector-curvature="0"
           id="path46"
           style="fill:none;stroke:#000000;stroke-width:0.80000001;stroke-linecap:butt;stroke-linejoin:miter;stroke-miterlimit:4;stroke-opacity:1;stroke-dasharray:none" /></g><g
         transform="matrix(1,0,0,-1,0,272.10782)"
         id="g48"><path
           d="m 305.875,173.039 0,-115.156"
           inkscape:connector-curvature="0"
           id="path50"
           style="fill:none;stroke:#000000;stroke-width:0.80000001;stroke-linecap:butt;stroke-linejoin:miter;stroke-miterlimit:4;stroke-opacity:1;stroke-dasharray:none" /></g><g
         transform="matrix(1,0,0,-1,0,272.10782)"
         id="g52"><path
           d="m 214.961,44.102 c -44.379,1.671 -80.793,9.98 -99.398,33.132 -15.149,19.082 -1.086,29.516 17.777,34.75 34.594,7.36 62.902,14.989 97.781,8.887 18.195,-4.137 10.961,-15.461 8.082,-25.051 -8.34,-28.613 27.305,-8.449 56.57,-28.285 9.52,-6.609 25.61,-14.82 -27.476,-21.012 -30.266,-1.585 -33.945,-4.039 -53.336,-2.421 z"
           inkscape:connector-curvature="0"
           id="path54"
           style="fill:none;stroke:#000000;stroke-width:0.80000001;stroke-linecap:butt;stroke-linejoin:miter;stroke-miterlimit:4;stroke-opacity:1;stroke-dasharray:none" /></g></g></g></svg>