<?xml version="1.0" encoding="UTF-8" standalone="no"?>
<!-- Created with Inkscape (http://www.inkscape.org/) -->

<svg
   xmlns:dc="http://purl.org/dc/elements/1.1/"
   xmlns:cc="http://creativecommons.org/ns#"
   xmlns:rdf="http://www.w3.org/1999/02/22-rdf-syntax-ns#"
   xmlns:svg="http://www.w3.org/2000/svg"
   xmlns="http://www.w3.org/2000/svg"
   xmlns:inkscape="http://www.inkscape.org/namespaces/inkscape"
   version="1.1"
   width="649.26666"
   height="368.27216"
   id="svg2"
   xml:space="preserve"><metadata
     id="metadata8"><rdf:RDF><cc:Work
         rdf:about=""><dc:format>image/svg+xml</dc:format><dc:type
           rdf:resource="http://purl.org/dc/dcmitype/StillImage" /></cc:Work></rdf:RDF></metadata><defs
     id="defs6" /><g
     transform="scale(1.25,1.25)"
     id="g10"><g
       id="g12"><g
         id="g14"><path
           d="m 307.203,193.723 0,-80.516 4.813,-4.527 c 8.644,-8.133 17.379,-18.375 23.316,-27.336 7.953,-12 13.125,-18.504 20.77,-26.11 6.25,-6.218 10.707,-9.82 16.625,-13.429 8.711,-5.317 18.527,-8.7 29.554,-10.188 3.778,-0.508 19.946,-0.941 22.258,-0.594 l 1.746,0.262 0,242.953 -119.082,0 0,-80.515 z"
           inkscape:connector-curvature="0"
           id="path16"
           style="fill:#696969;fill-opacity:1;fill-rule:nonzero;stroke:#696969;stroke-width:1.40647697;stroke-linecap:butt;stroke-linejoin:miter;stroke-miterlimit:4;stroke-opacity:1;stroke-dasharray:none" /></g><g
         id="g18"><path
           d="m 86.902,194.41 0,-79.832 3.176,-2.07 c 14.606,-9.52 33.106,-12.86 51.156,-9.238 13.895,2.789 29.985,10.851 44.024,22.058 13.265,10.594 25.508,16.305 39.703,18.527 5.441,0.852 15.594,0.844 21.398,-0.019 18.598,-2.758 37.536,-11.785 55.993,-26.691 l 4.105,-3.317 0,160.41 -219.555,0 0,-79.828 z"
           inkscape:connector-curvature="0"
           id="path20"
           style="fill:#9b9b9b;fill-opacity:1;fill-rule:nonzero;stroke:#9b9b9b;stroke-width:1.40647697;stroke-linecap:butt;stroke-linejoin:miter;stroke-miterlimit:4;stroke-opacity:1;stroke-dasharray:none" /></g><g
         id="g22"><path
           d="m 11.789,282.012 0,-265.844"
           inkscape:connector-curvature="0"
           id="path24"
           style="fill:none;stroke:#000000;stroke-width:0.80000001;stroke-linecap:butt;stroke-linejoin:miter;stroke-miterlimit:4;stroke-opacity:1;stroke-dasharray:none" /></g><g
         transform="matrix(0,1,-1,0,0,0)"
         id="g26"><path
           d="m 24.168,-11.789 3.199,-3.199 -11.199,3.199 11.199,3.199 -3.199,-3.199 z"
           inkscape:connector-curvature="0"
           id="path28"
           style="fill:#000000;fill-opacity:1;fill-rule:evenodd;stroke:#000000;stroke-width:0.853333;stroke-linecap:butt;stroke-linejoin:miter;stroke-miterlimit:4;stroke-opacity:1;stroke-dasharray:none" /></g><g
         id="g30"><path
           d="m 0,274.715 498.512,0"
           inkscape:connector-curvature="0"
           id="path32"
           style="fill:none;stroke:#000000;stroke-width:0.80024999;stroke-linecap:butt;stroke-linejoin:miter;stroke-miterlimit:4;stroke-opacity:1;stroke-dasharray:none" /></g><g
         transform="scale(-1,-1)"
         id="g34"><path
           d="m -490.512,-274.715 3.203,-3.199 -11.203,3.199 11.203,3.203 -3.203,-3.203 z"
           inkscape:connector-curvature="0"
           id="path36"
           style="fill:#000000;fill-opacity:1;fill-rule:evenodd;stroke:#000000;stroke-width:0.85360003;stroke-linecap:butt;stroke-linejoin:miter;stroke-miterlimit:4;stroke-opacity:1;stroke-dasharray:none" /></g></g></g></svg>