<?xml version="1.0" encoding="UTF-8" standalone="no"?>
<!-- Created with Inkscape (http://www.inkscape.org/) -->

<svg
   xmlns:dc="http://purl.org/dc/elements/1.1/"
   xmlns:cc="http://creativecommons.org/ns#"
   xmlns:rdf="http://www.w3.org/1999/02/22-rdf-syntax-ns#"
   xmlns:svg="http://www.w3.org/2000/svg"
   xmlns="http://www.w3.org/2000/svg"
   xmlns:inkscape="http://www.inkscape.org/namespaces/inkscape"
   version="1.1"
   width="485.15576"
   height="496.12653"
   id="svg2"
   xml:space="preserve"><metadata
     id="metadata8"><rdf:RDF><cc:Work
         rdf:about=""><dc:format>image/svg+xml</dc:format><dc:type
           rdf:resource="http://purl.org/dc/dcmitype/StillImage" /></cc:Work></rdf:RDF></metadata><defs
     id="defs6"><clipPath
       id="clipPath20"><path
         d="M 0,0 389,0 389,397 0,397 0,0 z"
         inkscape:connector-curvature="0"
         id="path22" /></clipPath><clipPath
       id="clipPath32"><path
         d="M 0,0 389,0 389,397 0,397 0,0 z"
         inkscape:connector-curvature="0"
         id="path34" /></clipPath><clipPath
       id="clipPath44"><path
         d="M 0,8 389,8 389,397 0,397 0,8 z"
         inkscape:connector-curvature="0"
         id="path46" /></clipPath><clipPath
       id="clipPath54"><path
         d="m 0,397 388.563,0 0,-389 L 0,8 0,397 z"
         inkscape:connector-curvature="0"
         id="path56" /></clipPath><clipPath
       id="clipPath64"><path
         d="m 0,29 389,0 0,368 L 0,397 0,29 z"
         inkscape:connector-curvature="0"
         id="path66" /></clipPath><clipPath
       id="clipPath74"><path
         d="M 0,397 389,397 389,29 0,29 0,397 z"
         inkscape:connector-curvature="0"
         id="path76" /></clipPath><clipPath
       id="clipPath84"><path
         d="m 0,151 389,0 0,154 -389,0 0,-154 z"
         inkscape:connector-curvature="0"
         id="path86" /></clipPath><clipPath
       id="clipPath96"><path
         d="m 0,397 388.563,0 0,-389 L 0,8 0,397 z"
         inkscape:connector-curvature="0"
         id="path98" /></clipPath><clipPath
       id="clipPath106"><path
         d="M 0,9 388,9 388,31 0,31 0,9 z"
         inkscape:connector-curvature="0"
         id="path108" /></clipPath><clipPath
       id="clipPath118"><path
         d="m 284.563,24 13,0 0,-15 -13,0 0,15 z"
         inkscape:connector-curvature="0"
         id="path120" /></clipPath><clipPath
       id="clipPath128"><path
         d="m 288,11 7,0 0,7 -7,0 0,-7 z"
         inkscape:connector-curvature="0"
         id="path130" /></clipPath><clipPath
       id="clipPath142"><path
         d="m 170,30 25,0 0,367 -25,0 0,-367 z"
         inkscape:connector-curvature="0"
         id="path144" /></clipPath><clipPath
       id="clipPath154"><path
         d="m 170.563,221 13,0 0,-15 -13,0 0,15 z"
         inkscape:connector-curvature="0"
         id="path156" /></clipPath><clipPath
       id="clipPath164"><path
         d="m 173,206 8,0 0,9 -8,0 0,-9 z"
         inkscape:connector-curvature="0"
         id="path166" /></clipPath></defs><g
     transform="matrix(1.25,0,0,-1.25,0,496.12652)"
     id="g10"><g
       id="g12"><g
         transform="translate(0,-0.0987854)"
         id="g14"><g
           id="g16"><g
             clip-path="url(#clipPath20)"
             id="g18"><g
               id="g24"><g
                 id="g26"><g
                   id="g28"><g
                     clip-path="url(#clipPath32)"
                     id="g30"><g
                       id="g36"><g
                         id="g38"><g
                           id="g40"><g
                             clip-path="url(#clipPath44)"
                             id="g42"><g
                               id="g48" /><g
                               id="g50"><g
                                 clip-path="url(#clipPath54)"
                                 id="g52"><g
                                   id="g58"><g
                                   id="g60"><g
                                   clip-path="url(#clipPath64)"
                                   id="g62"><g
                                   id="g68" /><g
                                   id="g70"><g
                                   clip-path="url(#clipPath74)"
                                   id="g72"><g
                                   id="g78"><g
                                   id="g80"><g
                                   clip-path="url(#clipPath84)"
                                   id="g82"><g
                                   id="g88"><path
                                   d="m 0.563,303.551 2.031,-2.301 1.777,-2 1.992,-2.238 2,-2.25 1.989,-2.231 1.851,-2.07 1.918,-2.133 1.981,-2.207 1.972,-2.191 2.028,-2.239 1.789,-1.98 2.023,-2.211 2.02,-2.219 1.949,-2.14 1.758,-1.93 2.113,-2.281 1.777,-1.942 2.071,-2.238 1.839,-1.98 2.012,-2.161 1.918,-2.05 2,-2.129 1.84,-1.95 1.98,-2.101 2.063,-2.168 1.789,-1.883 1.93,-2.019 2,-2.079 1.961,-2.019 1.89,-1.949 2.098,-2.16 1.891,-1.93 2.011,-2.043 1.828,-1.84 2,-2.008 1.871,-1.883 1.969,-1.937 1.922,-1.902 2.008,-1.969 1.93,-1.879 1.98,-1.922 1.969,-1.879 1.801,-1.719 2.07,-1.953 1.851,-1.738 1.969,-1.828 1.891,-1.742 2.09,-1.918 1.82,-1.641 2.059,-1.851 1.878,-1.661 2.051,-1.8 1.77,-1.539 2.023,-1.731 1.949,-1.66 1.95,-1.629 1.941,-1.602 1.859,-1.519 2.02,-1.629 1.918,-1.52 2.019,-1.57 1.833,-1.41 2.019,-1.531 1.941,-1.43 1.93,-1.41 2.02,-1.438 1.859,-1.3 1.898,-1.301 2.102,-1.41 1.91,-1.239 1.942,-1.242 1.98,-1.219 1.816,-1.101 1.942,-1.141 1.93,-1.09 2.062,-1.128 1.809,-0.969 2.101,-1.071 1.887,-0.929 1.871,-0.879 2.02,-0.91 2.019,-0.871 1.84,-0.75 1.953,-0.75 1.91,-0.7 2.059,-0.711 1.789,-0.57 2.051,-0.609 1.929,-0.52 1.911,-0.48 1.917,-0.43 1.954,-0.402 2.07,-0.36 1.887,-0.289 1.871,-0.23 2,-0.211 2,-0.149 1.789,-0.089 2.133,-0.051 1.769,0 2.078,0.051 1.981,0.097 1.769,0.141 1.992,0.199 2.008,0.25 1.992,0.301 1.848,0.332 1.922,0.379 1.98,0.449 1.969,0.492 2.031,0.559 1.79,0.531 2.011,0.641 2.02,0.687 1.949,0.723 1.77,0.68 2.109,0.859 1.781,0.769 2.07,0.93 1.84,0.871 2.008,0.989 1.922,0.98 2,1.059 1.828,1.011 1.981,1.121 2.062,1.207 1.789,1.082 1.938,1.192 2,1.277 1.953,1.27 1.898,1.269 2.102,1.434 1.879,1.316 2.019,1.442 1.832,1.332 1.989,1.476 1.878,1.422 1.973,1.512 1.918,1.488 2.012,1.602 1.929,1.547 1.981,1.621 1.957,1.621 1.812,1.508 2.071,1.761 1.847,1.578 1.973,1.723 1.887,1.649 2.09,1.859 1.82,1.633 2.062,1.859 1.868,1.719 2.062,1.89 1.77,1.649 2.019,1.891 1.942,1.839 1.949,1.86 1.941,1.859 1.867,1.801 2.012,1.961 1.918,1.89 2.031,1.989 1.828,1.812 2.024,2.02 1.93,1.949 1.937,1.949 2.02,2.051 1.851,1.898 1.91,1.954 2.102,2.168 1.898,1.968 1.95,2.024 1.98,2.066 1.82,1.91 1.942,2.043 1.918,2.039 2.062,2.192 1.817,1.929 2.101,2.25 1.891,2.028 1.871,2.011 2.008,2.18 2.031,2.192 1.828,2 1.961,2.128 1.898,2.09 2.071,2.27 1.793,1.969 2.047,2.261 1.933,2.141 1.906,2.117 1.911,2.133 1.953,2.168 2.07,2.312 1.899,2.129 1.871,2.102 4,4.5 1.879,2.129"
                                   inkscape:connector-curvature="0"
                                   id="path90"
                                   style="fill:none;stroke:#78000e;stroke-width:1.5;stroke-linecap:butt;stroke-linejoin:round;stroke-miterlimit:10;stroke-opacity:1;stroke-dasharray:none" /></g></g></g></g></g></g></g></g></g></g></g></g></g></g></g><g
                       id="g92"><g
                         clip-path="url(#clipPath96)"
                         id="g94"><g
                           id="g100"><g
                             id="g102"><g
                               clip-path="url(#clipPath106)"
                               id="g104"><g
                                 id="g110"><path
                                   d="m 0.563,30 387,0"
                                   inkscape:connector-curvature="0"
                                   id="path112"
                                   style="fill:none;stroke:#000000;stroke-width:1;stroke-linecap:butt;stroke-linejoin:round;stroke-miterlimit:10;stroke-opacity:1;stroke-dasharray:none" /></g><g
                                 id="g114"><g
                                   clip-path="url(#clipPath118)"
                                   id="g116"><g
                                   id="g122"><g
                                   id="g124"><g
                                   clip-path="url(#clipPath128)"
                                   id="g126"><g
                                   id="g132"><path
                                   d="m 290.813,17.75 c 0,0 0.308,-0.328 0.468,-0.672 0,0 0.121,-0.219 0.371,-1.187 l 0.571,0.828 c 0,0 0.218,0.312 0.539,0.582 0,0 0.32,0.277 0.551,0.39 0,0 0.16,0.059 0.339,0.059 0,0 0.27,0 0.43,-0.148 0,0 0.172,-0.153 0.172,-0.352 0,0 0,-0.25 -0.102,-0.34 0,0 -0.172,-0.16 -0.398,-0.16 0,0 -0.141,0 -0.281,0.059 0,0 -0.301,0.101 -0.41,0.101 0,0 -0.161,0 -0.36,-0.18 0,0 -0.39,-0.32 -0.941,-1.281 l 0.519,-2.168 c 0,0 0.121,-0.5 0.199,-0.601 0,0 0.083,-0.102 0.172,-0.102 0,0 0.129,0 0.321,0.141 0,0 0.34,0.301 0.59,0.761 l 0.218,-0.101 c 0,0 -0.41,-0.75 -1.019,-1.25 0,0 -0.34,-0.289 -0.59,-0.289 0,0 -0.359,0 -0.559,0.41 0,0 -0.14,0.25 -0.55,2.129 0,0 -1,-1.719 -1.59,-2.207 0,0 -0.391,-0.332 -0.75,-0.332 0,0 -0.25,0 -0.469,0.191 0,0 -0.141,0.141 -0.141,0.379 0,0 0,0.199 0.141,0.34 0,0 0.137,0.141 0.34,0.141 0,0 0.199,0 0.418,-0.2 0,0 0.179,-0.14 0.269,-0.14 0,0 0.063,0 0.192,0.09 0,0 0.289,0.25 0.808,1.05 0,0 0.512,0.789 0.672,1.149 0,0 -0.39,1.551 -0.422,1.629 0,0 -0.14,0.422 -0.379,0.59 0,0 -0.23,0.171 -0.699,0.171 0,0 -0.14,0 -0.332,-0.011 l 0,0.23 1.692,0.301 z"
                                   inkscape:connector-curvature="0"
                                   id="path134"
                                   style="fill:#000000;fill-opacity:1;fill-rule:nonzero;stroke:none" /></g></g></g></g></g></g></g></g></g><g
                           id="g136"><g
                             id="g138"><g
                               clip-path="url(#clipPath142)"
                               id="g140"><g
                                 id="g146"><path
                                   d="m 194.063,30 0,367"
                                   inkscape:connector-curvature="0"
                                   id="path148"
                                   style="fill:none;stroke:#000000;stroke-width:1;stroke-linecap:butt;stroke-linejoin:round;stroke-miterlimit:10;stroke-opacity:1;stroke-dasharray:none" /></g><g
                                 id="g150"><g
                                   clip-path="url(#clipPath154)"
                                   id="g152"><g
                                   id="g158"><g
                                   id="g160"><g
                                   clip-path="url(#clipPath164)"
                                   id="g162"><g
                                   id="g168"><path
                                   d="m 176.641,214.75 c 0,0 0.222,-0.371 0.3,-0.699 0,0 0.071,-0.321 0.172,-1.25 l 0.258,-3.129 c 0,0 0.391,0.457 1.109,1.457 0,0 0.352,0.48 0.864,1.312 0,0 0.308,0.5 0.386,0.7 0,0 0.032,0.109 0.032,0.218 0,0 0,0.063 -0.039,0.11 0,0 -0.051,0.051 -0.243,0.109 0,0 -0.187,0.063 -0.296,0.223 0,0 -0.121,0.148 -0.121,0.371 0,0 0,0.25 0.148,0.418 0,0 0.152,0.16 0.383,0.16 0,0 0.277,0 0.48,-0.23 0,0 0.188,-0.239 0.188,-0.641 0,0 0,-0.5 -0.34,-1.149 0,0 -0.34,-0.652 -1.32,-1.98 0,0 -0.981,-1.328 -2.372,-2.91 0,0 -0.949,-1.07 -1.417,-1.36 0,0 -0.469,-0.289 -0.801,-0.289 0,0 -0.199,0 -0.348,0.149 0,0 -0.152,0.16 -0.152,0.351 0,0 0,0.25 0.211,0.45 0,0 0.218,0.199 0.449,0.199 0,0 0.121,0 0.219,-0.059 0,0 0.05,-0.031 0.113,-0.179 0,0 0.059,-0.153 0.109,-0.192 0,0 0.028,-0.031 0.078,-0.031 0,0 0.032,0 0.122,0.062 0,0 0.359,0.219 0.808,0.688 0,0 0.609,0.621 0.91,1.012 l -0.359,4.019 c 0,0 -0.078,1 -0.258,1.219 0,0 -0.184,0.211 -0.601,0.211 0,0 -0.141,0 -0.481,-0.039 l -0.051,0.23 1.86,0.469 z"
                                   inkscape:connector-curvature="0"
                                   id="path170"
                                   style="fill:#000000;fill-opacity:1;fill-rule:nonzero;stroke:none" /></g></g></g></g></g></g></g></g></g></g></g></g></g></g></g></g></g></g><path
         d="m 53.375,245.526 0,-215.41"
         inkscape:connector-curvature="0"
         id="path172"
         style="fill:none;stroke:#000000;stroke-width:0.80000001;stroke-linecap:butt;stroke-linejoin:miter;stroke-miterlimit:4;stroke-opacity:1;stroke-dasharray:3.2, 3.2;stroke-dashoffset:0" /></g></g></svg>