<?xml version="1.0" encoding="UTF-8" standalone="no"?>
<!-- Created with Inkscape (http://www.inkscape.org/) -->

<svg
   xmlns:dc="http://purl.org/dc/elements/1.1/"
   xmlns:cc="http://creativecommons.org/ns#"
   xmlns:rdf="http://www.w3.org/1999/02/22-rdf-syntax-ns#"
   xmlns:svg="http://www.w3.org/2000/svg"
   xmlns="http://www.w3.org/2000/svg"
   xmlns:inkscape="http://www.inkscape.org/namespaces/inkscape"
   version="1.1"
   width="482.73126"
   height="485.625"
   id="svg2"
   xml:space="preserve"><metadata
     id="metadata8"><rdf:RDF><cc:Work
         rdf:about=""><dc:format>image/svg+xml</dc:format><dc:type
           rdf:resource="http://purl.org/dc/dcmitype/StillImage" /></cc:Work></rdf:RDF></metadata><defs
     id="defs6"><clipPath
       id="clipPath20"><path
         d="M 0,0 387,0 387,389 0,389 0,0 z"
         inkscape:connector-curvature="0"
         id="path22" /></clipPath><clipPath
       id="clipPath32"><path
         d="M 0,0 387,0 387,389 0,389 0,0 z"
         inkscape:connector-curvature="0"
         id="path34" /></clipPath><clipPath
       id="clipPath44"><path
         d="M 0,0 387,0 387,389 0,389 0,0 z"
         inkscape:connector-curvature="0"
         id="path46" /></clipPath><clipPath
       id="clipPath54"><path
         d="m 0,389 386.449,0 0,-389 L 0,0 0,389 z"
         inkscape:connector-curvature="0"
         id="path56" /></clipPath><clipPath
       id="clipPath64"><path
         d="M 3,0 387,0 387,389 3,389 3,0 z"
         inkscape:connector-curvature="0"
         id="path66" /></clipPath><clipPath
       id="clipPath74"><path
         d="M 3.578,389 387,389 387,0.25 3.578,0.25 3.578,389 z"
         inkscape:connector-curvature="0"
         id="path76" /></clipPath><clipPath
       id="clipPath84"><path
         d="M 3,0 387,0 387,389 3,389 3,0 z"
         inkscape:connector-curvature="0"
         id="path86" /></clipPath><clipPath
       id="clipPath96"><path
         d="m 0,389 386.449,0 0,-389 L 0,0 0,389 z"
         inkscape:connector-curvature="0"
         id="path98" /></clipPath><clipPath
       id="clipPath106"><path
         d="m 0,244 386,0 0,24 -386,0 0,-24 z"
         inkscape:connector-curvature="0"
         id="path108" /></clipPath><clipPath
       id="clipPath120"><path
         d="m 0,260.25 5.449,0 0,-16 -5.449,0 0,16 z"
         inkscape:connector-curvature="0"
         id="path122" /></clipPath><clipPath
       id="clipPath130"><path
         d="m 0,251 10,0 0,2 -10,0 0,-2 z"
         inkscape:connector-curvature="0"
         id="path132" /></clipPath><clipPath
       id="clipPath144"><path
         d="M 8,1 383,1 383,389 8,389 8,1 z"
         inkscape:connector-curvature="0"
         id="path146" /></clipPath><clipPath
       id="clipPath198"><path
         d="m 93.449,69.25 8,0 0,-16 -8,0 0,16 z"
         inkscape:connector-curvature="0"
         id="path200" /></clipPath><clipPath
       id="clipPath208"><path
         d="m 96,60 10,0 0,2 -10,0 0,-2 z"
         inkscape:connector-curvature="0"
         id="path210" /></clipPath><clipPath
       id="clipPath222"><path
         d="m 93,56 34,0 0,82 -34,0 0,-82 z"
         inkscape:connector-curvature="0"
         id="path224" /></clipPath><clipPath
       id="clipPath236"><path
         d="m 93.449,137.25 8,0 0,-16 -8,0 0,16 z"
         inkscape:connector-curvature="0"
         id="path238" /></clipPath><clipPath
       id="clipPath246"><path
         d="m 96,128 10,0 0,2 -10,0 0,-2 z"
         inkscape:connector-curvature="0"
         id="path248" /></clipPath><clipPath
       id="clipPath260"><path
         d="m 93,124 34,0 0,83 -34,0 0,-83 z"
         inkscape:connector-curvature="0"
         id="path262" /></clipPath><clipPath
       id="clipPath274"><path
         d="m 93.449,206.25 8,0 0,-16 -8,0 0,16 z"
         inkscape:connector-curvature="0"
         id="path276" /></clipPath><clipPath
       id="clipPath284"><path
         d="m 96,197 10,0 0,2 -10,0 0,-2 z"
         inkscape:connector-curvature="0"
         id="path286" /></clipPath><clipPath
       id="clipPath298"><path
         d="m 103,26 24,0 0,345 -24,0 0,-345 z"
         inkscape:connector-curvature="0"
         id="path300" /></clipPath></defs><g
     transform="matrix(1.25,0,0,-1.25,0,485.625)"
     id="g10"><g
       id="g12"><g
         transform="translate(0,-0.5)"
         id="g14"><g
           id="g16"><g
             clip-path="url(#clipPath20)"
             id="g18"><g
               id="g24"><g
                 id="g26"><g
                   id="g28"><g
                     clip-path="url(#clipPath32)"
                     id="g30"><g
                       id="g36"><g
                         id="g38"><g
                           id="g40"><g
                             clip-path="url(#clipPath44)"
                             id="g42"><g
                               id="g48" /><g
                               id="g50"><g
                                 clip-path="url(#clipPath54)"
                                 id="g52"><g
                                   id="g58"><g
                                   id="g60"><g
                                   clip-path="url(#clipPath64)"
                                   id="g62"><g
                                   id="g68" /><g
                                   id="g70"><g
                                   clip-path="url(#clipPath74)"
                                   id="g72"><g
                                   id="g78"><g
                                   id="g80"><g
                                   clip-path="url(#clipPath84)"
                                   id="g82"><g
                                   id="g88"><path
                                   d="m 128.648,267.07 0.051,0.352 0.02,0.308 0,0.36 -0.02,0.379 -0.039,0.371 -0.07,0.351 -0.102,0.36 -0.117,0.359 -0.152,0.352 -0.18,0.347 -0.18,0.289 -0.23,0.301 -0.258,0.281 -0.269,0.231 -0.274,0.187 -0.328,0.172 -0.301,0.121 -0.359,0.079 -0.328,0.031 -0.371,-0.012 -0.36,-0.07 -0.383,-0.117 -0.347,-0.172 -0.371,-0.239 -0.379,-0.3 -0.313,-0.321 -0.328,-0.398 -0.32,-0.461 -0.281,-0.512 -0.25,-0.551 -0.239,-0.648 -0.179,-0.629 -0.161,-0.723 -0.089,-0.679 -0.071,-0.77 -0.011,-0.75 0.043,-0.801 0.089,-0.789 0.149,-0.828 0.199,-0.801 0.262,-0.8 0.32,-0.77 0.34,-0.68 0.461,-0.742 0.449,-0.617 0.539,-0.601 0.559,-0.508 0.679,-0.5 0.633,-0.352 0.739,-0.301 0.718,-0.179 0.813,-0.09 0.719,0.012 0.832,0.136 0.808,0.242 0.809,0.372 0.801,0.488 0.75,0.59 0.781,0.761 0.719,0.848 0.71,1.012 0.59,1.027 0.59,1.262 0.5,1.301 0.43,1.398 0.351,1.563 0.239,1.5 0.148,1.609 0.043,1.828 -0.062,1.691 -0.188,1.758 -0.312,1.801 -0.387,1.641 -0.543,1.73 -0.66,1.668 -0.84,1.723 -0.848,1.437 -1.121,1.563 -1.121,1.277 -1.211,1.141 -1.398,1.062 -1.52,0.891 -1.449,0.617 -1.621,0.461 -1.641,0.23 -1.828,0 -1.609,-0.23 -1.871,-0.52 -1.762,-0.761 -1.731,-1.008 -1.687,-1.281 -1.68,-1.571 -1.711,-1.961 -1.468,-2.058 -1.352,-2.27 -1.309,-2.679 -1.152,-2.922 -0.891,-2.809 -0.847,-3.551 -0.531,-3.129 -0.391,-3.82 -0.141,-3.769 0.102,-3.45 0.351,-3.941 0.629,-3.98 0.91,-3.961 1.09,-3.618 1.399,-3.671 1.722,-3.649 1.989,-3.473 2.332,-3.328 2.277,-2.711 2.813,-2.75 3.07,-2.39 3.168,-1.93 3.051,-1.379 3.789,-1.172 3.351,-0.547 4,-0.101 3.617,0.422 4.024,1.027 3.84,1.539 3.968,2.231 3.59,2.589 3.758,3.391 3.742,4.18 3.09,4.16 3.11,5.031 2.941,5.77 2.539,6.172 2.129,6.429 1.922,7.629 1.301,7.238 0.91,8.09 0.359,7.582 -0.141,8.5 -0.652,8.129 -1.25,8.571 -1.789,8.371 -2.5,8.66 -3.008,8.148 -3.691,8.063 -4.262,7.629 -4.437,6.589 -5.672,6.981 -5.59,5.641 -6.469,5.289 -6.629,4.289 -7.84,3.769 -7.132,2.36 -8.418,1.582 -7.93,0.359 -8.859,-0.852 -7.75,-1.82 -8.864,-3.34 -8.508,-4.527 -8.371,-5.832 L 54,364.77 46.488,356.711 38.781,346.691 31.93,335.879 25.34,323.25 20.012,310.75 14.891,295.84 10.859,280.559 7.75,264.449 5.57,246.828 4.578,230 l 0.063,-17.699 1.398,-19.922 2.512,-18.207 3.828,-18.621 5.23,-18.742 6.012,-16.887 7.66,-17.461 L 40.16,85.879 51.051,69.191 61.801,55.531 75.5,41.262 88.969,29.922 103.262,20.34 119.609,12.02 136.922,5.941 153.328,2.52 171.32,1.25 l 17.981,1.219 19.777,4.191 17.223,6.11 19.687,9.929 18.242,12.231 17.629,14.898 17.02,17.66 16.519,20.821 16.352,25.089 13.75,25.641 12.219,27.66 11.383,31.992 9.41,34.219 6.937,34.16"
                                   inkscape:connector-curvature="0"
                                   id="path90"
                                   style="fill:none;stroke:#78000e;stroke-width:1.5;stroke-linecap:butt;stroke-linejoin:round;stroke-miterlimit:10;stroke-opacity:1;stroke-dasharray:none" /></g></g></g></g></g></g></g></g></g></g></g></g></g></g></g><g
                       id="g92"><g
                         clip-path="url(#clipPath96)"
                         id="g94"><g
                           id="g100"><g
                             id="g102"><g
                               clip-path="url(#clipPath106)"
                               id="g104"><g
                                 id="g110"><path
                                   d="m 4.578,267.07 380.871,0"
                                   inkscape:connector-curvature="0"
                                   id="path112"
                                   style="fill:none;stroke:#000000;stroke-width:1;stroke-linecap:butt;stroke-linejoin:round;stroke-miterlimit:10;stroke-opacity:1;stroke-dasharray:none" /><path
                                   d="m 9.941,267.07 0,-4"
                                   inkscape:connector-curvature="0"
                                   id="path114"
                                   style="fill:none;stroke:#000000;stroke-width:0.80000001;stroke-linecap:butt;stroke-linejoin:round;stroke-miterlimit:10;stroke-opacity:1;stroke-dasharray:none" /></g><g
                                 id="g116"><g
                                   clip-path="url(#clipPath120)"
                                   id="g118"><g
                                   id="g124"><g
                                   id="g126"><g
                                   clip-path="url(#clipPath130)"
                                   id="g128"><g
                                   id="g134"><path
                                   d="m 0,252.141 9.898,0 0,-0.781 -9.898,0 0,0.781 z"
                                   inkscape:connector-curvature="0"
                                   id="path136"
                                   style="fill:#000000;fill-opacity:1;fill-rule:nonzero;stroke:none" /></g></g></g></g></g></g></g></g></g><g
                           id="g138"><g
                             id="g140"><g
                               clip-path="url(#clipPath144)"
                               id="g142"><g
                                 id="g148"><path
                                   d="m 13.969,257.191 -0.578,-1.25 -2.993,0 -0.648,-1.332 c 0,0 1.93,-0.3 3.078,-1.449 0,0 0.961,-0.988 0.961,-2.351 0,0 0,-0.778 -0.309,-1.438 0,0 -0.308,-0.672 -0.8,-1.141 0,0 -0.481,-0.46 -1.071,-0.75 0,0 -0.847,-0.402 -1.738,-0.402 0,0 -0.891,0 -1.293,0.301 0,0 -0.406,0.312 -0.406,0.672 0,0 0,0.199 0.168,0.359 0,0 0.172,0.149 0.422,0.149 0,0 0.187,0 0.328,-0.047 0,0 0.14,-0.063 0.488,-0.313 0,0 0.563,-0.371 1.121,-0.371 0,0 0.86,0 1.5,0.652 0,0 0.641,0.649 0.641,1.579 0,0 0,0.89 -0.578,1.671 0,0 -0.582,0.79 -1.59,1.211 0,0 -0.801,0.329 -2.172,0.387 l 1.898,3.863 3.571,0 z M 15.5,252.16 c 0,0 0,1.699 0.5,2.93 0,0 0.512,1.219 1.371,1.82 0,0 0.66,0.481 1.359,0.481 0,0 1.141,0 2.051,-1.172 0,0 1.141,-1.438 1.141,-3.91 0,0 0,-1.731 -0.5,-2.93 0,0 -0.5,-1.207 -1.274,-1.75 0,0 -0.777,-0.551 -1.5,-0.551 0,0 -1.418,0 -2.359,1.672 0,0 -0.789,1.422 -0.789,3.41 z m 1.43,-0.191 c 0,0 0,-2.047 0.5,-3.34 0,0 0.429,-1.098 1.25,-1.098 0,0 0.398,0 0.82,0.36 0,0 0.422,0.359 0.641,1.187 0,0 0.339,1.262 0.339,3.563 0,0 0,1.687 -0.359,2.828 0,0 -0.25,0.84 -0.672,1.191 0,0 -0.301,0.25 -0.73,0.25 0,0 -0.489,0 -0.879,-0.461 0,0 -0.531,-0.609 -0.719,-1.91 0,0 -0.191,-1.309 -0.191,-2.57 z"
                                   inkscape:connector-curvature="0"
                                   id="path150"
                                   style="fill:#000000;fill-opacity:1;fill-rule:nonzero;stroke:none" /><path
                                   d="m 126.328,267.07 0,-4"
                                   inkscape:connector-curvature="0"
                                   id="path152"
                                   style="fill:none;stroke:#000000;stroke-width:0.80000001;stroke-linecap:butt;stroke-linejoin:round;stroke-miterlimit:10;stroke-opacity:1;stroke-dasharray:none" /><path
                                   d="m 117,254.16 c 0,0 0,1.699 0.5,2.93 0,0 0.512,1.219 1.371,1.82 0,0 0.66,0.481 1.359,0.481 0,0 1.141,0 2.051,-1.172 0,0 1.141,-1.438 1.141,-3.91 0,0 0,-1.731 -0.5,-2.93 0,0 -0.5,-1.207 -1.274,-1.75 0,0 -0.777,-0.551 -1.5,-0.551 0,0 -1.418,0 -2.359,1.672 0,0 -0.789,1.422 -0.789,3.41 z m 1.43,-0.191 c 0,0 0,-2.047 0.5,-3.34 0,0 0.429,-1.098 1.25,-1.098 0,0 0.398,0 0.82,0.36 0,0 0.422,0.359 0.641,1.187 0,0 0.339,1.262 0.339,3.563 0,0 0,1.687 -0.359,2.828 0,0 -0.25,0.84 -0.672,1.191 0,0 -0.301,0.25 -0.73,0.25 0,0 -0.489,0 -0.879,-0.461 0,0 -0.531,-0.609 -0.719,-1.91 0,0 -0.191,-1.309 -0.191,-2.57 z"
                                   inkscape:connector-curvature="0"
                                   id="path154"
                                   style="fill:#000000;fill-opacity:1;fill-rule:nonzero;stroke:none" /><path
                                   d="m 242.711,267.07 0,-4"
                                   inkscape:connector-curvature="0"
                                   id="path156"
                                   style="fill:none;stroke:#000000;stroke-width:0.80000001;stroke-linecap:butt;stroke-linejoin:round;stroke-miterlimit:10;stroke-opacity:1;stroke-dasharray:none" /><path
                                   d="m 241.969,257.191 -0.578,-1.25 -2.993,0 -0.648,-1.332 c 0,0 1.93,-0.3 3.078,-1.449 0,0 0.961,-0.988 0.961,-2.351 0,0 0,-0.778 -0.309,-1.438 0,0 -0.308,-0.672 -0.8,-1.141 0,0 -0.481,-0.46 -1.071,-0.75 0,0 -0.847,-0.402 -1.738,-0.402 0,0 -0.891,0 -1.293,0.301 0,0 -0.406,0.312 -0.406,0.672 0,0 0,0.199 0.168,0.359 0,0 0.172,0.149 0.422,0.149 0,0 0.187,0 0.328,-0.047 0,0 0.14,-0.063 0.488,-0.313 0,0 0.563,-0.371 1.121,-0.371 0,0 0.86,0 1.5,0.652 0,0 0.641,0.649 0.641,1.579 0,0 0,0.89 -0.578,1.671 0,0 -0.582,0.79 -1.59,1.211 0,0 -0.801,0.329 -2.172,0.387 l 1.898,3.863 3.571,0 z m 1.531,-5.031 c 0,0 0,1.699 0.5,2.93 0,0 0.512,1.219 1.371,1.82 0,0 0.66,0.481 1.359,0.481 0,0 1.141,0 2.051,-1.172 0,0 1.141,-1.438 1.141,-3.91 0,0 0,-1.731 -0.5,-2.93 0,0 -0.5,-1.207 -1.274,-1.75 0,0 -0.777,-0.551 -1.5,-0.551 0,0 -1.418,0 -2.359,1.672 0,0 -0.789,1.422 -0.789,3.41 z m 1.43,-0.191 c 0,0 0,-2.047 0.5,-3.34 0,0 0.429,-1.098 1.25,-1.098 0,0 0.398,0 0.82,0.36 0,0 0.422,0.359 0.641,1.187 0,0 0.339,1.262 0.339,3.563 0,0 0,1.687 -0.359,2.828 0,0 -0.25,0.84 -0.672,1.191 0,0 -0.301,0.25 -0.73,0.25 0,0 -0.489,0 -0.879,-0.461 0,0 -0.531,-0.609 -0.719,-1.91 0,0 -0.191,-1.309 -0.191,-2.57 z"
                                   inkscape:connector-curvature="0"
                                   id="path158"
                                   style="fill:#000000;fill-opacity:1;fill-rule:nonzero;stroke:none" /><path
                                   d="m 359.102,267.07 0,-4"
                                   inkscape:connector-curvature="0"
                                   id="path160"
                                   style="fill:none;stroke:#000000;stroke-width:0.80000001;stroke-linecap:butt;stroke-linejoin:round;stroke-miterlimit:10;stroke-opacity:1;stroke-dasharray:none" /><path
                                   d="m 349.219,256.199 2.402,1.192 0.25,0 0,-8.391 c 0,0 0,-0.828 0.07,-1.039 0,0 0.071,-0.211 0.289,-0.32 0,0 0.219,-0.11 0.891,-0.121 l 0,-0.27 -3.73,0 0,0.27 c 0,0 0.699,0.011 0.898,0.121 0,0 0.211,0.109 0.289,0.289 0,0 0.07,0.179 0.07,1.07 l 0,5.359 c 0,0 0,1.09 -0.058,1.391 0,0 -0.059,0.23 -0.192,0.34 0,0 -0.136,0.109 -0.32,0.109 0,0 -0.289,0 -0.75,-0.219 l -0.109,0.219 z m 6.281,-4.039 c 0,0 0,1.699 0.5,2.93 0,0 0.512,1.219 1.371,1.82 0,0 0.66,0.481 1.359,0.481 0,0 1.141,0 2.051,-1.172 0,0 1.141,-1.438 1.141,-3.91 0,0 0,-1.731 -0.5,-2.93 0,0 -0.5,-1.207 -1.274,-1.75 0,0 -0.777,-0.551 -1.5,-0.551 0,0 -1.418,0 -2.359,1.672 0,0 -0.789,1.422 -0.789,3.41 z m 1.43,-0.191 c 0,0 0,-2.047 0.5,-3.34 0,0 0.429,-1.098 1.25,-1.098 0,0 0.398,0 0.82,0.36 0,0 0.422,0.359 0.641,1.187 0,0 0.339,1.262 0.339,3.563 0,0 0,1.687 -0.359,2.828 0,0 -0.25,0.84 -0.672,1.191 0,0 -0.301,0.25 -0.73,0.25 0,0 -0.489,0 -0.879,-0.461 0,0 -0.531,-0.609 -0.719,-1.91 0,0 -0.191,-1.309 -0.191,-2.57 z m 6.07,0.191 c 0,0 0,1.699 0.5,2.93 0,0 0.512,1.219 1.371,1.82 0,0 0.66,0.481 1.359,0.481 0,0 1.141,0 2.051,-1.172 0,0 1.141,-1.438 1.141,-3.91 0,0 0,-1.731 -0.5,-2.93 0,0 -0.5,-1.207 -1.274,-1.75 0,0 -0.777,-0.551 -1.5,-0.551 0,0 -1.418,0 -2.359,1.672 0,0 -0.789,1.422 -0.789,3.41 z m 1.43,-0.191 c 0,0 0,-2.047 0.5,-3.34 0,0 0.429,-1.098 1.25,-1.098 0,0 0.398,0 0.82,0.36 0,0 0.422,0.359 0.641,1.187 0,0 0.339,1.262 0.339,3.563 0,0 0,1.687 -0.359,2.828 0,0 -0.25,0.84 -0.672,1.191 0,0 -0.301,0.25 -0.73,0.25 0,0 -0.489,0 -0.879,-0.461 0,0 -0.531,-0.609 -0.719,-1.91 0,0 -0.191,-1.309 -0.191,-2.57 z"
                                   inkscape:connector-curvature="0"
                                   id="path162"
                                   style="fill:#000000;fill-opacity:1;fill-rule:nonzero;stroke:none" /><path
                                   d="m 33.211,267.07 0,-2"
                                   inkscape:connector-curvature="0"
                                   id="path164"
                                   style="fill:none;stroke:#000000;stroke-width:0.80000001;stroke-linecap:butt;stroke-linejoin:round;stroke-miterlimit:10;stroke-opacity:1;stroke-dasharray:none" /><path
                                   d="m 56.488,267.07 0,-2"
                                   inkscape:connector-curvature="0"
                                   id="path166"
                                   style="fill:none;stroke:#000000;stroke-width:0.80000001;stroke-linecap:butt;stroke-linejoin:round;stroke-miterlimit:10;stroke-opacity:1;stroke-dasharray:none" /><path
                                   d="m 79.77,267.07 0,-2"
                                   inkscape:connector-curvature="0"
                                   id="path168"
                                   style="fill:none;stroke:#000000;stroke-width:0.80000001;stroke-linecap:butt;stroke-linejoin:round;stroke-miterlimit:10;stroke-opacity:1;stroke-dasharray:none" /><path
                                   d="m 103.051,267.07 0,-2"
                                   inkscape:connector-curvature="0"
                                   id="path170"
                                   style="fill:none;stroke:#000000;stroke-width:0.80000001;stroke-linecap:butt;stroke-linejoin:round;stroke-miterlimit:10;stroke-opacity:1;stroke-dasharray:none" /><path
                                   d="m 149.602,267.07 0,-2"
                                   inkscape:connector-curvature="0"
                                   id="path172"
                                   style="fill:none;stroke:#000000;stroke-width:0.80000001;stroke-linecap:butt;stroke-linejoin:round;stroke-miterlimit:10;stroke-opacity:1;stroke-dasharray:none" /><path
                                   d="m 172.879,267.07 0,-2"
                                   inkscape:connector-curvature="0"
                                   id="path174"
                                   style="fill:none;stroke:#000000;stroke-width:0.80000001;stroke-linecap:butt;stroke-linejoin:round;stroke-miterlimit:10;stroke-opacity:1;stroke-dasharray:none" /><path
                                   d="m 196.16,267.07 0,-2"
                                   inkscape:connector-curvature="0"
                                   id="path176"
                                   style="fill:none;stroke:#000000;stroke-width:0.80000001;stroke-linecap:butt;stroke-linejoin:round;stroke-miterlimit:10;stroke-opacity:1;stroke-dasharray:none" /><path
                                   d="m 219.441,267.07 0,-2"
                                   inkscape:connector-curvature="0"
                                   id="path178"
                                   style="fill:none;stroke:#000000;stroke-width:0.80000001;stroke-linecap:butt;stroke-linejoin:round;stroke-miterlimit:10;stroke-opacity:1;stroke-dasharray:none" /><path
                                   d="m 265.988,267.07 0,-2"
                                   inkscape:connector-curvature="0"
                                   id="path180"
                                   style="fill:none;stroke:#000000;stroke-width:0.80000001;stroke-linecap:butt;stroke-linejoin:round;stroke-miterlimit:10;stroke-opacity:1;stroke-dasharray:none" /><path
                                   d="m 289.27,267.07 0,-2"
                                   inkscape:connector-curvature="0"
                                   id="path182"
                                   style="fill:none;stroke:#000000;stroke-width:0.80000001;stroke-linecap:butt;stroke-linejoin:round;stroke-miterlimit:10;stroke-opacity:1;stroke-dasharray:none" /><path
                                   d="m 312.551,267.07 0,-2"
                                   inkscape:connector-curvature="0"
                                   id="path184"
                                   style="fill:none;stroke:#000000;stroke-width:0.80000001;stroke-linecap:butt;stroke-linejoin:round;stroke-miterlimit:10;stroke-opacity:1;stroke-dasharray:none" /><path
                                   d="m 335.828,267.07 0,-2"
                                   inkscape:connector-curvature="0"
                                   id="path186"
                                   style="fill:none;stroke:#000000;stroke-width:0.80000001;stroke-linecap:butt;stroke-linejoin:round;stroke-miterlimit:10;stroke-opacity:1;stroke-dasharray:none" /><path
                                   d="m 382.379,267.07 0,-2"
                                   inkscape:connector-curvature="0"
                                   id="path188"
                                   style="fill:none;stroke:#000000;stroke-width:0.80000001;stroke-linecap:butt;stroke-linejoin:round;stroke-miterlimit:10;stroke-opacity:1;stroke-dasharray:none" /><path
                                   d="m 126.328,1.25 0,387"
                                   inkscape:connector-curvature="0"
                                   id="path190"
                                   style="fill:none;stroke:#000000;stroke-width:1;stroke-linecap:butt;stroke-linejoin:round;stroke-miterlimit:10;stroke-opacity:1;stroke-dasharray:none" /><path
                                   d="m 126.328,61.34 -4,0"
                                   inkscape:connector-curvature="0"
                                   id="path192"
                                   style="fill:none;stroke:#000000;stroke-width:0.80000001;stroke-linecap:butt;stroke-linejoin:round;stroke-miterlimit:10;stroke-opacity:1;stroke-dasharray:none" /></g><g
                                 id="g194"><g
                                   clip-path="url(#clipPath198)"
                                   id="g196"><g
                                   id="g202"><g
                                   id="g204"><g
                                   clip-path="url(#clipPath208)"
                                   id="g206"><g
                                   id="g212"><path
                                   d="m 96,61.141 9.898,0 0,-0.781 -9.898,0 0,0.781 z"
                                   inkscape:connector-curvature="0"
                                   id="path214"
                                   style="fill:#000000;fill-opacity:1;fill-rule:nonzero;stroke:none" /></g></g></g></g></g></g></g></g></g><g
                           id="g216"><g
                             id="g218"><g
                               clip-path="url(#clipPath222)"
                               id="g220"><g
                                 id="g226"><path
                                   d="m 110.172,66.391 0,-0.282 c 0,0 -0.973,-0.089 -1.582,-0.379 0,0 -0.61,-0.289 -1.199,-0.89 0,0 -0.602,-0.59 -0.993,-1.32 0,0 -0.386,-0.719 -0.648,-1.719 0,0 1.039,0.719 2.109,0.719 0,0 1.012,0 1.762,-0.821 0,0 0.75,-0.82 0.75,-2.109 0,0 0,-1.25 -0.75,-2.281 0,0 -0.902,-1.231 -2.402,-1.231 0,0 -1.02,0 -1.739,0.672 0,0 -1.39,1.309 -1.39,3.391 0,0 0,1.339 0.539,2.539 0,0 0.543,1.199 1.531,2.129 0,0 0.988,0.941 1.899,1.261 0,0 0.91,0.321 1.691,0.321 l 0.422,0 z m -4.551,-5.121 c 0,0 -0.141,-1 -0.141,-1.61 0,0 0,-0.711 0.27,-1.531 0,0 0.262,-0.82 0.762,-1.301 0,0 0.379,-0.348 0.918,-0.348 0,0 0.629,0 1.14,0.61 0,0 0.508,0.601 0.508,1.711 0,0 0,1.25 -0.5,2.16 0,0 -0.5,0.918 -1.43,0.918 0,0 -0.277,0 -0.589,-0.117 0,0 -0.309,-0.121 -0.938,-0.492 z m 5.879,-0.11 c 0,0 0,1.699 0.5,2.93 0,0 0.512,1.219 1.371,1.82 0,0 0.66,0.481 1.359,0.481 0,0 1.141,0 2.051,-1.172 0,0 1.141,-1.438 1.141,-3.91 0,0 0,-1.731 -0.5,-2.93 0,0 -0.5,-1.207 -1.274,-1.75 0,0 -0.777,-0.551 -1.5,-0.551 0,0 -1.418,0 -2.359,1.672 0,0 -0.789,1.422 -0.789,3.41 z m 1.43,-0.191 c 0,0 0,-2.047 0.5,-3.34 0,0 0.429,-1.098 1.25,-1.098 0,0 0.398,0 0.82,0.36 0,0 0.422,0.359 0.641,1.187 0,0 0.339,1.262 0.339,3.563 0,0 0,1.687 -0.359,2.828 0,0 -0.25,0.84 -0.672,1.191 0,0 -0.301,0.25 -0.73,0.25 0,0 -0.489,0 -0.879,-0.461 0,0 -0.531,-0.609 -0.719,-1.91 0,0 -0.191,-1.309 -0.191,-2.57 z"
                                   inkscape:connector-curvature="0"
                                   id="path228"
                                   style="fill:#000000;fill-opacity:1;fill-rule:nonzero;stroke:none" /><path
                                   d="m 126.328,129.922 -4,0"
                                   inkscape:connector-curvature="0"
                                   id="path230"
                                   style="fill:none;stroke:#000000;stroke-width:0.80000001;stroke-linecap:butt;stroke-linejoin:round;stroke-miterlimit:10;stroke-opacity:1;stroke-dasharray:none" /></g><g
                                 id="g232"><g
                                   clip-path="url(#clipPath236)"
                                   id="g234"><g
                                   id="g240"><g
                                   id="g242"><g
                                   clip-path="url(#clipPath246)"
                                   id="g244"><g
                                   id="g250"><path
                                   d="m 96,129.141 9.898,0 0,-0.781 -9.898,0 0,0.781 z"
                                   inkscape:connector-curvature="0"
                                   id="path252"
                                   style="fill:#000000;fill-opacity:1;fill-rule:nonzero;stroke:none" /></g></g></g></g></g></g></g></g></g><g
                           id="g254"><g
                             id="g256"><g
                               clip-path="url(#clipPath260)"
                               id="g258"><g
                                 id="g264"><path
                                   d="m 110.43,127.91 0,-1.031 -1.34,0 0,-2.629 -1.199,0 0,2.629 -4.211,0 0,0.93 4.609,6.582 0.801,0 0,-6.481 1.34,0 z m -2.539,0 0,4.93 -3.493,-4.93 3.493,0 z m 3.609,1.25 c 0,0 0,1.699 0.5,2.93 0,0 0.512,1.219 1.371,1.82 0,0 0.66,0.481 1.359,0.481 0,0 1.141,0 2.051,-1.172 0,0 1.141,-1.438 1.141,-3.91 0,0 0,-1.731 -0.5,-2.93 0,0 -0.5,-1.207 -1.274,-1.75 0,0 -0.777,-0.551 -1.5,-0.551 0,0 -1.418,0 -2.359,1.672 0,0 -0.789,1.422 -0.789,3.41 z m 1.43,-0.191 c 0,0 0,-2.047 0.5,-3.34 0,0 0.429,-1.098 1.25,-1.098 0,0 0.398,0 0.82,0.36 0,0 0.422,0.359 0.641,1.187 0,0 0.339,1.262 0.339,3.563 0,0 0,1.687 -0.359,2.828 0,0 -0.25,0.84 -0.672,1.191 0,0 -0.301,0.25 -0.73,0.25 0,0 -0.489,0 -0.879,-0.461 0,0 -0.531,-0.609 -0.719,-1.91 0,0 -0.191,-1.309 -0.191,-2.57 z"
                                   inkscape:connector-curvature="0"
                                   id="path266"
                                   style="fill:#000000;fill-opacity:1;fill-rule:nonzero;stroke:none" /><path
                                   d="m 126.328,198.488 -4,0"
                                   inkscape:connector-curvature="0"
                                   id="path268"
                                   style="fill:none;stroke:#000000;stroke-width:0.80000001;stroke-linecap:butt;stroke-linejoin:round;stroke-miterlimit:10;stroke-opacity:1;stroke-dasharray:none" /></g><g
                                 id="g270"><g
                                   clip-path="url(#clipPath274)"
                                   id="g272"><g
                                   id="g278"><g
                                   id="g280"><g
                                   clip-path="url(#clipPath284)"
                                   id="g282"><g
                                   id="g288"><path
                                   d="m 96,198.141 9.898,0 0,-0.781 -9.898,0 0,0.781 z"
                                   inkscape:connector-curvature="0"
                                   id="path290"
                                   style="fill:#000000;fill-opacity:1;fill-rule:nonzero;stroke:none" /></g></g></g></g></g></g></g></g></g><g
                           id="g292"><g
                             id="g294"><g
                               clip-path="url(#clipPath298)"
                               id="g296"><g
                                 id="g302"><path
                                   d="m 110.328,195.16 -0.687,-1.91 -5.86,0 0,0.27 c 0,0 2.578,2.359 3.629,3.859 0,0 1.059,1.5 1.059,2.73 0,0 0,0.942 -0.578,1.551 0,0 -0.582,0.61 -1.391,0.61 0,0 -0.719,0 -1.309,-0.43 0,0 -0.582,-0.43 -0.863,-1.262 l -0.269,0 c 0,0 0.191,1.363 0.941,2.082 0,0 0.762,0.731 1.891,0.731 0,0 1.218,0 2.019,-0.782 0,0 0.809,-0.781 0.809,-1.828 0,0 0,-0.75 -0.348,-1.511 0,0 -0.543,-1.192 -1.762,-2.5 0,0 -1.82,-2 -2.281,-2.411 l 2.594,0 c 0,0 0.797,0 1.117,0.051 0,0 0.32,0.059 0.57,0.238 0,0 0.262,0.18 0.45,0.512 l 0.269,0 z m 1.172,3 c 0,0 0,1.699 0.5,2.93 0,0 0.512,1.219 1.371,1.82 0,0 0.66,0.481 1.359,0.481 0,0 1.141,0 2.051,-1.172 0,0 1.141,-1.438 1.141,-3.91 0,0 0,-1.731 -0.5,-2.93 0,0 -0.5,-1.207 -1.274,-1.75 0,0 -0.777,-0.551 -1.5,-0.551 0,0 -1.418,0 -2.359,1.672 0,0 -0.789,1.422 -0.789,3.41 z m 1.43,-0.191 c 0,0 0,-2.047 0.5,-3.34 0,0 0.429,-1.098 1.25,-1.098 0,0 0.398,0 0.82,0.36 0,0 0.422,0.359 0.641,1.187 0,0 0.339,1.262 0.339,3.563 0,0 0,1.687 -0.359,2.828 0,0 -0.25,0.84 -0.672,1.191 0,0 -0.301,0.25 -0.73,0.25 0,0 -0.489,0 -0.879,-0.461 0,0 -0.531,-0.609 -0.719,-1.91 0,0 -0.191,-1.309 -0.191,-2.57 z"
                                   inkscape:connector-curvature="0"
                                   id="path304"
                                   style="fill:#000000;fill-opacity:1;fill-rule:nonzero;stroke:none" /><path
                                   d="m 126.328,267.07 -4,0"
                                   inkscape:connector-curvature="0"
                                   id="path306"
                                   style="fill:none;stroke:#000000;stroke-width:0.80000001;stroke-linecap:butt;stroke-linejoin:round;stroke-miterlimit:10;stroke-opacity:1;stroke-dasharray:none" /><path
                                   d="m 126.328,335.641 -4,0"
                                   inkscape:connector-curvature="0"
                                   id="path308"
                                   style="fill:none;stroke:#000000;stroke-width:0.80000001;stroke-linecap:butt;stroke-linejoin:round;stroke-miterlimit:10;stroke-opacity:1;stroke-dasharray:none" /><path
                                   d="m 110.328,332.16 -0.687,-1.91 -5.86,0 0,0.27 c 0,0 2.578,2.359 3.629,3.859 0,0 1.059,1.5 1.059,2.73 0,0 0,0.942 -0.578,1.551 0,0 -0.582,0.61 -1.391,0.61 0,0 -0.719,0 -1.309,-0.43 0,0 -0.582,-0.43 -0.863,-1.262 l -0.269,0 c 0,0 0.191,1.363 0.941,2.082 0,0 0.762,0.731 1.891,0.731 0,0 1.218,0 2.019,-0.782 0,0 0.809,-0.781 0.809,-1.828 0,0 0,-0.75 -0.348,-1.511 0,0 -0.543,-1.192 -1.762,-2.5 0,0 -1.82,-2 -2.281,-2.411 l 2.594,0 c 0,0 0.797,0 1.117,0.051 0,0 0.32,0.059 0.57,0.238 0,0 0.262,0.18 0.45,0.512 l 0.269,0 z m 1.172,3 c 0,0 0,1.699 0.5,2.93 0,0 0.512,1.219 1.371,1.82 0,0 0.66,0.481 1.359,0.481 0,0 1.141,0 2.051,-1.172 0,0 1.141,-1.438 1.141,-3.91 0,0 0,-1.731 -0.5,-2.93 0,0 -0.5,-1.207 -1.274,-1.75 0,0 -0.777,-0.551 -1.5,-0.551 0,0 -1.418,0 -2.359,1.672 0,0 -0.789,1.422 -0.789,3.41 z m 1.43,-0.191 c 0,0 0,-2.047 0.5,-3.34 0,0 0.429,-1.098 1.25,-1.098 0,0 0.398,0 0.82,0.36 0,0 0.422,0.359 0.641,1.187 0,0 0.339,1.262 0.339,3.563 0,0 0,1.687 -0.359,2.828 0,0 -0.25,0.84 -0.672,1.191 0,0 -0.301,0.25 -0.73,0.25 0,0 -0.489,0 -0.879,-0.461 0,0 -0.531,-0.609 -0.719,-1.91 0,0 -0.191,-1.309 -0.191,-2.57 z"
                                   inkscape:connector-curvature="0"
                                   id="path310"
                                   style="fill:#000000;fill-opacity:1;fill-rule:nonzero;stroke:none" /><path
                                   d="m 126.328,27.059 -2,0"
                                   inkscape:connector-curvature="0"
                                   id="path312"
                                   style="fill:none;stroke:#000000;stroke-width:0.80000001;stroke-linecap:butt;stroke-linejoin:round;stroke-miterlimit:10;stroke-opacity:1;stroke-dasharray:none" /><path
                                   d="m 126.328,95.629 -2,0"
                                   inkscape:connector-curvature="0"
                                   id="path314"
                                   style="fill:none;stroke:#000000;stroke-width:0.80000001;stroke-linecap:butt;stroke-linejoin:round;stroke-miterlimit:10;stroke-opacity:1;stroke-dasharray:none" /><path
                                   d="m 126.328,164.211 -2,0"
                                   inkscape:connector-curvature="0"
                                   id="path316"
                                   style="fill:none;stroke:#000000;stroke-width:0.80000001;stroke-linecap:butt;stroke-linejoin:round;stroke-miterlimit:10;stroke-opacity:1;stroke-dasharray:none" /><path
                                   d="m 126.328,232.781 -2,0"
                                   inkscape:connector-curvature="0"
                                   id="path318"
                                   style="fill:none;stroke:#000000;stroke-width:0.80000001;stroke-linecap:butt;stroke-linejoin:round;stroke-miterlimit:10;stroke-opacity:1;stroke-dasharray:none" /><path
                                   d="m 126.328,301.352 -2,0"
                                   inkscape:connector-curvature="0"
                                   id="path320"
                                   style="fill:none;stroke:#000000;stroke-width:0.80000001;stroke-linecap:butt;stroke-linejoin:round;stroke-miterlimit:10;stroke-opacity:1;stroke-dasharray:none" /><path
                                   d="m 126.328,369.93 -2,0"
                                   inkscape:connector-curvature="0"
                                   id="path322"
                                   style="fill:none;stroke:#000000;stroke-width:0.80000001;stroke-linecap:butt;stroke-linejoin:round;stroke-miterlimit:10;stroke-opacity:1;stroke-dasharray:none" /></g></g></g></g></g></g></g></g></g></g></g></g></g></g></g></svg>