<?xml version="1.0" encoding="UTF-8" standalone="no"?>
<!-- Created with Inkscape (http://www.inkscape.org/) -->

<svg
   xmlns:dc="http://purl.org/dc/elements/1.1/"
   xmlns:cc="http://creativecommons.org/ns#"
   xmlns:rdf="http://www.w3.org/1999/02/22-rdf-syntax-ns#"
   xmlns:svg="http://www.w3.org/2000/svg"
   xmlns="http://www.w3.org/2000/svg"
   xmlns:inkscape="http://www.inkscape.org/namespaces/inkscape"
   version="1.1"
   width="433.75"
   height="380"
   id="svg2"
   xml:space="preserve"><metadata
     id="metadata8"><rdf:RDF><cc:Work
         rdf:about=""><dc:format>image/svg+xml</dc:format><dc:type
           rdf:resource="http://purl.org/dc/dcmitype/StillImage" /></cc:Work></rdf:RDF></metadata><defs
     id="defs6"><clipPath
       id="clipPath18"><path
         d="m 0.800781,8.39844 3464.699219,0 0,3025.20156 -3464.699219,0 0,-3025.20156 z"
         inkscape:connector-curvature="0"
         id="path20" /></clipPath></defs><g
     transform="matrix(1.25,0,0,-1.25,0,380)"
     id="g10"><g
       transform="scale(0.1,0.1)"
       id="g12"><g
         id="g14"><g
           clip-path="url(#clipPath18)"
           id="g16"><path
             d="m 129.199,830.102 32,1 32.102,1.097 32.097,1.199 32.102,1.301 32.102,1.5 32,1.602 32.097,1.699 32.102,2 32.097,2.102 L 450,846 l 32,2.602 32.102,2.796 32.097,3.204 32.102,3.398 32.097,3.801 32,4.199 32.102,4.602 32.102,5 32.097,5.5 32.102,6.097 32,6.602 32.097,7.301 L 867,909 l 32.102,8.602 32.097,9.398 32,10.301 32.102,11.097 32.099,12.102 32.1,13.102 32.1,14.097 32,15.301 32.1,16.4 32.1,17.7 32.1,18.9 32.1,20.3 32.1,21.5 32,22.9 32.1,24.3 32.1,25.5 32.1,26.9 32.1,28.2 32,29.4 32.1,30.5 32.1,31.5 32.1,32.5 32.1,33.3 32,34 32.1,34.5 32.1,34.8 32.1,34.9 32.1,35 32,34.8 32.1,34.5 32.1,34 32.1,33.3 32.1,32.4 32,31.6 32.1,30.5 32.1,29.4 32.1,28.2 32.1,26.9 32,25.5 32.1,24.3 32.1,22.9 32.1,21.5 32.1,20.3 32,18.9 32.1,17.7 32.1,16.4 32.1,15.3 32.1,14.1 32.1,13.1 32,12.1 32.1,11.1 32.1,10.3 32.1,9.4 32.1,8.6 32,7.9 32.1,7.3 32.1,6.6 32.1,6.1 32.1,5.5 32,5 32.1,4.6 32.1,4.2 32.1,3.8 32.1,3.4 32,3.2 32.1,2.8 32.1,2.6 32.1,2.4 32.1,2.1 32,2 32.1,1.7 32.1,1.6 32.1,1.5 32.1,1.3 32,1.2 32.1,1.1 32.1,1"
             inkscape:connector-curvature="0"
             id="path22"
             style="fill:none;stroke:#000000;stroke-width:7.5;stroke-linecap:round;stroke-linejoin:round;stroke-miterlimit:10;stroke-opacity:1;stroke-dasharray:none" /><path
             d="M 0.800781,1521 3465.5,1521"
             inkscape:connector-curvature="0"
             id="path24"
             style="fill:none;stroke:#000000;stroke-width:7.5;stroke-linecap:round;stroke-linejoin:round;stroke-miterlimit:10;stroke-opacity:1;stroke-dasharray:none" /><path
             d="m 1733.2,8.39844 0,3025.20156"
             inkscape:connector-curvature="0"
             id="path26"
             style="fill:none;stroke:#000000;stroke-width:7.5;stroke-linecap:round;stroke-linejoin:round;stroke-miterlimit:10;stroke-opacity:1;stroke-dasharray:none" /><g
             transform="scale(10,10)"
             id="g28"><text
               transform="matrix(1,0,0,-1,45,71.5699)"
               id="text30"><tspan
                 x="0 9.3439999"
                 y="0"
                 id="tspan32"
                 style="font-size:16px;font-variant:normal;font-weight:normal;writing-mode:lr-tb;fill:#000000;fill-opacity:1;fill-rule:nonzero;stroke:none;font-family:Helvetica;-inkscape-font-specification:Helvetica">−1</tspan><tspan
                 x="256.64001"
                 y="-154.06"
                 id="tspan34"
                 style="font-size:16px;font-variant:normal;font-weight:normal;writing-mode:lr-tb;fill:#000000;fill-opacity:1;fill-rule:nonzero;stroke:none;font-family:Helvetica;-inkscape-font-specification:Helvetica">1</tspan></text>
</g></g></g></g></g></svg>