<?xml version="1.0" encoding="UTF-8" standalone="no"?>
<!-- Created with Inkscape (http://www.inkscape.org/) -->

<svg
   xmlns:dc="http://purl.org/dc/elements/1.1/"
   xmlns:cc="http://creativecommons.org/ns#"
   xmlns:rdf="http://www.w3.org/1999/02/22-rdf-syntax-ns#"
   xmlns:svg="http://www.w3.org/2000/svg"
   xmlns="http://www.w3.org/2000/svg"
   xmlns:inkscape="http://www.inkscape.org/namespaces/inkscape"
   version="1.1"
   width="313.75"
   height="261.25"
   id="svg2"
   xml:space="preserve"><metadata
     id="metadata8"><rdf:RDF><cc:Work
         rdf:about=""><dc:format>image/svg+xml</dc:format><dc:type
           rdf:resource="http://purl.org/dc/dcmitype/StillImage" /></cc:Work></rdf:RDF></metadata><defs
     id="defs6" /><g
     transform="matrix(1.25,0,0,-1.25,0,261.25)"
     id="g10"><g
       transform="scale(0.1,0.1)"
       id="g12"><path
         d="m 0,0 2517.16,0 0,2090 L 0,2090 0,0 z"
         inkscape:connector-curvature="0"
         id="path14"
         style="fill:#ffffff;fill-opacity:1;fill-rule:nonzero;stroke:none" /><path
         d="M 697.402,237.578 C 664.285,370.055 584.461,486.129 472.609,564.457 l -325.207,-464.379 550,137.5 z"
         inkscape:connector-curvature="0"
         id="path16"
         style="fill:none;stroke:#000000;stroke-width:20;stroke-linecap:round;stroke-linejoin:round;stroke-miterlimit:10;stroke-opacity:1;stroke-dasharray:none" /><path
         d="M 147.402,100.078 1445.67,1953.94"
         inkscape:connector-curvature="0"
         id="path18"
         style="fill:none;stroke:#000000;stroke-width:20;stroke-linecap:round;stroke-linejoin:round;stroke-miterlimit:10;stroke-opacity:1;stroke-dasharray:none" /><path
         d="m 811.168,1047.91 10.91,-38.79"
         inkscape:connector-curvature="0"
         id="path20"
         style="fill:none;stroke:#000000;stroke-width:20;stroke-linecap:round;stroke-linejoin:round;stroke-miterlimit:10;stroke-opacity:1;stroke-dasharray:none" /><path
         d="m 811.168,1047.91 -40.172,-3.02"
         inkscape:connector-curvature="0"
         id="path22"
         style="fill:none;stroke:#000000;stroke-width:20;stroke-linecap:round;stroke-linejoin:round;stroke-miterlimit:10;stroke-opacity:1;stroke-dasharray:none" /><path
         d="M 147.402,100.078 2415.12,667.008"
         inkscape:connector-curvature="0"
         id="path24"
         style="fill:none;stroke:#000000;stroke-width:20;stroke-linecap:round;stroke-linejoin:round;stroke-miterlimit:10;stroke-opacity:1;stroke-dasharray:none" /><path
         d="m 1306.01,389.73 -17.19,-36.437"
         inkscape:connector-curvature="0"
         id="path26"
         style="fill:none;stroke:#000000;stroke-width:20;stroke-linecap:round;stroke-linejoin:round;stroke-miterlimit:10;stroke-opacity:1;stroke-dasharray:none" /><path
         d="m 1306.01,389.73 -32.31,24.063"
         inkscape:connector-curvature="0"
         id="path28"
         style="fill:none;stroke:#000000;stroke-width:20;stroke-linecap:round;stroke-linejoin:round;stroke-miterlimit:10;stroke-opacity:1;stroke-dasharray:none" /><path
         d="m 1332.99,616.074 0,-32.422 9.21,0 0,-7.351 -30.82,0 0,8.238 c -2.84,-3.426 -6,-5.953 -9.48,-7.574 -3.49,-1.625 -7.47,-2.438 -11.96,-2.438 -6.61,0 -11.69,1.774 -15.24,5.317 -3.54,3.543 -5.31,8.621 -5.31,15.234 0,7.324 2.54,12.785 7.62,16.387 5.08,3.605 12.76,5.406 23.03,5.406 l 11.34,0 0,3.809 c 0,5.254 -1.24,9.125 -3.72,11.605 -2.48,2.481 -6.32,3.719 -11.52,3.719 -4.31,0 -7.63,-0.871 -9.96,-2.613 -2.34,-1.743 -3.98,-4.621 -4.92,-8.637 l -6.91,0 0,13.906 c 3.84,1.36 7.84,2.395 12,3.102 4.17,0.707 8.52,1.062 13.07,1.062 11.58,0 20.06,-2.156 25.47,-6.465 5.4,-4.312 8.1,-11.074 8.1,-20.285 z m -21.61,-19.402 0,12.933 -8.06,0 c -4.02,0 -7.11,-1.089 -9.26,-3.277 -2.15,-2.183 -3.23,-5.344 -3.23,-9.476 0,-4.075 0.78,-7.133 2.35,-9.168 1.56,-2.039 3.94,-3.059 7.12,-3.059 3.31,0 5.99,1.094 8.02,3.277 2.04,2.188 3.06,5.11 3.06,8.77"
         inkscape:connector-curvature="0"
         id="path30"
         style="fill:#000000;fill-opacity:1;fill-rule:nonzero;stroke:none" /><path
         d="m 635.758,1161.92 0,80.08 -9.301,0 0,7.35 30.828,0 0,-38.27 c 1.828,3.37 4.293,5.88 7.395,7.53 3.101,1.66 6.925,2.48 11.472,2.48 9.211,0 16.461,-3.04 21.746,-9.12 5.286,-6.08 7.93,-14.41 7.93,-24.98 0,-10.63 -2.644,-18.99 -7.93,-25.07 -5.285,-6.08 -12.535,-9.12 -21.746,-9.12 -4.547,0 -8.371,0.82 -11.472,2.48 -3.102,1.65 -5.567,4.16 -7.395,7.52 l 0,-8.23 -30.828,0 0,7.35 9.301,0 z m 21.527,21.79 c 0,-7.56 0.973,-13.02 2.922,-16.39 1.949,-3.36 5.051,-5.05 9.301,-5.05 4.43,0 7.558,1.79 9.39,5.36 1.829,3.58 2.747,10.03 2.747,19.36 0,9.27 -0.918,15.69 -2.747,19.26 -1.832,3.58 -4.96,5.36 -9.39,5.36 -4.25,0 -7.352,-1.69 -9.301,-5.09 -1.949,-3.39 -2.922,-8.84 -2.922,-16.34 l 0,-6.47"
         inkscape:connector-curvature="0"
         id="path32"
         style="fill:#000000;fill-opacity:1;fill-rule:nonzero;stroke:none" /><path
         d="m 475.777,320.828 c 2.246,13.051 2.629,22.883 1.153,29.496 -1.594,7.324 -5.403,10.985 -11.426,10.985 -5.965,0 -11.191,-3.661 -15.68,-10.985 -4.015,-6.613 -7.441,-16.445 -10.277,-29.496 l 36.23,0 z m -1.238,-6.555 -36.32,0 c -2.184,-12.933 -2.539,-22.707 -1.063,-29.324 1.653,-7.379 5.434,-11.07 11.336,-11.07 5.965,0 11.223,3.691 15.77,11.07 4.015,6.617 7.441,16.391 10.277,29.324 z m -8.062,51.997 c 9.449,0 16.168,-4.446 20.152,-13.332 3.984,-8.887 4.547,-20.684 1.684,-35.387 -2.864,-14.707 -8.032,-26.504 -15.504,-35.391 -7.469,-8.887 -15.899,-13.332 -25.289,-13.332 -9.391,0 -16.079,4.445 -20.063,13.332 -3.988,8.887 -4.547,20.684 -1.684,35.391 2.864,14.703 8.016,26.5 15.457,35.387 7.442,8.886 15.856,13.332 25.247,13.332"
         inkscape:connector-curvature="0"
         id="path34"
         style="fill:#000000;fill-opacity:1;fill-rule:nonzero;stroke:none" /></g></g></svg>