<?xml version="1.0" encoding="UTF-8" standalone="no"?>
<!-- Created with Inkscape (http://www.inkscape.org/) -->

<svg
   xmlns:dc="http://purl.org/dc/elements/1.1/"
   xmlns:cc="http://creativecommons.org/ns#"
   xmlns:rdf="http://www.w3.org/1999/02/22-rdf-syntax-ns#"
   xmlns:svg="http://www.w3.org/2000/svg"
   xmlns="http://www.w3.org/2000/svg"
   xmlns:inkscape="http://www.inkscape.org/namespaces/inkscape"
   version="1.1"
   width="163.59625"
   height="129.63251"
   id="svg2"
   xml:space="preserve"><metadata
     id="metadata8"><rdf:RDF><cc:Work
         rdf:about=""><dc:format>image/svg+xml</dc:format><dc:type
           rdf:resource="http://purl.org/dc/dcmitype/StillImage" /></cc:Work></rdf:RDF></metadata><defs
     id="defs6"><clipPath
       id="clipPath20"><path
         d="m -67.35263,-47.21205 0,103.7077 130.87842,0 0,-103.7077 -130.87842,0 z"
         inkscape:connector-curvature="0"
         id="path22" /></clipPath></defs><g
     transform="matrix(1.25,0,0,-1.25,0,129.6325)"
     id="g10"><g
       transform="translate(67.352,47.211)"
       id="g12"><g
         id="g14"><g
           id="g16"><g
             clip-path="url(#clipPath20)"
             id="g18"><g
               id="g24"><path
                 d="m -67.35263,-142.91185 5.45314,12.37715 5.45316,12.37715 5.45313,12.37728 5.45316,12.37715 5.45313,12.37729 5.45315,12.37713 5.45314,12.37741 5.45316,12.37716 5.45314,12.37713 5.45315,12.37729 5.45313,12.37715 5.45314,12.37725 5.45312,12.37727 5.45314,12.37715 5.45316,12.37727 5.45312,12.37729 5.45316,12.37715 5.45314,12.37714 5.45316,12.37729 5.45314,12.37715 5.45315,12.3774 5.45313,12.37715 5.45315,12.37715 5.45314,12.37714"
                 inkscape:connector-curvature="0"
                 id="path26"
                 style="fill:none;stroke:#0000ff;stroke-width:0.3985;stroke-linecap:round;stroke-linejoin:round;stroke-miterlimit:10;stroke-opacity:1;stroke-dasharray:none" /></g><g
               id="g28"><path
                 d="m -67.35263,-22.5487 5.45314,1.09338 5.45316,1.0935 5.45313,1.09339 5.45316,1.09338 5.45313,1.09337 5.45315,1.09351 5.45314,1.0935 5.45316,1.0934 5.45314,1.09351 5.45315,1.09336 5.45313,1.09339 5.45314,1.09337 5.45312,1.09354 5.45314,1.09336 5.45316,1.09351 5.45312,1.09338 5.45316,1.09337 5.45314,1.09352 5.45316,1.09339 5.45314,1.09337 5.45315,1.09335 5.45313,1.09338 5.45315,1.09351 5.45314,1.0935"
                 inkscape:connector-curvature="0"
                 id="path30"
                 style="fill:none;stroke:#0000ff;stroke-width:0.3985;stroke-linecap:round;stroke-linejoin:round;stroke-miterlimit:10;stroke-opacity:1;stroke-dasharray:none" /></g><g
               id="g32"><path
                 d="m 3.5957,18.12224 25.8286,5.17909"
                 inkscape:connector-curvature="0"
                 id="path34"
                 style="fill:none;stroke:#0000ff;stroke-width:0.3985;stroke-linecap:round;stroke-linejoin:round;stroke-miterlimit:10;stroke-opacity:1;stroke-dasharray:2.98883, 2.98883;stroke-dashoffset:0" /></g><g
               id="g36"><path
                 d="M 16.64412,-5.7063 29.4243,23.30133"
                 inkscape:connector-curvature="0"
                 id="path38"
                 style="fill:none;stroke:#0000ff;stroke-width:0.3985;stroke-linecap:round;stroke-linejoin:round;stroke-miterlimit:10;stroke-opacity:1;stroke-dasharray:2.98883, 2.98883;stroke-dashoffset:0" /></g><g
               id="g40"><path
                 d="m -8.18817,-10.88525 c 0,0.55025 -0.44605,0.99627 -0.99628,0.99627 -0.55023,0 -0.99628,-0.44602 -0.99628,-0.99627 0,-0.55024 0.44605,-0.99628 0.99628,-0.99628 0.55023,0 0.99628,0.44604 0.99628,0.99628 z"
                 inkscape:connector-curvature="0"
                 id="path42"
                 style="fill:#ff0000;fill-opacity:1;fill-rule:nonzero;stroke:#ff0000;stroke-width:0.3985;stroke-linecap:round;stroke-linejoin:round;stroke-miterlimit:10;stroke-opacity:1;stroke-dasharray:none" /><g
                 id="g44"><g
                   id="g46" /><g
                   transform="translate(-5.001,-22.597)"
                   id="g48"><g
                     id="g50"><g
                       transform="translate(-62.351,-24.614)"
                       id="g52"><text
                         transform="matrix(1,0,0,-1,64.742,24.614)"
                         id="text54"><tspan
                           x="0"
                           y="0"
                           id="tspan56"
                           style="font-size:11.9552002px;font-variant:normal;font-weight:normal;writing-mode:lr-tb;fill:#000000;fill-opacity:1;fill-rule:nonzero;stroke:none;font-family:LMRoman12;-inkscape-font-specification:LMRoman12-Regular">0</tspan></text>
<g
                         transform="translate(62.351,24.614)"
                         id="g58" /></g></g><g
                     transform="translate(5.001,22.597)"
                     id="g60" /></g></g></g><g
               id="g62"><g
                 transform="translate(-6.172,48.715)"
                 id="g64"><g
                   id="g66"><g
                     transform="translate(-61.18,-95.926)"
                     id="g68"><text
                       transform="matrix(1,0,0,-1,63.571,95.926)"
                       id="text70"><tspan
                         x="0"
                         y="0"
                         id="tspan72"
                         style="font-size:11.9552002px;font-variant:normal;font-weight:normal;writing-mode:lr-tb;fill:#000000;fill-opacity:1;fill-rule:nonzero;stroke:none;font-family:LMMathItalic12;-inkscape-font-specification:LMMathItalic12-Regular">V</tspan></text>
<text
                       transform="matrix(1,0,0,-1,70.395,94.133)"
                       id="text74"><tspan
                         x="0"
                         y="0"
                         id="tspan76"
                         style="font-size:7.97009993px;font-variant:normal;font-weight:normal;writing-mode:lr-tb;fill:#000000;fill-opacity:1;fill-rule:nonzero;stroke:none;font-family:LMRoman8;-inkscape-font-specification:LMRoman8-Regular">2</tspan></text>
<g
                       transform="translate(61.18,95.926)"
                       id="g78" /></g></g><g
                   transform="translate(6.172,-48.715)"
                   id="g80" /></g></g><g
               id="g82"><g
                 transform="translate(-71.503,-17.489)"
                 id="g84"><g
                   id="g86"><g
                     transform="translate(4.151,-29.722)"
                     id="g88"><text
                       transform="matrix(1,0,0,-1,-1.76,29.722)"
                       id="text90"><tspan
                         x="0"
                         y="0"
                         id="tspan92"
                         style="font-size:11.9552002px;font-variant:normal;font-weight:normal;writing-mode:lr-tb;fill:#000000;fill-opacity:1;fill-rule:nonzero;stroke:none;font-family:LMMathItalic12;-inkscape-font-specification:LMMathItalic12-Regular">V</tspan></text>
<text
                       transform="matrix(1,0,0,-1,5.064,27.929)"
                       id="text94"><tspan
                         x="0"
                         y="0"
                         id="tspan96"
                         style="font-size:7.97009993px;font-variant:normal;font-weight:normal;writing-mode:lr-tb;fill:#000000;fill-opacity:1;fill-rule:nonzero;stroke:none;font-family:LMRoman8;-inkscape-font-specification:LMRoman8-Regular">1</tspan></text>
<g
                       transform="translate(-4.151,29.722)"
                       id="g98" /></g></g><g
                   transform="translate(71.503,17.489)"
                   id="g100" /></g></g><g
               id="g102"><path
                 d="m 30.42058,23.30133 c 0,0.55023 -0.44605,0.99627 -0.99628,0.99627 -0.55023,0 -0.99628,-0.44604 -0.99628,-0.99627 0,-0.55025 0.44605,-0.99628 0.99628,-0.99628 0.55023,0 0.99628,0.44603 0.99628,0.99628 z"
                 inkscape:connector-curvature="0"
                 id="path104"
                 style="fill:#ff0000;fill-opacity:1;fill-rule:nonzero;stroke:#ff0000;stroke-width:0.3985;stroke-linecap:round;stroke-linejoin:round;stroke-miterlimit:10;stroke-opacity:1;stroke-dasharray:none" /><g
                 id="g106"><g
                   id="g108" /><g
                   transform="translate(33.608,20.728)"
                   id="g110"><g
                     id="g112"><g
                       transform="translate(-100.96,-67.939)"
                       id="g114"><text
                         transform="matrix(1,0,0,-1,103.351,67.939)"
                         id="text116"><tspan
                           x="0"
                           y="0"
                           id="tspan118"
                           style="font-size:11.9552002px;font-variant:normal;font-weight:normal;writing-mode:lr-tb;fill:#000000;fill-opacity:1;fill-rule:nonzero;stroke:none;font-family:LMMathItalic12;-inkscape-font-specification:LMMathItalic12-Regular">v</tspan></text>
<g
                         transform="translate(100.96,67.939)"
                         id="g120" /></g></g><g
                     transform="translate(-33.608,-20.728)"
                     id="g122" /></g></g></g><g
               id="g124"><path
                 d="m 17.6404,-5.7063 c 0,0.55023 -0.44605,0.99628 -0.99628,0.99628 -0.55023,0 -0.99628,-0.44605 -0.99628,-0.99628 0,-0.55023 0.44605,-0.99628 0.99628,-0.99628 0.55023,0 0.99628,0.44605 0.99628,0.99628 z"
                 inkscape:connector-curvature="0"
                 id="path126"
                 style="fill:#ff0000;fill-opacity:1;fill-rule:nonzero;stroke:#ff0000;stroke-width:0.3985;stroke-linecap:round;stroke-linejoin:round;stroke-miterlimit:10;stroke-opacity:1;stroke-dasharray:none" /><g
                 id="g128"><g
                   id="g130" /><g
                   transform="translate(9.057,-15.037)"
                   id="g132"><g
                     id="g134"><g
                       transform="translate(-76.409,-32.174)"
                       id="g136"><text
                         transform="matrix(1,0,0,-1,78.8,32.174)"
                         id="text138"><tspan
                           x="0"
                           y="0"
                           id="tspan140"
                           style="font-size:11.9552002px;font-variant:normal;font-weight:normal;writing-mode:lr-tb;fill:#000000;fill-opacity:1;fill-rule:nonzero;stroke:none;font-family:LMMathItalic12;-inkscape-font-specification:LMMathItalic12-Regular">v</tspan></text>
<text
                         transform="matrix(1,0,0,-1,84.459,30.381)"
                         id="text142"><tspan
                           x="0"
                           y="0"
                           id="tspan144"
                           style="font-size:7.97009993px;font-variant:normal;font-weight:normal;writing-mode:lr-tb;fill:#000000;fill-opacity:1;fill-rule:nonzero;stroke:none;font-family:LMRoman8;-inkscape-font-specification:LMRoman8-Regular">1</tspan></text>
<g
                         transform="translate(76.409,32.174)"
                         id="g146" /></g></g><g
                     transform="translate(-9.057,15.037)"
                     id="g148" /></g></g></g><g
               id="g150"><path
                 d="m 4.59198,18.12224 c 0,0.55023 -0.44604,0.99628 -0.99628,0.99628 -0.55023,0 -0.99627,-0.44605 -0.99627,-0.99628 0,-0.55024 0.44604,-0.99628 0.99627,-0.99628 0.55024,0 0.99628,0.44604 0.99628,0.99628 z"
                 inkscape:connector-curvature="0"
                 id="path152"
                 style="fill:#ff0000;fill-opacity:1;fill-rule:nonzero;stroke:#ff0000;stroke-width:0.3985;stroke-linecap:round;stroke-linejoin:round;stroke-miterlimit:10;stroke-opacity:1;stroke-dasharray:none" /><g
                 id="g154"><g
                   id="g156" /><g
                   transform="translate(-15.762,16.445)"
                   id="g158"><g
                     id="g160"><g
                       transform="translate(-51.59,-63.656)"
                       id="g162"><text
                         transform="matrix(1,0,0,-1,53.981,63.656)"
                         id="text164"><tspan
                           x="0"
                           y="0"
                           id="tspan166"
                           style="font-size:11.9552002px;font-variant:normal;font-weight:normal;writing-mode:lr-tb;fill:#000000;fill-opacity:1;fill-rule:nonzero;stroke:none;font-family:LMMathItalic12;-inkscape-font-specification:LMMathItalic12-Regular">v</tspan></text>
<text
                         transform="matrix(1,0,0,-1,59.64,61.863)"
                         id="text168"><tspan
                           x="0"
                           y="0"
                           id="tspan170"
                           style="font-size:7.97009993px;font-variant:normal;font-weight:normal;writing-mode:lr-tb;fill:#000000;fill-opacity:1;fill-rule:nonzero;stroke:none;font-family:LMRoman8;-inkscape-font-specification:LMRoman8-Regular">2</tspan></text>
<g
                         transform="translate(51.59,63.656)"
                         id="g172" /></g></g><g
                     transform="translate(15.762,-16.445)"
                     id="g174" /></g></g></g></g></g></g></g></g></svg>